<?xml version="1.0" encoding="utf-8"?>
<!-- Generator: Adobe Illustrator 25.4.1, SVG Export Plug-In . SVG Version: 6.00 Build 0)  -->
<svg version="1.1" id="Layer_1" xmlns="http://www.w3.org/2000/svg" xmlns:xlink="http://www.w3.org/1999/xlink" x="0px" y="0px"
	 viewBox="0 0 500 500" style="enable-background:new 0 0 500 500;" xml:space="preserve">
<style type="text/css">
	.st0{fill:#92E3A9;}
	.st1{opacity:0.7;fill:#FFFFFF;enable-background:new    ;}
	.st2{fill:#263238;}
	.st3{fill:#FFFFFF;}
	.st4{opacity:0.2;fill:#FFFFFF;enable-background:new    ;}
	.st5{fill:#CCCCCC;}
	.st6{fill:#E5E5E5;}
	.st7{fill:#878787;}
	.st8{fill:#C2C2C2;}
</style>
<g id="freepik--background-simple--inject-2">
	<path class="st0" d="M475.8,277c-13.5,40.9-42.6,85.7-85.4,100.3c-64.6,22.1-70.4,75.1-187.7,74.7c-17.1,0-34.2-1.8-50.9-5.5
		c-8.2-1.8-16.2-4.2-24.1-7c-69.5-25.1-107.6-84.7-113-148.4c-7.2-83.8,49.9-126.1,87-151s79.5-117.4,194.9-118
		c17.6-0.2,35.2,1.7,52.4,5.6c39.2,9,79.5,30.7,103.7,63.7c1.8,2.5,3.5,5,5.2,7.6C490.5,149.9,494.2,221.3,475.8,277z"/>
	<path class="st1" d="M475.8,277c-13.5,40.9-42.6,85.7-85.4,100.3c-64.6,22.1-70.4,75.1-187.7,74.7c-17.1,0-34.2-1.8-50.9-5.5
		c-8.2-1.8-16.2-4.2-24.1-7c-69.5-25.1-107.6-84.7-113-148.4c-7.2-83.8,49.9-126.1,87-151s79.5-117.4,194.9-118
		c17.6-0.2,35.2,1.7,52.4,5.6c39.2,9,79.5,30.7,103.7,63.7c1.8,2.5,3.5,5,5.2,7.6C490.5,149.9,494.2,221.3,475.8,277z"/>
</g>
<g id="freepik--Floor--inject-2">
	<path class="st2" d="M475.9,458.3H30.3c-0.3,0-0.5-0.2-0.5-0.5s0.2-0.5,0.5-0.5h445.5c0.3,0,0.5,0.2,0.5,0.5
		S476.1,458.3,475.9,458.3z"/>
</g>
<g id="freepik--Asterisks--inject-2">
	<path class="st2" d="M41.8,209.7l-1.2-0.7l1.5-2.1l-2.3-0.9l0.5-1.3l2.2,1.1l-0.2-2.6h1.5l-0.2,2.6l2.2-1.1l0.5,1.3l-2.3,0.9
		l1.5,2.1l-1.2,0.7l-1.2-2.4L41.8,209.7z"/>
	<path class="st2" d="M49.4,209.7l-1.2-0.7l1.5-2.1l-2.2-0.9l0.5-1.3l2.2,1.1l-0.2-2.6h1.5l-0.2,2.6l2.2-1.1l0.5,1.3l-2.3,0.9
		l1.5,2.1l-1.2,0.7l-1.2-2.4L49.4,209.7z"/>
	<path class="st2" d="M57.1,209.7l-1.2-0.7l1.5-2.1l-2.3-0.9l0.5-1.3l2.2,1.1l-0.2-2.6h1.6l-0.2,2.6l2.2-1.1l0.5,1.3l-2.3,0.9
		l1.5,2.1l-1.2,0.7l-1.2-2.4L57.1,209.7z"/>
	<path class="st2" d="M64.7,209.7l-1.2-0.7l1.5-2.1l-2.3-0.9l0.5-1.3l2.2,1.1l-0.2-2.6h1.5l-0.2,2.6l2.2-1.1l0.5,1.3l-2.3,0.9
		l1.5,2.1l-1.2,0.7l-1.2-2.4L64.7,209.7z"/>
	<path class="st2" d="M72.3,209.7l-1.2-0.7l1.5-2.1l-2.3-0.9l0.5-1.3l2.2,1.2l-0.2-2.6h1.6l-0.2,2.6l2.2-1.1l0.5,1.3l-2.2,0.9
		L76,209l-1.2,0.7l-1.2-2.4L72.3,209.7z"/>
	<path class="st2" d="M79.9,209.7l-1.2-0.7l1.5-2.1L78,206l0.5-1.3l2.2,1.1l-0.2-2.6H82l-0.2,2.6l2.2-1.1l0.5,1.3l-2.3,0.9l1.5,2.1
		l-1.2,0.7l-1.2-2.4L79.9,209.7z"/>
	<path class="st2" d="M87.5,209.7l-1.2-0.7l1.5-2.1l-2.3-0.9l0.5-1.3l2.2,1.1l-0.2-2.6h1.6l-0.2,2.6l2.2-1.1L92,206l-2.3,0.9
		l1.5,2.1l-1.2,0.7l-1.2-2.4L87.5,209.7z"/>
	<path class="st2" d="M95.2,209.7l-1.2-0.7l1.5-2.1l-2.3-0.9l0.5-1.3l2.2,1.1l-0.2-2.6h1.6l-0.2,2.6l2.2-1.1l0.5,1.3l-2.3,0.9
		l1.5,2.1l-1.2,0.7l-1.2-2.4L95.2,209.7z"/>
	<path class="st2" d="M102.8,209.7l-1.2-0.7l1.5-2.1l-2.2-0.9l0.5-1.3l2.2,1.1l-0.2-2.6h1.6l-0.2,2.6l2.2-1.1l0.5,1.3l-2.3,0.9
		l1.5,2.1l-1.2,0.7l-1.2-2.4L102.8,209.7z"/>
	<path class="st2" d="M403.8,146.7l-1.2-0.7l1.5-2.1l-2.3-0.9l0.5-1.3l2.2,1.1l-0.2-2.6h1.5l-0.2,2.6l2.2-1.1l0.5,1.3l-2.2,0.9
		l1.5,2.1l-1.2,0.7l-1.2-2.4L403.8,146.7z"/>
	<path class="st2" d="M411.5,146.7l-1.2-0.7l1.5-2.1l-2.3-0.9l0.5-1.3l2.2,1.1l-0.2-2.6h1.5l-0.2,2.6l2.2-1.1l0.5,1.3l-2.3,0.9
		l1.5,2.1l-1.2,0.7l-1.2-2.4L411.5,146.7z"/>
	<path class="st2" d="M419.1,146.7l-1.2-0.7l1.5-2.1l-2.3-0.9l0.5-1.3l2.2,1.1l-0.2-2.6h1.5l-0.2,2.6l2.2-1.1l0.5,1.3l-2.3,0.9
		l1.5,2.1l-1.2,0.7l-1.2-2.4L419.1,146.7z"/>
	<path class="st2" d="M426.7,146.7l-1.2-0.7l1.5-2.1l-2.3-0.9l0.5-1.3l2.2,1.1l-0.2-2.6h1.5l-0.2,2.6l2.2-1.1l0.5,1.3l-2.3,0.9
		l1.5,2.1l-1.2,0.7l-1.2-2.4L426.7,146.7z"/>
	<path class="st2" d="M434.3,146.7l-1.2-0.7l1.5-2.1l-2.2-0.9l0.5-1.3l2.2,1.1l-0.2-2.6h1.5l-0.2,2.6l2.2-1.1l0.5,1.3l-2.3,0.9
		l1.5,2.1l-1.2,0.7l-1.2-2.4L434.3,146.7z"/>
	<path class="st2" d="M441.9,146.7l-1.2-0.7l1.5-2.1L440,143l0.5-1.3l2.2,1.1l-0.2-2.6h1.6l-0.2,2.6l2.2-1.1l0.5,1.3l-2.3,0.9
		l1.5,2.1l-1.2,0.7l-1.2-2.4L441.9,146.7z"/>
	<path class="st2" d="M449.5,146.7l-1.2-0.7l1.5-2.1l-2.3-0.9l0.5-1.3l2.2,1.1l-0.2-2.6h1.6l-0.2,2.6l2.2-1.1l0.5,1.3l-2.3,0.9
		l1.5,2.1l-1.2,0.7l-1.2-2.4L449.5,146.7z"/>
	<path class="st2" d="M457.2,146.7L456,146l1.5-2.1l-2.3-0.9l0.5-1.3l2.2,1.1l-0.2-2.6h1.5l-0.2,2.6l2.2-1.1l0.5,1.3l-2.3,0.9
		l1.5,2.1l-1.2,0.7l-1.2-2.4L457.2,146.7z"/>
	<path class="st2" d="M464.8,146.7l-1.2-0.7l1.5-2.1l-2.3-0.9l0.5-1.3l2.2,1.1l-0.2-2.6h1.5l-0.2,2.6l2.2-1.1l0.5,1.3l-2.2,0.9
		l1.5,2.1l-1.2,0.7l-1.2-2.4L464.8,146.7z"/>
</g>
<g id="freepik--user-icons--inject-2">
	<path class="st2" d="M73,183.1c-13.4,0-24.3-10.9-24.3-24.3c0-13.4,10.9-24.3,24.3-24.3c13.4,0,24.3,10.9,24.3,24.3
		C97.3,172.2,86.4,183.1,73,183.1z M73,135.5c-12.9,0-23.3,10.4-23.3,23.3c0,12.8,10.4,23.3,23.3,23.3c12.9,0.3,23.5-9.9,23.8-22.8
		s-9.9-23.5-22.8-23.8C73.6,135.5,73.3,135.5,73,135.5z"/>
	<path class="st2" d="M73,165.5c-5.8,0-10.4-4.7-10.4-10.4c0-5.8,4.7-10.4,10.4-10.4s10.4,4.7,10.4,10.4
		C83.4,160.8,78.8,165.5,73,165.5z M73,145.7c-5.2,0-9.4,4.2-9.4,9.4c0,5.2,4.2,9.4,9.4,9.4s9.4-4.2,9.4-9.4c0,0,0,0,0,0
		C82.4,149.9,78.2,145.7,73,145.7z"/>
	<path class="st2" d="M73,183.1c-5.4,0-10.7-1.8-15-5.2c-0.2-0.1-0.2-0.3-0.2-0.5c1.8-8.4,10.1-13.7,18.5-11.8
		c5.9,1.3,10.5,5.9,11.8,11.8c0,0.2,0,0.4-0.2,0.5C83.7,181.3,78.4,183.1,73,183.1z M58.9,177.3c4,3.1,9,4.8,14.1,4.8
		c5.1,0,10.1-1.7,14.1-4.8c-1.9-7.8-9.7-12.6-17.5-10.7C64.3,167.9,60.1,172,58.9,177.3z"/>
	<path class="st2" d="M440.7,428.7c-13.4,0-24.3-10.9-24.3-24.3c0-13.4,10.9-24.3,24.3-24.3s24.3,10.9,24.3,24.3
		C465,417.9,454.1,428.7,440.7,428.7z M440.7,381.2c-12.9,0-23.3,10.4-23.3,23.3c0,12.9,10.4,23.3,23.3,23.3
		c12.8,0,23.3-10.4,23.3-23.3C464,391.6,453.6,381.2,440.7,381.2z"/>
	<path class="st2" d="M440.7,411.2c-5.8,0-10.4-4.7-10.4-10.4c0-5.8,4.7-10.4,10.4-10.4c5.8,0,10.4,4.7,10.4,10.4l0,0
		C451.1,406.5,446.5,411.2,440.7,411.2z M440.7,391.3c-5.2,0-9.4,4.2-9.4,9.4c0,5.2,4.2,9.4,9.4,9.4c5.2,0,9.4-4.2,9.4-9.4l0,0
		C450.1,395.5,445.9,391.3,440.7,391.3z"/>
	<path class="st2" d="M440.7,428.7c-5.4,0-10.7-1.8-15-5.2c-0.2-0.1-0.2-0.3-0.2-0.5c1.8-8.4,10.1-13.7,18.5-11.8
		c5.9,1.3,10.5,5.9,11.8,11.8c0,0.2,0,0.4-0.2,0.5C451.4,426.9,446.1,428.7,440.7,428.7z M426.6,423c4,3.1,9,4.8,14.1,4.8
		c5.1,0,10.1-1.7,14.1-4.8c-1.9-7.8-9.7-12.6-17.5-10.7C432,413.6,427.8,417.7,426.6,423z"/>
</g>
<g id="freepik--Padlocks--inject-2">
	<path class="st2" d="M454.8,124.4h-39.2c-0.3,0-0.5-0.2-0.5-0.5V85.6c0-0.3,0.2-0.5,0.5-0.5h39.2c0.3,0,0.5,0.2,0.5,0.5v38.3
		C455.3,124.2,455,124.4,454.8,124.4z M416.1,123.4h38.2V86.1h-38.2L416.1,123.4z"/>
	<path class="st2" d="M453.8,86.1h-6.7v-9.3c0.2-6.6-5-12-11.6-12.2c-6.6-0.2-12,5-12.2,11.6c0,0.2,0,0.5,0,0.7v9.3h-6.7v-9.3
		c-0.2-10.3,7.9-18.8,18.2-19c10.3-0.2,18.8,7.9,19,18.2c0,0.3,0,0.6,0,0.9L453.8,86.1z M448.1,85.1h4.7v-8.3
		c0.2-9.7-7.5-17.8-17.2-18c-9.7-0.2-17.8,7.5-18,17.2c0,0.3,0,0.6,0,0.8v8.3h4.7v-8.3c-0.2-7.1,5.4-13.1,12.5-13.3
		c7.1-0.2,13.1,5.4,13.3,12.5c0,0.2,0,0.5,0,0.7L448.1,85.1z"/>
	<path class="st2" d="M436.8,114.1h-3.3c-0.3,0-0.5-0.2-0.5-0.5V105c-2.5-1.2-3.6-4.2-2.4-6.7c1.2-2.5,4.2-3.6,6.7-2.4
		c2.5,1.2,3.6,4.2,2.4,6.7c-0.5,1-1.3,1.9-2.4,2.4v8.6C437.3,113.9,437.1,114.1,436.8,114.1z M434.1,113.1h2.3v-8.4
		c0-0.2,0.1-0.4,0.3-0.5c2.1-0.8,3.1-3.1,2.3-5.2c-0.8-2.1-3.1-3.1-5.2-2.3s-3.1,3.1-2.3,5.2c0.4,1,1.2,1.9,2.3,2.3
		c0.2,0.1,0.3,0.3,0.3,0.5V113.1z"/>
	<path class="st2" d="M91.7,440.4H52.5c-0.3,0-0.5-0.2-0.5-0.5v-38.3c0-0.3,0.2-0.5,0.5-0.5h39.2c0.3,0,0.5,0.2,0.5,0.5v38.3
		C92.2,440.2,91.9,440.4,91.7,440.4C91.7,440.4,91.7,440.4,91.7,440.4z M53,439.4h38.2v-37.3H53V439.4z"/>
	<path class="st2" d="M90.7,402.1H84v-9.3c-0.2-6.6-5.7-11.7-12.2-11.6c-6.3,0.2-11.4,5.2-11.6,11.6v9.3h-6.7v-9.3
		c0.2-10.3,8.8-18.4,19-18.2c9.9,0.2,17.9,8.2,18.2,18.2L90.7,402.1z M85,401.1h4.7v-8.3c-0.2-9.7-8.3-17.4-18-17.2
		c-9.4,0.2-17,7.8-17.2,17.2v8.3h4.7v-8.3c0.2-7.1,6.1-12.7,13.3-12.5c6.8,0.2,12.3,5.7,12.5,12.5V401.1z"/>
	<path class="st2" d="M73.7,430h-3.3c-0.3,0-0.5-0.2-0.5-0.5V421c-1.7-0.8-2.9-2.6-2.9-4.5c0-2.8,2.2-5,5-5s5,2.2,5,5
		c0,1.9-1.1,3.7-2.9,4.5v8.6C74.2,429.8,74,430,73.7,430z M71,429h2.3v-8.4c0-0.2,0.1-0.4,0.3-0.5c2.1-0.8,3.1-3.1,2.3-5.2
		c-0.8-2.1-3.1-3.1-5.2-2.3c-2.1,0.8-3.1,3.1-2.3,5.2c0.4,1,1.2,1.9,2.3,2.3c0.2,0.1,0.3,0.3,0.3,0.5L71,429z"/>
</g>
<g id="freepik--Device--inject-2">
	<polygon class="st3" points="373.7,122.5 373.7,109.6 365.1,109.6 128.2,346.5 128.2,368 	"/>
	<polygon class="st3" points="128.2,176.8 128.2,261 279.6,109.6 195.4,109.6 	"/>
	<polygon class="st3" points="337.1,434.5 373.7,398 373.7,313.8 252.9,434.5 	"/>
	<path class="st2" d="M120.8,86.2h260.3c5.6,0,10.2,4.6,10.2,10.2v351.2c0,5.6-4.6,10.2-10.2,10.2H120.8c-5.6,0-10.2-4.6-10.2-10.2
		V96.4C110.6,90.8,115.1,86.2,120.8,86.2z"/>
	<rect x="128.2" y="109.6" class="st0" width="245.5" height="324.9"/>
	<polygon class="st4" points="110.6,143.2 110.6,247.2 271.5,86.2 167.5,86.2 	"/>
	<path class="st4" d="M391.3,98.6v-3.3c0-5-4.1-9.1-9.1-9.1l0,0h-5.1L110.6,352.8v26.5L391.3,98.6z"/>
	<polygon class="st4" points="391.3,438.8 391.3,334.9 268.3,457.8 372.3,457.8 	"/>
	<rect x="193.4" y="237.4" class="st3" width="115.1" height="19.5"/>
	<path class="st2" d="M308.5,257.4H193.4c-0.3,0-0.5-0.2-0.5-0.5v-19.5c0-0.3,0.2-0.5,0.5-0.5h115.1c0.3,0,0.5,0.2,0.5,0.5v19.5
		C309,257.2,308.8,257.4,308.5,257.4L308.5,257.4z M193.9,256.4H308v-18.5H193.9V256.4z"/>
	<rect x="193.4" y="273.7" class="st3" width="115.1" height="19.5"/>
	<path class="st2" d="M308.5,293.8H193.4c-0.3,0-0.5-0.2-0.5-0.5v-19.5c0-0.3,0.2-0.5,0.5-0.5h115.1c0.3,0,0.5,0.2,0.5,0.5v19.5
		C309,293.5,308.8,293.7,308.5,293.8z M193.9,292.8H308v-18.5H193.9V292.8z"/>
	<path class="st2" d="M224.4,310.3h53c2.7,0,4.8,2.2,4.8,4.8v9.8c0,2.7-2.2,4.8-4.8,4.8h-53c-2.7,0-4.8-2.2-4.8-4.8v-9.8
		C219.6,312.5,221.8,310.3,224.4,310.3z"/>
	<path class="st2" d="M277.4,330.3h-53c-2.9,0-5.3-2.4-5.3-5.3v-9.8c0-3,2.4-5.3,5.4-5.3h53c2.9,0,5.3,2.4,5.3,5.3v9.8
		C282.8,328,280.4,330.3,277.4,330.3C277.4,330.3,277.4,330.3,277.4,330.3z M224.4,310.8c-2.4,0-4.3,1.9-4.4,4.3v9.9
		c0,2.4,2,4.3,4.4,4.3h53c2.4,0,4.3-1.9,4.3-4.3v-9.8c0-2.4-1.9-4.3-4.3-4.3L224.4,310.8z"/>
	<path class="st3" d="M270.7,175.8c0,10.9-8.9,19.8-19.8,19.8c-10.9,0-19.8-8.9-19.8-19.8c0-10.9,8.9-19.8,19.8-19.8
		c10.9,0,19.8,8.8,19.8,19.6C270.7,175.7,270.7,175.8,270.7,175.8z"/>
	<path class="st2" d="M250.9,196.1c-11.2,0-20.3-9.1-20.3-20.3s9.1-20.3,20.3-20.3s20.3,9.1,20.3,20.3c0,6.2-2.9,12.1-7.8,16
		C259.9,194.6,255.5,196.1,250.9,196.1z M250.9,156.5c-10.7,0-19.3,8.6-19.3,19.3c0,5.9,2.7,11.5,7.4,15.2c3.4,2.7,7.6,4.1,11.9,4.1
		c10.7-0.2,19.1-9.1,18.9-19.7C269.6,165.1,261.2,156.8,250.9,156.5L250.9,156.5z"/>
	
		<ellipse transform="matrix(0.8112 -0.5847 0.5847 0.8112 -53.6406 179.3099)" class="st2" cx="250.9" cy="172.7" rx="8.3" ry="8.3"/>
	<path class="st2" d="M250.9,181.5c-4.8,0-8.8-3.9-8.8-8.8c0-4.8,3.9-8.8,8.8-8.8c4.8,0,8.8,3.9,8.8,8.8c0,0,0,0,0,0
		C259.7,177.6,255.7,181.5,250.9,181.5z M250.9,165c-4.3,0-7.8,3.5-7.8,7.8c0,4.3,3.5,7.8,7.8,7.8c4.3,0,7.8-3.5,7.8-7.8
		c0,0,0,0,0,0C258.6,168.5,255.2,165,250.9,165L250.9,165z"/>
	<path class="st2" d="M263.1,191.4c-7.2,5.7-17.3,5.7-24.4,0c1.5-6.8,8.2-11,14.9-9.5C258.4,182.9,262.1,186.6,263.1,191.4z"/>
	<path class="st2" d="M250.9,196.1c-4.5,0-9-1.5-12.5-4.3c-0.1-0.1-0.2-0.3-0.2-0.5c1.5-7,8.4-11.5,15.4-10c5,1.1,8.9,5,10,10
		c0,0.2,0,0.4-0.2,0.5C259.9,194.6,255.5,196.1,250.9,196.1z M239.2,191.2c3.3,2.6,7.5,4,11.7,3.9c4.2,0,8.3-1.4,11.7-3.9
		c-1.5-6.4-8-10.4-14.5-8.9C243.7,183.4,240.3,186.8,239.2,191.2z"/>
	<path class="st2" d="M239,218.4v-8.6h1.6v7.5h2.1v1.1L239,218.4z"/>
	<path class="st2" d="M245.8,218.6c-0.5,0-1-0.1-1.5-0.3c-0.4-0.2-0.6-0.6-0.8-1c-0.2-0.5-0.3-1-0.2-1.5v-3.2c0-0.5,0.1-1,0.2-1.5
		c0.1-0.4,0.4-0.8,0.8-1c0.9-0.4,2-0.4,2.9,0c0.4,0.2,0.6,0.6,0.8,1c0.2,0.5,0.3,1,0.2,1.5v3.2c0,0.5-0.1,1-0.2,1.5
		c-0.1,0.4-0.4,0.8-0.8,1C246.8,218.5,246.3,218.6,245.8,218.6z M245.8,217.4c0.2,0,0.4,0,0.6-0.2c0.1-0.1,0.2-0.3,0.2-0.5
		c0-0.2,0.1-0.4,0.1-0.6v-4c0-0.2,0-0.4-0.1-0.6c0-0.2-0.1-0.3-0.2-0.4c-0.2-0.1-0.4-0.2-0.6-0.2c-0.2,0-0.4,0-0.6,0.2
		c-0.1,0.1-0.2,0.3-0.3,0.4c0,0.2-0.1,0.4-0.1,0.6v4c0,0.2,0,0.4,0.1,0.6c0,0.2,0.1,0.3,0.2,0.5
		C245.4,217.4,245.6,217.4,245.8,217.4z"/>
	<path class="st2" d="M251.6,218.6c-0.5,0-1-0.1-1.4-0.4c-0.3-0.3-0.6-0.6-0.7-1c-0.2-0.5-0.2-1-0.2-1.6v-2.9c0-0.5,0.1-1.1,0.2-1.6
		c0.1-0.4,0.4-0.8,0.8-1c0.5-0.3,1-0.4,1.5-0.4c0.5,0,1,0.1,1.4,0.3c0.3,0.2,0.6,0.5,0.8,0.9c0.2,0.4,0.2,0.9,0.2,1.4v0.4h-1.5v-0.5
		c0-0.2,0-0.5-0.1-0.7c0-0.2-0.1-0.3-0.2-0.4c-0.4-0.2-0.8-0.2-1.2,0c-0.1,0.2-0.2,0.3-0.2,0.5c0,0.2,0,0.5-0.1,0.7v3.6
		c0,0.3,0,0.5,0.1,0.8c0,0.2,0.1,0.4,0.3,0.5c0.2,0.1,0.4,0.2,0.6,0.2c0.2,0,0.4-0.1,0.6-0.2c0.1-0.1,0.2-0.3,0.3-0.5
		c0.1-0.3,0.1-0.5,0.1-0.8V215h-0.9v-1h2.4v4.4h-1l-0.1-0.9c-0.1,0.3-0.3,0.5-0.5,0.7C252.3,218.5,251.9,218.6,251.6,218.6z"/>
	<path class="st2" d="M255.4,218.4v-8.6h1.6v8.6H255.4z"/>
	<path class="st2" d="M258.3,218.4v-8.6h1.1l2.1,4.9v-4.9h1.3v8.6h-1l-2.1-5.2v5.2H258.3z"/>
	<path class="st5" d="M232.4,252.1c-0.5,0-1-0.1-1.4-0.4c-0.3-0.2-0.6-0.6-0.7-1c-0.1-0.5-0.2-1-0.2-1.6v-5.7h1.1v5.8
		c0,0.3,0,0.7,0.1,1c0,0.3,0.1,0.5,0.3,0.7c0.2,0.2,0.5,0.3,0.8,0.3c0.3,0,0.6-0.1,0.8-0.3c0.2-0.2,0.3-0.5,0.3-0.7
		c0.1-0.3,0.1-0.7,0.1-1v-5.8h1.1v5.7c0,0.5-0.1,1.1-0.2,1.6c-0.1,0.4-0.3,0.8-0.7,1C233.4,252,232.9,252.1,232.4,252.1z"/>
	<path class="st5" d="M238,252.1c-0.4,0-0.9-0.1-1.2-0.3c-0.3-0.2-0.6-0.5-0.8-0.9c-0.2-0.4-0.3-0.9-0.3-1.3l1.1-0.3
		c0,0.3,0.1,0.6,0.1,0.9c0.1,0.3,0.2,0.5,0.4,0.7c0.4,0.4,1,0.4,1.4,0c0.2-0.2,0.3-0.5,0.2-0.8c0-0.4-0.1-0.7-0.3-1
		c-0.2-0.3-0.4-0.5-0.7-0.7l-1.4-1.3c-0.3-0.2-0.5-0.5-0.6-0.8c-0.1-0.3-0.2-0.7-0.2-1.1c0-0.5,0.2-1.1,0.5-1.5
		c0.4-0.4,0.9-0.5,1.5-0.5c0.3,0,0.6,0,0.9,0.1c0.2,0.1,0.5,0.2,0.6,0.4c0.2,0.2,0.3,0.4,0.4,0.7c0.1,0.3,0.2,0.7,0.2,1l-1,0.3
		c0-0.3-0.1-0.5-0.1-0.8c-0.1-0.2-0.2-0.4-0.3-0.6c-0.4-0.3-1-0.3-1.4,0c-0.2,0.2-0.3,0.4-0.2,0.7c0,0.2,0,0.4,0.1,0.6
		c0.1,0.2,0.3,0.4,0.4,0.5l1.5,1.3c0.3,0.3,0.6,0.6,0.9,1c0.3,0.4,0.4,0.9,0.4,1.4c0,0.4-0.1,0.8-0.3,1.1c-0.2,0.3-0.4,0.6-0.7,0.7
		C238.8,252,238.4,252.1,238,252.1z"/>
	<path class="st5" d="M241,252v-8.6h3.3v0.9h-2.1v2.9h1.7v0.9h-1.7v3.2h2.2v0.8H241z"/>
	<path class="st5" d="M245.3,252v-8.6h1.7c0.5,0,1,0.1,1.4,0.2c0.4,0.1,0.7,0.4,0.8,0.7c0.2,0.4,0.3,0.9,0.3,1.3
		c0,0.3,0,0.6-0.1,0.9c-0.1,0.3-0.2,0.5-0.3,0.7c-0.2,0.2-0.4,0.3-0.6,0.4l1.2,4.3h-1.2l-1.1-4h-0.9v4H245.3z M246.5,247.1h0.5
		c0.3,0,0.6,0,0.8-0.1c0.2-0.1,0.4-0.2,0.5-0.4c0.1-0.3,0.2-0.6,0.1-0.9c0-0.4-0.1-0.8-0.3-1.1c-0.3-0.3-0.7-0.4-1.1-0.3h-0.5
		L246.5,247.1z"/>
	<path class="st5" d="M250.8,252v-8.6h0.8l2.4,5.7v-5.7h1v8.6h-0.8l-2.5-5.9v5.9H250.8z"/>
	<path class="st5" d="M256,252l1.8-8.6h1.2l1.9,8.6h-1.1l-0.4-2.2h-1.8l-0.4,2.2H256z M257.7,249h1.4l-0.7-3.9L257.7,249z"/>
	<path class="st5" d="M261.7,252l0.2-8.6h1.2l1.5,7l1.5-7h1.2l0.2,8.6h-1l-0.1-6.3l-1.4,6.3h-0.7l-1.5-6.3l-0.1,6.3H261.7z"/>
	<path class="st5" d="M268.7,252v-8.6h3.3v0.9h-2.1v2.9h1.7v0.9h-1.7v3.2h2.2v0.8H268.7z"/>
	<path class="st5" d="M229.3,287.7v-8.6h2.1c0.4,0,0.9,0.1,1.2,0.3c0.3,0.2,0.6,0.5,0.7,0.8c0.2,0.4,0.2,0.9,0.2,1.3
		c0,0.4-0.1,0.8-0.2,1.2c-0.1,0.3-0.4,0.6-0.7,0.8c-0.4,0.2-0.8,0.3-1.2,0.3h-0.9v4L229.3,287.7z M230.5,282.9h0.6
		c0.3,0,0.6,0,0.8-0.1c0.2-0.1,0.4-0.2,0.4-0.4c0.1-0.3,0.1-0.5,0.1-0.8c0-0.3,0-0.6-0.1-1c0-0.2-0.2-0.4-0.4-0.5
		c-0.3-0.1-0.6-0.1-0.9-0.1h-0.6L230.5,282.9z"/>
	<path class="st5" d="M233.5,287.7l1.8-8.6h1.2l1.8,8.6h-1.1l-0.4-2.2h-1.8l-0.4,2.2H233.5z M235.2,284.7h1.4l-0.7-3.9L235.2,284.7z
		"/>
	<path class="st5" d="M241.3,287.8c-0.4,0-0.9-0.1-1.2-0.3c-0.3-0.2-0.6-0.5-0.8-0.9c-0.2-0.4-0.3-0.9-0.3-1.3l1.1-0.3
		c0,0.3,0.1,0.6,0.1,0.9c0.1,0.3,0.2,0.5,0.4,0.7c0.2,0.2,0.4,0.3,0.7,0.3c0.3,0,0.5-0.1,0.7-0.3c0.2-0.2,0.3-0.5,0.2-0.8
		c0-0.3-0.1-0.7-0.3-1c-0.2-0.3-0.4-0.5-0.7-0.7l-1.4-1.3c-0.3-0.2-0.5-0.5-0.6-0.8c-0.1-0.4-0.2-0.7-0.2-1.1c0-0.5,0.2-1.1,0.6-1.5
		c0.4-0.4,0.9-0.6,1.4-0.5c0.3,0,0.6,0,0.9,0.1c0.2,0.1,0.5,0.2,0.6,0.4c0.2,0.2,0.3,0.4,0.4,0.7c0.1,0.3,0.2,0.7,0.2,1l-1,0.3
		c0-0.3-0.1-0.5-0.1-0.8c-0.1-0.2-0.2-0.4-0.3-0.6c-0.4-0.3-1-0.3-1.4,0c-0.2,0.2-0.3,0.4-0.2,0.7c0,0.2,0,0.4,0.1,0.6
		c0.1,0.2,0.3,0.4,0.4,0.5l1.5,1.3c0.3,0.3,0.6,0.6,0.9,1c0.3,0.4,0.4,0.9,0.4,1.4c0,0.4-0.1,0.8-0.3,1.1c-0.2,0.3-0.4,0.5-0.7,0.7
		C242,287.7,241.6,287.8,241.3,287.8z"/>
	<path class="st5" d="M246.3,287.8c-0.4,0-0.9-0.1-1.2-0.3c-0.3-0.2-0.6-0.5-0.8-0.9c-0.2-0.4-0.3-0.9-0.3-1.3l1.1-0.3
		c0,0.3,0.1,0.6,0.1,0.9c0.1,0.3,0.2,0.5,0.4,0.7c0.2,0.2,0.4,0.3,0.7,0.3c0.3,0,0.5-0.1,0.7-0.3c0.2-0.2,0.3-0.5,0.2-0.8
		c0-0.3-0.1-0.7-0.3-1c-0.2-0.3-0.4-0.5-0.7-0.7l-1.4-1.3c-0.3-0.2-0.5-0.5-0.6-0.8c-0.2-0.3-0.2-0.7-0.2-1.1c0-0.5,0.2-1.1,0.6-1.5
		c0.4-0.4,0.9-0.6,1.5-0.5c0.3,0,0.6,0,0.9,0.1c0.2,0.1,0.5,0.2,0.6,0.4c0.2,0.2,0.3,0.4,0.4,0.7c0.1,0.3,0.2,0.7,0.2,1l-1,0.3
		c0-0.3-0.1-0.5-0.1-0.8c-0.1-0.2-0.2-0.4-0.3-0.6c-0.2-0.2-0.4-0.2-0.7-0.2c-0.3,0-0.5,0.1-0.7,0.2c-0.2,0.2-0.3,0.4-0.2,0.7
		c0,0.2,0,0.4,0.1,0.6c0.1,0.2,0.3,0.4,0.4,0.5l1.5,1.3c0.3,0.3,0.6,0.6,0.9,1c0.3,0.4,0.4,0.9,0.4,1.4c0,0.4-0.1,0.8-0.3,1.1
		c-0.2,0.3-0.4,0.5-0.7,0.7C247.1,287.8,246.7,287.8,246.3,287.8z"/>
	<path class="st5" d="M250.4,287.7l-1.4-8.6h1l0.9,6.2l1.2-6.2h0.9l1.2,6.2l0.9-6.2h1l-1.4,8.6h-0.9l-1.2-6.4l-1.2,6.4H250.4z"/>
	<path class="st5" d="M259.2,287.8c-0.5,0-1-0.1-1.4-0.3c-0.4-0.2-0.6-0.6-0.8-1c-0.2-0.5-0.2-1-0.2-1.5v-3.3c0-0.5,0.1-1,0.2-1.5
		c0.1-0.4,0.4-0.7,0.7-0.9c0.4-0.2,0.9-0.4,1.4-0.3c0.5,0,1,0.1,1.4,0.3c0.3,0.2,0.6,0.6,0.7,0.9c0.2,0.5,0.2,1,0.2,1.5v3.3
		c0,0.5-0.1,1-0.2,1.5c-0.1,0.4-0.4,0.8-0.7,1C260.2,287.7,259.7,287.9,259.2,287.8z M259.2,286.9c0.3,0,0.5,0,0.7-0.2
		c0.2-0.1,0.3-0.3,0.3-0.5c0.1-0.3,0.1-0.6,0.1-0.8v-3.8c0-0.3,0-0.6-0.1-0.8c0-0.2-0.2-0.4-0.3-0.5c-0.5-0.3-1-0.3-1.5,0
		c-0.2,0.1-0.3,0.3-0.3,0.5c-0.1,0.3-0.1,0.6-0.1,0.8v3.8c0,0.3,0,0.6,0.1,0.8c0,0.2,0.2,0.4,0.3,0.5
		C258.7,286.8,259,286.9,259.2,286.9L259.2,286.9z"/>
	<path class="st5" d="M262.8,287.7v-8.6h1.7c0.5,0,1,0.1,1.4,0.2c0.4,0.1,0.7,0.4,0.8,0.7c0.2,0.4,0.3,0.9,0.3,1.3
		c0,0.3,0,0.6-0.1,0.9c-0.1,0.3-0.2,0.5-0.3,0.7c-0.2,0.2-0.4,0.3-0.6,0.4l1.2,4.3H266l-1.1-4H264v4L262.8,287.7z M264,282.8h0.5
		c0.3,0,0.6,0,0.8-0.1c0.2-0.1,0.4-0.2,0.5-0.4c0.1-0.3,0.2-0.6,0.1-0.9c0-0.4-0.1-0.8-0.3-1.1c-0.3-0.3-0.7-0.4-1.1-0.3H264
		L264,282.8z"/>
	<path class="st5" d="M268.3,287.7v-8.6h1.9c0.5,0,1,0.1,1.5,0.3c0.4,0.2,0.6,0.5,0.8,0.9c0.2,0.5,0.3,1,0.2,1.5v3.2
		c0,0.5-0.1,1-0.2,1.5c-0.1,0.4-0.4,0.8-0.8,1c-0.4,0.2-0.9,0.3-1.4,0.3L268.3,287.7z M269.5,286.9h0.7c0.3,0,0.7-0.1,0.9-0.3
		c0.2-0.2,0.3-0.5,0.3-0.7c0-0.4,0.1-0.8,0.1-1.2v-2.8c0-0.4,0-0.7-0.1-1.1c0-0.2-0.2-0.5-0.4-0.6c-0.3-0.2-0.6-0.2-0.9-0.2h-0.6
		V286.9z"/>
	<path class="st6" d="M238.1,324c-0.5,0-0.9-0.1-1.3-0.3c-0.4-0.2-0.6-0.5-0.8-0.9c-0.2-0.5-0.3-0.9-0.3-1.4l1.4-0.3
		c0,0.3,0.1,0.6,0.1,0.9c0,0.2,0.2,0.4,0.3,0.6c0.1,0.1,0.3,0.2,0.6,0.2c0.2,0,0.4-0.1,0.5-0.2c0.1-0.2,0.2-0.4,0.2-0.6
		c0-0.3-0.1-0.7-0.3-0.9c-0.2-0.3-0.4-0.5-0.7-0.7l-1.1-1c-0.3-0.3-0.5-0.5-0.7-0.9c-0.2-0.4-0.3-0.8-0.3-1.2c0-0.6,0.2-1.2,0.6-1.6
		c0.5-0.4,1-0.6,1.6-0.5c0.3,0,0.7,0.1,1,0.2c0.3,0.1,0.5,0.3,0.6,0.5c0.2,0.2,0.3,0.5,0.4,0.8c0.1,0.3,0.1,0.6,0.1,0.9l-1.3,0.2
		c0-0.2,0-0.5-0.1-0.7c0-0.2-0.1-0.4-0.2-0.5c-0.1-0.1-0.3-0.2-0.5-0.2c-0.2,0-0.4,0.1-0.5,0.2c-0.1,0.2-0.2,0.4-0.2,0.6
		c0,0.3,0.1,0.5,0.2,0.7c0.1,0.2,0.3,0.4,0.5,0.6l1.1,1c0.4,0.3,0.7,0.7,0.9,1c0.3,0.4,0.4,0.9,0.4,1.5c0,0.4-0.1,0.8-0.3,1.2
		c-0.2,0.3-0.4,0.6-0.8,0.8C238.9,323.9,238.5,324,238.1,324z"/>
	<path class="st6" d="M241.2,323.9v-8.6h1.6v8.6H241.2z"/>
	<path class="st6" d="M246.2,324c-0.5,0-0.9-0.1-1.4-0.4c-0.3-0.2-0.6-0.6-0.7-1c-0.2-0.5-0.2-1.1-0.2-1.6v-2.9
		c0-0.5,0.1-1.1,0.2-1.6c0.1-0.4,0.4-0.8,0.8-1c0.5-0.3,1-0.4,1.5-0.4c0.5,0,1,0.1,1.4,0.3c0.3,0.2,0.6,0.5,0.8,0.9
		c0.2,0.4,0.2,0.9,0.2,1.4v0.5h-1.5v-0.5c0-0.2,0-0.5,0-0.7c0-0.2-0.1-0.3-0.2-0.5c-0.2-0.1-0.4-0.2-0.6-0.1c-0.2,0-0.4,0-0.6,0.2
		c-0.1,0.1-0.2,0.3-0.2,0.5c0,0.2,0,0.5,0,0.7v3.6c0,0.3,0,0.5,0.1,0.8c0,0.2,0.1,0.4,0.3,0.5c0.2,0.1,0.4,0.2,0.6,0.2
		c0.2,0,0.4-0.1,0.6-0.2c0.1-0.1,0.2-0.3,0.3-0.5c0.1-0.3,0.1-0.5,0.1-0.8v-0.8h-0.9v-1h2.4v4.4h-1l-0.1-0.9
		c-0.1,0.3-0.3,0.5-0.5,0.7C247,323.9,246.6,324,246.2,324z"/>
	<path class="st6" d="M250,323.9v-8.6h1.1l2.1,4.9v-4.9h1.3v8.6h-1l-2.1-5.2v5.2H250z"/>
	<path class="st6" d="M258.5,323.9v-8.6h1.5v8.6H258.5z"/>
	<path class="st6" d="M261.4,323.9v-8.6h1.1l2.1,4.9v-4.9h1.3v8.6h-1l-2.1-5.2v5.2H261.4z"/>
</g>
<g id="freepik--Character--inject-2">
	<path class="st3" d="M368.8,182.7c0,0-1.3,10-0.8,11.4s3.3,7.1,3.5,7.6s-3.3,3.5-2.7,4.9s4.1,3.2,4.1,3.2s8.5,9.8,9.7,9.6
		s5.2-2.4,5.2-2.4l2.4,5.5l23.6-10l-7.1-11.7c0,0-7.4-18.8-14.4-24.9S371.7,175.9,368.8,182.7z"/>
	<path class="st2" d="M390.2,223.1c-0.2,0-0.4-0.1-0.5-0.3l-2.2-5c-1.6,0.9-3.2,1.6-4.9,2.2c-1.1,0.2-6.1-5.2-10-9.8
		c-0.6-0.3-3.6-1.9-4.3-3.4c-0.5-1.2,0.8-2.8,1.9-4.1c0.3-0.3,0.6-0.7,0.7-0.9c-0.1-0.3-0.5-1.2-0.9-2c-0.9-1.9-2.2-4.6-2.5-5.5
		c-0.5-1.5,0.6-10.6,0.8-11.6v-0.1c1.7-4,6.8-7.6,12.4-9c4.7-1.1,9-0.4,11.8,2.1c7,6,14.2,24.3,14.5,25.1l7.1,11.6
		c0.1,0.1,0.1,0.3,0,0.4c0,0.1-0.1,0.3-0.3,0.3l-23.6,10C390.3,223.1,390.2,223.1,390.2,223.1z M387.8,216.6c0.1,0,0.1,0,0.2,0
		c0.1,0,0.2,0.1,0.3,0.3l2.2,5.1l22.6-9.6l-6.8-11.2c-0.1-0.3-7.5-18.9-14.3-24.7c-2.6-2.3-6.5-3-10.9-1.9
		c-5.2,1.2-10.1,4.7-11.7,8.3c-0.5,3.8-1.1,10.2-0.8,11.1s1.5,3.5,2.5,5.4c0.6,1.4,1,2,1,2.2c0.1,0.4-0.2,0.9-1,1.8s-2,2.5-1.8,3.1
		c0.4,0.9,2.6,2.3,3.9,2.9c0.1,0,0.1,0.1,0.1,0.1c3.9,4.5,8.5,9.3,9.3,9.5c1.7-0.6,3.4-1.4,5-2.3
		C387.6,216.6,387.7,216.6,387.8,216.6L387.8,216.6z M371,201.9L371,201.9z"/>
	<polygon class="st2" points="382.6,219.5 388.6,213 387.8,217.1 	"/>
	<path class="st2" d="M382.6,220c-0.2,0-0.3-0.1-0.4-0.2c-0.2-0.2-0.2-0.5,0-0.6l6-6.4c0.1-0.2,0.4-0.2,0.6-0.1
		c0.2,0.1,0.3,0.3,0.3,0.5l-0.8,4.1c0,0.2-0.1,0.3-0.3,0.4l-5.2,2.4C382.7,220,382.6,220,382.6,220z M387.8,214.7l-3.1,3.3l2.7-1.2
		L387.8,214.7z"/>
	<path class="st2" d="M371,206.1c-0.1,0-0.3,0-0.4-0.1c-1.8-0.5-4.1-4.6-4.4-5.1c-0.1-0.2-0.1-0.5,0.2-0.7l15-9.5
		c0.2-0.2,0.5-0.1,0.7,0.1s0.1,0.5-0.1,0.7c0,0,0,0,0,0l-11.1,7c0.8,1.8,2.5,6.2,0.8,7.3C371.4,206.1,371.2,206.1,371,206.1z
		 M367.3,201c1,1.6,2.6,3.9,3.6,4.2c0.1,0,0.2,0,0.3,0c0.7-0.4,0-3.3-1.1-5.9L367.3,201z"/>
	<path class="st2" d="M375.1,209.7c-0.3,0-0.5-0.2-0.5-0.5c0-0.2,0.1-0.4,0.3-0.4l0,0c1.2-0.7,1.7-2.2,1.2-3.5
		c-0.1-0.3,0.1-0.5,0.3-0.6c0.3-0.1,0.5,0,0.6,0.3c0,0,0,0,0,0c0.7,1.8,0,3.8-1.7,4.7C375.3,209.7,375.2,209.7,375.1,209.7z"/>
	<path class="st2" d="M369.6,195.4c-0.3,0-0.5-0.2-0.5-0.5c0-0.6,0.3-1.2,0.8-1.6c0.7-0.4,1.6-0.4,2.3,0c0.3,0.1,0.4,0.4,0.3,0.6
		c0,0,0,0,0,0c-0.1,0.3-0.4,0.4-0.6,0.3c0,0,0,0,0,0c-0.6-0.2-1.1-0.3-1.4-0.1c-0.2,0.2-0.3,0.5-0.3,0.8
		C370.1,195.2,369.9,195.4,369.6,195.4C369.6,195.4,369.6,195.4,369.6,195.4z"/>
	<path class="st2" d="M373.9,203.3c-0.2,0-0.3-0.1-0.4-0.2l-1.9-3.3c-0.1-0.2-0.1-0.5,0.2-0.7s0.5-0.1,0.7,0.2c0,0,0,0,0,0l1.9,3.3
		c0.1,0.2,0,0.5-0.2,0.7C374,203.3,374,203.3,373.9,203.3z"/>
	<path class="st2" d="M370.2,175.8c0.5,0.2-0.2-6.6-2.4-4.9s-2.4,8.1-2.4,8.1s-2.9-3.5-3.5-0.6s3.6,7.6,5.2,7.4s8.2-6.3,7.9-4.4
		s-2.4,5.2-1.1,5.9s4.4-0.6,4.4-0.6s0.5,7.1,2.4,6.8s3.3-3.3,4.8-1.4s11.2,11.6,11.9,11.6s9.2-2.5,9.2-2.5s0.6-9.8,1.1-16.3
		s-3.3-15.2-8.9-18.7s-13.8-2.7-17.7,0S370.2,175.8,370.2,175.8z"/>
	<path class="st2" d="M397.5,204c-1.1,0-11.7-11-12.3-11.8c-0.1-0.2-0.3-0.4-0.6-0.4c-0.4,0-0.9,0.4-1.5,0.8c-0.6,0.6-1.4,1-2.2,1.2
		c-0.4,0.1-0.7,0-1-0.3c-1.3-1-1.7-4.7-1.9-6.3c-1.1,0.4-3.1,0.9-4.2,0.4c-1.2-0.6-0.5-2.4,0.1-4.2c0.2-0.6,0.5-1.2,0.6-1.8
		c-1.1,0.6-2.1,1.3-3.1,2.1c-2.1,1.6-3.5,2.5-4.2,2.6c-1.2,0.1-2.9-1.6-3.4-2.2c-1.4-1.6-2.8-4-2.4-5.9c0.2-0.8,0.6-1.3,1.2-1.5
		c0.9,0,1.8,0.3,2.4,1c0.2-2,0.7-5.9,2.5-7.3c0.5-0.5,1.4-0.5,1.9,0c0.8,0.7,1.3,2.6,1.4,4c2.1-2.1,6.9-6.8,10-8.9
		c4.2-2.9,12.6-3.6,18.3,0c5.4,3.4,9.6,12.2,9.1,19.1c-0.5,6.4-1.1,16.2-1.1,16.3c0,0.2-0.2,0.4-0.4,0.4
		C404.8,202,398.1,204,397.5,204z M384.6,190.8h0.2c0.5,0.1,0.9,0.4,1.2,0.8c1.4,1.9,10.3,10.6,11.5,11.4c0.8-0.1,5.5-1.5,8.6-2.4
		c0.1-1.8,0.7-10.2,1.1-16c0.5-6.6-3.5-15-8.6-18.2s-13.3-2.7-17.2,0c-3.5,2.4-9.6,8.5-10.7,9.6l0,0c-0.1,0.2-0.4,0.3-0.7,0.3
		c-0.2-0.1-0.3-0.2-0.3-0.4c0-0.2,0-0.3,0.1-0.5c0.1-0.7-0.3-3.7-1.1-4.3c-0.1,0-0.2-0.1-0.6,0.1c-1.7,1.3-2.1,6-2.2,7.7
		c0,0.3-0.3,0.5-0.5,0.5c-0.1,0-0.3-0.1-0.4-0.2c-0.6-0.7-1.7-1.7-2.2-1.6c-0.2,0.1-0.4,0.5-0.4,0.7c-0.3,1.4,0.9,3.6,2.2,5
		c1.1,1.2,2.1,1.9,2.5,1.8c0.6-0.1,2.4-1.4,3.7-2.4c2.8-2,3.8-2.7,4.4-2.3c0.3,0.2,0.4,0.5,0.3,0.8c-0.2,0.8-0.4,1.6-0.8,2.4
		c-0.4,1-1,2.7-0.6,2.9c0.8,0.4,2.9-0.2,4-0.7c0.1-0.1,0.3,0,0.5,0.1c0.1,0.1,0.2,0.2,0.2,0.4c0.1,2.1,0.7,5.6,1.6,6.3
		c0.1,0.1,0.1,0.1,0.2,0.1c0.7-0.2,1.3-0.5,1.8-1C383.1,191.3,383.8,190.9,384.6,190.8L384.6,190.8z"/>
	<path class="st3" d="M381.8,196.4c0,0-1.3-9,1.9-7.4s5.7,10,4.9,11.9s-2.7,0.6-2.7,0.6"/>
	<path class="st2" d="M387.2,202.3c-0.6,0-1.1-0.2-1.6-0.5c-0.2-0.2-0.3-0.5-0.1-0.7c0.1-0.2,0.4-0.3,0.7-0.1c0,0,0,0,0,0
		c0.4,0.3,0.9,0.4,1.3,0.3c0.3-0.1,0.5-0.4,0.6-0.7c0.7-1.7-1.7-9.8-4.7-11.2c-0.5-0.2-0.6-0.1-0.7,0c-0.9,0.6-0.8,4.5-0.5,7
		c0,0.3-0.2,0.5-0.4,0.6c-0.3,0-0.5-0.1-0.6-0.4c0,0,0,0,0,0c-0.2-1.1-0.9-6.7,0.9-7.9c0.5-0.3,1.2-0.3,1.7,0
		c3.5,1.8,6,10.4,5.1,12.5c-0.2,0.6-0.7,1.1-1.3,1.3C387.6,202.4,387.4,202.4,387.2,202.3z"/>
	<path class="st0" d="M387.2,221.9l-3.5,9.8c6.7-3.6,13.7-6.7,20.8-9.2c5.5-2,11.2-3.4,17-4.4l-5.2-7.7
		C416.4,210.3,394.9,212.5,387.2,221.9z"/>
	<path class="st2" d="M383.7,232.2c-0.1,0-0.2,0-0.3-0.1c-0.2-0.1-0.2-0.4-0.1-0.6l3.5-9.8c0-0.1,0-0.1,0.1-0.1
		c7.8-9.5,28.6-11.7,29.5-11.8c0.2,0,0.4,0.1,0.5,0.2l5.2,7.7c0.1,0.1,0.1,0.3,0,0.5c-0.1,0.2-0.2,0.3-0.4,0.3
		c-5.7,1-11.4,2.5-16.8,4.4c-7.1,2.6-14.1,5.6-20.7,9.2C383.9,232.2,383.8,232.3,383.7,232.2z M387.6,222.2l-3,8.5
		c6.4-3.4,13-6.3,19.8-8.7c5.3-1.8,10.8-3.3,16.3-4.3l-4.6-6.8C413.5,211.2,394.7,213.6,387.6,222.2z"/>
	<path class="st2" d="M332.9,244.9l21.9,36.7c0.2,0.3,0.5,0.4,0.8,0.3l20.5-5c0.4-0.1,0.6-0.5,0.5-0.9c0-0.1,0-0.1-0.1-0.2l-19-32.9
		c-0.1-0.2-0.4-0.4-0.7-0.4l-23.4,1.3c-0.4,0.1-0.7,0.4-0.6,0.8C332.8,244.8,332.8,244.9,332.9,244.9z"/>
	<path class="st2" d="M355.3,282.5c-0.4,0-0.8-0.2-1-0.6l-21.9-36.7c-0.2-0.4-0.2-0.8,0-1.2c0.2-0.4,0.6-0.6,1-0.6l23.4-1.3
		c0.5,0,0.9,0.2,1.1,0.6l19,32.9c0.3,0.6,0.1,1.3-0.5,1.7c-0.1,0.1-0.2,0.1-0.3,0.1l-20.5,5C355.6,282.5,355.5,282.5,355.3,282.5z
		 M356.9,243.1L356.9,243.1l-23.4,1.3c-0.1,0-0.2,0-0.2,0.1c0,0.1,0,0.2,0,0.2l0,0l21.9,36.7c0.1,0.1,0.2,0.1,0.2,0.1l20.5-5
		c0.1,0,0.1-0.1,0.1-0.1c0-0.1,0-0.1,0-0.2l-19-32.9C357.1,243.1,357,243.1,356.9,243.1z"/>
	<polygon class="st7" points="335.3,246.4 355,279.4 374,274.7 357,245.2 	"/>
	<path class="st2" d="M355,279.9c-0.2,0-0.3-0.1-0.4-0.2l-19.7-33c-0.1-0.2-0.1-0.6,0.2-0.7c0.1,0,0.1-0.1,0.2-0.1l21.7-1.2
		c0.2,0,0.4,0.1,0.5,0.2l17,29.5c0.1,0.1,0.1,0.3,0,0.5c-0.1,0.1-0.2,0.3-0.3,0.3L355,279.9L355,279.9z M336.2,246.8l19.1,32l18-4.4
		l-16.5-28.7L336.2,246.8z"/>
	<path class="st3" d="M371.2,252.4c0,0-5.8,3.1-7.9,4s-3.3,1.7-1.9,2.9s6-1.5,6-1.5l3.7-1.5L371.2,252.4z"/>
	<path class="st2" d="M362.4,260.1c-0.5,0-0.9-0.1-1.3-0.4c-0.5-0.3-0.8-0.9-0.7-1.5c0.1-0.9,1.1-1.5,2.8-2.2c2.1-0.9,7.8-4,7.9-4
		c0.2-0.1,0.3-0.1,0.5,0c0.2,0.1,0.2,0.3,0.2,0.4l-0.2,3.9c0,0.2-0.1,0.4-0.3,0.4l-3.7,1.5C366.9,258.6,364.2,260.1,362.4,260.1z
		 M370.7,253.2c-1.7,0.9-5.5,2.9-7.2,3.6c-0.6,0.3-2.1,1-2.2,1.5c0,0.1,0.1,0.4,0.4,0.6c0.7,0.6,3.7-0.6,5.4-1.6l3.4-1.4
		L370.7,253.2z"/>
	<path class="st3" d="M418.2,459.8l1.3,10c0,0-1.3,2.2-5.5,2.6s-7.2,1.1-7.2,1.1l1.1-9.8L418.2,459.8z"/>
	<path class="st2" d="M406.9,474c-0.1,0-0.2,0-0.3-0.1c-0.1-0.1-0.2-0.3-0.2-0.4l1.1-9.8c0-0.2,0.1-0.3,0.3-0.4l10.2-4
		c0.1-0.1,0.3-0.1,0.4,0c0.1,0.1,0.2,0.2,0.2,0.4l1.3,10c0,0.1,0,0.2-0.1,0.3c-0.1,0.1-1.5,2.4-5.8,2.9c-4.1,0.4-7.1,1.1-7.1,1.1
		L406.9,474z M408.5,464.1l-1,8.8c1.1-0.2,3.6-0.6,6.6-1c3.3-0.4,4.6-1.8,5-2.2l-1.2-9.2L408.5,464.1z"/>
	<path class="st3" d="M419.6,469.8l-0.2-1.5c-3.9,1.3-8,2.1-12.1,2.1l-0.4,3c0,0,3.1-0.6,7.2-1.1S419.6,469.8,419.6,469.8z"/>
	<path class="st2" d="M406.9,474c-0.1,0-0.2,0-0.3-0.1c-0.1-0.1-0.2-0.3-0.2-0.4l0.4-3c0-0.2,0.2-0.4,0.5-0.4
		c4.1-0.1,8.1-0.8,11.9-2.1c0.1-0.1,0.3-0.1,0.4,0c0.1,0.1,0.2,0.2,0.2,0.4l0.2,1.5c0,0.1,0,0.2-0.1,0.3c-0.1,0.1-1.5,2.4-5.8,2.9
		c-4.1,0.4-7.1,1.1-7.1,1.1L406.9,474z M407.7,471l-0.2,1.9c1.1-0.2,3.6-0.6,6.6-1c3.3-0.4,4.6-1.8,5-2.2L419,469
		C415.3,470.2,411.5,470.9,407.7,471L407.7,471z"/>
	<path class="st3" d="M388.6,455.7l-11.3,7c-2.6,0.7-5.2,1.2-7.9,1.5c-1.4,0.1-2.4,1.2-2.4,2.6c0,0.7,0.3,1.3,0.9,1.8
		c1.3,1.1,5.6,2.9,11.1,4.1c10.9,2.4,26.6,1.5,27.9,0.9c1.2-0.5,2.1-1.4,2.6-2.6c0.2-0.9,0-9.4,0-9.4S393,459.6,388.6,455.7z"/>
	<path class="st2" d="M396.5,474.8c-5.9,0.1-11.8-0.5-17.5-1.6c-5.5-1.2-10-3.1-11.3-4.2c-0.9-0.8-1.3-2.1-0.9-3.3
		c0.4-1.2,1.5-1.9,2.7-2c2.6-0.3,5.2-0.8,7.7-1.5l11.3-6.9c0.2-0.1,0.4-0.1,0.6,0.1c4.2,3.8,20.5,5.7,20.7,5.8
		c0.2,0,0.4,0.2,0.4,0.5c0,1.4,0.2,8.6,0,9.5c-0.5,1.3-1.6,2.4-2.9,2.9C406.4,474.3,402,474.8,396.5,474.8z M388.6,456.3l-11,6.8
		c0,0-0.1,0-0.1,0.1c-2.6,0.7-5.3,1.2-7.9,1.5c-0.8,0-1.5,0.5-1.8,1.2c-0.2,0.8,0,1.7,0.6,2.2c1.1,0.9,5.2,2.8,10.9,4
		c10.9,2.4,26.5,1.4,27.6,0.9c1-0.5,1.9-1.3,2.4-2.3c0.1-0.6,0.1-5.5,0-8.8C406.4,461.6,393,459.8,388.6,456.3L388.6,456.3z
		 M377.3,462.6L377.3,462.6z"/>
	<path class="st3" d="M377.5,469.8c-6.4-1.9-9-3.5-10.1-4.6c-0.6,1.1-0.4,2.4,0.5,3.3c1.3,1.1,5.6,2.9,11.1,4.1
		c10.9,2.4,26.6,1.5,27.9,0.9c1.1-0.5,2-1.4,2.6-2.4C402.2,471.7,386.6,472.6,377.5,469.8z"/>
	<path class="st2" d="M396.5,474.8c-5.9,0.1-11.8-0.5-17.5-1.6c-5.5-1.2-10-3.1-11.3-4.2c-1.1-1-1.3-2.6-0.6-3.9
		c0.1-0.1,0.2-0.2,0.4-0.2c0.2,0,0.3,0,0.4,0.1c0.9,1,3.4,2.5,9.9,4.5l0,0c9.2,2.8,25.3,1.8,31.8,1.2c0.2,0,0.3,0.1,0.5,0.2
		c0.1,0.1,0.1,0.3,0.1,0.5c-0.6,1.2-1.6,2.2-2.8,2.7C406.4,474.3,402,474.8,396.5,474.8z M367.6,466.1c-0.2,0.7,0.1,1.5,0.6,2.1
		c1.1,0.9,5.2,2.8,10.9,4c10.9,2.4,26.5,1.4,27.6,0.9c0.7-0.3,1.3-0.8,1.9-1.4c-8.3,0.7-22.5,1.3-31.2-1.4l0,0
		C372.6,468.9,369.3,467.4,367.6,466.1z"/>
	<path class="st0" d="M424.2,317.5c0,0,0,10.8-3.6,16.5s-8.6,11-8.6,11.8s-4.8,38-4.8,40s-0.2,7.8,1,10.8s5.8,21.9,8.6,38.8
		s1.6,21.1,1.6,21.1c0.5,1.2,0.9,2.5,1.2,3.8c-0.1,1-0.3,2-0.6,3c-3.5,1.1-7.3,1.3-11,0.6c-0.1-1.6,0-3.2,0.4-4.8
		c0.6-1.6,0.2-6,0.2-7s-7.6-52.6-7.6-56.5s-0.2-46.2-0.2-46.2l-1.8-29.3C399.1,320,409.5,319.6,424.2,317.5z"/>
	<path class="st2" d="M412.8,464.7c-1.6,0-3.3-0.1-4.9-0.4c-0.2-0.1-0.4-0.2-0.4-0.5c-0.1-1.7,0-3.4,0.4-5c0.4-1.2,0.3-4.1,0.2-5.7
		c0-0.5,0-0.8,0-1c0-0.4-0.9-6.8-2-14.1c-2.2-15.8-5.6-39.7-5.6-42.4c0-3.9-0.2-45.8-0.2-46.2l-1.8-29.2c0-0.3,0.2-0.5,0.5-0.5
		c0.1,0,10.5-0.4,25-2.6c0.1,0,0.3,0,0.4,0.1c0.1,0.1,0.2,0.2,0.2,0.4c0,0.4,0,11-3.7,16.8c-1.9,3-4,5.8-6.3,8.5
		c-0.8,0.9-1.6,1.9-2.2,3c0,0.3-0.5,4.7-1.6,13.2c-1.3,10.8-3.2,25.6-3.2,26.8v0.8c0,2.4-0.1,7.2,1,9.8c1.2,3.1,5.8,22.1,8.6,38.9
		c2.5,15.2,1.8,20.2,1.6,21.1c0.5,1.2,0.9,2.5,1.2,3.8c-0.1,1.1-0.3,2.1-0.6,3.1c0,0.2-0.2,0.3-0.3,0.3
		C417.1,464.3,415,464.6,412.8,464.7z M408.5,463.4c1.4,0.2,2.9,0.3,4.3,0.3c2-0.1,3.9-0.4,5.8-0.9c0.2-0.8,0.4-1.7,0.5-2.6
		c-0.3-1.2-0.7-2.4-1.2-3.6c0-0.1,0-0.2,0-0.3c0,0,1.1-4.4-1.6-20.9c-2.8-16.8-7.3-35.7-8.5-38.7c-1.1-2.8-1.1-7.6-1-10.2v-0.8
		c0-1.2,1.8-15.5,3.2-26.9c0.8-6.5,1.6-12.7,1.6-13.1s0.6-1.2,2.4-3.6c2.2-2.7,4.3-5.5,6.2-8.4c3-4.8,3.4-13.4,3.5-15.7
		c-12.5,1.8-21.8,2.4-24,2.5l1.8,28.8c0,0.5,0.2,42.3,0.2,46.2c0,2.6,3.4,26.5,5.6,42.2c1.3,9.4,2,13.9,2,14.3c0,0.2,0,0.6,0,1
		c0.1,1.8,0.2,4.8-0.3,6.1C408.6,460.5,408.5,462,408.5,463.4L408.5,463.4z"/>
	<path class="st0" d="M410,340c0,0-4.8,8.8-5.2,9.6s-0.4,7.8-0.4,9.4s-1,31.9-0.8,36s3.4,17.1,4.4,24.9s2.8,30.5,3,31.1
		c0.6,1.7,0.8,3.4,0.6,5.2c-0.3,1.3-0.8,2.6-1.4,3.8c0,0,0.6,3.4,0.2,4.4s-5.8,2-13.3-0.2s-10.8-7-10.8-7c0.3-1,0.4-2,0.4-3
		c0-1.2,0.9-2.2,2-2.4L385,425c0,0-3.6-8.4-3.8-9.8s0.8-4.8,0.6-6.2s-2.6-4.4-2.8-5.8s-6.8-23.7-7.2-43.4s0.4-38,0.4-38
		s5,2.6,20.5,1.6s21.7-1.2,29.1-4.4"/>
	<path class="st2" d="M405.6,465.8c-2.9,0-5.8-0.5-8.7-1.3c-7.6-2.2-10.9-7-11-7.2c-0.1-0.1-0.1-0.3,0-0.5c0.3-0.9,0.4-1.9,0.4-2.8
		c0-1.2,0.8-2.3,1.9-2.8l-3.7-26.2c-0.5-1.1-3.6-8.4-3.8-9.8c0-1.1,0.1-2.2,0.3-3.3c0.2-1,0.3-2,0.3-2.9c-0.3-1-0.8-1.9-1.3-2.7
		c-0.6-0.9-1.1-2-1.5-3.1c0-0.2-0.2-1-0.5-2c-1.6-6.1-6.3-24.7-6.7-41.4c-0.4-19.5,0.3-37.9,0.4-38.1c0-0.2,0.1-0.3,0.2-0.4
		c0.1-0.1,0.3-0.1,0.5,0c0,0,5.2,2.5,20.3,1.6l3-0.2c13.5-0.9,19.1-1.2,25.9-4.1c0.3-0.1,0.5,0,0.7,0.3s0,0.5-0.3,0.7
		c-7,3-13,3.4-26.3,4.2l-3,0.2c-12.5,0.8-18.3-0.7-20.1-1.4c-0.1,3.6-0.7,20-0.3,37.3c0.3,16.6,5.1,35.1,6.6,41.2
		c0.3,1.3,0.5,1.9,0.5,2.1c0.3,1,0.8,1.9,1.3,2.7c0.6,0.9,1.1,2,1.5,3.1c0,1.1-0.1,2.2-0.3,3.2c-0.2,1-0.3,2-0.3,2.9
		c1.1,3.3,2.3,6.5,3.8,9.6c0,0,0,0.1,0,0.1l3.8,26.7c0,0.3-0.1,0.5-0.4,0.6c-0.9,0.2-1.6,1-1.6,1.9c0,1-0.1,1.9-0.3,2.9
		c2.7,3.2,6.3,5.5,10.3,6.6c7.6,2.2,12.4,1,12.7,0.5c0.1-1.4,0.1-2.7-0.2-4.1c0-0.1,0-0.2,0-0.3c0.6-1.2,1-2.4,1.4-3.7
		c0.2-1.7,0-3.3-0.6-4.9c-0.1-0.3-0.3-2.1-0.9-9.4s-1.5-17.2-2.1-21.8c-0.5-3.7-1.5-8.6-2.4-13.3c-0.9-3.8-1.5-7.7-2-11.6
		c-0.1-3,0.3-19.5,0.6-29.4c0.1-3.6,0.2-6.2,0.2-6.7c0-8.7,0.3-9.3,0.5-9.6c0.4-0.8,5-9.2,5.2-9.6c0.1-0.2,0.4-0.3,0.7-0.2
		c0.2,0.1,0.3,0.4,0.2,0.7l0,0c0,0.1-4.8,8.8-5.2,9.5c-0.1,0.2-0.3,1.4-0.3,9.1c0,0.4-0.1,3.1-0.2,6.7c-0.3,9.2-0.8,26.3-0.6,29.3
		c0.5,3.9,1.1,7.7,2,11.5c0.9,4.7,1.9,9.6,2.4,13.3c0.6,4.6,1.5,14.6,2.1,21.8c0.4,4.5,0.8,8.8,0.9,9.1c0,0,1.1,3.3,0.6,5.4
		c-0.3,1.3-0.8,2.6-1.4,3.8c0.1,0.8,0.5,3.5,0.1,4.5C410.6,465.2,408.6,465.8,405.6,465.8z"/>
	<path class="st2" d="M394.9,459.9c-0.2,0-0.4-0.1-0.5-0.3c0,0-0.4-1.3-1.1-3.5c-0.4-1.3,0-2.7,1-3.6l-1.2-13c0-0.3,0.2-0.5,0.5-0.5
		c0.3,0,0.5,0.2,0.5,0.5l1.3,13.3c0,0.2-0.1,0.4-0.2,0.5c-0.9,0.6-1.2,1.7-0.9,2.7c0.6,2.2,1.1,3.5,1.1,3.5c0.1,0.3-0.1,0.5-0.3,0.6
		C395,459.8,395,459.9,394.9,459.9z"/>
	<path class="st2" d="M393.2,435.4c-0.3,0-0.5-0.2-0.5-0.5l-2-20.6c-0.9-0.5-1.7-1.2-2.3-2c-0.9-1.1,0.1-2.6,0.9-3.7
		c0.2-0.3,0.4-0.6,0.6-0.9c0,0-4-13.3-7.6-32c-0.2-0.9-0.3-1.9-0.5-2.8c0-0.3,0.1-0.5,0.4-0.6c0.3,0,0.5,0.2,0.6,0.4
		c0.1,1,0.3,1.9,0.5,2.8c3.6,18.6,7.6,31.9,7.6,32c0.2,0.5-0.2,1-0.7,1.7s-1.4,1.9-0.9,2.5c0.6,0.7,1.4,1.4,2.2,1.8
		c0.2,0.1,0.3,0.2,0.3,0.4l2,20.9C393.7,435.1,393.5,435.4,393.2,435.4C393.2,435.4,393.2,435.4,393.2,435.4L393.2,435.4z"/>
	<path class="st2" d="M381.5,367.5c-0.3,0-0.5-0.2-0.5-0.5c-1.8-17.5-0.5-39.7-0.5-39.9c0-0.3,0.2-0.5,0.5-0.5c0,0,0,0,0,0
		c0.3,0,0.5,0.3,0.5,0.5c0,0.2-1.2,22.4,0.5,39.7C382,367.3,381.8,367.5,381.5,367.5C381.5,367.5,381.5,367.5,381.5,367.5
		L381.5,367.5z"/>
	<path class="st2" d="M379.7,339.1c-0.1,0-0.2,0-0.3-0.1c-4.5-4-3.9-11.9-3.9-12.2c0-0.3,0.3-0.5,0.5-0.5c0.3,0,0.5,0.3,0.5,0.5
		c0,0,0,0,0,0c0,0.1-0.6,7.6,3.5,11.4c0.2,0.2,0.2,0.5,0,0.7C379.9,339,379.8,339.1,379.7,339.1L379.7,339.1z"/>
	<path class="st2" d="M394.7,334.1c-0.2,0-0.4-0.1-0.5-0.3l-1.3-3.3c-0.1-0.2,0-0.3,0.1-0.5c0.1-0.1,0.2-0.2,0.4-0.2
		c0.1,0,10.9-0.2,15.7-2.4c0.3-0.1,0.5,0,0.7,0.3c0,0,0,0,0,0c0.1,0.2,0,0.5-0.3,0.6c0,0,0,0,0,0c-4.4,1.9-12.8,2.3-15.4,2.4
		l0.9,2.2c1.5-0.1,7.6-0.5,10.2-1.5c0.3-0.1,0.5,0.1,0.6,0.3c0.1,0.3,0,0.5-0.3,0.6C402.4,333.6,395,334,394.7,334.1L394.7,334.1z"
		/>
	<path class="st8" d="M372.2,321.8c0,0,2.7,5,23.7,3.9s29.1-4.6,29.3-6.4c0-1.9-0.1-3.9-0.4-5.8
		C424.8,313.5,385.1,316.4,372.2,321.8z"/>
	<path class="st2" d="M390,326.4c-15.7,0-18.1-4.1-18.3-4.3c0-0.1,0-0.3,0-0.4c0-0.1,0.2-0.2,0.3-0.3c12.9-5.4,51.2-8.2,52.8-8.3
		c0.3,0,0.5,0.2,0.5,0.4c0.3,2,0.4,3.9,0.4,5.9c-0.3,2.6-10.6,5.8-29.8,6.8C393.8,326.3,391.8,326.4,390,326.4z M373,322
		c1.3,1.1,6.4,4.1,22.8,3.2c21.6-1.2,28.7-4.8,28.9-5.9c0-1.7-0.1-3.5-0.3-5.2C420,314.4,385.6,317.2,373,322z"/>
	<path class="st8" d="M383.7,231.7c0,0-11.8,5.4-12,7.1s-6.4,48.4-6.4,48.4l-9.2-10.8c0,0,0.2-3.9-0.4-5.4s-0.8-2.7-2.1-3.3
		s-5.8-1.7-6.9-2.7s-4.4-4-5.2-2.9s-2.3,3.1-1.9,4.4s1.9,4,1.9,4.8s0,6.6,2.5,9.3c1.7,1.7,3.8,3.1,6.2,3.9c0,0,6,15.8,8.1,18.9
		s11,10.2,11,10.2s-2.1,5-1.5,5.4s3.3,4.4,4,4.4s23.9-3.9,25.6-4s19.1,0,20.5-0.6c2.3-0.9,4.6-2,6.8-3.3c1.7-1.1,2.4-3.3,1.7-5.2
		c-0.8-3.1-1.5-24.9-1.5-26.8s3.9-17.2,5.6-23.1c2.2-8.7,3.9-17.5,5.2-26.4c0.2-2.9-2.1-9.6-2.9-10s-11.2-6-11.2-6
		S404.4,219.4,383.7,231.7z"/>
	<path class="st2" d="M371.8,324c-0.6,0-1.3-0.8-3.1-3c-0.4-0.5-0.8-1-1.2-1.5c-0.3-0.2-0.9-0.6,1.2-5.7c-1.6-1.3-8.9-7.3-10.8-10.1
		s-7.3-16.8-8.1-18.8c-2.3-0.8-4.4-2.2-6.1-3.9c-2.4-2.6-2.6-7.6-2.6-9.6c-0.2-0.8-0.5-1.5-0.9-2.3c-0.4-0.8-0.7-1.6-1-2.4
		c-0.4-1.4,0.8-3.1,1.6-4.4c0.1-0.2,0.2-0.4,0.3-0.5c0.2-0.3,0.5-0.4,0.8-0.5c1.1-0.2,2.9,1.2,4.7,2.8l0.5,0.4
		c1.5,0.8,3,1.4,4.7,1.9c0.9,0.3,1.7,0.5,2.1,0.7c1.3,0.6,1.7,1.6,2.1,2.9c0.1,0.2,0.1,0.4,0.2,0.7c0.4,1.8,0.5,3.6,0.4,5.4l8.4,9.8
		c0.9-7.1,6-45.7,6.2-47.3c0.2-1.8,8.6-5.9,12.2-7.5c20.5-12.2,37.8-13.7,38-13.8c0.1,0,0.2,0,0.3,0.1c0.1,0.1,10.4,5.6,11.2,6
		c1.2,0.6,3.4,7.9,3.2,10.5c-1.3,8.9-3,17.8-5.2,26.5c-1.9,6.5-5.6,21.3-5.6,23c0,2.2,0.8,23.8,1.5,26.7c0.7,2.1-0.1,4.5-1.9,5.7
		c-2.2,1.3-4.5,2.4-6.9,3.4c-0.9,0.4-6.4,0.4-14.2,0.5c-3.1,0-5.8,0-6.4,0.1c-0.8,0.1-6,0.9-11.6,1.8
		C377.4,323.2,372.2,324,371.8,324z M368.1,318.8c0.5,0.5,0.9,1,1.3,1.6c0.7,1,1.5,1.9,2.4,2.7c0.4,0,7.9-1.2,13.9-2.2
		c5.6-0.9,10.8-1.8,11.6-1.8c0.6-0.1,3.2-0.1,6.5-0.1c4.9,0,13-0.1,13.8-0.4c2.3-0.9,4.5-2,6.6-3.2c1.5-1,2.2-3,1.6-4.7
		c-0.8-3.2-1.6-25.3-1.6-26.9c0-2,3.9-17.2,5.6-23.3c2.2-8.7,3.9-17.5,5.2-26.3c0.2-2.8-2-9.1-2.6-9.6c-0.7-0.4-9.8-5.2-11-5.9
		c-1.7,0.2-18.1,2.1-37.4,13.6h0c-5.5,2.5-11.5,5.8-11.7,6.7c-0.2,1.7-6.1,46.5-6.4,48.4c0,0.2-0.2,0.4-0.4,0.4
		c-0.2,0.1-0.4,0-0.5-0.1l-9.3-10.8c-0.1-0.1-0.1-0.2-0.1-0.4c0.1-1.7,0-3.5-0.4-5.2l-0.2-0.7c-0.4-1.1-0.7-1.9-1.6-2.3
		c-0.4-0.2-1.2-0.4-2-0.7c-2-0.6-4.2-1.4-5-2.1l-0.5-0.5c-0.9-0.7-3.1-2.7-3.9-2.6c-0.1,0.2-0.3,0.4-0.4,0.5c-0.7,1-1.8,2.6-1.5,3.5
		c0.3,0.8,0.6,1.5,1,2.3c0.5,0.8,0.8,1.7,1,2.7c0,1.5,0.2,6.5,2.4,8.9c1.7,1.7,3.7,2.9,6,3.7c0.1,0,0.3,0.2,0.3,0.3
		c0.1,0.1,6,15.8,8,18.8s10.8,10,10.9,10.1c0.2,0.1,0.2,0.4,0.1,0.6C369,315.4,368.5,317.1,368.1,318.8L368.1,318.8z M383.7,231.7
		L383.7,231.7z"/>
	<path class="st2" d="M369.3,314.2c-0.2,0-0.5-0.2-0.5-0.4c0-0.3,0.1-0.5,0.4-0.6c2.6-0.4,6.9-1.4,7.7-2
		c1.1-1.3,11.2-30.5,11.6-32.3c0.3-1.4,0.8-16.8,1-22.7c0-0.3,0.2-0.5,0.5-0.5c0.3,0,0.5,0.2,0.5,0.5c0,0,0,0,0,0
		c0,0.9-0.6,21.1-1,22.9c-0.1,0.3-10.4,31.6-11.9,32.9c-1.2,1-7.4,2.1-8.1,2.2H369.3z"/>
	<path class="st2" d="M389.7,269.9h-0.1c-0.3-0.1-0.4-0.4-0.3-0.6l3.3-11.8c0.1-0.3,0.4-0.4,0.6-0.4c0.3,0.1,0.4,0.3,0.4,0.6
		l-3.3,11.8C390.1,269.7,389.9,269.9,389.7,269.9z"/>
	<path class="st2" d="M364.6,299.4c-0.2,0-0.5-0.2-0.5-0.4c-0.6-3.3,0.7-11.4,0.8-11.7c0-0.2,0.2-0.4,0.5-0.4l0,0
		c0.2,0,0.5,0.2,0.5,0.4c0,0.1,1.4,8,3.8,11.2c0.2,0.2,0.2,0.5,0,0.7c-0.2,0.2-0.5,0.2-0.7,0c0,0,0,0,0,0c-1.6-2.1-2.8-6-3.4-8.8
		c-0.3,2.7-0.7,6.6-0.4,8.5C365.2,299.1,365,299.3,364.6,299.4L364.6,299.4z"/>
	<path class="st3" d="M356.2,276.5c0,0,0.2-3.9-0.4-5.4s-0.8-2.7-2.1-3.3s-5.8-1.7-6.9-2.7s-4.4-4-5.2-2.9s-2.3,3.1-1.9,4.4
		s1.9,4,1.9,4.8s0,6.6,2.5,9.3c1.7,1.7,3.8,3.1,6.2,3.9c0,0,0.3,0.9,0.9,2.3c1.2-2.8,3.6-6.3,8.2-6.7L356.2,276.5z"/>
	<path class="st2" d="M351,287.4L351,287.4c-0.2,0-0.4-0.1-0.5-0.3l-0.8-2c-2.3-0.8-4.4-2.2-6.1-3.9c-2.4-2.6-2.6-7.6-2.6-9.6
		c-0.2-0.8-0.5-1.5-0.9-2.3c-0.4-0.8-0.7-1.6-1-2.4c-0.4-1.4,0.8-3.1,1.6-4.4c0.1-0.2,0.2-0.4,0.3-0.5c0.2-0.3,0.5-0.4,0.8-0.5
		c1.1-0.2,2.9,1.2,4.7,2.8l0.5,0.4c1.5,0.8,3,1.4,4.7,1.9c0.9,0.3,1.7,0.5,2.1,0.7c1.3,0.6,1.7,1.6,2.1,2.9c0.1,0.2,0.1,0.4,0.2,0.7
		c0.4,1.8,0.5,3.6,0.4,5.4l3,3.5c0.1,0.1,0.1,0.3,0.1,0.5c-0.1,0.2-0.2,0.3-0.4,0.3c-4.4,0.4-6.7,3.7-7.8,6.4
		C351.5,287.2,351.3,287.4,351,287.4z M342,262.5L342,262.5c-0.2,0.2-0.3,0.4-0.5,0.5c-0.7,1-1.8,2.6-1.5,3.5c0.3,0.8,0.6,1.5,1,2.3
		c0.5,0.8,0.8,1.7,1,2.7c0,1.5,0.2,6.5,2.4,8.9c1.7,1.7,3.7,2.9,6,3.7c0.1,0,0.3,0.2,0.3,0.3c0,0,0.2,0.4,0.4,1.1
		c1.3-3,4-5.2,7.2-5.8l-2.5-2.9c-0.1-0.1-0.1-0.2-0.1-0.4c0.1-1.7,0-3.5-0.4-5.2l-0.2-0.7c-0.4-1.1-0.7-1.9-1.6-2.3
		c-0.4-0.2-1.2-0.4-2-0.7c-2-0.6-4.2-1.4-5-2.1L346,265C345,264.3,342.9,262.5,342,262.5L342,262.5z"/>
	<path class="st2" d="M353.1,291.1c0,0-0.1,0-0.1,0c-0.3-0.1-0.4-0.3-0.3-0.6c0,0,0,0,0,0c1.2-3.4,3.9-6,7.3-7.1
		c0.3-0.1,0.5,0.1,0.6,0.3c0.1,0.3-0.1,0.5-0.3,0.6c-3.1,1-5.5,3.4-6.6,6.4C353.5,290.9,353.3,291.1,353.1,291.1z"/>
	<path class="st2" d="M397.4,320c-0.2,0-0.4-0.1-0.5-0.4c-0.1-0.3,0.1-0.5,0.3-0.6l19.5-5.8c0.3-0.1,0.5,0.1,0.6,0.3c0,0,0,0,0,0
		c0.1,0.3-0.1,0.5-0.3,0.6l-19.5,5.8C397.5,320,397.5,320,397.4,320z"/>
	<path class="st2" d="M398.2,289.5c-0.2,0-0.3-0.1-0.4-0.2c-0.2-0.2-0.1-0.5,0.1-0.7c9.9-7.2,22.1-20.5,22.3-20.6
		c0.2-0.2,0.5-0.1,0.7,0.1c0.1,0.2,0.2,0.4,0,0.6c-0.1,0.1-12.5,13.5-22.4,20.7C398.5,289.5,398.4,289.5,398.2,289.5z"/>
	<path class="st2" d="M400.9,291.2c-0.3,0-0.5-0.2-0.5-0.5c0-0.2,0.1-0.3,0.2-0.4c3.9-2.9,13.2-12.2,13.3-12.3
		c0.2-0.2,0.5-0.2,0.7,0c0,0,0,0,0,0c0.2,0.2,0.2,0.5,0,0.7c0,0,0,0,0,0c-0.4,0.4-9.4,9.4-13.4,12.4
		C401.1,291.1,401,291.2,400.9,291.2z"/>
</g>
</svg>
