<?xml version="1.0" encoding="utf-8"?>
<!-- Generator: Adobe Illustrator 25.4.1, SVG Export Plug-In . SVG Version: 6.00 Build 0)  -->
<svg version="1.1" id="Layer_1" xmlns="http://www.w3.org/2000/svg" xmlns:xlink="http://www.w3.org/1999/xlink" x="0px" y="0px"
	 viewBox="0 0 311.9 330.3" style="enable-background:new 0 0 311.9 330.3;" xml:space="preserve">
<style type="text/css">
	.st0{fill-rule:evenodd;clip-rule:evenodd;fill:#FBE9E7;}
	.st1{fill-rule:evenodd;clip-rule:evenodd;fill:#FFCCBC;}
	.st2{fill-rule:evenodd;clip-rule:evenodd;fill:#FFAB91;}
	.st3{fill:#FFE0B2;}
	.st4{fill:#FFDAA2;}
	.st5{fill-rule:evenodd;clip-rule:evenodd;fill:#353535;}
	.st6{fill-rule:evenodd;clip-rule:evenodd;fill:#3949AB;}
	.st7{fill-rule:evenodd;clip-rule:evenodd;fill:#303F9F;}
	.st8{fill-rule:evenodd;clip-rule:evenodd;fill:#283593;}
	.st9{fill-rule:evenodd;clip-rule:evenodd;fill:#1A237E;}
</style>
<g id="Layer_2_00000098933815146509208370000011568187758609265594_">
	<g id="Layer_1-2">
		<path class="st0" d="M100.8,233.1C58.3,248.5,21,248.9-13,278.3l-18.3,138.4h65.2l5.7-28.8c1.2,9.8,2.2,19.4,2.8,28.8h235.6
			c0.6-10.9,1.5-21.6,2.6-32.2l8.3,32.2h60l-25.6-141c-31.5-21.3-74.1-30.2-110.5-42.7l-45.6,23L156,291l-10.4-35.9L100.8,233.1z"/>
		<path class="st1" d="M213,233.1l-45.2,23.7l-11.8,33.2v126.7h122.3c0.6-10.9,1.5-21.6,2.6-32.2l8.3,32.2h60l-25.6-141l-13.8-9.6
			L213,233.1z"/>
		<path class="st1" d="M199.4,224.8l-33.8,30.1l-9.8,37.3l-10-37.6l-31.5-30.1l-28.3,12.1l25.5,64.6l33.2-41.7l11.2,33.8l11.3-33.9
			l31.8,42.6l24.5-67L199.4,224.8z"/>
		<path class="st2" d="M199.4,224.8l-33.8,30.1l-9.8,37.3l-0.1-0.4v1.1l0.1,0.2l11.3-33.9l31.8,42.6l24.9-67.2
			c-4.3-1.3-11.2-4-11.2-4l-13.2-6L199.4,224.8z"/>
		<path class="st3" d="M103,63.5C143.6,3.6,186.5,26.4,230,66c-3.4,57.8,3.4,95.5-31.7,137.8c-8.9,10.7-17.3,21.1-42.1,21.5
			c-18.8-0.2-25.5-8.8-35.2-20.5C90.6,168.6,101.6,120.7,103,63.5z"/>
		<path class="st4" d="M157.5,26.8h-1.7v198.4h0.5c24.8-0.4,33-10.7,42.1-21.5c35.1-42.2,28.3-80,31.7-137.8
			C205.6,43.7,181.2,26.8,157.5,26.8z"/>
		<path class="st5" d="M105.4,103.8l8.8-14.6c0,0,13.4-22.9,16.1-27.1c2.7-4.1,12-10.7,12-10.7c5.7-2.1,13.9-4,17.1-2.9
			c3.2,0.7,8.7,2.3,11.5,4.1c4.6,3.5,10.9,8.5,14.6,14.4c2,3.2,13.4,21.5,14.6,24.9c2.3,5,5.6,7.3,7.3,12.7c0,0-2-13.4-3.9-20.5
			c-2-7.1,4.6-23.9-8.3-32s-23.7-16.8-27.6-19s1.2-3.4-12.2-2.7c-13.4,0.7-6.3-10.2-25.6,5.4s-19-1.2-19.8,16.1s1.5,5.9-0.7,18.8
			s0.5,8.3-2.4,13.2s-4.6,8.3-3.9,12.4c0.3,2.2,0.8,4.3,1.5,6.3C104.9,104.1,105.4,103.8,105.4,103.8z"/>
		<path class="st6" d="M166,13.9c-26.3-0.2-53.3,11.8-69.9,42.2c-2.2,11-4.9,21.5-4.8,29.1c-6.7,17.2-8.8,29.3-10.6,47.4
			c-25.9,37.3-18.4,64.8-24.9,98.5c-18.4,7-37.1,16.5-38.8,26.3c4.1,27.7,6,28.5,18.8,51.8c5.9,13.2,14.4,22.2,18.3,35.4
			c22.3,15.9,67.7,46.6,101.7,51.2c33.9-7.2,63.8-27.7,87.9-49c24.5-20.5,33.2-59.1,49.8-86.3c-11.3-11.6-25-13.5-45-20
			c10-30.7,17.4-73,11.3-95.2c-3.8-20.8-9.5-41.2-17.2-61c-3.8-12.1-5.5-29.8-11.5-36.6C217.8,26.5,194,14.3,166,13.9z M156.2,40.4
			c23.3,3.7,29.6,15.1,45,44.8c4.2,11.5,7.6,23.2,10.1,35.1c13.7,39.5-1.6,68.7-18.7,88.3c-6.2,9.9-21.6,17-37.1,16.3
			c-12.7,0-20.2-4.5-28.5-14.3c-19.6-20.5-28.5-60.1-20.1-90.2c1.3-10.6,3.2-21.2,4.6-31.7C124.5,58.6,133.3,44.1,156.2,40.4
			L156.2,40.4z"/>
		<path class="st7" d="M166,13.9c-3.4,0-6.8,0.1-10.1,0.5v26c0.1,0,0.4-0.1,0.5-0.1c25.1,2.9,29.6,15.1,45,44.8
			c4.2,11.5,7.6,23.2,10.1,35.1c13.7,39.5-1.6,68.7-18.7,88.3c-6.2,9.9-21.6,17-37,16.3v171c33.9-7.2,63.8-27.7,87.9-49
			c24.5-20.5,33.2-59.1,49.8-86.3c-11.3-11.6-25-13.5-45-20c10-30.7,17.4-73,11.3-95.2c-3.8-20.8-9.5-41.2-17.2-61
			c-3.8-12.1-5.5-29.8-11.5-36.6C217.8,26.5,194,14.3,166,13.9z"/>
		<path class="st8" d="M243.6,86.6c0.1,1.3,1.3,2,0.7,4.4c-6.1,36-11.7,78.8-32.6,117.4c-9.9,12.7-23,20.7-29.6,26.3
			c-3.9,5.3-8.3,10.2-13.2,14.6l4,8c24.9-0.5,72.2-55,86.7-112.1c0.4,1,0.5,2.1,0.2,3.2C230.5,271.3,189,247,173.9,273
			c0,0-9.4-7.1-11.7-15.4l-5.1,4.9c-3.4,1.2-6.1-11-6.6-10l-12.3-12.1C97.8,222,88.6,151.1,89.5,89.9l2.1-4.4
			C95,128.8,95.8,185,117,212.1c8.5,11,25,30.4,41.1,32.4c16.7,0.4,20-12.4,30.4-23.2c16.2-8.2,13.8-9.3,14.1-9.6
			C226.7,185.5,231.1,131.5,243.6,86.6L243.6,86.6z"/>
		<path class="st8" d="M247.7,241.5c-19.4,59.8-92.2,47.2-112.4,32.6c-35.7-22.3-53.4-82.6-58.9-132.2c8.4,97,33,176,155.2,145.7
			c-7.4,14.1-12.3,40.7-31.1,42.7C146,336,74.8,288.8,75.6,191.6c-8,57.7,13.2,141.2,128.9,149.4c-42.6,17.9-85.1,14.5-127.6-4.9
			c27.6,25.2,63.8,43.4,136.3,11.5C238.2,328.8,264.5,289.2,247.7,241.5z"/>
		<path class="st8" d="M56.2,230.7c-2.7,36.2,3.9,90.6,12.1,120.5c-13.5-15.5-19.5-88.8-16.6-118.3L56.2,230.7z"/>
		<path class="st9" d="M247.7,241.5c-15,46.2-62,49.1-91.8,41.3v8.2c19.8,5,44.6,4.4,75.7-3.4c-7.4,14.1-12.3,40.7-31.1,42.7
			c-15.2,1.4-30.5-0.8-44.6-6.3v7.8c15.8,5.2,32.1,8.3,48.7,9.4c-15.4,6.6-31.9,10.5-48.7,11.5v11.6c16.2-1.6,35.1-6.7,57.4-16.5
			C238.2,328.8,264.5,289.2,247.7,241.5z"/>
		<path class="st9" d="M243.6,86.6c-12.6,44.9-16.8,98.8-41.1,125c-0.4,0.4,2.1,1.6-14.1,9.6c-10.5,10.7-13.7,23.5-30.4,23.2
			l-2.1-0.4v18c0.4,0.3,0.9,0.3,1.3,0.2l5.1-4.9c2.3,8.3,11.7,15.4,11.7,15.4c15-26,56.6-1.7,86-124.4c0.3-1.1,0.2-2.2-0.2-3.2
			c-14.5,57.1-61.8,111.6-86.7,112.1l-4-8c4.9-4.4,9.3-9.3,13.2-14.6c6.6-5.6,19.8-13.8,29.6-26.3c20.9-38.5,26.5-81.5,32.6-117.4
			C244.9,88.6,243.8,88,243.6,86.6L243.6,86.6z"/>
		<path class="st7" d="M149.2,37.7c-3.8,1.3-7.3,3-10.7,5.1c-2.7,1.5-7.1,3.7-10,8s-7.8,9.5-8.8,11.7c-1,2.2-4.9,9-6.1,11
			c-1.2,2,4.6-12.2,4.6-12.2l3.8-6.6c0,0,2.4-2.2,3.9-3.7c1.5-1.5,3.5-4.6,5.2-5.4c2.2-1.3,4.3-2.8,6.3-4.4l6.1-2.9L149.2,37.7z"/>
	</g>
</g>
</svg>
