<svg id="svg" version="1.1" xmlns="http://www.w3.org/2000/svg" xmlns:xlink="http://www.w3.org/1999/xlink" width="400" height="427.20647773279353" viewBox="0, 0, 400,427.20647773279353"><g id="svgg"><path id="path0" d="M99.680 242.528 L 0.008 299.109 0.004 363.158 L 0.000 427.206 36.680 427.206 C 56.854 427.206,80.903 427.109,90.121 426.991 L 106.883 426.777 106.883 369.340 C 106.883 337.749,106.828 311.903,106.761 311.903 C 106.694 311.903,97.694 317.198,86.761 323.670 L 66.883 335.437 66.800 359.135 L 66.716 382.834 51.873 382.834 L 37.030 382.834 36.809 352.329 C 36.687 335.552,36.700 321.720,36.837 321.591 C 37.631 320.845,199.467 229.833,200.000 229.833 C 200.533 229.833,362.369 320.845,363.163 321.591 C 363.300 321.720,363.313 335.552,363.191 352.329 L 362.970 382.834 348.127 382.834 L 333.284 382.834 333.200 359.135 L 333.117 335.437 313.239 323.670 C 302.306 317.198,293.306 311.903,293.239 311.903 C 293.172 311.903,293.117 337.749,293.117 369.340 L 293.117 426.777 309.879 426.991 C 319.097 427.109,343.146 427.206,363.320 427.206 L 400.000 427.206 399.996 363.158 L 399.992 299.109 300.370 242.591 C 245.577 211.506,200.434 186.044,200.050 186.009 C 199.636 185.972,158.850 208.938,99.680 242.528 " stroke="none" fill="#ecc474" fill-rule="evenodd"></path><path id="path1" d="M0.000 132.625 L 0.000 265.250 1.538 264.404 C 3.646 263.244,6.727 261.420,8.115 260.511 C 8.748 260.096,9.365 259.757,9.486 259.757 C 9.830 259.757,13.089 257.725,13.355 257.344 C 13.486 257.157,13.596 257.115,13.598 257.251 C 13.601 257.387,14.196 257.124,14.920 256.667 C 15.644 256.210,16.717 255.566,17.305 255.236 C 17.892 254.906,18.721 254.440,19.146 254.200 C 19.571 253.961,19.992 253.692,20.081 253.603 C 20.385 253.299,22.833 251.943,23.401 251.763 C 23.713 251.665,23.968 251.456,23.968 251.298 C 23.968 251.141,24.115 251.012,24.294 251.012 C 24.474 251.012,26.041 250.187,27.776 249.179 C 29.511 248.171,31.804 246.847,32.872 246.237 C 33.939 245.628,34.921 244.959,35.053 244.751 C 35.185 244.543,35.296 244.484,35.299 244.619 C 35.301 244.755,35.896 244.492,36.620 244.035 C 38.095 243.105,39.484 242.305,42.105 240.879 C 43.085 240.345,44.117 239.711,44.398 239.469 C 44.679 239.227,44.995 239.028,45.100 239.028 C 45.297 239.028,58.533 231.391,59.109 230.945 C 59.287 230.807,60.089 230.330,60.891 229.886 C 64.948 227.637,65.653 227.230,66.447 226.674 C 66.920 226.344,67.405 226.073,67.525 226.073 C 67.646 226.073,68.498 225.588,69.419 224.996 C 70.340 224.404,71.785 223.566,72.632 223.135 C 73.478 222.703,74.170 222.240,74.170 222.106 C 74.170 221.972,74.377 221.862,74.629 221.862 C 74.881 221.862,75.136 221.753,75.196 221.619 C 75.255 221.486,76.251 220.887,77.409 220.288 C 78.567 219.689,80.145 218.775,80.916 218.257 C 81.688 217.739,82.781 217.098,83.346 216.833 C 84.879 216.113,88.062 214.263,88.684 213.730 C 88.985 213.473,89.377 213.214,89.555 213.155 C 89.896 213.042,92.030 211.887,92.918 211.335 C 93.206 211.156,94.534 210.386,95.870 209.624 C 97.206 208.861,98.518 208.101,98.785 207.934 C 99.053 207.767,100.583 206.875,102.186 205.952 C 103.789 205.030,105.619 203.932,106.252 203.514 C 106.885 203.095,107.503 202.753,107.624 202.753 C 107.968 202.753,111.227 200.721,111.493 200.340 C 111.624 200.153,111.733 200.111,111.736 200.247 C 111.739 200.383,112.333 200.120,113.058 199.663 C 113.782 199.206,114.855 198.562,115.442 198.232 C 116.030 197.902,116.858 197.436,117.284 197.196 C 117.709 196.957,118.130 196.688,118.219 196.599 C 118.523 196.295,120.970 194.939,121.538 194.759 C 121.850 194.661,122.105 194.452,122.105 194.294 C 122.105 194.137,122.252 194.008,122.432 194.008 C 122.786 194.008,128.965 190.507,129.231 190.156 C 129.320 190.038,130.005 189.672,130.753 189.342 C 131.501 189.012,132.445 188.433,132.851 188.055 C 133.256 187.677,133.591 187.441,133.596 187.529 C 133.600 187.618,134.186 187.329,134.899 186.889 C 135.611 186.448,136.632 185.852,137.166 185.564 C 140.449 183.797,142.086 182.852,142.536 182.465 C 142.817 182.222,143.133 182.024,143.238 182.024 C 143.482 182.024,157.509 173.887,159.850 172.386 C 160.200 172.162,160.850 171.804,161.296 171.590 C 161.741 171.377,162.907 170.692,163.887 170.068 C 164.866 169.445,165.759 168.928,165.870 168.921 C 165.981 168.913,166.783 168.464,167.652 167.923 C 168.520 167.382,169.887 166.591,170.688 166.166 C 171.490 165.740,172.219 165.309,172.308 165.206 C 172.577 164.896,174.356 163.865,175.304 163.469 C 175.794 163.264,176.194 162.983,176.194 162.844 C 176.194 162.705,176.377 162.590,176.599 162.588 C 176.822 162.586,177.921 162.003,179.041 161.292 C 180.162 160.582,181.155 160.000,181.249 160.000 C 181.597 160.000,187.053 156.669,187.282 156.317 C 187.413 156.116,187.523 156.063,187.525 156.198 C 187.528 156.334,188.123 156.071,188.847 155.614 C 189.571 155.157,190.628 154.525,191.195 154.209 C 192.238 153.628,195.487 151.771,198.062 150.283 C 198.833 149.838,199.564 149.373,199.686 149.249 C 199.883 149.051,200.599 149.402,202.927 150.837 C 203.604 151.254,207.092 153.255,208.805 154.209 C 209.372 154.525,210.429 155.157,211.153 155.614 C 211.877 156.071,212.472 156.334,212.475 156.198 C 212.477 156.063,212.588 156.122,212.720 156.330 C 212.935 156.668,215.492 158.237,218.138 159.654 C 218.672 159.941,220.003 160.719,221.095 161.383 C 222.187 162.047,223.244 162.591,223.443 162.591 C 223.643 162.591,223.806 162.705,223.806 162.844 C 223.806 162.983,224.206 163.264,224.696 163.469 C 225.644 163.865,227.423 164.896,227.692 165.206 C 227.781 165.309,228.510 165.740,229.312 166.166 C 230.113 166.591,231.480 167.382,232.348 167.923 C 233.217 168.464,234.019 168.913,234.130 168.921 C 234.241 168.928,235.134 169.445,236.113 170.068 C 237.093 170.692,238.259 171.377,238.704 171.590 C 239.150 171.804,239.800 172.162,240.150 172.386 C 242.491 173.887,256.518 182.024,256.762 182.024 C 256.867 182.024,257.183 182.222,257.464 182.465 C 257.914 182.852,259.551 183.797,262.834 185.564 C 263.368 185.852,264.389 186.448,265.101 186.889 C 265.814 187.329,266.470 187.682,266.559 187.673 C 266.648 187.664,266.983 187.900,267.303 188.199 C 267.624 188.498,268.499 189.012,269.247 189.342 C 269.995 189.672,270.680 190.038,270.769 190.156 C 271.035 190.507,277.214 194.008,277.568 194.008 C 277.748 194.008,277.895 194.137,277.895 194.294 C 277.895 194.452,278.150 194.661,278.462 194.759 C 279.030 194.939,281.477 196.295,281.781 196.599 C 281.870 196.688,282.291 196.957,282.716 197.196 C 283.142 197.436,283.970 197.902,284.558 198.232 C 285.145 198.562,286.218 199.206,286.942 199.663 C 287.667 200.120,288.261 200.383,288.264 200.247 C 288.267 200.111,288.376 200.153,288.507 200.340 C 288.773 200.721,292.032 202.753,292.376 202.753 C 292.497 202.753,293.115 203.095,293.748 203.514 C 294.381 203.932,296.211 205.030,297.814 205.952 C 299.417 206.875,300.947 207.767,301.215 207.934 C 301.482 208.101,302.794 208.861,304.130 209.624 C 305.466 210.386,306.794 211.156,307.082 211.335 C 308.195 212.027,310.445 213.208,310.445 213.099 C 310.445 213.036,310.764 213.258,311.154 213.591 C 311.911 214.240,314.965 216.040,316.654 216.833 C 317.219 217.098,318.312 217.739,319.084 218.257 C 319.855 218.775,321.433 219.689,322.591 220.288 C 323.749 220.887,324.745 221.486,324.804 221.619 C 324.864 221.753,325.119 221.862,325.371 221.862 C 325.623 221.862,325.830 221.972,325.830 222.106 C 325.830 222.240,326.522 222.703,327.368 223.135 C 328.215 223.566,329.660 224.404,330.581 224.996 C 331.502 225.588,332.354 226.073,332.475 226.073 C 332.595 226.073,333.080 226.344,333.553 226.674 C 334.354 227.235,334.958 227.584,339.028 229.841 C 339.874 230.310,340.713 230.807,340.891 230.945 C 341.467 231.391,354.703 239.028,354.900 239.028 C 355.005 239.028,355.321 239.227,355.602 239.469 C 355.883 239.711,356.915 240.345,357.895 240.879 C 360.516 242.305,361.905 243.105,363.380 244.035 C 364.104 244.492,364.699 244.755,364.701 244.619 C 364.704 244.484,364.815 244.543,364.947 244.751 C 365.079 244.959,366.061 245.628,367.128 246.237 C 368.196 246.847,370.489 248.171,372.224 249.179 C 373.959 250.187,375.526 251.012,375.706 251.012 C 375.885 251.012,376.032 251.141,376.032 251.298 C 376.032 251.456,376.287 251.665,376.599 251.763 C 377.167 251.943,379.615 253.299,379.919 253.603 C 380.008 253.692,380.429 253.961,380.854 254.200 C 381.279 254.440,382.108 254.906,382.695 255.236 C 383.283 255.566,384.356 256.210,385.080 256.667 C 385.804 257.124,386.399 257.387,386.402 257.251 C 386.404 257.115,386.514 257.157,386.645 257.344 C 386.911 257.725,390.170 259.757,390.514 259.757 C 390.635 259.757,391.252 260.096,391.885 260.511 C 393.273 261.420,396.354 263.244,398.462 264.404 L 400.000 265.250 400.000 132.625 L 400.000 0.000 346.559 0.000 L 293.117 0.000 293.117 60.993 L 293.117 121.986 294.481 122.774 C 296.188 123.761,297.622 124.562,298.462 124.997 C 298.818 125.182,299.692 125.699,300.405 126.146 C 301.117 126.593,301.919 127.061,302.186 127.185 C 302.453 127.309,303.911 128.149,305.425 129.052 C 306.939 129.956,308.613 130.912,309.144 131.177 C 309.675 131.443,310.838 132.134,311.728 132.713 C 312.618 133.291,313.531 133.765,313.758 133.765 C 313.985 133.765,314.170 133.901,314.170 134.067 C 314.170 134.233,314.498 134.469,314.899 134.591 C 315.300 134.714,315.846 134.994,316.113 135.214 C 316.381 135.434,317.401 136.037,318.381 136.552 C 319.360 137.068,320.235 137.577,320.324 137.683 C 320.505 137.899,321.407 138.402,323.753 139.595 C 324.628 140.040,325.417 140.485,325.506 140.583 C 325.871 140.985,329.069 142.812,329.069 142.619 C 329.069 142.504,329.324 142.636,329.636 142.914 C 329.947 143.191,330.895 143.801,331.741 144.270 L 333.279 145.122 333.279 94.909 L 333.279 44.696 347.206 44.696 L 361.134 44.696 361.134 117.085 C 361.134 156.899,361.066 189.474,360.983 189.474 C 360.900 189.474,360.143 189.036,359.300 188.502 C 358.457 187.968,357.596 187.530,357.385 187.530 C 357.175 187.530,356.821 187.312,356.599 187.045 C 356.377 186.777,355.922 186.559,355.588 186.559 C 355.253 186.559,354.980 186.448,354.980 186.312 C 354.980 186.176,354.710 185.921,354.380 185.745 C 352.408 184.694,350.385 183.592,348.826 182.720 C 347.846 182.172,346.462 181.415,345.749 181.038 C 345.036 180.660,343.579 179.851,342.510 179.239 C 341.441 178.628,339.984 177.828,339.271 177.463 C 338.559 177.098,337.247 176.377,336.356 175.862 C 335.466 175.347,334.081 174.575,333.279 174.146 C 331.228 173.049,329.198 171.917,327.126 170.715 C 326.146 170.148,324.615 169.319,323.725 168.874 C 322.834 168.429,321.522 167.729,320.810 167.319 C 320.097 166.909,318.931 166.238,318.219 165.828 C 317.506 165.418,315.684 164.427,314.170 163.624 C 312.656 162.822,310.885 161.832,310.235 161.423 C 309.585 161.015,308.346 160.329,307.482 159.899 C 306.618 159.469,304.818 158.496,303.482 157.735 C 302.146 156.975,300.032 155.803,298.785 155.131 C 297.538 154.460,295.425 153.293,294.089 152.539 C 292.753 151.785,290.739 150.678,289.614 150.079 C 287.455 148.930,285.872 148.046,282.429 146.071 C 281.271 145.406,278.939 144.134,277.247 143.244 C 275.555 142.355,273.598 141.279,272.898 140.854 C 271.609 140.071,264.806 136.363,263.320 135.633 C 262.874 135.415,262.437 135.140,262.348 135.023 C 262.259 134.906,261.676 134.577,261.053 134.293 C 260.429 134.010,259.409 133.475,258.785 133.105 C 256.654 131.841,255.708 131.365,255.466 131.431 C 255.332 131.468,255.223 131.370,255.223 131.213 C 255.223 131.057,254.749 130.737,254.170 130.503 C 253.591 130.269,253.045 129.976,252.955 129.852 C 252.866 129.729,252.283 129.395,251.660 129.111 C 251.036 128.827,250.016 128.293,249.393 127.923 C 247.261 126.659,246.316 126.183,246.073 126.249 C 245.939 126.286,245.830 126.188,245.830 126.031 C 245.830 125.875,245.356 125.555,244.777 125.321 C 244.198 125.087,243.652 124.794,243.563 124.670 C 243.474 124.546,242.891 124.213,242.267 123.929 C 241.644 123.645,240.623 123.110,240.000 122.741 C 237.868 121.477,236.923 121.000,236.680 121.067 C 236.547 121.104,236.437 121.006,236.437 120.849 C 236.437 120.692,235.964 120.373,235.385 120.139 C 234.806 119.904,234.259 119.612,234.170 119.488 C 234.081 119.364,233.498 119.031,232.874 118.747 C 232.251 118.463,231.304 117.971,230.769 117.654 C 228.548 116.336,226.109 114.966,224.130 113.925 C 221.610 112.600,218.909 111.097,218.462 110.770 C 218.283 110.640,217.045 109.950,215.709 109.236 C 214.372 108.522,210.318 106.297,206.698 104.292 C 201.050 101.163,200.013 100.693,199.389 100.977 C 198.990 101.159,195.976 102.800,192.692 104.625 C 189.408 106.449,185.628 108.525,184.291 109.238 C 182.955 109.951,181.717 110.640,181.538 110.770 C 181.091 111.097,178.390 112.600,175.870 113.925 C 173.891 114.966,171.452 116.336,169.231 117.654 C 168.696 117.971,167.749 118.463,167.126 118.747 C 166.502 119.031,165.919 119.364,165.830 119.488 C 165.741 119.612,165.194 119.904,164.615 120.139 C 164.036 120.373,163.563 120.692,163.563 120.849 C 163.563 121.006,163.453 121.104,163.320 121.067 C 163.077 121.000,162.132 121.477,160.000 122.741 C 159.377 123.110,158.356 123.645,157.733 123.929 C 157.109 124.213,156.526 124.546,156.437 124.670 C 156.348 124.794,155.802 125.087,155.223 125.321 C 154.644 125.555,154.170 125.875,154.170 126.031 C 154.170 126.188,154.061 126.286,153.927 126.249 C 153.684 126.183,152.739 126.659,150.607 127.923 C 149.984 128.293,148.964 128.827,148.340 129.111 C 147.717 129.395,147.134 129.729,147.045 129.852 C 146.955 129.976,146.409 130.269,145.830 130.503 C 145.251 130.737,144.777 131.057,144.777 131.213 C 144.777 131.370,144.668 131.468,144.534 131.431 C 144.292 131.365,143.346 131.841,141.215 133.105 C 140.591 133.475,139.571 134.010,138.947 134.293 C 138.324 134.577,137.741 134.906,137.652 135.023 C 137.563 135.140,137.126 135.415,136.680 135.633 C 135.194 136.363,128.391 140.071,127.102 140.854 C 126.402 141.279,124.445 142.355,122.753 143.244 C 121.061 144.134,118.729 145.406,117.571 146.071 C 114.128 148.046,112.545 148.930,110.386 150.079 C 109.261 150.678,107.247 151.785,105.911 152.539 C 104.575 153.293,102.462 154.460,101.215 155.131 C 99.968 155.803,97.854 156.975,96.518 157.735 C 95.182 158.496,93.406 159.458,92.572 159.873 C 91.737 160.289,90.128 161.196,88.997 161.888 C 87.865 162.581,86.289 163.452,85.494 163.824 C 84.699 164.196,83.247 164.966,82.267 165.535 C 78.408 167.775,77.839 168.092,76.275 168.874 C 75.385 169.319,73.854 170.148,72.874 170.715 C 70.802 171.917,68.772 173.049,66.721 174.146 C 65.919 174.575,64.534 175.347,63.644 175.862 C 62.753 176.377,61.441 177.098,60.729 177.463 C 60.016 177.828,58.559 178.628,57.490 179.239 C 56.421 179.851,54.964 180.660,54.251 181.038 C 53.538 181.415,52.154 182.172,51.174 182.720 C 49.615 183.592,47.592 184.694,45.620 185.745 C 45.290 185.921,45.020 186.176,45.020 186.312 C 45.020 186.448,44.747 186.559,44.412 186.559 C 44.078 186.559,43.623 186.777,43.401 187.045 C 43.179 187.312,42.825 187.530,42.615 187.530 C 42.404 187.530,41.543 187.968,40.700 188.502 C 39.857 189.036,39.100 189.474,39.017 189.474 C 38.934 189.474,38.866 156.899,38.866 117.085 L 38.866 44.696 52.794 44.696 L 66.721 44.696 66.721 94.909 L 66.721 145.122 68.259 144.270 C 69.105 143.801,70.053 143.191,70.364 142.914 C 70.676 142.636,70.931 142.504,70.931 142.619 C 70.931 142.812,74.129 140.985,74.494 140.583 C 74.583 140.485,75.372 140.040,76.247 139.595 C 78.593 138.402,79.495 137.899,79.676 137.683 C 79.765 137.577,80.640 137.068,81.619 136.552 C 82.599 136.037,83.619 135.434,83.887 135.214 C 84.154 134.994,84.700 134.714,85.101 134.591 C 85.502 134.469,85.830 134.233,85.830 134.067 C 85.830 133.901,86.015 133.765,86.242 133.765 C 86.469 133.765,87.382 133.291,88.272 132.713 C 89.162 132.134,90.325 131.443,90.856 131.177 C 91.667 130.772,96.496 127.984,98.138 126.974 C 98.405 126.809,99.352 126.286,100.243 125.811 C 101.134 125.336,102.092 124.745,102.374 124.498 C 102.655 124.251,102.997 124.049,103.133 124.049 C 103.269 124.049,104.169 123.577,105.132 123.001 L 106.883 121.954 106.883 60.977 L 106.883 0.000 53.441 0.000 L 0.000 0.000 0.000 132.625 " stroke="none" fill="#0474b4" fill-rule="evenodd"></path><path id="path2" d="" stroke="none" fill="#0474bc" fill-rule="evenodd"></path><path id="path3" d="" stroke="none" fill="#f09c98" fill-rule="evenodd"></path><path id="path4" d="" stroke="none" fill="#409c98" fill-rule="evenodd"></path></g></svg>