<?xml version="1.0" encoding="utf-8"?>
<!-- Generator: Adobe Illustrator 25.4.1, SVG Export Plug-In . SVG Version: 6.00 Build 0)  -->
<svg version="1.1" id="Layer_1" xmlns="http://www.w3.org/2000/svg" xmlns:xlink="http://www.w3.org/1999/xlink" x="0px" y="0px"
	 viewBox="0 0 297.6 299" style="enable-background:new 0 0 297.6 299;" xml:space="preserve">
<style type="text/css">
	.st0{fill:#DEB09D;}
	.st1{fill:#F9CFB3;}
	.st2{fill:#E2BBA1;}
	.st3{fill:#824327;}
	.st4{fill:#BAD1DD;}
	.st5{fill:#78919E;}
	.st6{fill:#6A828C;}
	.st7{fill:#E4F4FF;}
	.st8{fill:#64787D;}
</style>
<g id="Layer_2_00000147214069605596182930000011795370537886311307_">
	<g id="_1">
		<g id="_9">
			<polygon class="st0" points="112.1,179.4 112.1,183.2 112.1,213.8 152.6,250.9 165.5,236.4 186.3,212.7 186.3,175 			"/>
			<path class="st1" d="M214.4,115.3c0-2.6-1.5-7-4.9-4.3c-1.5,1.2-0.8,3.9-2.2,4.9c-3.4,2.3-3.7-2.8-4-5.1
				c-0.9-8.6,3-16.8,1.9-25.2c-1.4-11.7-12.4-19.7-22.7-23.7c-11.1-3.9-23.2-4-34.4-0.3l-1.8-0.5v144.5h1.8c4.5,0.5,9.1,0,13.3-1.7
				c5.5-3.3,10.3-7.6,14.2-12.6c4.6-5.1,11.7-7.7,15.8-13.3c2-2.7,3.4-5.7,4.3-8.9c1.4-4.9,0.8-12.5,4.3-16.4c3.5-3.9,6.6-4.9,9-9.7
				C213.1,134.3,215,124.8,214.4,115.3z"/>
			<path class="st2" d="M113.8,61.7c-10.3,4-21.3,11.9-22.7,23.7c-1,8.4,2.8,16.6,1.9,25.2c-0.2,2.2-0.6,7.4-4,5.1
				c-1.4-0.9-0.6-3.7-2.2-4.9c-3.4-2.5-4.8,1.8-4.9,4.3c-0.7,9.5,1,19,4.9,27.7c2.4,4.8,5.7,6.2,9,9.7c3.3,3.5,3.1,11.5,4.3,16.4
				c0.9,3.2,2.4,6.2,4.3,8.9c4.1,5.6,11.1,8.2,15.8,13.3c4,5.1,8.9,9.3,14.4,12.6c3.6,1.5,7.6,2.1,11.5,1.7V60.9
				C135.7,57.8,124.3,58,113.8,61.7z"/>
			<path class="st3" d="M86.5,103.6c1.3,4.3,1.7,8.8,1.4,13.3c0,0.6,0,1.6,0,2.7H94c0.1-1.1,0.1-2.2,0-3.3c-0.2-3.2-0.2-6.5,0-9.7
				c0.3-4.7-0.3-9.6,0-14.3c1.5-12.1,11.4-21.3,23.6-22c8.6-0.7,17.2,1.1,25.8,1.1c10.7,0,15.5-5.1,23.9-10.4c2.3-1.4,0.9-1.6,3.3-1
				c1.5,0.4,3.5,2.5,4.8,3.3c8,4.9,22.4,9.8,24.7,20.1c1.4,8.2,1.8,16.5,1.2,24.7c-0.5,3.9-0.8,7.7-0.8,11.6h5.3
				c1.5-5,3.6-11.8,4.3-14.4c1.2-6.5,1.8-13,2-19.6c1.8-15.8,2.6-31-7.1-44.3c-10.5-14.2-25.8-22.5-34.4-21.5
				c-0.5,0-6.1,0.6-5.3,1.2c-3-2.8-8.2-3-11.8-3.9c-19.4-4.6-44,7.6-58.1,20.5c-14.9,13.6-12.7,31.1-11,48
				C84.5,91.8,85.2,97.7,86.5,103.6z"/>
			<path class="st4" d="M167.8,326l18.5-49.6l-34.1-38h-4.6c0,0-35.8,37.6-35.6,40.3l19.7,47.3H167.8z"/>
			<path class="st5" d="M139.1,326l-19.9-65.9l-11.7-38.7l-1.2,0.4L85.8,228c-26.5,8-67.9,20.6-68.8,21.5S5.8,270.1-2.4,286.8
				C-4.1,290.3-5,294.1-5,298v28H139.1z"/>
			<path class="st6" d="M302.6,326V299c0-5.5-1.2-11-3.7-16c-7.8-15.9-16.4-33.3-17.2-33.9c-0.8-0.6-42.5-13.3-69-21.5l-20.6-6.2
				l-1.3-0.4l-16.4,52.8L158.2,326H302.6z"/>
			<path class="st7" d="M186.9,202.2l-36.8,33.1c-0.5,0.5-1.4,0.5-1.9,0l-36.8-33.1l-8.2,24l15.9,52.5l28.8-40.6
				c0.5-0.7,1.4-0.8,2.1-0.3c0.1,0.1,0.2,0.2,0.3,0.3l28.9,40.6l15.9-52.5L186.9,202.2z"/>
			<path class="st8" d="M183,326l33.1-62.7l-19.3-8.1l22.2-10.9c-1.8-5.6-3.9-11.1-6.4-16.5l-20.6-6.2l-17.6,52.2l-5.6,16.7
				L156.7,326H183z"/>
			<path class="st8" d="M82.3,263.4l32.6,62.7h25.4l-10.8-35.5l-10.3-30.5l-12.9-38.4l-20.6,6.2c-2.4,5.4-4.5,10.8-6.3,16.4
				l22.2,10.9L82.3,263.4z"/>
		</g>
	</g>
</g>
</svg>
