<?xml version="1.0" encoding="utf-8"?>
<!-- Generator: Adobe Illustrator 25.4.1, SVG Export Plug-In . SVG Version: 6.00 Build 0)  -->
<svg version="1.1" id="Layer_1" xmlns="http://www.w3.org/2000/svg" xmlns:xlink="http://www.w3.org/1999/xlink" x="0px" y="0px"
	 viewBox="0 0 700 700" style="enable-background:new 0 0 700 700;" xml:space="preserve">
<style type="text/css">
	.st0{fill:#0B64F4;}
</style>
<g>
	<path class="st0" d="M177,238.8v-35h35v-17.5h-35v-35h-17.5v35h-35v17.5h35v35H177z"/>
	<path class="st0" d="M535.8,186.3h-77.8c-7.9,0-15.7,2.2-22.5,6.2l-27.1,16.3h0c-4.1,2.4-8.8,3.7-13.5,3.7H280.7
		c4.4-28.3-2-57.1-17.9-80.9c-15.9-23.8-40.2-40.6-68-47.3c-27.8-6.6-57.1-2.6-82.1,11.4c-24.9,14-43.7,36.8-52.6,64
		c-8.9,27.2-7.1,56.7,4.8,82.7c11.9,26,33.2,46.5,59.6,57.5h0v262.5c0,11.6,4.6,22.7,12.8,30.9s19.3,12.8,30.9,12.8h367.5
		c11.6,0,22.7-4.6,30.9-12.8s12.8-19.3,12.8-30.9V230c0-11.6-4.6-22.7-12.8-30.9S547.3,186.3,535.8,186.3L535.8,186.3z M394.8,230
		c7.9,0,15.7-2.2,22.5-6.2l27.1-16.3h0c4.1-2.4,8.8-3.7,13.5-3.7h77.8c7,0,13.6,2.8,18.6,7.7c4.9,4.9,7.7,11.6,7.7,18.6v148.8
		c-7.6-5.7-16.8-8.8-26.2-8.8v-78.8c0-7-2.8-13.6-7.7-18.6c-4.9-4.9-11.6-7.7-18.6-7.7H257.8c8.2-10.5,14.5-22.3,18.6-35L394.8,230z
		 M240.8,282.5h268.7c4.8,0,8.7,3.9,8.8,8.8V370h-49c-6,0-11.7-2-16.4-5.8l-24.6-19.7c-7.8-6.2-17.4-9.6-27.3-9.6H203.2v-31.8
		C217,298.8,229.7,291.7,240.8,282.5L240.8,282.5z M72,195c0-25.5,10.1-50,28.2-68.1c18.1-18.1,42.5-28.2,68.1-28.2
		s50,10.1,68.1,28.2c18.1,18.1,28.2,42.5,28.2,68.1s-10.1,50-28.2,68.1c-18.1,18.1-42.5,28.2-68.1,28.2c-25.5,0-50-10.2-68-28.2
		S72,220.5,72,195L72,195z M168.2,308.8c5.9,0,11.7-0.4,17.5-1.3V335H142v-29.3C150.6,307.7,159.4,308.8,168.2,308.8L168.2,308.8z
		 M562,562.5c0,7-2.8,13.6-7.7,18.6c-4.9,4.9-11.6,7.7-18.6,7.7H168.2c-7,0-13.6-2.8-18.6-7.7c-4.9-4.9-7.7-11.6-7.7-18.6v-210h259
		c6,0,11.7,2,16.4,5.8l24.6,19.7l0,0c7.8,6.2,17.4,9.6,27.3,9.6h66.5c7,0,13.6,2.8,18.6,7.7c4.9,4.9,7.7,11.6,7.7,18.6L562,562.5z"
		/>
</g>
</svg>
