<?xml version="1.0" encoding="utf-8"?>
<!-- Generator: Adobe Illustrator 25.4.1, SVG Export Plug-In . SVG Version: 6.00 Build 0)  -->
<svg version="1.1" id="Layer_1" xmlns="http://www.w3.org/2000/svg" xmlns:xlink="http://www.w3.org/1999/xlink" x="0px" y="0px"
	 viewBox="0 0 700 700" style="enable-background:new 0 0 700 700;" xml:space="preserve">
<style type="text/css">
	.st0{fill:#0069D9;}
</style>
<g>
	<path class="st0" d="M533.8,471.4c-4.8,0-8.8,3.9-8.8,8.8v135H135.9V195.4h96.5c4.8,0,8.8-3.9,8.8-8.8V90.1h284v219
		c0,4.8,3.9,8.8,8.8,8.8c4.8,0,8.8-3.9,8.8-8.8V81.4c0-4.8-3.9-8.8-8.8-8.8H232.3c-2.3,0-4.5,0.9-6.1,2.6l-8.4,8.4l-96.9,96.9
		c-1.7,1.7-2.6,4.1-2.5,6.5v0.3v436.6c0,4.8,3.9,8.8,8.8,8.8h406.7c4.8,0,8.8-3.9,8.8-8.8V480.1c0-2.3-0.9-4.6-2.6-6.2
		C538.4,472.3,536.1,471.3,533.8,471.4L533.8,471.4z M148.7,177.9l74.9-75.3v75.3H148.7z"/>
	<path class="st0" d="M445.2,236.3H232.3c-4.8,0-8.8,3.9-8.8,8.8s3.9,8.8,8.8,8.8h212.9c4.8,0,8.8-3.9,8.8-8.8
		S450.1,236.3,445.2,236.3z"/>
	<path class="st0" d="M445.2,281.8H232.3c-4.8,0-8.8,3.9-8.8,8.8s3.9,8.8,8.8,8.8h212.9c4.8,0,8.8-3.9,8.8-8.8
		S450.1,281.8,445.2,281.8z"/>
	<path class="st0" d="M445.2,327.3H232.3c-4.8,0-8.8,3.9-8.8,8.8s3.9,8.8,8.8,8.8h212.9c4.8,0,8.8-3.9,8.8-8.8
		S450.1,327.3,445.2,327.3z"/>
	<path class="st0" d="M454,381.6c0-4.8-3.9-8.8-8.8-8.8H232.3c-4.8,0-8.8,3.9-8.8,8.8s3.9,8.8,8.8,8.8h212.9
		C450.1,390.3,454,386.4,454,381.6z"/>
	<path class="st0" d="M354,574.7h91.2c4.8,0,8.8-3.9,8.8-8.8c0-4.8-3.9-8.8-8.8-8.8H354c-4.8,0-8.8,3.9-8.8,8.8
		C345.2,570.8,349.2,574.7,354,574.7z"/>
	<path class="st0" d="M670.7,306.3c-1.3-1.3-2.8-2.4-4.4-3.3l1.8-1.8c5.9-6.1,9.1-14.2,9-22.7c-0.1-8.5-3.6-16.5-9.7-22.4
		c-6.1-5.8-14.2-9-22.7-9c-8.5,0.1-16.5,3.6-22.4,9.7L431.1,453.6c-0.3,0.3-0.5,0.7-0.7,1.1c-0.3,0.3-0.5,0.6-0.8,1l-38,72.3v0
		c-1.4,2.7-1.3,6,0.2,8.6c1.6,2.6,4.4,4.2,7.5,4.2c1.5,0,3-0.4,4.3-1.2l71.2-40.1c0.3-0.2,0.6-0.5,0.9-0.8c0.4-0.2,0.7-0.5,1.1-0.7
		l174-179c1-1.1,2.4-1.8,3.9-1.8c1.5-0.1,2.9,0.5,4,1.6c1.1,1,1.7,2.5,1.7,4c0,1.5-0.6,2.9-1.7,3.9l-37.7,38.8
		c-3.4,3.5-3.3,9,0.2,12.4c3.5,3.4,9,3.3,12.4-0.2l37.7-38.8l0,0c4.2-4.4,6.6-10.3,6.5-16.4C677.6,316.4,675.1,310.5,670.7,306.3
		L670.7,306.3z M566.4,339.4l6.5,6.3c3.5,3.3,9,3.2,12.3-0.2c3.3-3.4,3.3-8.9-0.1-12.3l-6.5-6.3l56.3-57.9v0
		c2.7-2.7,6.3-4.3,10.1-4.4c3.8-0.1,7.5,1.3,10.2,4.1c2.7,2.7,4.3,6.3,4.4,10.1c0.1,3.8-1.4,7.5-4.1,10.2L470.3,479.5l-20.6-20
		L566.4,339.4z M439.7,474.1L456,490l-35.2,19.8L439.7,474.1z"/>
</g>
</svg>
