<?xml version="1.0" encoding="utf-8"?>
<!-- Generator: Adobe Illustrator 25.4.1, SVG Export Plug-In . SVG Version: 6.00 Build 0)  -->
<svg version="1.1" id="Layer_1" xmlns="http://www.w3.org/2000/svg" xmlns:xlink="http://www.w3.org/1999/xlink" x="0px" y="0px"
	 viewBox="0 0 1000 840" style="enable-background:new 0 0 1000 840;" xml:space="preserve">
<style type="text/css">
	.st0{fill:#FF7F00;}
</style>
<g>
	<path class="st0" d="M369.5,9.9C183.9,93.9,10,293.9,10,552.1c0,159.5,101.5,275.5,226.1,275.5c130.5,0,197.2-98.6,197.2-188.5
		c0-104.3-72.5-185.6-179.8-185.6c-31.9,0-63.8,8.7-81.2,23.2c0-127.6,101.4-278.4,258-356.6L369.5,9.9z M926.2,9.9
		C740.6,93.9,563.8,294,563.8,552.1c0,159.5,104.4,275.5,229,275.5C923.3,827.6,990,729,990,639.1c0-104.3-72.5-185.6-182.7-185.6
		c-31.9,0-60.9,8.7-78.3,23.2c0-127.6,101.5-278.4,258-356.6L926.2,9.9z"/>
</g>
</svg>
