<?xml version="1.0" encoding="utf-8"?>
<!-- Generator: Adobe Illustrator 25.4.1, SVG Export Plug-In . SVG Version: 6.00 Build 0)  -->
<svg version="1.1" xmlns="http://www.w3.org/2000/svg" xmlns:xlink="http://www.w3.org/1999/xlink" x="0px" y="0px"
	 viewBox="0 0 464 385" style="enable-background:new 0 0 464 385;" xml:space="preserve">
<g id="Floor">
	<ellipse id="Floor_3_" style="fill:#F5F5F5;" cx="232.17" cy="254.54" rx="223.22" ry="119.25"/>
</g>
<g id="Shadow_3_">
	<polygon id="Shadow_10_" style="fill:#E0E0E0;" points="142.34,320.92 71.17,279.54 191.55,209.97 	"/>
	<path id="Shadow_9_" style="fill:#E0E0E0;" d="M39.61,277.03l28.96,16.72c1.07,0.62,2.82,0.62,3.89,0l40.01-23.34
		c1.07-0.62,1.07-1.63,0-2.25l-28.96-16.72c-1.07-0.62-2.82-0.62-3.89,0l-40.01,23.34C38.53,275.41,38.53,276.41,39.61,277.03z"/>
</g>
<g id="Plants">
	<g id="Plants_4_">
		<g id="XMLID_14912_">
			<g id="XMLID_14914_">
				<path id="XMLID_14926_" style="fill:#27DEBF;" d="M42.75,274.4c-2.01-3.22-8.17-6.76-16.27-8.51
					c-8.1-1.75-16.24-3.93-14.37-8.62c2.01-5.07,9.54-5.32,16.9-2.3c8.05,3.3,14,11.47,14.12,16.6L42.75,274.4z"/>
			</g>
			<g id="XMLID_14915_" style="opacity:0.1;">
				<path id="XMLID_14916_" d="M42.75,274.4c-2.01-3.22-8.17-6.76-16.27-8.51c-8.1-1.75-16.24-3.93-14.37-8.62
					c2.01-5.07,9.54-5.32,16.9-2.3c8.05,3.3,14,11.47,14.12,16.6L42.75,274.4z"/>
			</g>
			<g id="XMLID_14913_">
				<path id="XMLID_14924_" style="fill:#FFFFFF;" d="M43.38,272.94c-0.23,0-0.44-0.13-0.55-0.34
					c-6.43-13.31-21.34-15.45-26.04-14.73c-0.33,0.05-0.64-0.17-0.69-0.51c-0.05-0.33,0.18-0.64,0.51-0.69
					c4.93-0.77,20.58,1.47,27.31,15.4c0.15,0.3,0.02,0.66-0.28,0.81C43.56,272.92,43.47,272.94,43.38,272.94z"/>
			</g>
		</g>
		<g id="XMLID_14909_">
			<g id="XMLID_14911_">
				<path id="XMLID_14921_" style="fill:#27DEBF;" d="M42.75,274.4c0,0-3.87-15.33-13.68-23.58c-2.91-2.45-6.02-5.51-8.19-7.63
					c-4.66-4.54-2.72-9.48,3.74-9.39c9.59,0.13,16.61,8.21,19.65,18.79C47.31,263.16,42.75,274.4,42.75,274.4z"/>
			</g>
			<g id="XMLID_14910_">
				<path id="XMLID_14919_" style="fill:#FFFFFF;" d="M44.28,268.45c-0.31,0-0.57-0.24-0.6-0.55c-1.81-19.5-16.68-29.3-20.73-30.34
					c-0.32-0.08-0.52-0.41-0.44-0.74c0.08-0.32,0.41-0.52,0.74-0.44c4.92,1.26,19.79,11.43,21.64,31.4
					c0.03,0.33-0.21,0.63-0.55,0.66C44.31,268.45,44.29,268.45,44.28,268.45z"/>
			</g>
		</g>
	</g>
</g>
<g id="Cabinet_2_">
	<g id="Cabinet">
		<g id="XMLID_14789_">
			<g id="XMLID_14806_">
				<polygon id="XMLID_14807_" style="fill:#263238;" points="69.59,291.26 42.26,275.48 42.26,216.88 69.59,232.66 				"/>
			</g>
			<g id="XMLID_14804_">
				<polygon id="XMLID_14805_" style="fill:#37474F;" points="69.59,232.66 108.63,210.12 108.63,268.72 69.59,291.26 				"/>
			</g>
			<g id="XMLID_14802_">
				<polygon id="XMLID_14803_" style="fill:#455A64;" points="108.63,210.12 69.59,232.66 42.26,216.88 81.31,194.34 				"/>
			</g>
			<g id="XMLID_14797_">
				<g id="XMLID_14798_">
					<path id="XMLID_14799_" style="fill:#263238;" d="M86.46,231.94l5.31-3.07c0.69-0.4,1.25-0.22,1.25,0.41
						c0,0.62-0.56,1.45-1.25,1.85l-5.31,3.07c-0.69,0.4-1.25,0.22-1.25-0.41C85.21,233.16,85.77,232.33,86.46,231.94z"/>
				</g>
			</g>
			<g id="XMLID_14790_">
				<g id="XMLID_14795_">
					<polygon id="XMLID_14796_" style="fill:#263238;" points="72.78,262.38 104.01,244.35 104.73,244.76 104.01,266.05 
						104.73,266.47 73.5,284.5 72.78,284.08 					"/>
				</g>
				<g id="XMLID_14793_">
					<polygon id="XMLID_14794_" style="fill:#455A64;" points="73.5,262.79 104.73,244.76 104.73,266.47 73.5,284.5 					"/>
				</g>
				<g id="XMLID_14791_">
					<path id="XMLID_14792_" style="fill:#263238;" d="M85.74,259.4l5.31-3.07c0.69-0.4,1.25-0.22,1.25,0.41
						c0,0.62-0.56,1.45-1.25,1.85l-5.31,3.07c-0.69,0.4-1.25,0.22-1.25-0.41C84.49,260.63,85.05,259.8,85.74,259.4z"/>
				</g>
			</g>
			<g id="XMLID_14759_">
				<g id="XMLID_14764_">
					<polygon id="XMLID_14765_" style="fill:#263238;" points="72.78,235.38 104.01,217.35 104.73,217.76 104.01,239.05 
						104.73,239.47 73.5,257.5 72.78,257.08 					"/>
				</g>
				<g id="XMLID_14762_">
					<polygon id="XMLID_14763_" style="fill:#455A64;" points="73.5,235.79 104.73,217.76 104.73,239.47 73.5,257.5 					"/>
				</g>
				<g id="XMLID_14760_">
					<path id="XMLID_14761_" style="fill:#263238;" d="M85.74,232.4l5.31-3.07c0.69-0.4,1.25-0.22,1.25,0.41
						c0,0.62-0.56,1.45-1.25,1.85l-5.31,3.07c-0.69,0.4-1.25,0.22-1.25-0.41C84.49,233.63,85.05,232.8,85.74,232.4z"/>
				</g>
			</g>
		</g>
	</g>
	<g id="Cabinet_1_">
		<g id="XMLID_14833_">
			<g id="XMLID_14850_">
				<polygon id="XMLID_14851_" style="fill:#263238;" points="69.59,230.16 42.26,214.39 42.26,155.78 69.59,171.56 				"/>
			</g>
			<g id="XMLID_14848_">
				<polygon id="XMLID_14849_" style="fill:#37474F;" points="69.59,171.56 108.63,149.02 108.63,207.62 69.59,230.16 				"/>
			</g>
			<g id="XMLID_14846_">
				<polygon id="XMLID_14847_" style="fill:#455A64;" points="108.63,149.02 69.59,171.56 42.26,155.78 81.31,133.24 				"/>
			</g>
			<g id="XMLID_14841_">
				<g id="XMLID_14844_">
					<polygon id="XMLID_14845_" style="fill:#263238;" points="73.5,173.81 104.73,155.78 105.45,156.2 105.45,177.9 74.21,195.94 
						73.5,195.52 					"/>
				</g>
				<g id="XMLID_14842_">
					<path id="XMLID_14843_" style="fill:#263238;" d="M86.46,170.84l5.31-3.07c0.69-0.4,1.25-0.22,1.25,0.41s-0.56,1.45-1.25,1.85
						l-5.31,3.07c-0.69,0.4-1.25,0.22-1.25-0.41C85.21,172.06,85.77,171.24,86.46,170.84z"/>
				</g>
			</g>
			<g id="XMLID_14834_">
				<g id="XMLID_14839_">
					<polygon id="XMLID_14840_" style="fill:#263238;" points="72.78,201.28 104.01,183.25 104.01,204.96 104.73,205.37 73.5,223.4 
						72.78,222.99 					"/>
				</g>
				<g id="XMLID_14837_">
					<polygon id="XMLID_14838_" style="fill:#455A64;" points="73.5,201.7 104.73,183.66 104.73,205.37 73.5,223.4 					"/>
				</g>
				<g id="XMLID_14835_">
					<path id="XMLID_14836_" style="fill:#263238;" d="M85.74,198.31l5.31-3.07c0.69-0.4,1.25-0.22,1.25,0.41
						c0,0.62-0.56,1.45-1.25,1.85l-5.31,3.07c-0.69,0.4-1.25,0.22-1.25-0.41C84.49,199.53,85.05,198.7,85.74,198.31z"/>
				</g>
			</g>
		</g>
		<g id="XMLID_14811_">
			<g id="XMLID_14831_">
				<polygon id="XMLID_14832_" style="fill:#263238;" points="73.5,173.81 104.73,155.78 104.73,177.49 73.5,195.52 				"/>
			</g>
			<g id="XMLID_14829_">
				<polygon id="XMLID_14830_" style="fill:#263238;" points="120.35,166.51 103.25,156.64 103.25,175.76 120.35,185.63 				"/>
			</g>
			<g id="XMLID_14822_">
				<g id="XMLID_14827_">
					<polygon id="XMLID_14828_" style="fill:#27DEBF;" points="85.21,198.61 85.21,171.56 91.91,167.68 93.02,169.31 112.54,158.04 
						112.54,182.83 					"/>
				</g>
				<g id="XMLID_14825_" style="opacity:0.2;">
					<polygon id="XMLID_14826_" points="85.21,198.61 85.21,171.56 91.91,167.68 93.02,169.31 112.54,158.04 112.54,182.83 					"/>
				</g>
				<g id="XMLID_14823_">
					<polygon id="XMLID_14824_" style="fill:#27DEBF;" points="85.21,198.61 87.16,174.94 114.49,159.16 112.54,182.83 					"/>
				</g>
			</g>
			<g id="XMLID_14820_">
				<polygon id="XMLID_14821_" style="fill:#37474F;" points="89.11,184.54 74.21,175.94 74.21,195.06 89.11,203.66 				"/>
			</g>
			<g id="XMLID_14818_">
				<polygon id="XMLID_14819_" style="fill:#455A64;" points="89.11,182.83 120.35,164.8 120.35,186.5 89.11,204.54 				"/>
			</g>
			<g id="XMLID_14816_">
				<path id="XMLID_14817_" style="fill:#263238;" d="M101.36,179.44l5.31-3.07c0.69-0.4,1.25-0.22,1.25,0.41
					c0,0.62-0.56,1.45-1.25,1.85l-5.31,3.07c-0.69,0.4-1.25,0.22-1.25-0.41C100.11,180.67,100.67,179.84,101.36,179.44z"/>
			</g>
			<g id="XMLID_14814_">
				<polygon id="XMLID_14815_" style="fill:#263238;" points="89.11,182.83 88.07,182.23 88.07,203.93 89.11,204.54 				"/>
			</g>
			<g id="XMLID_14812_">
				<polygon id="XMLID_14813_" style="fill:#37474F;" points="88.07,182.23 119.31,164.2 120.35,164.8 89.11,182.83 				"/>
			</g>
		</g>
	</g>
</g>
<g id="Window_1_">
	<g id="Window">
		<path id="XMLID_14380_" style="fill:#E6E6E6;" d="M349.97,26.3l-4.06-2.36L138.75,143.54v173.22c0,1.38,0.48,2.35,1.26,2.8l0,0
			l0.01,0l0,0l4.06,2.36v0c0.78,0.45,1.87,0.39,3.06-0.3l198.5-114.61c2.39-1.38,4.33-4.74,4.33-7.5L349.97,26.3z"/>
		<g id="XMLID_14399_">
			<path style="fill:#FAFAFA;" d="M145.2,321.72c-1.19,0-1.9-0.97-1.9-2.59V146.2L349.47,27.17l0,172.36c0,2.6-1.83,5.77-4.08,7.07
				L146.89,321.2C146.29,321.54,145.71,321.72,145.2,321.72L145.2,321.72z"/>
			<path style="fill:#E0E0E0;" d="M348.97,28.03l0,171.49c0,2.4-1.75,5.44-3.83,6.63l-198.5,114.61c-0.52,0.3-1.01,0.46-1.43,0.46
				c-1.26,0-1.4-1.46-1.4-2.09V146.48L348.97,28.03 M349.97,26.3L142.81,145.91v173.22c0,1.96,0.98,3.09,2.4,3.09
				c0.58,0,1.24-0.19,1.93-0.59l198.5-114.61c2.39-1.38,4.33-4.74,4.33-7.5L349.97,26.3L349.97,26.3z"/>
		</g>
		<g id="XMLID_14385_">
			<polygon id="XMLID_14398_" style="fill:#27DEBF;" points="142.81,145.91 142.81,164.66 349.97,45.05 349.97,26.3 			"/>
			<path id="XMLID_14397_" style="fill:#FAFAFA;" d="M272.79,78.21l0,4.04c0,0.83,0.58,1.16,1.3,0.75l63.69-36.77l0-7.04
				l-63.69,36.77C273.38,76.37,272.79,77.39,272.79,78.21z"/>
			<path id="XMLID_14396_" style="fill:#455A64;" d="M344.61,35.25c0.72-0.41,1.3-0.08,1.3,0.75v4.04c0,0.83-0.58,1.84-1.3,2.25
				l-6.83,3.94l0-7.04L344.61,35.25z"/>
			<path id="XMLID_14550_" style="fill:#FAFAFA;" d="M344.11,40.78l-0.76-0.24c0.08-0.32,0.12-0.66,0.12-0.98
				c0-0.78-0.25-1.37-0.69-1.63c-0.33-0.19-0.72-0.17-1.11,0.05c-0.85,0.49-1.52,1.88-1.52,3.17c0,0.78,0.25,1.37,0.69,1.63
				c0.15,0.09,0.31,0.13,0.48,0.13c0.2,0,0.42-0.06,0.63-0.18c0.51-0.3,0.96-0.92,1.23-1.65l0.76,0.24
				c0.03,0.01,0.06,0.01,0.08,0.01c0.12,0,0.23-0.08,0.27-0.2C344.34,40.99,344.25,40.83,344.11,40.78z M341.66,42.24
				c-0.21,0.12-0.39,0.14-0.54,0.05c-0.25-0.15-0.41-0.58-0.41-1.14c0-1.06,0.57-2.29,1.24-2.68c0.12-0.07,0.24-0.11,0.34-0.11
				c0.07,0,0.14,0.02,0.2,0.05c0.25,0.15,0.41,0.58,0.41,1.14C342.9,40.63,342.33,41.85,341.66,42.24z"/>
			<path id="XMLID_14388_" style="fill:#263238;" d="M344.68,12.09c-0.79-0.48-1.88-0.43-3.1,0.27l-198.5,114.61
				c-2.39,1.38-4.33,4.74-4.33,7.5v9.07l4.06,2.36L349.97,26.3v-9.07c0-1.37-0.48-2.34-1.25-2.79
				C347.99,14.01,345.39,12.52,344.68,12.09z"/>
			<path id="XMLID_14395_" style="fill:#37474F;" d="M142.81,136.84c0-2.76,1.94-6.12,4.33-7.5l198.5-114.61
				c2.39-1.38,4.33-0.26,4.33,2.5v9.07L142.81,145.91V136.84z"/>
			<path id="XMLID_14423_" style="fill:#455A64;" d="M348.76,14.46c-0.79-0.49-1.89-0.44-3.12,0.27l-198.5,114.6
				c-1.2,0.69-2.28,1.88-3.06,3.23l-4.07-2.35c0.79-1.36,1.87-2.55,3.07-3.24l198.5-114.61c1.22-0.7,2.32-0.75,3.1-0.27
				c0.71,0.43,3.31,1.92,4.04,2.34C348.73,14.44,348.75,14.45,348.76,14.46z"/>
			<g id="XMLID_14391_">
				<g id="XMLID_14393_">
					<path id="XMLID_4_" style="fill:#27DEBF;" d="M325.6,30.98c-1.12,0.65-2.03,2.22-2.03,3.52c0,1.3,0.91,1.82,2.03,1.17
						c1.12-0.65,2.03-2.22,2.03-3.52C327.63,30.86,326.72,30.33,325.6,30.98z"/>
					<path style="fill:#27DEBF;" d="M332.71,26.89c-1.12,0.65-2.03,2.22-2.03,3.52c0,1.3,0.91,1.82,2.03,1.17
						c1.12-0.65,2.03-2.22,2.03-3.52C334.74,26.76,333.83,26.24,332.71,26.89z"/>
					<path id="XMLID_1_" style="fill:#27DEBF;" d="M339.81,22.79c-1.12,0.65-2.03,2.22-2.03,3.52s0.91,1.82,2.03,1.17
						c1.12-0.65,2.03-2.22,2.03-3.52C341.85,22.67,340.94,22.14,339.81,22.79z"/>
				</g>
			</g>
		</g>
		<g id="XMLID_14386_">
			<path style="fill:#F5F5F5;" d="M145.2,321.72c-1.19,0-1.9-0.97-1.9-2.59V164.94l39.62-22.88v158.32l-36.04,20.81
				C146.29,321.54,145.71,321.72,145.2,321.72L145.2,321.72z"/>
			<path style="fill:#E0E0E0;" d="M182.43,142.93V300.1l-35.79,20.67c-0.52,0.3-1.01,0.46-1.43,0.46c-1.26,0-1.4-1.46-1.4-2.09
				v-153.9L182.43,142.93 M183.43,141.2l-40.62,23.45v154.47c0,1.96,0.98,3.09,2.4,3.09c0.58,0,1.24-0.19,1.93-0.59l36.29-20.95
				V141.2L183.43,141.2z"/>
		</g>
		<g id="XMLID_14452_">
			<g id="XMLID_14340_">
				<g id="XMLID_14447_">
					<path id="XMLID_14382_" style="fill:#E0E0E0;" d="M156.29,166.25l19.43-11.23c0.72-0.41,1.3-0.08,1.3,0.75l0,1.69
						c0,0.83-0.58,1.84-1.3,2.25l-19.43,11.23c-0.72,0.41-1.3,0.08-1.3-0.75l0-1.69C154.99,167.67,155.58,166.67,156.29,166.25z"/>
					<path id="XMLID_14383_" style="fill:#27DEBF;" d="M150.93,170.85v1.69c0,0.83-0.58,1.84-1.3,2.25l-1.46,0.85
						c-0.72,0.41-1.3,0.08-1.3-0.75l0-1.69c0-0.83,0.58-1.84,1.3-2.25l1.46-0.85C150.35,169.68,150.93,170.02,150.93,170.85z"/>
				</g>
				<g id="XMLID_14449_">
					<path id="XMLID_14389_" style="fill:#E0E0E0;" d="M156.29,175.6l19.43-11.23c0.72-0.41,1.3-0.08,1.3,0.75l0,1.69
						c0,0.83-0.58,1.84-1.3,2.25l-19.43,11.23c-0.72,0.41-1.3,0.08-1.3-0.75l0-1.69C154.99,177.02,155.58,176.01,156.29,175.6z"/>
					<path id="XMLID_14387_" style="fill:#27DEBF;" d="M150.93,180.19v1.69c0,0.83-0.58,1.84-1.3,2.25l-1.46,0.85
						c-0.72,0.41-1.3,0.08-1.3-0.75l0-1.69c0-0.83,0.58-1.84,1.3-2.25l1.46-0.85C150.35,179.03,150.93,179.37,150.93,180.19z"/>
				</g>
				<g id="XMLID_14451_">
					<path id="XMLID_14416_" style="fill:#E0E0E0;" d="M156.29,184.94l19.43-11.23c0.72-0.41,1.3-0.08,1.3,0.75l0,1.69
						c0,0.83-0.58,1.84-1.3,2.25l-19.43,11.23c-0.72,0.41-1.3,0.08-1.3-0.75l0-1.69C154.99,186.37,155.58,185.36,156.29,184.94z"/>
					<path id="XMLID_14390_" style="fill:#27DEBF;" d="M150.93,189.54v1.69c0,0.83-0.58,1.84-1.3,2.25l-1.46,0.85
						c-0.72,0.41-1.3,0.08-1.3-0.75l0-1.69c0-0.83,0.58-1.84,1.3-2.25l1.46-0.85C150.35,188.38,150.93,188.71,150.93,189.54z"/>
				</g>
			</g>
			<g id="XMLID_14445_">
				<g id="XMLID_14440_">
					<path id="XMLID_14501_" style="fill:#E0E0E0;" d="M156.29,215.94l19.43-11.23c0.72-0.41,1.3-0.08,1.3,0.75l0,1.69
						c0,0.83-0.58,1.84-1.3,2.25l-19.43,11.23c-0.72,0.41-1.3,0.08-1.3-0.75l0-1.69C154.99,217.36,155.58,216.35,156.29,215.94z"/>
					<path id="XMLID_14492_" style="fill:#27DEBF;" d="M150.93,220.53v1.69c0,0.83-0.58,1.84-1.3,2.25l-1.46,0.84
						c-0.72,0.41-1.3,0.08-1.3-0.75l0-1.69c0-0.83,0.58-1.84,1.3-2.25l1.46-0.85C150.35,219.37,150.93,219.7,150.93,220.53z"/>
				</g>
				<g id="XMLID_14442_">
					<path id="XMLID_14513_" style="fill:#E0E0E0;" d="M156.29,224.21l19.43-11.23c0.72-0.41,1.3-0.08,1.3,0.75l0,1.69
						c0,0.83-0.58,1.84-1.3,2.25l-19.43,11.23c-0.72,0.41-1.3,0.08-1.3-0.75l0-1.69C154.99,225.64,155.58,224.63,156.29,224.21z"/>
					<path id="XMLID_14512_" style="fill:#27DEBF;" d="M150.93,228.81v1.69c0,0.83-0.58,1.84-1.3,2.25l-1.46,0.85
						c-0.72,0.41-1.3,0.08-1.3-0.75l0-1.69c0-0.83,0.58-1.84,1.3-2.25l1.46-0.85C150.35,227.65,150.93,227.98,150.93,228.81z"/>
				</g>
				<g id="XMLID_14444_">
					<path id="XMLID_14537_" style="fill:#E0E0E0;" d="M156.29,232.49l19.43-11.23c0.72-0.41,1.3-0.08,1.3,0.75l0,1.69
						c0,0.83-0.58,1.84-1.3,2.25l-19.43,11.23c-0.72,0.41-1.3,0.08-1.3-0.75l0-1.69C154.99,233.91,155.58,232.91,156.29,232.49z"/>
					<path id="XMLID_14527_" style="fill:#27DEBF;" d="M150.93,237.09v1.69c0,0.83-0.58,1.84-1.3,2.25l-1.46,0.85
						c-0.72,0.41-1.3,0.08-1.3-0.75l0-1.69c0-0.83,0.58-1.84,1.3-2.25l1.46-0.85C150.35,235.92,150.93,236.26,150.93,237.09z"/>
				</g>
			</g>
			<g id="XMLID_14341_">
				<g id="XMLID_14490_">
					<polygon id="XMLID_14428_" style="fill:#27DEBF;" points="154.99,195.14 154.99,198.06 157.52,195.14 					"/>
					<path id="XMLID_14384_" style="fill:#E0E0E0;" d="M159.06,194.54c0,0.54,0.39,0.76,0.87,0.48l16.24-9.35
						c0.48-0.28,0.87-0.94,0.87-1.49c0-0.55-0.39-0.77-0.87-0.49l-16.24,9.37C159.44,193.34,159.06,194,159.06,194.54z"/>
				</g>
				<g id="XMLID_14494_">
					<polygon id="XMLID_14497_" style="fill:#27DEBF;" points="154.99,199.83 154.99,202.75 157.52,199.83 					"/>
					<path id="XMLID_14495_" style="fill:#E0E0E0;" d="M159.06,199.23c0,0.54,0.39,0.76,0.87,0.48l16.24-9.35
						c0.48-0.28,0.87-0.94,0.87-1.49c0-0.55-0.39-0.77-0.87-0.49l-16.24,9.37C159.44,198.03,159.06,198.69,159.06,199.23z"/>
				</g>
				<g id="XMLID_14503_">
					<polygon id="XMLID_14507_" style="fill:#27DEBF;" points="154.99,204.52 154.99,207.44 157.52,204.52 					"/>
					<path id="XMLID_14505_" style="fill:#E0E0E0;" d="M159.06,203.92c0,0.54,0.39,0.76,0.87,0.48l16.24-9.35
						c0.48-0.28,0.87-0.94,0.87-1.49s-0.39-0.77-0.87-0.49l-16.24,9.37C159.44,202.72,159.06,203.38,159.06,203.92z"/>
				</g>
				<g id="XMLID_14509_">
					<polygon id="XMLID_14511_" style="fill:#27DEBF;" points="154.99,209.21 154.99,212.13 157.52,209.21 					"/>
					<path id="XMLID_14510_" style="fill:#E0E0E0;" d="M159.06,208.61c0,0.54,0.39,0.76,0.87,0.48l16.24-9.35
						c0.48-0.28,0.87-0.94,0.87-1.49c0-0.55-0.39-0.77-0.87-0.49l-16.24,9.37C159.44,207.41,159.06,208.07,159.06,208.61z"/>
				</g>
			</g>
		</g>
		<g id="XMLID_3549_">
			<g id="XMLID_2830_">
				<g id="XMLID_14305_">
					<path id="XMLID_14308_" style="fill:#27DEBF;" d="M195.61,146.79v24.44c0,1.02,0.72,1.44,1.6,0.93l26.87-15.52
						c0.89-0.51,1.6-1.75,1.6-2.78v-20.1c0-1.02-0.72-1.44-1.6-0.93l-15.59,9c-0.89,0.51-1.6,0.1-1.6-0.93v-0.64
						c0-1.02-0.72-1.44-1.6-0.93l-8.07,4.66C196.33,144.53,195.61,145.77,195.61,146.79z"/>
					<path id="XMLID_14306_" style="fill:#E0E0E0;" d="M200.9,175.84v1.57c0,0.77,0.54,1.08,1.2,0.69l20.16-11.64
						c0.66-0.38,1.2-1.32,1.2-2.08v-1.56c0-0.77-0.54-1.08-1.2-0.69l-20.16,11.64C201.44,174.14,200.9,175.07,200.9,175.84z"/>
				</g>
				<g id="XMLID_14302_">
					<path id="XMLID_14304_" style="fill:#27DEBF;" d="M232.98,125.34v24.44c0,1.02,0.72,1.44,1.6,0.93l26.87-15.52
						c0.89-0.51,1.6-1.75,1.6-2.78v-20.1c0-1.02-0.72-1.44-1.6-0.93l-15.59,9c-0.89,0.51-1.6,0.1-1.6-0.93l0-0.64
						c0-1.02-0.72-1.44-1.6-0.93l-8.07,4.66C233.7,123.07,232.98,124.31,232.98,125.34z"/>
					<path id="XMLID_14303_" style="fill:#E0E0E0;" d="M238.26,154.39v1.57c0,0.77,0.54,1.08,1.2,0.69l20.16-11.64
						c0.66-0.38,1.2-1.32,1.2-2.08v-1.56c0-0.77-0.54-1.08-1.2-0.69l-20.16,11.64C238.8,152.69,238.26,153.62,238.26,154.39z"/>
				</g>
				<g id="XMLID_3534_">
					<path id="XMLID_3536_" style="fill:#27DEBF;" d="M195.61,195.89v24.44c0,1.02,0.72,1.44,1.6,0.93l26.87-15.52
						c0.89-0.51,1.6-1.75,1.6-2.78v-20.1c0-1.02-0.72-1.44-1.6-0.93l-15.59,9c-0.89,0.51-1.6,0.1-1.6-0.93v-0.64
						c0-1.02-0.72-1.44-1.6-0.93l-8.07,4.66C196.33,193.62,195.61,194.87,195.61,195.89z"/>
					<path id="XMLID_3535_" style="fill:#E0E0E0;" d="M200.9,224.94v1.57c0,0.77,0.54,1.08,1.2,0.69l20.16-11.64
						c0.66-0.38,1.2-1.32,1.2-2.08v-1.56c0-0.77-0.54-1.08-1.2-0.69l-20.16,11.64C201.44,223.24,200.9,224.17,200.9,224.94z"/>
				</g>
				<g id="XMLID_3293_">
					<path id="XMLID_3533_" style="fill:#27DEBF;" d="M232.98,174.43v24.44c0,1.02,0.72,1.44,1.6,0.93l26.87-15.52
						c0.89-0.51,1.6-1.75,1.6-2.78v-20.1c0-1.02-0.72-1.44-1.6-0.93l-15.59,9c-0.89,0.51-1.6,0.1-1.6-0.93l0-0.64
						c0-1.02-0.72-1.44-1.6-0.93l-8.07,4.66C233.7,172.17,232.98,173.41,232.98,174.43z"/>
					<path id="XMLID_3524_" style="fill:#E0E0E0;" d="M238.26,203.49v1.57c0,0.77,0.54,1.08,1.2,0.69l20.16-11.64
						c0.66-0.38,1.2-1.32,1.2-2.08v-1.56c0-0.77-0.54-1.08-1.2-0.69l-20.16,11.64C238.8,201.79,238.26,202.72,238.26,203.49z"/>
				</g>
				<g id="XMLID_14298_">
					<path id="XMLID_14301_" style="fill:#27DEBF;" d="M270.78,102.7v24.44c0,1.02,0.72,1.44,1.6,0.93l26.87-15.52
						c0.89-0.51,1.6-1.75,1.6-2.78v-20.1c0-1.02-0.72-1.44-1.6-0.93l-15.59,9c-0.89,0.51-1.6,0.1-1.6-0.93l0-0.64
						c0-1.02-0.72-1.44-1.6-0.93l-8.07,4.66C271.5,100.44,270.78,101.68,270.78,102.7z"/>
					<path id="XMLID_14300_" style="fill:#E0E0E0;" d="M275.62,132.93v1.57c0,0.77,0.54,1.08,1.2,0.69l20.16-11.64
						c0.66-0.38,1.2-1.32,1.2-2.08v-1.56c0-0.77-0.54-1.08-1.2-0.69l-20.16,11.64C276.16,131.23,275.62,132.16,275.62,132.93z"/>
				</g>
				<g id="XMLID_14273_">
					<path id="XMLID_14297_" style="fill:#27DEBF;" d="M307.7,82.43v24.44c0,1.02,0.72,1.44,1.6,0.93l26.87-15.52
						c0.89-0.51,1.6-1.75,1.6-2.78V69.4c0-1.02-0.72-1.44-1.6-0.93l-15.59,9c-0.89,0.51-1.6,0.1-1.6-0.93l0-0.64
						c0-1.02-0.72-1.44-1.6-0.93l-8.07,4.66C308.42,80.16,307.7,81.4,307.7,82.43z"/>
					<path id="XMLID_14296_" style="fill:#E0E0E0;" d="M312.99,111.48v1.57c0,0.77,0.54,1.08,1.2,0.69l20.16-11.64
						c0.66-0.38,1.2-1.32,1.2-2.08v-1.56c0-0.77-0.54-1.08-1.2-0.69l-20.16,11.64C313.52,109.78,312.99,110.71,312.99,111.48z"/>
				</g>
			</g>
			<g id="XMLID_3931_">
				<path id="XMLID_3538_" style="fill:#E0E0E0;" d="M275.62,182.01v1.57c0,0.77,0.54,1.08,1.2,0.69l20.16-11.64
					c0.66-0.38,1.2-1.32,1.2-2.08v-1.56c0-0.77-0.54-1.08-1.2-0.69l-20.16,11.64C276.16,180.31,275.62,181.24,275.62,182.01z"/>
				<g id="XMLID_3545_">
					<g id="XMLID_3539_">
						<path id="XMLID_3292_" style="fill:#FAFAFA;stroke:#EBEBEB;stroke-miterlimit:10;" d="M276.13,147.66l20.91-12.07
							c0.96-0.55,1.73-0.1,1.73,1v24.14c0,1.1-0.78,2.45-1.73,3l-20.91,12.07c-0.96,0.55-1.73,0.1-1.73-1v-24.14
							C274.4,149.56,275.17,148.22,276.13,147.66z"/>
						<path id="XMLID_3537_" style="fill:#27DEBF;" d="M299.5,138.85l-4.66,2.69c-0.96,0.55-1.73,1.9-1.73,3v5.38
							c0,1.1,0.78,1.55,1.73,1l4.66-2.69c0.96-0.55,1.73-1.9,1.73-3v-5.38C301.23,138.75,300.45,138.3,299.5,138.85z"/>
					</g>
					<path id="XMLID_3544_" style="fill:#EBEBEB;" d="M277.72,150.27l10.47-6.03c0.48-0.28,0.87-0.05,0.87,0.5v0.33
						c0,0.55-0.39,1.22-0.87,1.5l-10.47,6.04c-0.48,0.28-0.87,0.05-0.87-0.5l0-0.35C276.86,151.22,277.24,150.55,277.72,150.27z"/>
					<path id="XMLID_3547_" style="fill:#EBEBEB;" d="M277.72,154.95l10.47-6.03c0.48-0.28,0.87-0.05,0.87,0.5v0.33
						c0,0.55-0.39,1.22-0.87,1.5l-10.47,6.04c-0.48,0.28-0.87,0.05-0.87-0.5l0-0.35C276.86,155.9,277.24,155.23,277.72,154.95z"/>
					<path id="XMLID_3548_" style="fill:#EBEBEB;" d="M277.72,159.64l10.47-6.03c0.48-0.28,0.87-0.05,0.87,0.5v0.33
						c0,0.55-0.39,1.22-0.87,1.5l-10.47,6.04c-0.48,0.28-0.87,0.05-0.87-0.5l0-0.35C276.86,160.59,277.24,159.91,277.72,159.64z"/>
					<path id="XMLID_3868_" style="fill:#EBEBEB;" d="M277.72,164.32l17.4-10.03c0.48-0.28,0.87-0.05,0.87,0.5v0.33
						c0,0.55-0.39,1.22-0.87,1.5l-17.4,10.04c-0.48,0.28-0.87,0.05-0.87-0.5l0-0.35C276.86,165.27,277.24,164.6,277.72,164.32z"/>
					<path id="XMLID_3921_" style="fill:#EBEBEB;" d="M277.72,169.01l17.4-10.03c0.48-0.28,0.87-0.05,0.87,0.5v0.33
						c0,0.55-0.39,1.22-0.87,1.5l-17.4,10.04c-0.48,0.28-0.87,0.05-0.87-0.5l0-0.35C276.86,169.95,277.24,169.28,277.72,169.01z"/>
				</g>
			</g>
			<g id="XMLID_14270_">
				<path id="XMLID_14317_" style="fill:#E0E0E0;" d="M312.18,160.91v1.57c0,0.77,0.54,1.08,1.2,0.69l20.16-11.64
					c0.66-0.38,1.2-1.32,1.2-2.08v-1.56c0-0.77-0.54-1.08-1.2-0.69l-20.16,11.64C312.72,159.21,312.18,160.14,312.18,160.91z"/>
				<g id="XMLID_14271_">
					<g id="XMLID_14314_">
						<path id="XMLID_14316_" style="fill:#FAFAFA;stroke:#EBEBEB;stroke-miterlimit:10;" d="M312.69,126.56l20.91-12.07
							c0.96-0.55,1.73-0.1,1.73,1v24.14c0,1.1-0.78,2.45-1.73,3l-20.91,12.07c-0.96,0.55-1.73,0.1-1.73-1v-24.14
							C310.95,128.45,311.73,127.11,312.69,126.56z"/>
						<path id="XMLID_14315_" style="fill:#27DEBF;" d="M336.05,117.75l-4.66,2.69c-0.96,0.55-1.73,1.9-1.73,3v5.38
							c0,1.1,0.78,1.55,1.73,1l4.66-2.69c0.96-0.55,1.73-1.9,1.73-3v-5.38C337.79,117.64,337.01,117.19,336.05,117.75z"/>
					</g>
					<path id="XMLID_14313_" style="fill:#EBEBEB;" d="M314.28,129.16l10.47-6.03c0.48-0.28,0.87-0.05,0.87,0.5v0.33
						c0,0.55-0.39,1.22-0.87,1.5l-10.47,6.04c-0.48,0.28-0.87,0.05-0.87-0.5l0-0.35C313.41,130.11,313.8,129.44,314.28,129.16z"/>
					<path id="XMLID_14312_" style="fill:#EBEBEB;" d="M314.28,133.85l10.47-6.03c0.48-0.28,0.87-0.05,0.87,0.5v0.33
						c0,0.55-0.39,1.22-0.87,1.5l-10.47,6.04c-0.48,0.28-0.87,0.05-0.87-0.5l0-0.35C313.41,134.8,313.8,134.12,314.28,133.85z"/>
					<path id="XMLID_14311_" style="fill:#EBEBEB;" d="M314.28,138.53l10.47-6.03c0.48-0.28,0.87-0.05,0.87,0.5v0.33
						c0,0.55-0.39,1.22-0.87,1.5l-10.47,6.04c-0.48,0.28-0.87,0.05-0.87-0.5l0-0.35C313.41,139.48,313.8,138.81,314.28,138.53z"/>
					<path id="XMLID_14310_" style="fill:#EBEBEB;" d="M314.28,143.22l17.4-10.03c0.48-0.28,0.87-0.05,0.87,0.5v0.33
						c0,0.55-0.39,1.22-0.87,1.5l-17.4,10.04c-0.48,0.28-0.87,0.05-0.87-0.5l0-0.35C313.41,144.16,313.8,143.49,314.28,143.22z"/>
					<path id="XMLID_14309_" style="fill:#EBEBEB;" d="M314.28,147.9l17.4-10.03c0.48-0.28,0.87-0.05,0.87,0.5v0.33
						c0,0.55-0.39,1.22-0.87,1.5l-17.4,10.04c-0.48,0.28-0.87,0.05-0.87-0.5l0-0.35C313.41,148.85,313.8,148.18,314.28,147.9z"/>
				</g>
			</g>
			<g id="XMLID_14329_">
				<path id="XMLID_14339_" style="fill:#E0E0E0;" d="M275.62,231.83v1.57c0,0.77,0.54,1.08,1.2,0.69l20.16-11.64
					c0.66-0.38,1.2-1.32,1.2-2.08v-1.56c0-0.77-0.54-1.08-1.2-0.69l-20.16,11.64C276.16,230.13,275.62,231.06,275.62,231.83z"/>
				<g id="XMLID_14330_">
					<g id="XMLID_14336_">
						<path id="XMLID_14338_" style="fill:#FAFAFA;stroke:#EBEBEB;stroke-miterlimit:10;" d="M276.13,197.48l20.91-12.07
							c0.96-0.55,1.73-0.1,1.73,1v24.14c0,1.1-0.78,2.45-1.73,3l-20.91,12.07c-0.96,0.55-1.73,0.1-1.73-1v-24.14
							C274.4,199.38,275.17,198.03,276.13,197.48z"/>
						<path id="XMLID_14337_" style="fill:#27DEBF;" d="M299.5,188.67l-4.66,2.69c-0.96,0.55-1.73,1.9-1.73,3v5.38
							c0,1.1,0.78,1.55,1.73,1l4.66-2.69c0.96-0.55,1.73-1.9,1.73-3v-5.38C301.23,188.57,300.45,188.12,299.5,188.67z"/>
					</g>
					<path id="XMLID_14335_" style="fill:#EBEBEB;" d="M277.72,200.09l10.47-6.03c0.48-0.28,0.87-0.05,0.87,0.5v0.33
						c0,0.55-0.39,1.22-0.87,1.5l-10.47,6.04c-0.48,0.28-0.87,0.05-0.87-0.5l0-0.35C276.86,201.04,277.24,200.36,277.72,200.09z"/>
					<path id="XMLID_14334_" style="fill:#EBEBEB;" d="M277.72,204.77l10.47-6.03c0.48-0.28,0.87-0.05,0.87,0.5v0.33
						c0,0.55-0.39,1.22-0.87,1.5l-10.47,6.04c-0.48,0.28-0.87,0.05-0.87-0.5l0-0.35C276.86,205.72,277.24,205.05,277.72,204.77z"/>
					<path id="XMLID_14333_" style="fill:#EBEBEB;" d="M277.72,209.46l10.47-6.03c0.48-0.28,0.87-0.05,0.87,0.5v0.33
						c0,0.55-0.39,1.22-0.87,1.5l-10.47,6.04c-0.48,0.28-0.87,0.05-0.87-0.5l0-0.35C276.86,210.4,277.24,209.73,277.72,209.46z"/>
					<path id="XMLID_14332_" style="fill:#EBEBEB;" d="M277.72,214.14l17.4-10.03c0.48-0.28,0.87-0.05,0.87,0.5v0.33
						c0,0.55-0.39,1.22-0.87,1.5l-17.4,10.04c-0.48,0.28-0.87,0.05-0.87-0.5l0-0.35C276.86,215.09,277.24,214.42,277.72,214.14z"/>
					<path id="XMLID_14331_" style="fill:#EBEBEB;" d="M277.72,218.83l17.4-10.03c0.48-0.28,0.87-0.05,0.87,0.5v0.33
						c0,0.55-0.39,1.22-0.87,1.5l-17.4,10.04c-0.48,0.28-0.87,0.05-0.87-0.5l0-0.35C276.86,219.77,277.24,219.1,277.72,218.83z"/>
				</g>
			</g>
			<g id="XMLID_14318_">
				<path id="XMLID_14328_" style="fill:#E0E0E0;" d="M312.18,210.72v1.57c0,0.77,0.54,1.08,1.2,0.69l20.16-11.64
					c0.66-0.38,1.2-1.32,1.2-2.08v-1.56c0-0.77-0.54-1.08-1.2-0.69l-20.16,11.64C312.72,209.03,312.18,209.96,312.18,210.72z"/>
				<g id="XMLID_14319_">
					<g id="XMLID_14325_">
						<path id="XMLID_14327_" style="fill:#FAFAFA;stroke:#EBEBEB;stroke-miterlimit:10;" d="M312.69,176.38l20.91-12.07
							c0.96-0.55,1.73-0.1,1.73,1v24.14c0,1.1-0.78,2.45-1.73,3l-20.91,12.07c-0.96,0.55-1.73,0.1-1.73-1v-24.14
							C310.95,178.27,311.73,176.93,312.69,176.38z"/>
						<path id="XMLID_14326_" style="fill:#27DEBF;" d="M336.05,167.57l-4.66,2.69c-0.96,0.55-1.73,1.9-1.73,3v5.38
							c0,1.1,0.78,1.55,1.73,1l4.66-2.69c0.96-0.55,1.73-1.9,1.73-3v-5.38C337.79,167.46,337.01,167.01,336.05,167.57z"/>
					</g>
					<path id="XMLID_14324_" style="fill:#EBEBEB;" d="M314.28,178.98l10.47-6.03c0.48-0.28,0.87-0.05,0.87,0.5v0.33
						c0,0.55-0.39,1.22-0.87,1.5l-10.47,6.04c-0.48,0.28-0.87,0.05-0.87-0.5l0-0.35C313.41,179.93,313.8,179.26,314.28,178.98z"/>
					<path id="XMLID_14323_" style="fill:#EBEBEB;" d="M314.28,183.67l10.47-6.03c0.48-0.28,0.87-0.05,0.87,0.5v0.33
						c0,0.55-0.39,1.22-0.87,1.5l-10.47,6.04c-0.48,0.28-0.87,0.05-0.87-0.5l0-0.35C313.41,184.61,313.8,183.94,314.28,183.67z"/>
					<path id="XMLID_14322_" style="fill:#EBEBEB;" d="M314.28,188.35l10.47-6.03c0.48-0.28,0.87-0.05,0.87,0.5v0.33
						c0,0.55-0.39,1.22-0.87,1.5l-10.47,6.04c-0.48,0.28-0.87,0.05-0.87-0.5l0-0.35C313.41,189.3,313.8,188.63,314.28,188.35z"/>
					<path id="XMLID_14321_" style="fill:#EBEBEB;" d="M314.28,193.04l17.4-10.03c0.48-0.28,0.87-0.05,0.87,0.5v0.33
						c0,0.55-0.39,1.22-0.87,1.5l-17.4,10.04c-0.48,0.28-0.87,0.05-0.87-0.5l0-0.35C313.41,193.98,313.8,193.31,314.28,193.04z"/>
					<path id="XMLID_14320_" style="fill:#EBEBEB;" d="M314.28,197.72l17.4-10.03c0.48-0.28,0.87-0.05,0.87,0.5v0.33
						c0,0.55-0.39,1.22-0.87,1.5l-17.4,10.04c-0.48,0.28-0.87,0.05-0.87-0.5l0-0.35C313.41,198.67,313.8,198,314.28,197.72z"/>
				</g>
			</g>
			<g id="XMLID_14353_">
				<path id="XMLID_14376_" style="fill:#E0E0E0;" d="M200.9,275v1.57c0,0.77,0.54,1.08,1.2,0.69l20.16-11.64
					c0.66-0.38,1.2-1.32,1.2-2.08v-1.56c0-0.77-0.54-1.08-1.2-0.69l-20.16,11.64C201.44,273.3,200.9,274.23,200.9,275z"/>
				<g id="XMLID_14354_">
					<g id="XMLID_14373_">
						<path id="XMLID_14375_" style="fill:#FAFAFA;stroke:#EBEBEB;stroke-miterlimit:10;" d="M201.41,240.65l20.91-12.07
							c0.96-0.55,1.73-0.1,1.73,1v24.14c0,1.1-0.78,2.45-1.73,3l-20.91,12.07c-0.96,0.55-1.73,0.1-1.73-1v-24.14
							C199.68,242.54,200.45,241.2,201.41,240.65z"/>
						<path id="XMLID_14374_" style="fill:#27DEBF;" d="M224.78,231.84l-4.66,2.69c-0.96,0.55-1.73,1.9-1.73,3v5.38
							c0,1.1,0.78,1.55,1.73,1l4.66-2.69c0.96-0.55,1.73-1.9,1.73-3v-5.38C226.51,231.73,225.73,231.29,224.78,231.84z"/>
					</g>
					<path id="XMLID_14372_" style="fill:#EBEBEB;" d="M203,243.26l10.47-6.03c0.48-0.28,0.87-0.05,0.87,0.5v0.33
						c0,0.55-0.39,1.22-0.87,1.5L203,245.6c-0.48,0.28-0.87,0.05-0.87-0.5l0-0.35C202.14,244.2,202.52,243.53,203,243.26z"/>
					<path id="XMLID_14371_" style="fill:#EBEBEB;" d="M203,247.94l10.47-6.03c0.48-0.28,0.87-0.05,0.87,0.5v0.33
						c0,0.55-0.39,1.22-0.87,1.5L203,250.29c-0.48,0.28-0.87,0.05-0.87-0.5l0-0.35C202.14,248.89,202.52,248.22,203,247.94z"/>
					<path id="XMLID_14370_" style="fill:#EBEBEB;" d="M203,252.63l10.47-6.03c0.48-0.28,0.87-0.05,0.87,0.5v0.33
						c0,0.55-0.39,1.22-0.87,1.5L203,254.97c-0.48,0.28-0.87,0.05-0.87-0.5l0-0.35C202.14,253.57,202.52,252.9,203,252.63z"/>
					<path id="XMLID_14369_" style="fill:#EBEBEB;" d="M203,257.31l17.4-10.03c0.48-0.28,0.87-0.05,0.87,0.5v0.33
						c0,0.55-0.39,1.22-0.87,1.5L203,259.65c-0.48,0.28-0.87,0.05-0.87-0.5l0-0.35C202.14,258.26,202.52,257.59,203,257.31z"/>
					<path id="XMLID_14356_" style="fill:#EBEBEB;" d="M203,261.99l17.4-10.03c0.48-0.28,0.87-0.05,0.87,0.5v0.33
						c0,0.55-0.39,1.22-0.87,1.5L203,264.34c-0.48,0.28-0.87,0.05-0.87-0.5l0-0.35C202.14,262.94,202.52,262.27,203,261.99z"/>
				</g>
			</g>
			<g id="XMLID_14342_">
				<path id="XMLID_14352_" style="fill:#E0E0E0;" d="M237.46,253.89v1.57c0,0.77,0.54,1.08,1.2,0.69l20.16-11.64
					c0.66-0.38,1.2-1.32,1.2-2.08v-1.56c0-0.77-0.54-1.08-1.2-0.69l-20.16,11.64C238,252.19,237.46,253.13,237.46,253.89z"/>
				<g id="XMLID_14343_">
					<g id="XMLID_14349_">
						<path id="XMLID_14351_" style="fill:#FAFAFA;stroke:#EBEBEB;stroke-miterlimit:10;" d="M237.97,219.54l20.91-12.07
							c0.96-0.55,1.73-0.1,1.73,1v24.14c0,1.1-0.78,2.45-1.73,3l-20.91,12.07c-0.96,0.55-1.73,0.1-1.73-1v-24.14
							C236.23,221.44,237.01,220.1,237.97,219.54z"/>
						<path id="XMLID_14350_" style="fill:#27DEBF;" d="M261.33,210.73l-4.66,2.69c-0.96,0.55-1.73,1.9-1.73,3v5.38
							c0,1.1,0.78,1.55,1.73,1l4.66-2.69c0.96-0.55,1.73-1.9,1.73-3v-5.38C263.07,210.63,262.29,210.18,261.33,210.73z"/>
					</g>
					<path id="XMLID_14348_" style="fill:#EBEBEB;" d="M239.56,222.15l10.47-6.03c0.48-0.28,0.87-0.05,0.87,0.5v0.33
						c0,0.55-0.39,1.22-0.87,1.5l-10.47,6.04c-0.48,0.28-0.87,0.05-0.87-0.5l0-0.35C238.69,223.1,239.08,222.43,239.56,222.15z"/>
					<path id="XMLID_14347_" style="fill:#EBEBEB;" d="M239.56,226.84l10.47-6.03c0.48-0.28,0.87-0.05,0.87,0.5v0.33
						c0,0.55-0.39,1.22-0.87,1.5l-10.47,6.04c-0.48,0.28-0.87,0.05-0.87-0.5l0-0.35C238.69,227.78,239.08,227.11,239.56,226.84z"/>
					<path id="XMLID_14346_" style="fill:#EBEBEB;" d="M239.56,231.52l10.47-6.03c0.48-0.28,0.87-0.05,0.87,0.5v0.33
						c0,0.55-0.39,1.22-0.87,1.5l-10.47,6.04c-0.48,0.28-0.87,0.05-0.87-0.5l0-0.35C238.69,232.47,239.08,231.79,239.56,231.52z"/>
					<path id="XMLID_14345_" style="fill:#EBEBEB;" d="M239.56,236.2l17.4-10.03c0.48-0.28,0.87-0.05,0.87,0.5v0.33
						c0,0.55-0.39,1.22-0.87,1.5l-17.4,10.04c-0.48,0.28-0.87,0.05-0.87-0.5l0-0.35C238.69,237.15,239.08,236.48,239.56,236.2z"/>
					<path id="XMLID_14344_" style="fill:#EBEBEB;" d="M239.56,240.89l17.4-10.03c0.48-0.28,0.87-0.05,0.87,0.5v0.33
						c0,0.55-0.39,1.22-0.87,1.5l-17.4,10.04c-0.48,0.28-0.87,0.05-0.87-0.5l0-0.35C238.69,241.83,239.08,241.16,239.56,240.89z"/>
				</g>
			</g>
		</g>
		<g id="XMLID_14438_">
			<polygon id="XMLID_14377_" style="fill:#27DEBF;" points="142.81,145.91 138.75,143.54 138.75,162.31 142.81,164.66 			"/>
			<polygon id="XMLID_14400_" style="opacity:0.1;" points="142.81,145.91 138.75,143.54 138.75,162.31 142.81,164.66 			"/>
		</g>
	</g>
</g>
<g id="Magnifying_glass">
	<g id="Magnifying_glass_1_">
		<g id="XMLID_14437_">
			<path id="XMLID_14435_" style="fill:#27DEBF;" d="M382.73,223.47L382.73,223.47L382.73,223.47c-0.74-0.43-1.75-0.37-2.88,0.28
				c-2.25,1.29-4.08,4.44-4.08,7.04c0,1.3,0.45,2.21,1.19,2.64l0,0l0,0l50.62,32.01l0-0.01c1.04,0.7,2.52,0.66,4.17-0.29
				c3.14-1.81,5.7-6.21,5.71-9.84c0-1.9-0.7-3.2-1.82-3.76l0.01-0.01L382.73,223.47z"/>
			<path id="XMLID_14433_" style="opacity:0.15;" d="M375.77,230.79c-0.01,2.59,1.81,3.65,4.06,2.36c2.25-1.29,4.08-4.44,4.08-7.04
				c0.01-2.59-1.81-3.65-4.06-2.36C377.6,225.04,375.77,228.19,375.77,230.79z"/>
			<path id="XMLID_14431_" style="fill:#263238;" d="M364.57,216.74c-1.36,0.78-2.47,2.69-2.47,4.25c0,0.78,0.27,1.34,0.72,1.59l0,0
				l15.28,8.87l0,0c0.44,0.26,1.06,0.22,1.74-0.17c1.36-0.78,2.47-2.69,2.47-4.25c0-0.78-0.27-1.34-0.72-1.59l-15.28-8.87l0,0
				C365.86,216.31,365.25,216.35,364.57,216.74z"/>
			<path id="XMLID_3945_" style="opacity:0.1;" d="M381.74,231.49l52.08,32c-0.65,0.65-1.34,1.23-2.08,1.66
				c-1.65,0.95-3.13,0.99-4.17,0.29l0,0.01l-50.61-32.01c0.74,0.43,1.75,0.36,2.88-0.28C380.52,232.75,381.17,232.17,381.74,231.49z
				"/>
		</g>
		<g id="XMLID_14272_">
			<path id="XMLID_14417_" style="fill:#27DEBF;" d="M390.48,185.93c-0.01-0.43-0.03-0.85-0.06-1.27c-0.02-0.42-0.05-0.83-0.09-1.24
				c-0.02-0.27-0.05-0.54-0.08-0.82c-0.07-0.71-0.18-1.41-0.29-2.08c-0.05-0.3-0.1-0.62-0.17-0.92c-0.05-0.29-0.12-0.58-0.18-0.86
				c-0.18-0.77-0.37-1.53-0.59-2.25c-0.12-0.35-0.22-0.69-0.34-1.03c-0.02-0.05-0.04-0.1-0.05-0.16c-0.13-0.33-0.24-0.66-0.37-0.97
				c-0.15-0.37-0.29-0.73-0.46-1.08c-0.11-0.26-0.23-0.51-0.37-0.76c-0.07-0.19-0.17-0.37-0.27-0.54c-0.1-0.22-0.22-0.44-0.35-0.65
				c-0.03-0.05-0.05-0.1-0.08-0.15c-0.1-0.19-0.22-0.38-0.33-0.57c-0.07-0.13-0.16-0.24-0.23-0.36c-0.55-0.87-1.15-1.66-1.8-2.4
				c-0.12-0.13-0.23-0.25-0.34-0.38c-0.09-0.1-0.19-0.2-0.28-0.29c-0.12-0.13-0.24-0.24-0.37-0.37c-0.36-0.36-0.71-0.68-1.09-0.97
				c-0.18-0.16-0.37-0.3-0.55-0.44c-0.19-0.15-0.38-0.28-0.58-0.42c-0.3-0.22-0.62-0.43-0.93-0.61c-0.08-0.05-0.17-0.1-0.25-0.16
				l-0.05-0.04c-0.01,0-0.01,0-0.01,0l-11.03-6.39c-0.01,0-0.01,0-0.02,0l-0.08-0.05c-2.72-1.55-5.86-2.36-9.32-2.36
				c-4.86,0-10.34,1.59-16.15,4.94c-19.95,11.53-36.14,39.55-36.14,62.6c0,11.49,4.02,19.58,10.52,23.37l0.06,0.03c0,0,0,0,0,0.01
				l11.04,6.38c0,0.01,0,0.01,0.01,0.01l0.06,0.04v-0.01c0.06,0.03,0.12,0.06,0.18,0.09c0.28,0.17,0.57,0.31,0.86,0.45
				c0.36,0.18,0.72,0.34,1.09,0.48c0.32,0.14,0.66,0.26,0.99,0.37c0.18,0.06,0.36,0.12,0.53,0.16c0.19,0.07,0.38,0.13,0.58,0.17
				c0.2,0.06,0.39,0.1,0.59,0.15c0.15,0.04,0.28,0.07,0.43,0.09c0.25,0.05,0.52,0.1,0.79,0.14c0.06,0.02,0.12,0.03,0.18,0.03
				c0.31,0.05,0.63,0.09,0.94,0.13c5.38,0.57,11.64-0.95,18.34-4.82c19.96-11.53,36.15-39.56,36.15-62.6
				C390.51,187.02,390.5,186.48,390.48,185.93z M366.27,169.63c0.95,3.25,1.14,6.6,1.14,8.79c0,20.33-14.88,46.09-32.48,56.26
				c-2.86,1.64-5.64,2.81-8.24,3.42c-0.94-3.25-1.14-6.6-1.14-8.8c0-20.33,14.88-46.09,32.48-56.26
				C360.89,171.4,363.67,170.25,366.27,169.63z"/>
			<path id="XMLID_14415_" style="opacity:0.1;" d="M328.3,252.42l-10.6-6.14c-6.5-3.8-10.52-11.88-10.52-23.35
				c0-10.28,3.22-21.54,8.55-31.89l11.04,6.38c-5.34,10.34-8.55,21.61-8.55,31.89C318.21,240.55,322.04,248.52,328.3,252.42z"/>
			<path id="XMLID_14401_" style="opacity:0.4;fill:#FFFFFF;" d="M390.48,185.93c-0.01-0.43-0.03-0.85-0.06-1.27
				c-0.02-0.42-0.05-0.83-0.09-1.24c-0.02-0.27-0.05-0.54-0.08-0.82c-0.07-0.71-0.18-1.41-0.29-2.08c-0.05-0.3-0.1-0.62-0.17-0.92
				c-0.05-0.29-0.12-0.58-0.18-0.86c-0.18-0.77-0.37-1.53-0.59-2.25c-0.12-0.35-0.22-0.69-0.34-1.03c-0.02-0.05-0.04-0.1-0.05-0.16
				c-0.13-0.33-0.24-0.66-0.37-0.97c-0.15-0.37-0.29-0.73-0.46-1.08c-0.11-0.26-0.23-0.51-0.37-0.76c-0.07-0.19-0.17-0.37-0.27-0.54
				c-0.1-0.22-0.22-0.44-0.35-0.65c-0.03-0.05-0.05-0.1-0.08-0.15c-0.1-0.19-0.22-0.38-0.33-0.57c-0.07-0.13-0.16-0.24-0.23-0.36
				c-0.55-0.87-1.15-1.66-1.8-2.4c-0.12-0.13-0.23-0.25-0.34-0.38c-0.09-0.1-0.19-0.2-0.28-0.29c-0.12-0.13-0.24-0.24-0.37-0.37
				c-0.36-0.36-0.71-0.68-1.09-0.97c-0.18-0.16-0.37-0.3-0.55-0.44c-0.19-0.15-0.38-0.28-0.58-0.42c-0.3-0.22-0.62-0.43-0.93-0.61
				c-6.56-3.99-15.97-3.9-25.87,2.33c-19.81,12.48-36.05,40.14-36.15,62.6c-0.05,11.67,4.15,19.83,10.83,23.53
				c0.28,0.17,0.57,0.31,0.86,0.45c0.36,0.18,0.72,0.34,1.09,0.48c0.32,0.14,0.66,0.26,0.99,0.37c0.18,0.06,0.36,0.12,0.53,0.16
				c0.19,0.07,0.38,0.13,0.58,0.17c0.2,0.06,0.39,0.1,0.59,0.15c0.15,0.04,0.28,0.07,0.43,0.09c0.25,0.05,0.52,0.1,0.79,0.14
				c0.06,0.02,0.12,0.03,0.18,0.03c0.31,0.05,0.63,0.09,0.94,0.13c5.38,0.57,11.64-0.95,18.34-4.82
				c19.96-11.53,36.15-39.56,36.15-62.6C390.51,187.02,390.5,186.48,390.48,185.93z M350.7,243.83c-4.48,2.59-8.79,3.95-12.48,3.95
				c-6.92,0-10.1-4.72-11.54-9.67c-0.94-3.25-1.14-6.6-1.14-8.8c0-20.33,14.88-46.09,32.48-56.26c2.86-1.64,5.64-2.8,8.24-3.41
				c1.49-0.36,2.9-0.53,4.24-0.53c11.44,0,12.67,12.92,12.67,18.48C383.17,207.91,368.31,233.67,350.7,243.83z"/>
			<path id="XMLID_14538_" style="opacity:0.1;" d="M383.17,187.58c0,20.33-14.86,46.09-32.47,56.25
				c-4.48,2.59-8.79,3.95-12.47,3.95c-3.91,0-6.62-1.52-8.5-3.72c0,0-0.01,0-0.01,0c-0.18-0.21-0.35-0.43-0.52-0.65
				c-0.16-0.22-0.33-0.45-0.47-0.69c-0.11-0.16-0.21-0.33-0.31-0.51c-0.07-0.11-0.14-0.22-0.2-0.33c-0.08-0.14-0.15-0.27-0.22-0.42
				c-0.07-0.13-0.13-0.26-0.19-0.39c-0.07-0.13-0.13-0.27-0.19-0.4c-0.1-0.24-0.21-0.47-0.3-0.72c-0.12-0.3-0.23-0.6-0.33-0.91
				c-0.1-0.31-0.21-0.62-0.29-0.93c2.6-0.62,5.38-1.78,8.24-3.43c17.6-10.16,32.48-35.93,32.48-56.25c0-2.2-0.19-5.55-1.14-8.8
				c1.48-0.35,2.9-0.53,4.24-0.53c0.58,0,1.14,0.03,1.67,0.1c0.18,0.02,0.35,0.05,0.52,0.08c0,0,0,0,0.01,0.01
				C382.1,170.84,383.17,182.4,383.17,187.58z"/>
			<path id="XMLID_14454_" style="opacity:0.7;fill:#FFFFFF;" d="M376.85,184.03c0,20.33-14.86,46.09-32.47,56.25
				c-4.48,2.59-8.79,3.95-12.48,3.95c-0.77,0-1.5-0.06-2.18-0.18c-0.18-0.21-0.35-0.43-0.52-0.65c-0.16-0.22-0.33-0.45-0.47-0.69
				c-0.11-0.16-0.21-0.33-0.31-0.51c-0.07-0.11-0.14-0.22-0.2-0.33c-0.08-0.14-0.15-0.27-0.22-0.42c-0.07-0.13-0.13-0.26-0.19-0.39
				c-0.07-0.13-0.13-0.27-0.19-0.4c-0.1-0.24-0.21-0.47-0.3-0.72c-0.12-0.3-0.23-0.6-0.33-0.91c-0.1-0.31-0.21-0.62-0.29-0.93
				c2.6-0.62,5.38-1.78,8.24-3.43c17.6-10.16,32.48-35.93,32.48-56.25c0-2.2-0.19-5.55-1.14-8.8c1.48-0.35,2.9-0.53,4.24-0.53
				c0.58,0,1.14,0.03,1.67,0.1c0.18,0.02,0.35,0.05,0.52,0.08C376.32,173.54,376.85,180.37,376.85,184.03z"/>
		</g>
	</g>
</g>
</svg>
