<?xml version="1.0" encoding="utf-8"?>
<!-- Generator: Adobe Illustrator 25.4.1, SVG Export Plug-In . SVG Version: 6.00 Build 0)  -->
<svg version="1.1" id="Layer_1" xmlns="http://www.w3.org/2000/svg" xmlns:xlink="http://www.w3.org/1999/xlink" x="0px" y="0px"
	 viewBox="0 0 500 500" style="enable-background:new 0 0 500 500;" xml:space="preserve">
<style type="text/css">
	.st0{fill:#92E3A9;}
	.st1{opacity:0.7;fill:#FFFFFF;enable-background:new    ;}
	.st2{fill:#FFFFFF;}
	.st3{fill:#263238;}
</style>
<g id="freepik--background-simple--inject-2">
	<g id="freepik--simple-background--inject-2">
		<path class="st0" d="M260.3,68.5c-7.3-2-14.5-4-21.9-5.8c-23.2-5.5-47.3-6.8-71.1-5.6c-50.4,2.6-72.4,29-55,53.6
			s39.4,50.1,15.6,73.8S14.1,229.2,23.3,271.4s89.9,48.3,83.5,75.5c-6.3,27.2-47.6,35.1-27.5,72s94.5,4.4,118.3,23.7
			c23.8,19.3,36.7,35.1,76.1,41.3s67.9-42.1,110.1-60.6s85.3-24.6,93.5-67.6c8.3-43-70.6-71.1-66.9-115
			c1.8-21.9,16.8-39.1,28.5-56.6c19.8-29.7,36.1-83.1-7.6-100.5c-19-7.6-40.8-5.5-60.7-5.1c-20.8,0.4-42.3,2.8-63,0.5
			C291.4,77.1,275.8,72.8,260.3,68.5z"/>
		<path class="st1" d="M260.3,68.5c-7.3-2-14.5-4-21.9-5.8c-23.2-5.5-47.3-6.8-71.1-5.6c-50.4,2.6-72.4,29-55,53.6
			s39.4,50.1,15.6,73.8S14.1,229.2,23.3,271.4s89.9,48.3,83.5,75.5c-6.3,27.2-47.6,35.1-27.5,72s94.5,4.4,118.3,23.7
			c23.8,19.3,36.7,35.1,76.1,41.3s67.9-42.1,110.1-60.6s85.3-24.6,93.5-67.6c8.3-43-70.6-71.1-66.9-115
			c1.8-21.9,16.8-39.1,28.5-56.6c19.8-29.7,36.1-83.1-7.6-100.5c-19-7.6-40.8-5.5-60.7-5.1c-20.8,0.4-42.3,2.8-63,0.5
			C291.4,77.1,275.8,72.8,260.3,68.5z"/>
	</g>
</g>
<g id="freepik--Device--inject-2">
	<g id="freepik--device--inject-2">
		<path class="st2" d="M361.9,455.4l-156.6,24.4c-10.4,1.6-21.1-7.1-23.7-19.5L100.2,83.1c-4.7-17.8,11.3-27.3,21.7-28.9l148.9-21
			c10.4-1.6,21.1,7.1,23.7,19.5l91.8,376.7C389,441.8,382.6,452.3,361.9,455.4z"/>
		<path class="st3" d="M202.8,480.9c-9.9,0-19.5-8.6-22-20.3L99.4,83.2c-1.8-6-0.9-12.4,2.5-17.6c4.9-7.5,13.8-11.3,19.9-12.2
			l148.9-21c10.8-1.7,21.9,7.4,24.6,20.1l91.8,376.7c1.4,5.4,0.5,11.1-2.5,15.7c-4,5.8-11.6,9.6-22.6,11.2l-156.6,24.4
			C204.5,480.8,203.7,480.8,202.8,480.9z M273.4,33.8c-0.8,0-1.6,0.1-2.4,0.2l-148.9,21c-5.8,0.9-14.1,4.4-18.8,11.5
			c-3.2,4.9-4,10.9-2.3,16.4l81.3,377.3c2.6,12,12.8,20.4,22.9,18.9l156.6-24.5l0,0c10.5-1.6,17.8-5.1,21.5-10.6
			c2.8-4.3,3.7-9.6,2.3-14.5L293.8,52.9C291.5,41.8,282.6,33.8,273.4,33.8z"/>
		<path class="st3" d="M372.6,451.2L216,475.6c-10.4,1.6-21.1-7.1-23.7-19.5L110.9,78.8c-2.7-12.4,3.6-23.8,14.1-25.4l156.6-24.4
			c10.4-1.6,21.1,7.1,23.7,19.5l81.3,377.3C389.3,438.1,383,449.5,372.6,451.2z"/>
		<path class="st3" d="M213.5,476.5c-9.9,0-19.5-8.6-22-20.3L110.2,78.9c-1.5-6.5-0.4-13.3,3.2-18.9c2.6-4,6.8-6.6,11.5-7.4
			l156.6-24.4c10.8-1.7,21.9,7.3,24.6,20.1l81.3,377.2c1.6,6.5,0.5,13.3-3.1,19c-2.6,4-6.8,6.6-11.5,7.4l-156.6,24.4
			C215.2,476.5,214.4,476.5,213.5,476.5z M284.1,29.5c-0.8,0-1.6,0.1-2.4,0.2L125.1,54.1c-4.3,0.7-8,3.1-10.4,6.7
			c-3.4,5.3-4.4,11.7-3,17.7L193,455.9c2.6,12,12.8,20.4,22.9,18.9l156.6-24.5c4.3-0.7,8-3.1,10.4-6.7c3.4-5.3,4.5-11.7,3-17.7
			L304.5,48.6C302.2,37.6,293.3,29.5,284.1,29.5L284.1,29.5z"/>
		<polygon class="st0" points="373.3,406.3 196.6,433.9 122.6,90.5 299.3,62.9 		"/>
		<path class="st3" d="M196.6,434.7c-0.4,0-0.7-0.3-0.8-0.6l-74-343.4c0-0.2,0-0.4,0.1-0.6c0.1-0.2,0.3-0.3,0.5-0.3l176.7-27.6
			c0.4-0.1,0.8,0.2,0.9,0.6l74,343.4c0,0.2,0,0.4-0.1,0.6c-0.1,0.2-0.3,0.3-0.5,0.3l-176.8,27.6H196.6z M123.5,91.2L197.2,433
			l175.2-27.3L298.7,63.8L123.5,91.2z"/>
		
			<rect x="153.5" y="225.4" transform="matrix(0.4393 -0.8983 0.8983 0.4393 -112.0178 272.925)" class="st2" width="18.3" height="1.6"/>
		
			<rect x="135.5" y="140.8" transform="matrix(0.4393 -0.8983 0.8983 0.4393 -12.8272 262.7046)" class="st2" width="137.2" height="1.6"/>
		
			<rect x="175.5" y="104.5" transform="matrix(0.4628 -0.8864 0.8864 0.4628 15.5564 236.2699)" class="st2" width="54.5" height="1.6"/>
		
			<rect x="288.7" y="381.5" transform="matrix(0.4512 -0.8924 0.8924 0.4512 -165.7093 495.0891)" class="st2" width="62" height="1.6"/>
		
			<rect x="332.7" y="336.9" transform="matrix(0.4512 -0.8924 0.8924 0.4512 -113.4658 490.7686)" class="st2" width="19.3" height="1.6"/>
		<path class="st2" d="M232,57.2l-48.8,7.6c-2.2,0.1-4-1.4-4.3-3.6l0,0c-0.7-1.9,0.3-4,2.2-4.6c0,0,0,0,0,0l0.3-0.1l48.8-7.4
			c2.2-0.1,4,1.4,4.3,3.6l0,0c0.6,1.9-0.5,3.9-2.4,4.5L232,57.2z"/>
		<path class="st3" d="M182.7,65.6c-2.9-0.3-5.1-3-4.7-5.9c0.1-0.8,0.4-1.5,0.8-2.2c0.6-0.9,1.5-1.4,2.5-1.6l48.9-7.7
			c2.6-0.2,4.8,1.6,5.2,4.2c0.3,1.4,0.1,2.8-0.7,4c-0.6,0.9-1.5,1.4-2.5,1.6l0,0l-48.8,7.6C183.1,65.6,182.9,65.6,182.7,65.6z
			 M230.7,49.8h-0.3l-48.9,7.6c-0.6,0.1-1.1,0.5-1.5,1c-0.5,0.8-0.7,1.8-0.4,2.8c0.2,1.7,1.7,3,3.4,3l48.8-7.6
			c0.6-0.1,1.1-0.5,1.5-1c1.1-1.8,0.5-4.1-1.3-5.2C231.6,50,231.1,49.8,230.7,49.8L230.7,49.8z"/>
		<path class="st2" d="M294.6,434.6c-0.9-4.1-4.4-7.1-7.9-6.5s-5.6,4.3-4.7,8.5c0.8,4.1,4.4,7.1,7.9,6.5
			C293.3,442.5,295.5,438.7,294.6,434.6z"/>
		<path class="st3" d="M289.1,443.9c-3.6,0-7-3-7.9-7.2c-0.5-2.3-0.1-4.7,1.2-6.7c1-1.4,2.5-2.4,4.2-2.7c3.9-0.6,7.9,2.6,8.8,7.1
			c0.6,2.3,0.1,4.7-1.1,6.7c-1,1.4-2.5,2.4-4.2,2.7C289.7,443.9,289.4,443.9,289.1,443.9z M287.5,428.8h-0.8c-1.3,0.2-2.4,0.9-3.1,2
			c-1,1.6-1.4,3.6-0.9,5.5c0.8,3.7,4,6.4,7,5.9c1.3-0.2,2.4-0.9,3.1-2c1.1-1.6,1.4-3.6,0.9-5.5l0,0
			C293.3,431.5,290.7,429.1,287.5,428.8L287.5,428.8z"/>
	</g>
</g>
</svg>
