<?xml version="1.0" encoding="utf-8"?>
<!-- Generator: Adobe Illustrator 25.4.1, SVG Export Plug-In . SVG Version: 6.00 Build 0)  -->
<svg version="1.1" xmlns="http://www.w3.org/2000/svg" xmlns:xlink="http://www.w3.org/1999/xlink" x="0px" y="0px"
	 viewBox="0 0 474.67 441.28" style="enable-background:new 0 0 474.67 441.28;" xml:space="preserve">
<g id="Background_Simple">
	<g>
		<path style="opacity:0.7;fill:#FFFFFF;" d="M55.77,141.08c0,0-27.88,71.99,11.3,144.5c39.17,72.52,119.88,110.8,184.47,143.55
			c64.59,32.75,131.66,16.8,163.53-36.84c31.87-53.64-11.85-91.93-11.9-168.42c-0.05-76.49,11.45-96.74-29.96-161.36
			c-41.41-64.62-143.06-78.93-219.9-31C76.47,79.44,55.77,141.08,55.77,141.08z"/>
	</g>
	<g>
		<path style="fill:#92E3A9;" d="M222.97,9.71C347-1.33,347.21,68.65,403.1,133.84c55.89,65.2,67.85,94.75,46.78,169.91
			c-21.07,75.15-92.06,134.07-179.89,100.69c-87.83-33.38-138.14-1.32-193.54-30.97c-55.4-29.64-75.97-86.91-35.42-154.41
			C81.58,151.56,70.03,23.33,222.97,9.71z"/>
		<path style="opacity:0.7;fill:#FFFFFF;" d="M222.97,9.71C347-1.33,347.21,68.65,403.1,133.84c55.89,65.2,67.85,94.75,46.78,169.91
			c-21.07,75.15-92.06,134.07-179.89,100.69c-87.83-33.38-138.14-1.32-193.54-30.97c-55.4-29.64-75.97-86.91-35.42-154.41
			C81.58,151.56,70.03,23.33,222.97,9.71z"/>
	</g>
</g>
<g id="Document">
	<g>
		
			<rect x="125.09" y="49.66" transform="matrix(0.9939 -0.1105 0.1105 0.9939 -19.1915 25.809)" style="fill:#FFFFFF;stroke:#263238;stroke-linecap:round;stroke-linejoin:round;stroke-miterlimit:10;" width="196.11" height="272.62"/>
		
			<rect x="112.11" y="50.38" transform="matrix(0.9939 -0.1105 0.1105 0.9939 -6.3668 23.6582)" style="fill:#BFBFBF;stroke:#263238;stroke-linecap:round;stroke-linejoin:round;stroke-miterlimit:10;" width="196.11" height="37.72"/>
		<path style="fill:#FFFFFF;" d="M251.38,56.92l-84.14,9.36c-1.58,0.18-2.72,1.6-2.54,3.18c0.18,1.58,1.6,2.72,3.18,2.54l84.14-9.36
			c1.58-0.18,2.72-1.6,2.54-3.18C254.39,57.88,252.96,56.74,251.38,56.92z"/>
		<path style="fill:#FFFFFF;" d="M231.66,71.01l-42.07,4.68c-0.79,0.09-1.36,0.8-1.27,1.59c0.09,0.79,0.8,1.36,1.59,1.27l42.07-4.68
			c0.79-0.09,1.36-0.8,1.27-1.59C233.16,71.49,232.45,70.92,231.66,71.01z"/>
		<g>
			<path style="opacity:0.3;" d="M263.1,103.41l-110.22,12.26c-0.59,0.07-1.01,0.59-0.95,1.18c0.07,0.59,0.59,1.01,1.18,0.95
				l110.22-12.26c0.59-0.07,1.01-0.59,0.95-1.18S263.68,103.35,263.1,103.41z"/>
			<path style="opacity:0.3;" d="M263.95,111.07l-126.76,14.1c-0.59,0.07-1.01,0.59-0.95,1.18c0.07,0.59,0.59,1.01,1.18,0.95
				l126.76-14.1c0.59-0.07,1.01-0.59,0.95-1.18C265.06,111.42,264.53,111,263.95,111.07z"/>
			<path style="opacity:0.3;" d="M231.71,122.4l-93.68,10.42c-0.59,0.07-1.01,0.59-0.95,1.18c0.07,0.59,0.59,1.01,1.18,0.95
				l93.68-10.42c0.59-0.07,1.01-0.59,0.95-1.18C232.83,122.76,232.3,122.33,231.71,122.4z"/>
			<g>
				<path style="opacity:0.3;fill:none;stroke:#263238;stroke-linecap:round;stroke-linejoin:round;stroke-miterlimit:10;" d="
					M292.89,115.98l-11.19,1.24c-1.5,0.17-2.86-0.92-3.02-2.42l-1.24-11.19c-0.17-1.5,0.92-2.85,2.42-3.02l11.19-1.24
					c1.5-0.17,2.85,0.92,3.02,2.42l1.24,11.19C295.48,114.46,294.4,115.82,292.89,115.98z"/>
				
					<polyline style="fill:none;stroke:#92E3A9;stroke-width:3;stroke-linecap:round;stroke-linejoin:round;stroke-miterlimit:10;" points="
					281.86,107.94 285.53,111.41 290.38,104 				"/>
			</g>
		</g>
		<g>
			<path style="opacity:0.3;" d="M267.13,139.65l-110.22,12.26c-0.59,0.07-1.01,0.59-0.95,1.18c0.07,0.59,0.59,1.01,1.18,0.95
				l110.22-12.26c0.59-0.07,1.01-0.59,0.95-1.18C268.24,140.01,267.71,139.59,267.13,139.65z"/>
			<path style="opacity:0.3;" d="M267.98,147.3l-126.76,14.1c-0.59,0.07-1.01,0.59-0.95,1.18s0.59,1.01,1.18,0.95l126.76-14.1
				c0.59-0.07,1.01-0.59,0.95-1.18C269.1,147.66,268.57,147.24,267.98,147.3z"/>
			<path style="opacity:0.3;" d="M235.74,158.64l-93.68,10.42c-0.59,0.07-1.01,0.59-0.95,1.18c0.07,0.59,0.59,1.01,1.18,0.95
				l93.68-10.42c0.59-0.07,1.01-0.59,0.95-1.18C236.86,158.99,236.33,158.57,235.74,158.64z"/>
			<g>
				<path style="opacity:0.3;fill:none;stroke:#263238;stroke-linecap:round;stroke-linejoin:round;stroke-miterlimit:10;" d="
					M296.93,152.22l-11.19,1.24c-1.5,0.17-2.85-0.92-3.02-2.42l-1.24-11.19c-0.17-1.5,0.92-2.85,2.42-3.02l11.19-1.24
					c1.5-0.17,2.85,0.92,3.02,2.42l1.24,11.19C299.51,150.7,298.43,152.06,296.93,152.22z"/>
				
					<polyline style="fill:none;stroke:#92E3A9;stroke-width:3;stroke-linecap:round;stroke-linejoin:round;stroke-miterlimit:10;" points="
					285.89,144.18 289.56,147.65 294.41,140.24 				"/>
			</g>
		</g>
		<g>
			<path style="opacity:0.3;" d="M271.16,175.89l-110.22,12.26c-0.59,0.07-1.01,0.59-0.95,1.18c0.07,0.59,0.59,1.01,1.18,0.95
				l110.22-12.26c0.59-0.07,1.01-0.59,0.95-1.18C272.27,176.25,271.75,175.82,271.16,175.89z"/>
			<path style="opacity:0.3;" d="M272.01,183.54l-126.76,14.1c-0.59,0.07-1.01,0.59-0.95,1.18c0.07,0.59,0.59,1.01,1.18,0.95
				l126.76-14.1c0.59-0.07,1.01-0.59,0.95-1.18C273.13,183.9,272.6,183.48,272.01,183.54z"/>
			<path style="opacity:0.3;" d="M239.77,194.87l-93.68,10.42c-0.59,0.07-1.01,0.59-0.95,1.18s0.59,1.01,1.18,0.95L240.01,197
				c0.59-0.07,1.01-0.59,0.95-1.18S240.36,194.81,239.77,194.87z"/>
			<g>
				<path style="opacity:0.3;fill:none;stroke:#263238;stroke-linecap:round;stroke-linejoin:round;stroke-miterlimit:10;" d="
					M300.96,188.46l-11.19,1.24c-1.5,0.17-2.85-0.92-3.02-2.42l-1.24-11.19c-0.17-1.5,0.92-2.85,2.42-3.02l11.19-1.24
					c1.5-0.17,2.86,0.92,3.02,2.42l1.24,11.19C303.54,186.94,302.46,188.29,300.96,188.46z"/>
				
					<polyline style="fill:none;stroke:#92E3A9;stroke-width:3;stroke-linecap:round;stroke-linejoin:round;stroke-miterlimit:10;" points="
					289.92,180.42 293.59,183.89 298.44,176.48 				"/>
			</g>
		</g>
		<g>
			<path style="opacity:0.3;" d="M275.19,212.13l-110.22,12.26c-0.59,0.07-1.01,0.59-0.95,1.18c0.07,0.59,0.59,1.01,1.18,0.95
				l110.22-12.26c0.59-0.07,1.01-0.59,0.95-1.18C276.31,212.49,275.78,212.06,275.19,212.13z"/>
			<path style="opacity:0.3;" d="M276.04,219.78l-126.76,14.1c-0.59,0.07-1.01,0.59-0.95,1.18c0.07,0.59,0.59,1.01,1.18,0.95
				l126.76-14.1c0.59-0.07,1.01-0.59,0.95-1.18C277.16,220.14,276.63,219.71,276.04,219.78z"/>
			<path style="opacity:0.3;" d="M243.8,231.11l-93.68,10.42c-0.59,0.07-1.01,0.59-0.95,1.18c0.07,0.59,0.59,1.01,1.18,0.95
				l93.68-10.42c0.59-0.07,1.01-0.59,0.95-1.18C244.92,231.47,244.39,231.05,243.8,231.11z"/>
			<g>
				<path style="opacity:0.3;fill:none;stroke:#263238;stroke-linecap:round;stroke-linejoin:round;stroke-miterlimit:10;" d="
					M304.99,224.7l-11.19,1.24c-1.5,0.17-2.85-0.92-3.02-2.42l-1.24-11.19c-0.17-1.5,0.92-2.86,2.42-3.02l11.19-1.24
					c1.5-0.17,2.86,0.92,3.02,2.42l1.24,11.19C307.57,223.18,306.49,224.53,304.99,224.7z"/>
				
					<polyline style="fill:none;stroke:#92E3A9;stroke-width:3;stroke-linecap:round;stroke-linejoin:round;stroke-miterlimit:10;" points="
					293.95,216.66 297.62,220.13 302.47,212.72 				"/>
			</g>
		</g>
		<g>
			<path style="opacity:0.3;" d="M279.22,248.37L169,260.63c-0.59,0.07-1.01,0.59-0.95,1.18c0.07,0.59,0.59,1.01,1.18,0.95
				l110.22-12.26c0.59-0.07,1.01-0.59,0.95-1.18C280.34,248.72,279.81,248.3,279.22,248.37z"/>
			<path style="opacity:0.3;" d="M280.07,256.02l-126.76,14.1c-0.59,0.07-1.01,0.59-0.95,1.18c0.07,0.59,0.59,1.01,1.18,0.95
				l126.76-14.1c0.59-0.07,1.01-0.59,0.95-1.18C281.19,256.38,280.66,255.95,280.07,256.02z"/>
			<path style="opacity:0.3;" d="M247.83,267.35l-93.68,10.42c-0.59,0.07-1.01,0.59-0.95,1.18c0.07,0.59,0.59,1.01,1.18,0.95
				l93.68-10.42c0.59-0.07,1.01-0.59,0.95-1.18C248.95,267.71,248.42,267.28,247.83,267.35z"/>
			<g>
				<path style="opacity:0.3;fill:none;stroke:#263238;stroke-linecap:round;stroke-linejoin:round;stroke-miterlimit:10;" d="
					M309.02,260.94l-11.19,1.24c-1.5,0.17-2.86-0.92-3.02-2.42l-1.24-11.19c-0.17-1.5,0.92-2.85,2.42-3.02l11.19-1.24
					c1.5-0.17,2.86,0.92,3.02,2.42l1.24,11.19C311.6,259.42,310.52,260.77,309.02,260.94z"/>
				
					<polyline style="fill:none;stroke:#92E3A9;stroke-width:3;stroke-linecap:round;stroke-linejoin:round;stroke-miterlimit:10;" points="
					297.98,252.89 301.65,256.36 306.5,248.95 				"/>
			</g>
		</g>
		<g>
			<path style="opacity:0.3;" d="M282.3,276.02l-110.22,12.26c-0.59,0.07-1.01,0.59-0.95,1.18c0.07,0.59,0.59,1.01,1.18,0.95
				l110.22-12.26c0.59-0.07,1.01-0.59,0.95-1.18C283.41,276.38,282.88,275.95,282.3,276.02z"/>
			<path style="opacity:0.3;" d="M283.15,283.67l-126.76,14.1c-0.59,0.07-1.01,0.59-0.95,1.18c0.07,0.59,0.59,1.01,1.18,0.95
				l126.76-14.1c0.59-0.07,1.01-0.59,0.95-1.18C284.26,284.03,283.73,283.6,283.15,283.67z"/>
			<path style="opacity:0.3;" d="M250.91,295l-93.68,10.42c-0.59,0.07-1.01,0.59-0.95,1.18c0.07,0.59,0.59,1.01,1.18,0.95
				l93.68-10.42c0.59-0.07,1.01-0.59,0.95-1.18C252.03,295.36,251.5,294.94,250.91,295z"/>
			<g>
				<path style="opacity:0.3;fill:none;stroke:#263238;stroke-linecap:round;stroke-linejoin:round;stroke-miterlimit:10;" d="
					M312.09,288.59l-11.19,1.24c-1.5,0.17-2.85-0.92-3.02-2.42l-1.24-11.19c-0.17-1.5,0.92-2.85,2.42-3.02l11.19-1.24
					c1.5-0.17,2.86,0.92,3.02,2.42l1.24,11.19C314.68,287.07,313.6,288.42,312.09,288.59z"/>
				
					<polyline style="fill:none;stroke:#92E3A9;stroke-width:3;stroke-linecap:round;stroke-linejoin:round;stroke-miterlimit:10;" points="
					301.06,280.55 304.73,284.02 309.58,276.6 				"/>
			</g>
		</g>
	</g>
</g>
<g id="Stamp">
</g>
<g id="Left_hand">
	<path style="opacity:0.3;fill-opacity:0.7;" d="M148.32,180.77c6.1,4.49,11.2,26.03,11.66,45.73c0.47,19.7,9.95,52.99,11.14,58.45
		c1.19,5.46,0.72,13.31,7.8,2.37s27.79-29.93,36.42-23.62c8.63,6.31-5.91,27.53-13.78,38.95c-7.87,11.42-8.67,31.53-18.09,44.12
		c-9.42,12.59-17.96,31.6-27.2,31.31c-9.24-0.29-70.41,45.11-70.41,45.11l1.2-62.15l54.96-89.99L148.32,180.77z"/>
	<g>
		<path style="fill:#FFFFFF;" d="M220.36,266.75c-0.31,1.95-11.08,16.22-17.41,26.9c-6.33,10.68-12.26,29.27-13.85,32.04
			c-1.58,2.77-20.96,19.78-26.32,26.91c-5.36,7.12-14.82,10.28-24.31,17.01c-6.1,4.32-25.11,26.61-37.92,41.99
			c-7.12,8.55-12.33,14.97-12.33,14.97L6.33,405.21c0,0,6.78-5.59,15.7-13.13c0.01,0,0.03-0.01,0.06-0.04
			c0.02-0.02,0.05-0.04,0.09-0.07c14.68-12.41,35.09-29.98,40.73-36.61c9.09-10.68,21.75-23.34,21.75-23.34
			c-0.77-14.83,0.8-28.88-0.59-34.22c-0.72-2.79-2.01-18.66-2.97-23.54c-2.43-12.47-13-25.39-14.19-30.48
			c-1.18-5.09-15.17-26.82-8.36-30.83c1.42-0.84,2.81-1.1,4.16-0.91c9.2,1.27,16.78,23.49,21.98,29.15
			c1.65,1.79,3.86,5.04,6.06,8.52c4.12,6.53,8.16,13.87,8.16,13.87c1.58-6.33-9.89-28.88-13.06-50.24
			c-3.16-21.36-12.26-32.83,0-34.15c1.08-0.12,2.09-0.02,3.04,0.26c8.63,2.52,12.37,20.45,17.53,37.85
			c0.48,1.6,4.41,13.09,7.47,21.95c0,0.01,0,0.01,0.01,0.02c1.99,5.8,3.6,10.47,3.6,10.47c0.39-10.88-2.97-20.97-3.56-30.86
			c-0.24-3.95,1.02-19.78-0.56-35.6c-1.34-13.35-0.73-18.76,4.49-19.81c0.96-0.2,2.09-0.24,3.39-0.16
			c9.05,0.57,12.26,24.62,12.26,34.01c0,5.45,0.93,16.09,1.71,24.07c0.57,5.77,1.06,10.15,1.06,10.15s1.58-13.25,0.4-41.83
			c-0.27-6.26,0.14-10.74,2.6-12.55c1.35-0.98,3.3-1.17,6.1-0.41c7.91,2.14,10.48,31.45,10.48,42.53c0,11.07,6.33,30.06,7.52,45.02
			c1.19,14.95,6.37,33.3,6.37,33.3s2.93,1.19,4.9,0.8c1.98-0.4,15.63-20.57,15.63-20.57c6.36-13.81,18.74-17.98,25.48-16.45
			C218.88,262.08,220.8,264,220.36,266.75z"/>
		<g>
			<path style="opacity:0.4;fill:#92E3A9;" d="M220.36,266.75c-0.31,1.95-11.08,16.22-17.41,26.9
				c-6.33,10.68-12.26,29.27-13.85,32.04c-1.58,2.77-20.96,19.78-26.32,26.91c-5.36,7.12-14.82,10.28-24.31,17.01
				c-6.1,4.32-25.11,26.61-37.92,41.99c1.41-5.58,4.57-12.71,12.83-19.56c14.34-11.91,15.2-21.25,22.91-29.16
				c7.71-7.91,21.29-5.54,26.17-15.03c4.89-9.5,21.9-18.2,25.46-26.51c3.56-8.31-3.56-10.07,2.77-20.07
				c6.33-9.99,12.47-12.43,11.57-16.35c-0.89-3.93-3.56-9.86,1.93-14.81c3.43-3.08,7.46-6.95,11.58-8.73
				C218.88,262.08,220.8,264,220.36,266.75z"/>
			<path style="opacity:0.4;fill:#92E3A9;" d="M117.76,313.69c-2.63-1.32-0.52-3.95-2.37-6.14c-1.85-2.18-6.07,11.95-7.05,12.01
				c-0.99,0.07-3.76-7.19-4.88-7.91c-1.13-0.73-1.78,2.31-3.37,7.91c-1.58,5.61-7.38,8.38-10.77,12.46
				c-3.38,4.09-23.78,25.72-28.79,33.89c-4.93,8.05-35.95,24.34-38.35,26.06c14.68-12.41,35.09-29.98,40.73-36.61
				c9.09-10.68,21.75-23.34,21.75-23.34c-0.77-14.83,0.8-28.88-0.59-34.22c-0.72-2.79-2.01-18.66-2.97-23.54
				c-2.43-12.47-13-25.39-14.19-30.48c-1.18-5.09-15.17-26.82-8.36-30.83c1.42-0.84,2.81-1.1,4.16-0.91
				c-1.55,1.1-3.06,2.68-1.65,4.97c2.51,4.06,5.27,8.33,5.27,12.82c0,4.48,7.65,10.81,10.62,14.96c2.97,4.16,0.2,2.71,2.18,8.45
				c1.97,5.75,4.35,4.54,5.53,10.34c1.19,5.81,7.78,9.5,6.73,16.73c-1.06,7.23,3.16,17.29,3.16,17.29s3.43-9.75,2.18-15.03
				c-1.25-5.27,0.2-11.87-0.96-13.65c-1.04-1.6-3.74-12.46-5.02-19.21c4.12,6.53,8.16,13.87,8.16,13.87
				c1.58-6.33-9.89-28.88-13.06-50.24c-3.16-21.36-12.26-32.83,0-34.15c1.08-0.12,2.09-0.02,3.04,0.26
				c5.23,9.77,1.59,17.04,0.43,21.24c-1.27,4.62,6.29,16.48,7.41,24.65c1.04,7.63,3.06,6.84,3.33,6.7c-0.23,0.21-2.18,2.2-1.02,7.86
				c1.23,6.02,10.02,20.25,10.02,24.23c0,3.97-0.72,10.53-0.72,12.47c0,1.96,7.05,14.92,7.84,18.32s-0.33-6.55,1.58-9.97
				c1.92-3.43,2.92-15.49,3.17-14.84C124.16,278.58,120.4,315.01,117.76,313.69z"/>
			<path style="opacity:0.4;fill:#92E3A9;" d="M123.43,224.33c-2.24,3.39-2.18,29.85-6.03,29.94c-1.85,0.04-2.75-6.65-3.5-15
				c1.99,5.8,3.6,10.47,3.6,10.47c0.39-10.88-2.97-20.97-3.56-30.86c-0.24-3.95,1.02-19.78-0.56-35.6
				c-1.34-13.35-0.73-18.76,4.49-19.81c1.1,3.56,3.8,7.76,4.49,11.66c0.94,5.38-0.9,9.83-2.48,10.5c-1.59,0.68-1.85,4.14,0.13,4.65
				c1.97,0.51-0.05,25.76,0.92,29.04C121.89,222.59,125.68,220.94,123.43,224.33z"/>
			<path style="opacity:0.4;fill:#92E3A9;" d="M143.98,194.71c-4.11,1.81-4.33,5.05-5.56,9.7c-1.23,4.65,1.76,11.44,0,22.11
				c-1.76,10.67,4.66,17.55,0,29.49s-2.47-9.96-3.25-20c-0.32-4.11-0.2-9.57,0.06-14.62c0.57,5.77,1.06,10.15,1.06,10.15
				s1.58-13.25,0.4-41.83c-0.27-6.26,0.14-10.74,2.6-12.55C143.51,180.95,147.48,193.17,143.98,194.71z"/>
		</g>
		<g>
			<path style="fill:none;stroke:#263238;stroke-linecap:round;stroke-linejoin:round;stroke-miterlimit:10;" d="M88.23,426.58
				c0,0,40.75-50.24,50.24-56.97c9.49-6.73,18.95-9.88,24.31-17.01s24.74-24.13,26.33-26.9c1.58-2.77,7.52-21.36,13.85-32.04
				c6.33-10.68,17.1-24.95,17.41-26.9c1.38-8.7-20.77-9.1-30.07,11.08c0,0-13.65,20.18-15.63,20.57c-1.98,0.4-4.9-0.79-4.9-0.79
				s-5.19-18.35-6.37-33.31c-1.19-14.96-7.52-33.95-7.52-45.02s-2.57-40.38-10.48-42.53c-7.91-2.14-9.11,3.28-8.7,12.96
				c1.19,28.58-0.4,41.83-0.4,41.83s-2.77-24.83-2.77-34.22c0-9.39-3.21-33.44-12.26-34.01c-8.31-0.53-9.46,4.14-7.88,19.97
				s0.33,31.66,0.56,35.6c0.59,9.89,3.96,19.98,3.56,30.86c0,0-10.29-29.78-11.08-32.44c-5.73-19.31-9.71-39.27-20.57-38.11
				c-12.26,1.32-3.16,12.79,0,34.15c3.16,21.36,14.64,43.91,13.05,50.24c0,0-9.49-17.23-14.22-22.39
				c-5.96-6.49-15.05-34.78-26.13-28.25c-6.82,4.02,7.17,25.74,8.36,30.83c1.19,5.09,11.76,18.02,14.19,30.49
				c0.95,4.88,2.24,20.75,2.97,23.54c1.38,5.34-0.18,19.39,0.59,34.22c0,0-12.66,12.66-21.76,23.34S6.34,405.21,6.34,405.21"/>
			<path style="fill:none;stroke:#263238;stroke-linecap:round;stroke-linejoin:round;stroke-miterlimit:10;" d="M169.77,297.61
				c0,0,3.01,6.13,0,14.05"/>
			<path style="fill:none;stroke:#263238;stroke-linecap:round;stroke-linejoin:round;stroke-miterlimit:10;" d="M173.1,298.44
				c0,0,3.94,2.72,2.36,7.47"/>
			<path style="fill:none;stroke:#263238;stroke-linecap:round;stroke-linejoin:round;stroke-miterlimit:10;" d="M136.29,231.54
				c0,0,3.16,22.35,1.78,26.51"/>
			<path style="fill:none;stroke:#263238;stroke-linecap:round;stroke-linejoin:round;stroke-miterlimit:10;" d="M117.5,249.74
				c0,0,0.59,3.36,0,6.53"/>
			<path style="fill:none;stroke:#263238;stroke-linecap:round;stroke-linejoin:round;stroke-miterlimit:10;" d="M98.91,263.59
				c0,0,0.59,3.36,0,4.15"/>
			<path style="fill:none;stroke:#263238;stroke-linecap:round;stroke-linejoin:round;stroke-miterlimit:10;" d="M199.2,282.58
				c0,0,3.58,1.94,4.75,4.75"/>
			<path style="fill:none;stroke:#263238;stroke-linecap:round;stroke-linejoin:round;stroke-miterlimit:10;" d="M117.63,189.71
				c0,0,3.63,1.08,6.59-1.79"/>
			<path style="fill:none;stroke:#263238;stroke-linecap:round;stroke-linejoin:round;stroke-miterlimit:10;" d="M118.89,221.85
				c0,0,7.12,2.37,9.69,0"/>
			<path style="fill:none;stroke:#263238;stroke-linecap:round;stroke-linejoin:round;stroke-miterlimit:10;" d="M142.03,228.77
				c0,0,4.75-1.78,7.91-0.79"/>
			<path style="fill:none;stroke:#263238;stroke-linecap:round;stroke-linejoin:round;stroke-miterlimit:10;" d="M96.73,235.1
				c0,0,3.76-4.95,6.73-3.56"/>
			<path style="fill:none;stroke:#263238;stroke-linecap:round;stroke-linejoin:round;stroke-miterlimit:10;" d="M81.31,249.74
				c0,0-3.36,1.58-4.35,3.26"/>
			<path style="fill:none;stroke:#263238;stroke-linecap:round;stroke-linejoin:round;stroke-miterlimit:10;" d="M84.67,332.03
				c0,0,1.58-1.78,2.18-2.97c0.59-1.19-0.2-13.85,0-21.96"/>
			<path style="fill:none;stroke:#263238;stroke-linecap:round;stroke-linejoin:round;stroke-miterlimit:10;" d="M126.17,381.84
				c-4.67,5.22-18.95,14.67-24.69,20.41"/>
			<path style="fill:none;stroke:#263238;stroke-linecap:round;stroke-linejoin:round;stroke-miterlimit:10;" d="M145,263.59
				c-2.37,6.73,0.2,15.23,0,18.99c-0.2,3.76-1.01,20.97-1.01,20.97"/>
			<path style="fill:none;stroke:#263238;stroke-linecap:round;stroke-linejoin:round;stroke-miterlimit:10;" d="M123.44,263.59
				c-3.16,5.34-2.18,12.46-1.19,16.02c0.99,3.56,0.11,18,0.11,18"/>
			<path style="fill:none;stroke:#263238;stroke-linecap:round;stroke-linejoin:round;stroke-miterlimit:10;" d="M89.42,280.6
				c-0.59,5.34,1.98,10.09,1.98,10.09"/>
			<path style="fill:none;stroke:#263238;stroke-linecap:round;stroke-linejoin:round;stroke-miterlimit:10;" d="M109,270.11
				c-1.78,6.53,0.59,9.49,0.79,10.48"/>
		</g>
	</g>
</g>
<g id="Right_hand">
	<path style="opacity:0.3;fill-opacity:0.7;" d="M269.66,226.98l-3.37-19.56c-0.63-3.67,1.92-7.12,5.61-7.6l7.55-0.97
		c0,0-2.52-5.11,5.59-20.03c8.11-14.92,47.1-54.44,76.66,12c29.56,66.44,56.57,201.83,56.57,201.83s-79.79-92.89-82.33-97.65
		c-2.54-4.76-26.83-1.92-32.44-14.68c-5.61-12.77-17.39-49.2-17.39-49.2l-9.13,1.24C273.5,232.82,270.26,230.45,269.66,226.98z"/>
	<g>
		<g>
			<g>
				<defs>
					<path id="XMLID_541_" d="M339.98,182.11l-15.31,2.78l-21.28,3.87l-27.87,5.07c-2.25,0.41-4.4-1.08-4.81-3.33l-6.12-33.65
						c-0.4-2.25,1.09-4.4,3.33-4.81l16.21-2.95l23.58-4.28l24.67-4.49c2.25-0.41,4.4,1.08,4.81,3.33l6.12,33.65
						C343.72,179.55,342.23,181.7,339.98,182.11z"/>
				</defs>
				<use xlink:href="#XMLID_541_"  style="overflow:visible;fill:#92E3A9;"/>
				<clipPath id="XMLID_00000176022503310987613590000004503381040596219543_">
					<use xlink:href="#XMLID_541_"  style="overflow:visible;"/>
				</clipPath>
				<path style="opacity:0.3;clip-path:url(#XMLID_00000176022503310987613590000004503381040596219543_);fill-opacity:0.7;" d="
					M329.15,159.77l-4.48,25.12l-21.28,3.87c-6.16-2.71-16.32-7.43-18.35-9.95c-2.42-2.99-2.08-20.68-0.91-29.72l23.58-4.28
					C316.02,150.49,329.15,159.77,329.15,159.77z"/>
				<path style="opacity:0.3;clip-path:url(#XMLID_00000176022503310987613590000004503381040596219543_);fill-opacity:0.7;" d="
					M279.75,193.06l-4.23,0.77c-2.25,0.41-4.4-1.08-4.81-3.33l-6.12-33.65c-0.4-2.25,1.09-4.4,3.33-4.81l4.22-0.77
					c-2.24,0.42-3.73,2.56-3.32,4.81l6.12,33.65C275.35,191.98,277.5,193.47,279.75,193.06z"/>
				
					<use xlink:href="#XMLID_541_"  style="overflow:visible;fill:none;stroke:#263238;stroke-linecap:round;stroke-linejoin:round;stroke-miterlimit:10;"/>
			</g>
			<path style="fill:none;stroke:#263238;stroke-linecap:round;stroke-linejoin:round;stroke-miterlimit:10;" d="M344.21,181.34
				l-64.46,11.72c-2.25,0.41-4.4-1.08-4.81-3.33l-6.12-33.65c-0.41-2.25,1.08-4.4,3.33-4.81l64.46-11.72
				c2.25-0.41,4.4,1.08,4.81,3.33l6.12,33.65C347.95,178.78,346.46,180.94,344.21,181.34z"/>
			<path style="fill:none;stroke:#263238;stroke-linecap:round;stroke-linejoin:round;stroke-miterlimit:10;" d="M340.39,179.61
				l-60.49,11c-1.09,0.2-2.13-0.52-2.33-1.61l-6.03-33.15c-0.2-1.09,0.52-2.13,1.61-2.33l60.49-11c1.09-0.2,2.13,0.52,2.33,1.61
				l6.03,33.15C342.2,178.37,341.48,179.41,340.39,179.61z"/>
			<path style="fill:none;stroke:#263238;stroke-linecap:round;stroke-linejoin:round;stroke-miterlimit:10;" d="M344.21,181.34
				l-4.2,0.76c2.23-0.42,3.71-2.56,3.3-4.8l-6.12-33.65c-0.41-2.25-2.56-3.74-4.81-3.33l4.23-0.77c2.25-0.4,4.4,1.09,4.81,3.33
				l6.12,33.65C347.94,178.78,346.45,180.93,344.21,181.34z"/>
		</g>
		<g>
			<path style="fill:#FFFFFF;" d="M465.87,289.13l-41.44,111.08c0,0-17.32-32.96-33.32-63.54c-12.78-24.42-24.72-47.32-26.33-50.69
				c-3.61-7.59-15.9-23.49-15.9-23.49s-12.65-7.24-18.44-19.85c-5.78-12.62-12.16-57.72-12.16-57.72s-16.63-6.26-20.6-9.02
				c-3.98-2.75-7.59-28.06-7.59-30.95s3.97-8.68,3.97-8.68s-0.89-4.24,4.19-8.52c1.35-1.14,3.13-2.29,5.47-3.35
				c0.03-0.02,0.07-0.03,0.1-0.05c0,0-0.66-9.57,4.32-12.36c0.23-0.13,0.48-0.25,0.74-0.35c4.44-1.71,18.98-3.92,18.98-3.92
				s3.44-3.09,7.05-4.07c2.58-0.71,16.74,2.58,24.65,4.53c3.18,0.78,5.35,1.34,5.35,1.34s13.38,0.61,15.91,2.12
				c2.03,1.21,4.07,3.31,4.8,4.09c0,0.01,0.01,0.01,0.01,0.01c0.15,0.18,0.25,0.29,0.25,0.29s11.93,2.48,14.46,6.85
				c2.53,4.36,3.61,26.05,1.81,40.14c-1.81,14.1,1.43,38,1.43,38s3.73,18.47,6.62,25.48C413.09,233.51,465.87,289.13,465.87,289.13z
				"/>
			<path style="opacity:0.4;fill:#92E3A9;" d="M391.11,336.67c-12.78-24.42-24.72-47.32-26.33-50.69
				c-3.61-7.59-15.9-23.49-15.9-23.49s-12.65-7.24-18.44-19.85c-5.78-12.62-12.16-57.72-12.16-57.72s-16.63-6.26-20.6-9.02
				c-3.98-2.75-7.59-28.06-7.59-30.95s3.97-8.68,3.97-8.68s-0.89-4.24,4.19-8.52c0.01,1.14,0.02,3.06-0.04,6.08
				c-0.12,5.73,6.63,40.28,8.3,39.23c1.67-1.06,4.25-3.58,3.57-5.81c0,0-3.27-13.41-6.36-42.85c0.03-0.02,0.07-0.03,0.1-0.05
				c0,0-0.66-9.57,4.32-12.36c-0.89,2.41-1.59,4.82-1.63,6.49c-0.11,4.66,5.43,44.59,7.6,45.6c2.18,1,7.67-4.31,7.67-4.31
				s-1.88-11.33-1.21-16.16c0,0,16.73,10.2,17.23,21.78c0.05,1.27,3.26,19.42,3.26,19.42s-14.39,27.4,0.3,52.4
				c0,0-7.47-4.48-9.25-11.6c0,0-2.17,20.94,13.26,32.03c0,0,11.07-10.87,21.95-12.25c0,0,0.2,0.72-7.12,6.49
				c-7.32,5.77-8.31,8.34-8.31,8.34s7.92-7.98,14.25-8.34c0,0-6.53,7.55-6.33,9.13c0.19,1.58,18.67,33.16,25.39,55.19
				C388.02,325.44,389.89,332.08,391.11,336.67z"/>
			<path style="opacity:0.4;fill:#92E3A9;" d="M339.25,127.1c0,0,5.33,3.95,6.91,0c1.58-3.95,1.72-6.72,1.72-6.72
				s2.04-0.95,4.02,3.98c1.98,4.92,21.5,6.19,26.08,8.72c4.58,2.53,6.4,0,6.4,0s3.72,2.84,1.5,7.43c-2.22,4.59,4.07,4.99,6.51,1.63
				c2.43-3.36,0.55,9.67-5.48,10.96c0,0,0.18,5.7-3.7,9.61h3.29c0,0-8.76,6.94-11.09,7.32c-2.34,0.38,8.68,4.27,6.63,5.1
				c-2.05,0.82-7.82,0.75-7.82,0.75s3.74,2.59,3.77,4.3c0.03,1.71-1.77,3-2.58,1.57c-0.81-1.42-7.27-21.91-10.48-29.48
				C361.7,144.71,348.36,138.76,339.25,127.1z"/>
			<path style="opacity:0.4;fill:#92E3A9;" d="M385.62,115.73c-11.22-3.07-26.27-7.44-26.27-7.44s0.07-0.04,0.21-0.11
				c3.18,0.78,5.35,1.34,5.35,1.34s13.38,0.61,15.91,2.12C382.85,112.85,384.89,114.95,385.62,115.73z"/>
			<path style="fill:#92E3A9;" d="M369.8,133.39c-9.76-1.99-16.74,6.34-16.74,6.34s9.71,8.78,11.86,12.55
				c2.16,3.79,5.72,16.47,5.72,16.47c4.09,0.66,11.64-3.55,13.44-14.76C385.88,142.78,379.56,135.37,369.8,133.39z"/>
			<g>
				<path style="fill:none;stroke:#263238;stroke-linecap:round;stroke-linejoin:round;stroke-miterlimit:10;" d="M424.43,400.21
					c0,0-56.03-106.64-59.64-114.23c-3.61-7.59-15.91-23.49-15.91-23.49s-12.65-7.23-18.44-19.85
					c-5.78-12.62-12.16-57.72-12.16-57.72s-16.63-6.26-20.6-9.01c-3.98-2.76-7.59-28.06-7.59-30.95c0-2.89,3.98-8.68,3.98-8.68
					s-1.45-6.86,9.76-11.92c0,0-0.72-10.49,5.06-12.72c4.44-1.71,18.98-3.92,18.98-3.92s3.43-3.08,7.05-4.07
					c3.61-0.99,30,5.88,30,5.88s13.37,0.61,15.91,2.11c2.53,1.5,5.06,4.4,5.06,4.4s11.93,2.48,14.46,6.84
					c2.53,4.36,3.61,26.05,1.81,40.15s1.43,38,1.43,38s3.73,18.46,6.62,25.48c2.89,7.01,55.67,62.63,55.67,62.63"/>
				<path style="fill:none;stroke:#263238;stroke-linecap:round;stroke-linejoin:round;stroke-miterlimit:10;" d="M377.03,183.45
					c0,0-2.53-0.54-5.78-12.47c-3.25-11.93-4.11-17.51-10.84-24.58c-4.78-5.03-15.72-13.16-21.15-19.3
					c-5.42-6.14-11.39-11.06-16.09-7.31c-3.75,2.99-6.18,10.8-2.89,22.81c4.23,15.44,17.53,22.79,17.53,22.79l3.26,19.43
					c0,0-14.15,28.34,1.81,55.09"/>
				<path style="fill:none;stroke:#263238;stroke-linecap:round;stroke-linejoin:round;stroke-miterlimit:10;" d="M353.06,139.72
					c0,0,6.98-8.32,16.74-6.34c9.76,1.99,16.09,9.4,14.28,20.6c-1.81,11.21-9.35,15.42-13.44,14.76"/>
				<path style="fill:none;stroke:#263238;stroke-linecap:round;stroke-linejoin:round;stroke-miterlimit:10;" d="M327.86,107.72
					c0,0-1.67,3.73-3.36,11.36"/>
				<path style="fill:none;stroke:#263238;stroke-linecap:round;stroke-linejoin:round;stroke-miterlimit:10;" d="M321.93,146.88
					c0,0,0.84,12.35,2.57,16.14c1.74,3.8,4.63,6.87,5.89,11.75c1.27,4.88,1.45,12.47,1.81,13.56c0.36,1.08,2.46,1.38,2.46,1.38
					c2.97,0.07,4.2-1.49,5.93-3.87"/>
				<path style="fill:none;stroke:#263238;stroke-linecap:round;stroke-linejoin:round;stroke-miterlimit:10;" d="M303.83,124.35
					c0,0,2.71,26.38,4.88,37.59c2.17,11.21,5.96,12.83,12.29,16.45c6.33,3.61,9.76,11.03,10.3,12.11c0.54,1.08,2.61,1.23,2.61,1.23
					c1.91,0.04,4.97-1.72,5.83-3.81"/>
				<path style="fill:none;stroke:#263238;stroke-linecap:round;stroke-linejoin:round;stroke-miterlimit:10;" d="M294.07,136.28
					c-0.68,1.04,5.11,27.83,8.13,35.61c3.02,7.77,3.37,9.03,11.35,11.2c7.99,2.17,14.06,5.86,16.22,4.57"/>
				<path style="fill:none;stroke:#263238;stroke-linecap:round;stroke-linejoin:round;stroke-miterlimit:10;" d="M349.55,121.46
					c0,0,4.15,9.94,1.41,16.47"/>
				<path style="fill:none;stroke:#263238;stroke-linecap:round;stroke-linejoin:round;stroke-miterlimit:10;" d="M364.92,109.53
					c0,0,10.66,4.34,20.97,6.51"/>
				<path style="fill:none;stroke:#263238;stroke-linecap:round;stroke-linejoin:round;stroke-miterlimit:10;" d="M392.39,143.87
					c0,0-3.18,5.82-8.01,7.07"/>
				<path style="fill:none;stroke:#263238;stroke-linecap:round;stroke-linejoin:round;stroke-miterlimit:10;" d="M384.38,137.54
					c0,0-1.14,2.96-2.35,3.83"/>
				<path style="fill:none;stroke:#263238;stroke-linecap:round;stroke-linejoin:round;stroke-miterlimit:10;" d="M388.39,161.4
					c0,0-7.23,5.47-14.18,6.89"/>
				<path style="fill:none;stroke:#263238;stroke-linecap:round;stroke-linejoin:round;stroke-miterlimit:10;" d="M371.24,170.98
					c0,0,2.96,3.8,10.79,4.16"/>
				<path style="fill:none;stroke:#263238;stroke-linecap:round;stroke-linejoin:round;stroke-miterlimit:10;" d="M347.88,154.4
					c0,0,7.08-6.79,11.12-5.86"/>
				<path style="fill:none;stroke:#263238;stroke-linecap:round;stroke-linejoin:round;stroke-miterlimit:10;" d="M361.7,155.78
					c0,0-5.35,4.03-6.34,3.99"/>
				<path style="fill:none;stroke:#263238;stroke-linecap:round;stroke-linejoin:round;stroke-miterlimit:10;" d="M306.51,176.95
					c0,0,1.78,0.33,3.16-1.81"/>
				<path style="fill:none;stroke:#263238;stroke-linecap:round;stroke-linejoin:round;stroke-miterlimit:10;" d="M312.84,167.26
					c0,0,4.3-2.67,7.11-3.18"/>
				<path style="fill:none;stroke:#263238;stroke-linecap:round;stroke-linejoin:round;stroke-miterlimit:10;" d="M350.73,257.45
					c0.89-0.79,9.19-7.52,14.34-9.89"/>
				<path style="fill:none;stroke:#263238;stroke-linecap:round;stroke-linejoin:round;stroke-miterlimit:10;" d="M361.5,254.28
					c-0.59-0.18-5.31,4.76-7.8,6.74"/>
				<path style="fill:none;stroke:#263238;stroke-linecap:round;stroke-linejoin:round;stroke-miterlimit:10;" d="M363.88,268.93
					c0,0,15.82,29.97,19.38,41.99"/>
				<path style="fill:none;stroke:#263238;stroke-linecap:round;stroke-linejoin:round;stroke-miterlimit:10;" d="M410.2,226.5
					c1.35,7.37,5.7,12.8,8.07,15.74"/>
			</g>
			<path style="opacity:0.4;fill:#FFFFFF;" d="M360.31,136.28c-2.31,1.41,0.12,6.06,1.4,8.43c1.27,2.37,7.01,6.13,8.2,9.69
				c1.19,3.56,8.7,3.46,10.98,0c2.27-3.46,2-10.37-4.24-15.63C370.4,133.52,363.57,134.28,360.31,136.28z"/>
		</g>
	</g>
</g>
<g id="Speech_bubble">
</g>
</svg>
