<?xml version="1.0" encoding="utf-8"?>
<!-- Generator: Adobe Illustrator 25.4.1, SVG Export Plug-In . SVG Version: 6.00 Build 0)  -->
<svg version="1.1" id="Layer_1" xmlns="http://www.w3.org/2000/svg" xmlns:xlink="http://www.w3.org/1999/xlink" x="0px" y="0px"
	 viewBox="0 0 500 500" style="enable-background:new 0 0 500 500;" xml:space="preserve">
<style type="text/css">
	.st0{fill:#92E3A9;}
	.st1{opacity:0.3;fill:#FFFFFF;enable-background:new    ;}
	.st2{opacity:0.7;fill:#FFFFFF;enable-background:new    ;}
	.st3{fill:#FFFFFF;}
	.st4{fill:#263238;}
	.st5{fill:#DBDBDB;}
</style>
<g id="freepik--Shadow--inject-3">
	<path class="st0" d="M482.1,462.9c0,3.7-101.6,6.8-226.8,6.8s-226.8-3-226.8-6.8c0-3.8,101.6-6.8,226.8-6.8
		S482.1,459.1,482.1,462.9z"/>
	<path class="st1" d="M482.1,462.9c0,3.7-101.6,6.8-226.8,6.8s-226.8-3-226.8-6.8c0-3.8,101.6-6.8,226.8-6.8
		S482.1,459.1,482.1,462.9z"/>
</g>
<g id="freepik--background-simple--inject-9">
	<path class="st0" d="M462.4,272.5c-12.9,39.2-40.8,82.2-81.9,96.2c-62,21.2-67.6,72-180.1,71.7c-16.4,0-32.8-1.7-48.9-5.2
		c-7.8-1.7-15.6-4-23.1-6.7C61.7,404.4,25.2,347.2,20,286.1c-6.9-80.4,47.8-120.9,83.5-144.8S179.8,28.5,290.4,28
		c16.9-0.2,33.7,1.6,50.2,5.4c37.6,8.6,76.2,29.4,99.4,61.1c1.7,2.4,3.4,4.8,5,7.3C476.4,150.5,480,219,462.4,272.5z"/>
	<path class="st2" d="M462.4,272.5c-12.9,39.2-40.8,82.2-81.9,96.2c-62,21.2-67.6,72-180.1,71.7c-16.4,0-32.8-1.7-48.9-5.2
		c-7.8-1.7-15.6-4-23.1-6.7C61.7,404.4,25.2,347.2,20,286.1c-6.9-80.4,47.8-120.9,83.5-144.8S179.8,28.5,290.4,28
		c16.9-0.2,33.7,1.6,50.2,5.4c37.6,8.6,76.2,29.4,99.4,61.1c1.7,2.4,3.4,4.8,5,7.3C476.4,150.5,480,219,462.4,272.5z"/>
</g>
<g id="freepik--Device--inject-9">
	<path class="st3" d="M348.6,81v343.6c0,9.4-7.6,17.1-17.1,17.1H183.1c-9.4,0-17.1-7.6-17.1-17.1V81c0-9.4,7.6-17.1,17.1-17.1h63.7
		l0.1,0.2c1.6,5.7,5.2,9.4,9.3,9.4h2.3c4.1,0,7.7-3.7,9.3-9.4l0.1-0.2h63.7C341,63.9,348.6,71.5,348.6,81
		C348.6,81,348.6,81,348.6,81z"/>
	<path class="st4" d="M331.6,442.1H183.1c-9.7,0-17.6-7.9-17.6-17.6v0V81c0-9.7,7.9-17.6,17.6-17.6h64.1l0.2,0.6
		c1.5,5.5,5,9.1,8.8,9.1h2.3c3.8,0,7.3-3.6,8.8-9.1l0.2-0.6h64.1c9.7,0,17.6,7.9,17.6,17.6v343.6
		C349.1,434.2,341.3,442.1,331.6,442.1z M183.1,64.4c-9.2,0-16.6,7.4-16.6,16.6c0,0,0,0,0,0v343.6c0,9.2,7.4,16.6,16.6,16.6h148.5
		c9.2,0,16.6-7.4,16.6-16.6V81c0-9.2-7.4-16.6-16.6-16.6h-63.3c-1.7,5.8-5.5,9.6-9.7,9.6h-2.3c-4.2,0-8.1-3.8-9.7-9.6H183.1z"/>
	<path class="st4" d="M232.4,288.3h53c2.7,0,4.8,2.2,4.8,4.8v9.8c0,2.7-2.2,4.8-4.8,4.8h-53c-2.7,0-4.8-2.2-4.8-4.8v-9.8
		C227.6,290.5,229.7,288.3,232.4,288.3z"/>
	<path class="st4" d="M285.4,308.3h-53c-2.9,0-5.3-2.4-5.3-5.3v-9.8c0-2.9,2.4-5.3,5.3-5.3h53c3,0,5.3,2.4,5.3,5.3v9.8
		C290.7,305.9,288.3,308.3,285.4,308.3z M232.4,288.8c-2.4,0-4.3,1.9-4.3,4.3v9.8c0,2.4,1.9,4.3,4.3,4.3h53c2.4,0,4.3-1.9,4.3-4.3
		v-9.8c0-2.4-1.9-4.3-4.3-4.3c0,0,0,0,0,0H232.4z"/>
	<path class="st5" d="M166,334.7v89.8c0,9.4,7.6,17.1,17.1,17.1h148.5c9.4,0,17.1-7.6,17.1-17.1v-89.8H166z"/>
	<path class="st4" d="M331.6,442.1H183.1c-9.7,0-17.6-7.9-17.6-17.6v0v-89.8c0-0.3,0.2-0.5,0.5-0.5h182.6c0.3,0,0.5,0.2,0.5,0.5
		v89.8C349.1,434.2,341.3,442.1,331.6,442.1z M166.5,335.2v89.3c0,9.2,7.4,16.6,16.6,16.6h148.5c9.2,0,16.6-7.4,16.6-16.6v-89.3
		H166.5z"/>
	<path class="st3" d="M176.1,345.6h45.5c1.3,0,2.3,1,2.3,2.3v12.3c0,1.3-1,2.3-2.3,2.3h-45.5c-1.3,0-2.3-1-2.3-2.3v-12.3
		C173.8,346.6,174.9,345.6,176.1,345.6z"/>
	<path class="st3" d="M232.1,345.6h45.5c1.3,0,2.3,1,2.3,2.3v12.3c0,1.3-1,2.3-2.3,2.3h-45.5c-1.3,0-2.3-1-2.3-2.3v-12.3
		C229.9,346.6,230.9,345.6,232.1,345.6z"/>
	<path class="st3" d="M288.2,345.6h45.5c1.3,0,2.3,1,2.3,2.3v12.3c0,1.3-1,2.3-2.3,2.3h-45.5c-1.3,0-2.3-1-2.3-2.3v-12.3
		C285.9,346.6,286.9,345.6,288.2,345.6z"/>
	<path class="st3" d="M176.1,367.1h45.5c1.3,0,2.3,1,2.3,2.3v12.3c0,1.3-1,2.3-2.3,2.3h-45.5c-1.3,0-2.3-1-2.3-2.3v-12.3
		C173.8,368.1,174.9,367.1,176.1,367.1z"/>
	<path class="st3" d="M232.1,367.1h45.5c1.3,0,2.3,1,2.3,2.3v12.3c0,1.3-1,2.3-2.3,2.3h-45.5c-1.3,0-2.3-1-2.3-2.3v-12.3
		C229.9,368.1,230.9,367.1,232.1,367.1z"/>
	<path class="st3" d="M288.2,367.1h45.5c1.3,0,2.3,1,2.3,2.3v12.3c0,1.3-1,2.3-2.3,2.3h-45.5c-1.3,0-2.3-1-2.3-2.3v-12.3
		C285.9,368.1,286.9,367.1,288.2,367.1z"/>
	<path class="st3" d="M176.1,388.5h45.5c1.3,0,2.3,1,2.3,2.3v12.3c0,1.3-1,2.3-2.3,2.3h-45.5c-1.3,0-2.3-1-2.3-2.3v-12.3
		C173.8,389.6,174.9,388.5,176.1,388.5z"/>
	<path class="st3" d="M232.1,388.5h45.5c1.3,0,2.3,1,2.3,2.3v12.3c0,1.3-1,2.3-2.3,2.3h-45.5c-1.3,0-2.3-1-2.3-2.3v-12.3
		C229.9,389.6,230.9,388.5,232.1,388.5z"/>
	<path class="st3" d="M288.2,388.5h45.5c1.3,0,2.3,1,2.3,2.3v12.3c0,1.3-1,2.3-2.3,2.3h-45.5c-1.3,0-2.3-1-2.3-2.3v-12.3
		C285.9,389.6,286.9,388.5,288.2,388.5z"/>
	<path class="st3" d="M232.1,410h45.5c1.3,0,2.3,1,2.3,2.3v12.3c0,1.3-1,2.3-2.3,2.3h-45.5c-1.3,0-2.3-1-2.3-2.3v-12.3
		C229.9,411,230.9,410,232.1,410z"/>
	<polygon class="st3" points="329.9,426.8 298.7,426.8 291.9,419 298.7,410 329.9,410 	"/>
	<path class="st0" d="M259.3,141.7l-0.4-0.3l-0.4,0.3c0,0-23,13.1-33.4,18.1c0,0,5,28,8.6,40.6s17.6,19.4,25.3,23.9
		c7.7-4.5,21.7-11.3,25.3-23.9s8.6-40.6,8.6-40.6C282.3,154.8,259.3,141.7,259.3,141.7z"/>
	<path class="st3" d="M256.5,195.8l-15.3-13.1c-1.5-1.3-1.6-3.5-0.4-4.9c1.3-1.5,3.5-1.6,4.9-0.4l10,8.6l17.1-19.5
		c1.3-1.5,3.5-1.6,4.9-0.3s1.6,3.5,0.3,4.9L256.5,195.8z"/>
	<rect x="178.5" y="239.9" class="st3" width="20.8" height="20.8"/>
	<path class="st4" d="M199.8,261.2H178v-21.8h21.8V261.2z M179,260.2h19.8v-19.8H179V260.2z"/>
	<rect x="206.5" y="239.9" class="st3" width="20.8" height="20.8"/>
	<path class="st4" d="M227.8,261.2H206v-21.8h21.8V261.2z M207,260.2h19.8v-19.8H207V260.2z"/>
	<rect x="234.5" y="239.9" class="st3" width="20.8" height="20.8"/>
	<path class="st4" d="M255.8,261.2H234v-21.8h21.8V261.2z M235,260.2h19.8v-19.8H235L235,260.2z"/>
	<rect x="262.5" y="239.9" class="st3" width="20.8" height="20.8"/>
	<path class="st4" d="M283.8,261.2H262v-21.8h21.8L283.8,261.2z M263,260.2h19.8v-19.8H263L263,260.2z"/>
	<rect x="290.5" y="239.9" class="st3" width="20.8" height="20.8"/>
	<path class="st4" d="M311.7,261.2H290v-21.8h21.8V261.2z M291,260.2h19.8v-19.8H291V260.2z"/>
	<rect x="318.5" y="239.9" class="st3" width="20.8" height="20.8"/>
	<path class="st4" d="M339.7,261.2H318v-21.8h21.8V261.2z M319,260.2h19.8v-19.8H319V260.2z"/>
	<path class="st5" d="M348.6,96.9v-16c0-9.4-7.7-17.1-17.1-17.1h-63.7l-0.1,0.2c-1.6,5.7-5.2,9.4-9.3,9.4h-2.3
		c-4.1,0-7.7-3.7-9.3-9.4l-0.1-0.2h-63.7c-9.4,0-17.1,7.6-17.1,17.1l0,0v16H348.6z"/>
	<path class="st4" d="M348.6,97.4H166c-0.3,0-0.5-0.2-0.5-0.5v-16c0-9.7,7.9-17.6,17.6-17.6h63.7c0.2,0,0.4,0.2,0.5,0.4l0.1,0.2
		c1.5,5.5,5,9.1,8.8,9.1h2.3c3.8,0,7.3-3.6,8.8-9.1l0.1-0.2c0.1-0.2,0.3-0.4,0.5-0.3h63.7c9.7,0,17.6,7.9,17.6,17.6v16
		C349.1,97.2,348.9,97.4,348.6,97.4z M166.5,96.4h181.6V81c0-9.1-7.4-16.6-16.6-16.6h-63.3c-1.7,5.8-5.5,9.6-9.7,9.6h-2.3
		c-4.2,0-8.1-3.8-9.7-9.6h-63.3c-9.2,0-16.6,7.4-16.6,16.6c0,0,0,0,0,0V96.4z"/>
	<path class="st0" d="M360.2,163v-34.3h-3.1V84.8c0-15-12.1-27.1-27.1-27.1c0,0,0,0,0,0H184.6c-15,0-27.1,12.1-27.1,27.1
		c0,0,0,0,0,0v349.1c0,15,12.1,27.1,27.1,27.1c0,0,0,0,0,0h145.5c14.9,0,27.1-12.1,27.1-27.1c0,0,0,0,0,0V192.3h3.1V172h-3.1v-9
		L360.2,163z M348.6,414.5c0,15-12.1,27.1-27.1,27.1H193.1c-15,0-27.1-12.1-27.1-27.1V91c0-15,12.1-27.1,27.1-27.1h53.7l0.1,0.2
		c1.6,5.7,5.2,9.4,9.3,9.4h2.3c4.1,0,7.7-3.7,9.3-9.4l0.1-0.2h53.7c15,0,27.1,12.1,27.1,27.1L348.6,414.5z"/>
	<path class="st4" d="M330.1,461.4H184.6c-15.2,0-27.6-12.4-27.6-27.6V84.8c0-15.2,12.4-27.6,27.6-27.6h145.5
		c15.2,0,27.6,12.4,27.6,27.6v43.4h2.6c0.3,0,0.5,0.2,0.5,0.5V163c0,0.3-0.2,0.5-0.5,0.5h-2.6v8h2.6c0.3,0,0.5,0.2,0.5,0.5v20.3
		c0,0.3-0.2,0.5-0.5,0.5h-2.6v241.1C357.6,449.1,345.3,461.4,330.1,461.4z M184.6,58.2c-14.7,0-26.6,11.9-26.6,26.6v349.1
		c0,14.7,11.9,26.6,26.6,26.6h145.5c14.7,0,26.6-11.9,26.6-26.6V192.3c0-0.3,0.2-0.5,0.5-0.5h2.6v-19.3h-2.6c-0.3,0-0.5-0.2-0.5-0.5
		v-9c0-0.3,0.2-0.5,0.5-0.5h2.6v-33.3h-2.6c-0.3,0-0.5-0.2-0.5-0.5V84.8c0-14.7-11.9-26.6-26.6-26.6H184.6z M321.6,442.1H193.1
		c-15.2,0-27.6-12.4-27.6-27.6V91c0-15.2,12.4-27.6,27.6-27.6h53.7c0.2,0,0.4,0.1,0.5,0.4l0.1,0.2c1.5,5.5,5,9.1,8.8,9.1h2.3
		c3.8,0,7.3-3.6,8.8-9.1l0.1-0.2c0.1-0.2,0.3-0.4,0.5-0.3h53.7c15.2,0,27.6,12.4,27.6,27.6v323.5
		C349.1,429.7,336.8,442.1,321.6,442.1L321.6,442.1z M193.1,64.4c-14.7,0-26.6,11.9-26.6,26.6v323.5c0,14.7,11.9,26.6,26.6,26.6
		h128.5c14.7,0,26.6-11.9,26.6-26.6V91c0-14.7-11.9-26.6-26.6-26.6h-53.3c-1.7,5.8-5.5,9.6-9.7,9.6h-2.3c-4.2,0-8.1-3.8-9.7-9.6
		H193.1z"/>
	<path class="st4" d="M327.9,61.4H186.8c-14.4,0-26.1,11.7-26.1,26.1v343.6c0,14.4,11.7,26.1,26.1,26.1h141.1
		c14.4,0,26.1-11.7,26.1-26.1V87.5C354,73.1,342.3,61.4,327.9,61.4z M348.6,415.4c0,14.4-11.7,26.1-26.1,26.1H192.2
		c-14.4,0-26.1-11.7-26.1-26.1V90c0-14.4,11.7-26.1,26.1-26.1c0,0,0,0,0,0h54.7l0.1,0.2c1.6,5.7,5.2,9.4,9.3,9.4h2.3
		c4.1,0,7.7-3.7,9.3-9.4l0.1-0.2h54.6c14.4,0,26.1,11.7,26.1,26.1c0,0,0,0,0,0V415.4z"/>
	<path class="st4" d="M327.9,457.7H186.8c-14.7,0-26.6-11.9-26.6-26.6V87.5c0-14.7,11.9-26.6,26.6-26.6h141.1
		c14.7,0,26.6,11.9,26.6,26.6v343.6C354.5,445.8,342.6,457.7,327.9,457.7z M186.8,61.9c-14.1,0-25.6,11.5-25.6,25.6v343.6
		c0,14.1,11.5,25.6,25.6,25.6h141.1c14.1,0,25.6-11.5,25.6-25.6V87.5c0-14.1-11.5-25.6-25.6-25.6L186.8,61.9z M322.5,442.1H192.2
		c-14.7,0-26.7-11.9-26.7-26.6c0,0,0,0,0,0V90c0-14.7,11.9-26.6,26.6-26.6h54.7c0.2,0,0.4,0.1,0.5,0.4l0.1,0.2
		c1.5,5.5,5,9.1,8.8,9.1h2.3c3.8,0,7.3-3.6,8.8-9.1l0.1-0.2c0.1-0.2,0.3-0.4,0.5-0.3h54.7c14.7,0,26.6,11.9,26.6,26.6v325.4
		C349.1,430.2,337.2,442.1,322.5,442.1z M192.1,64.4c-14.2,0-25.6,11.5-25.7,25.6v325.4c0,14.1,11.5,25.6,25.6,25.6h130.4
		c14.1,0,25.6-11.5,25.6-25.6V90c0-14.1-11.5-25.6-25.6-25.6h-54.3c-1.7,5.8-5.5,9.6-9.7,9.6h-2.3c-4.2,0-8.1-3.8-9.7-9.6H192.1z"/>
	<path class="st3" d="M259.3,65.2c0-1.4-1.1-2.5-2.5-2.5c-1.4,0-2.5,1.1-2.5,2.5c0,1.4,1.1,2.5,2.5,2.5
		C258.2,67.7,259.3,66.6,259.3,65.2C259.3,65.2,259.3,65.2,259.3,65.2z"/>
	<path class="st4" d="M182.3,74.9c0,2.6-2.9,3.5-2.9,5.5v0.1h2.8v0.9h-3.7v-0.7c0-2.8,2.9-3.3,2.9-5.7c0-0.9-0.3-1.3-1-1.3
		s-1,0.5-1,1.3v0.7h-0.9v-0.7c0-1.3,0.6-2.2,1.9-2.2S182.3,73.6,182.3,74.9z"/>
	<path class="st4" d="M186.9,74.9v0.2c0.1,0.7-0.3,1.5-1,1.8c0.7,0.3,1.1,1,1,1.8v0.7c0,1.3-0.6,2.1-1.9,2.1s-1.9-0.8-1.9-2.1v-0.6
		h0.9v0.6c0,0.8,0.3,1.2,1,1.2s1-0.4,1-1.3v-0.7c0-0.8-0.4-1.2-1.1-1.3h-0.5v-0.9h0.6c0.6,0,1-0.4,1-1c0-0.1,0-0.1,0-0.2v-0.4
		c0-0.9-0.3-1.3-1-1.3s-1,0.5-1,1.2v0.4h-0.9v-0.4c0-1.3,0.6-2.1,1.9-2.1S186.9,73.6,186.9,74.9z"/>
	<path class="st4" d="M188.8,75.6v1.2h-0.9v-1.2H188.8z M188.8,80.2v1.2h-0.9v-1.2H188.8z"/>
	<path class="st4" d="M190.7,76.3c0.2-0.5,0.7-0.7,1.3-0.7c1.1,0,1.6,0.8,1.6,2v1.7c0,1.3-0.6,2.1-1.9,2.1s-1.9-0.8-1.9-2.1v-0.6
		h0.9v0.6c0,0.8,0.3,1.2,1,1.2s1-0.5,1-1.2v-1.6c0-0.8-0.3-1.2-1-1.2c-0.5,0-1,0.3-1,0.8c0,0,0,0,0,0.1v0.2h-0.9l0.2-4.7h3.4v0.9
		h-2.5L190.7,76.3z"/>
	<path class="st4" d="M198.3,74.9v0.2h-0.9v-0.2c0-0.8-0.3-1.2-1-1.2s-1,0.5-1,1.4v1.9c0.2-0.6,0.8-0.9,1.4-0.9c1.1,0,1.6,0.8,1.6,2
		v1.3c0,1.3-0.6,2.1-2,2.1c-1.3,0-2-0.8-2-2.1V75c0-1.3,0.6-2.2,2-2.2S198.3,73.6,198.3,74.9z M195.4,78.1v1.3c0,0.8,0.3,1.2,1,1.2
		s1-0.5,1-1.2v-1.3c0-0.8-0.3-1.2-1-1.2S195.4,77.3,195.4,78.1z"/>
	<rect x="289" y="75.3" class="st4" width="2.4" height="6"/>
	<rect x="292.2" y="74.1" class="st4" width="2.4" height="7.2"/>
	<rect x="295.5" y="73.2" class="st4" width="2.4" height="8.1"/>
	<rect x="298.7" y="71.7" class="st4" width="2.4" height="9.6"/>
	<path class="st4" d="M330.9,81.1h-14.4v-8.8h14.4L330.9,81.1z M317.2,80.3h12.8v-7.2h-12.8V80.3z"/>
	<rect x="318.4" y="74" class="st4" width="7.6" height="5.5"/>
	<rect x="330.4" y="75.7" class="st4" width="1.8" height="2.1"/>
	<path class="st4" d="M311.1,79.2c-0.1,0-0.2,0-0.3-0.1c-2.9-1.7-4.9-0.1-5-0.1c-0.2,0.2-0.5,0.2-0.8,0c-0.2-0.2-0.2-0.6,0-0.8
		c0.1-0.1,2.6-2.2,6.2-0.1c0.3,0.2,0.3,0.5,0.2,0.7c0,0,0,0,0,0C311.5,79.1,311.3,79.2,311.1,79.2z"/>
	<path class="st4" d="M312.2,77.4c-0.1,0-0.2,0-0.3-0.1c-4.3-2.5-7.1-0.1-7.1-0.1c-0.2,0.2-0.5,0.2-0.8,0c-0.2-0.2-0.2-0.6,0-0.8
		c0,0,3.5-3,8.4,0c0.3,0.2,0.3,0.5,0.2,0.7C312.6,77.4,312.4,77.5,312.2,77.4L312.2,77.4z"/>
	<path class="st4" d="M313.2,75.3c-0.1,0-0.2,0-0.3-0.1c-5.4-3.2-9-0.2-9.1-0.1c-0.2,0.2-0.6,0.2-0.8,0c0,0,0,0,0,0
		c-0.2-0.2-0.2-0.6,0-0.8c0,0,4.3-3.7,10.4-0.1c0.3,0.2,0.3,0.5,0.2,0.7C313.6,75.2,313.4,75.3,313.2,75.3z"/>
	<path class="st4" d="M309.5,80.1c0,0.8-0.6,1.4-1.4,1.4c-0.8,0-1.4-0.6-1.4-1.4s0.6-1.4,1.4-1.4c0,0,0,0,0,0
		C308.9,78.8,309.5,79.4,309.5,80.1C309.5,80.1,309.5,80.1,309.5,80.1z"/>
	<path class="st4" d="M315.7,418.8l4.9-4.9c0.6-0.6,0.5-1.6-0.1-2.1c-0.6-0.5-1.5-0.5-2,0l-4.9,4.9l-4.9-4.9c-0.6-0.6-1.5-0.6-2.1,0
		s-0.6,1.5,0,2.1l4.8,4.9l-4.9,4.9c-0.6,0.6-0.6,1.5,0,2.1c0.6,0.6,1.5,0.6,2.1,0l4.9-4.9l4.9,4.9c0.3,0.3,0.7,0.4,1.1,0.4
		c0.4,0,0.8-0.2,1.1-0.4c0.6-0.6,0.6-1.5,0-2.1c0,0,0,0,0,0L315.7,418.8z"/>
	<path class="st4" d="M196.3,359.7v-9.8l-0.3,0.1l-0.6,0.2l-0.6,0.2c-0.1,0-0.2,0.1-0.4,0.1v-1.5l0.5-0.2l0.7-0.3
		c0.2-0.1,0.4-0.2,0.7-0.4c0.2-0.1,0.4-0.3,0.5-0.4h1.6v12.1L196.3,359.7z"/>
	<path class="st4" d="M252.3,359.7v-1.5l3-4.6c0.2-0.3,0.4-0.7,0.6-1c0.2-0.3,0.4-0.6,0.5-1c0.1-0.4,0.2-0.7,0.2-1.1
		c0-0.3-0.1-0.7-0.2-1c-0.2-0.2-0.5-0.4-0.7-0.4c-0.3,0-0.5,0.1-0.7,0.3c-0.2,0.2-0.3,0.4-0.4,0.7c-0.1,0.3-0.1,0.7-0.1,1v0.5h-2
		v-0.5c0-0.6,0.1-1.3,0.3-1.9c0.2-0.5,0.5-1,1-1.3c0.5-0.3,1.2-0.5,1.8-0.5c0.9-0.1,1.7,0.2,2.3,0.8c0.6,0.7,0.8,1.5,0.8,2.3
		c0,0.5-0.1,0.9-0.2,1.4c-0.1,0.4-0.3,0.8-0.6,1.2c-0.2,0.4-0.5,0.8-0.7,1.1l-2.5,3.8h3.7v1.7H252.3z"/>
	<path class="st4" d="M310.8,359.9c-0.6,0-1.3-0.1-1.8-0.4c-0.5-0.3-0.8-0.7-1-1.2c-0.2-0.6-0.3-1.2-0.3-1.8V356h2v0.3
		c0,0.3,0,0.7,0.1,1c0,0.2,0.2,0.5,0.3,0.6c0.2,0.1,0.4,0.2,0.7,0.2c0.3,0,0.5-0.1,0.7-0.2c0.2-0.2,0.3-0.4,0.3-0.7
		c0.1-0.3,0.1-0.7,0.1-1c0-0.5-0.1-1-0.3-1.5c-0.2-0.4-0.7-0.6-1.1-0.6h-0.3v-1.7h0.4c0.4,0,0.8-0.1,1.1-0.4
		c0.2-0.4,0.3-0.9,0.3-1.4c0-0.4-0.1-0.8-0.2-1.2c-0.2-0.3-0.5-0.5-0.9-0.4c-0.4,0-0.7,0.2-0.9,0.5c-0.2,0.4-0.2,0.8-0.2,1.2v0.4h-2
		v-0.6c0-0.6,0.1-1.2,0.4-1.8c0.2-0.5,0.6-0.9,1.1-1.1c0.5-0.3,1.1-0.4,1.7-0.4c0.6,0,1.2,0.1,1.7,0.4c0.5,0.2,0.8,0.6,1.1,1.1
		c0.3,0.5,0.4,1.1,0.4,1.7c0,0.6-0.2,1.3-0.6,1.8c-0.3,0.4-0.7,0.8-1.2,0.9c0.3,0.1,0.6,0.3,0.8,0.5c0.3,0.3,0.5,0.6,0.6,1
		c0.2,0.5,0.2,1,0.2,1.4c0,0.7-0.1,1.3-0.3,1.9c-0.2,0.5-0.5,1-1,1.3C312,359.8,311.4,360,310.8,359.9z"/>
	<path class="st4" d="M197.3,381.3v-3h-3.6v-1.8l3.2-7.4h2.4v7.5h1.3v1.6h-1.2v3H197.3z M195.4,376.6h1.9v-5.3L195.4,376.6z"/>
	<path class="st4" d="M255.5,381.4c-0.7,0-1.3-0.1-1.9-0.4c-0.4-0.3-0.8-0.8-0.9-1.3c-0.2-0.6-0.3-1.3-0.3-1.9h2
		c0,0.4,0,0.7,0.1,1.1c0,0.3,0.1,0.5,0.3,0.7c0.2,0.2,0.5,0.3,0.7,0.2c0.3,0,0.6-0.1,0.7-0.3c0.2-0.3,0.3-0.6,0.3-0.9
		c0-0.4,0.1-0.9,0.1-1.4c0-0.4,0-0.8-0.1-1.2c0-0.3-0.1-0.6-0.3-0.8c-0.2-0.2-0.5-0.3-0.7-0.3c-0.3,0-0.5,0.1-0.7,0.3
		c-0.2,0.2-0.3,0.5-0.4,0.8h-1.8l0.1-6.8h5.5v1.9h-3.7l-0.1,2.9c0.2-0.2,0.4-0.4,0.6-0.4c0.3-0.1,0.7-0.2,1-0.2
		c0.6-0.1,1.1,0.1,1.6,0.4c0.4,0.3,0.7,0.8,0.9,1.3c0.2,0.6,0.3,1.3,0.3,2c0,0.6,0,1.2-0.1,1.8c-0.1,0.5-0.2,1-0.5,1.4
		c-0.2,0.4-0.6,0.7-1,0.9C256.6,381.3,256,381.5,255.5,381.4z"/>
	<path class="st4" d="M310.8,381.4c-0.7,0-1.3-0.2-1.8-0.5c-0.5-0.4-0.8-0.9-1-1.4c-0.2-0.6-0.3-1.3-0.3-2v-4.3
		c0-0.7,0.1-1.4,0.3-2.1c0.2-0.6,0.5-1.1,1-1.5c0.6-0.4,1.2-0.6,1.9-0.5c0.6,0,1.2,0.1,1.7,0.3c0.4,0.2,0.8,0.6,1,1
		c0.2,0.5,0.3,1.1,0.3,1.7c0,0,0,0.1,0,0.1c0,0,0,0.1,0,0.1h-2c0-0.4,0-0.8-0.2-1.2c-0.2-0.3-0.5-0.5-0.8-0.4
		c-0.2,0-0.5,0.1-0.6,0.2c-0.2,0.2-0.3,0.5-0.3,0.8c-0.1,0.5-0.1,1-0.1,1.5v1.4c0.2-0.2,0.4-0.4,0.6-0.5c0.8-0.3,1.8-0.2,2.6,0.2
		c0.4,0.3,0.7,0.8,0.8,1.2c0.2,0.6,0.2,1.2,0.2,1.8c0,0.7-0.1,1.4-0.3,2.1c-0.2,0.6-0.5,1.1-1,1.5
		C312.2,381.3,311.5,381.5,310.8,381.4z M310.8,379.8c0.2,0,0.5-0.1,0.7-0.3c0.2-0.2,0.3-0.5,0.3-0.7c0.1-0.4,0.1-0.7,0.1-1.1
		c0-0.4,0-0.8,0-1.2c0-0.3-0.1-0.6-0.3-0.8c-0.2-0.2-0.5-0.3-0.7-0.3c-0.2,0-0.3,0-0.5,0.1c-0.1,0.1-0.3,0.1-0.4,0.2
		c-0.1,0.1-0.2,0.2-0.2,0.3v1.9c0,0.3,0,0.6,0.1,0.9c0.1,0.3,0.2,0.5,0.3,0.7C310.4,379.8,310.6,379.8,310.8,379.8L310.8,379.8z"/>
	<path class="st4" d="M195,402.8l2.5-10.6h-3.3v-1.6h5.3v1.3l-2.4,10.9H195z"/>
	<path class="st4" d="M255.4,403c-0.7,0-1.3-0.1-1.9-0.5c-0.5-0.3-0.8-0.8-1-1.3c-0.2-0.6-0.3-1.3-0.3-1.9c0-0.3,0-0.7,0.1-1
		c0.1-0.3,0.2-0.6,0.3-0.8c0.1-0.2,0.3-0.4,0.5-0.6c0.2-0.2,0.4-0.3,0.6-0.5c-0.4-0.3-0.7-0.6-0.9-1c-0.3-0.5-0.4-1.1-0.4-1.7
		c0-0.6,0.1-1.2,0.3-1.7c0.2-0.5,0.6-0.9,1-1.1c0.5-0.3,1.1-0.4,1.7-0.4c0.6,0,1.2,0.1,1.7,0.4c0.4,0.3,0.8,0.6,1,1.1
		c0.2,0.5,0.3,1.1,0.3,1.7c0,0.6-0.1,1.2-0.4,1.7c-0.2,0.4-0.5,0.7-0.9,1c0.2,0.1,0.4,0.3,0.6,0.5c0.2,0.2,0.3,0.4,0.4,0.6
		c0.1,0.3,0.2,0.5,0.3,0.8c0.1,0.3,0.1,0.7,0.1,1c0,0.7-0.1,1.3-0.3,1.9c-0.2,0.5-0.5,1-1,1.3C256.7,402.8,256,403,255.4,403z
		 M255.4,401.4c0.3,0,0.6-0.1,0.7-0.3c0.2-0.2,0.3-0.5,0.3-0.8c0-0.3,0.1-0.6,0.1-0.9c0-0.3,0-0.7-0.1-1c0-0.3-0.2-0.5-0.3-0.8
		c-0.2-0.2-0.5-0.3-0.7-0.3c-0.3,0-0.5,0.1-0.7,0.3c-0.2,0.2-0.3,0.5-0.3,0.8c-0.1,0.3-0.1,0.7-0.1,1c0,0.3,0,0.6,0.1,0.9
		c0,0.3,0.2,0.5,0.3,0.8C254.8,401.3,255.1,401.4,255.4,401.4L255.4,401.4z M255.4,395.6c0.2,0,0.4-0.1,0.6-0.3
		c0.2-0.2,0.3-0.4,0.3-0.7c0.1-0.3,0.1-0.7,0.1-1c0-0.4-0.1-0.8-0.2-1.1c-0.1-0.3-0.5-0.5-0.8-0.4c-0.3,0-0.6,0.1-0.8,0.4
		c-0.2,0.3-0.3,0.7-0.2,1.1c0,0.3,0,0.7,0.1,1c0,0.3,0.2,0.5,0.3,0.7C254.9,395.5,255.1,395.6,255.4,395.6L255.4,395.6z"/>
	<path class="st4" d="M255.4,424.1c-0.6,0-1.2-0.1-1.8-0.4c-0.5-0.3-0.8-0.7-1-1.2c-0.2-0.6-0.4-1.2-0.3-1.8v-5.4
		c0-0.6,0.1-1.3,0.3-1.9c0.2-0.5,0.5-0.9,1-1.2c1.1-0.6,2.5-0.6,3.6,0c0.5,0.3,0.8,0.7,1,1.2c0.2,0.6,0.3,1.2,0.3,1.9v5.4
		c0,0.6-0.1,1.3-0.4,1.8c-0.2,0.5-0.6,0.9-1,1.2C256.6,423.9,256,424.1,255.4,424.1z M255.4,422.3c0.3,0,0.5-0.1,0.7-0.3
		c0.2-0.2,0.3-0.4,0.3-0.7c0.1-0.3,0.1-0.5,0.1-0.8v-5.3c0-0.3,0-0.6-0.1-0.8c0-0.3-0.1-0.5-0.3-0.7c-0.2-0.2-0.4-0.3-0.7-0.3
		c-0.3,0-0.5,0.1-0.7,0.3c-0.2,0.2-0.3,0.4-0.3,0.7c0,0.3-0.1,0.6-0.1,0.8v5.3c0,0.3,0,0.5,0.1,0.8c0,0.3,0.2,0.5,0.3,0.7
		C254.9,422.2,255.1,422.3,255.4,422.3z"/>
	<path class="st4" d="M310.6,403c-0.6,0-1.2-0.1-1.7-0.4c-0.4-0.2-0.8-0.6-1-1c-0.2-0.5-0.3-1.1-0.3-1.7v-0.2h2c0,0.4,0,0.8,0.2,1.2
		c0.2,0.3,0.5,0.5,0.9,0.4c0.2,0,0.5-0.1,0.6-0.2c0.2-0.2,0.3-0.5,0.3-0.8c0.1-0.5,0.1-1,0.1-1.4v-1.5c-0.2,0.2-0.4,0.4-0.6,0.5
		c-0.3,0.1-0.7,0.2-1,0.2c-0.6,0-1.1-0.1-1.5-0.4c-0.4-0.3-0.7-0.8-0.8-1.3c-0.2-0.6-0.3-1.2-0.2-1.8c0-0.7,0.1-1.4,0.3-2.1
		c0.2-0.6,0.5-1.1,1-1.4c0.5-0.4,1.2-0.5,1.8-0.5c0.6,0,1.3,0.1,1.8,0.5c0.5,0.3,0.8,0.8,1,1.4c0.2,0.6,0.3,1.3,0.3,2v4.3
		c0,0.7-0.1,1.5-0.3,2.1c-0.2,0.6-0.5,1.1-1,1.5C312,402.8,311.3,403,310.6,403z M310.6,396.6c0.2,0,0.5-0.1,0.7-0.2
		c0.2-0.1,0.3-0.3,0.4-0.4V394c0-0.3,0-0.6-0.1-0.9c0-0.3-0.2-0.5-0.3-0.7c-0.2-0.2-0.4-0.3-0.7-0.3c-0.2,0-0.5,0.1-0.6,0.3
		c-0.2,0.2-0.3,0.5-0.3,0.7c-0.1,0.4-0.1,0.8-0.1,1.1c0,0.4,0,0.8,0.1,1.2c0,0.3,0.1,0.6,0.3,0.8
		C310.1,396.5,310.4,396.6,310.6,396.6L310.6,396.6z"/>
	<path class="st0" d="M241.7,303.9v-12.1h5.1v1.6h-2.9v3.5h2.3v1.5h-2.3v4h2.9v1.5L241.7,303.9z"/>
	<path class="st0" d="M248.1,303.9v-12.1h1.5l2.9,6.9v-6.9h1.9v12.1H253l-3-7.3v7.3H248.1z"/>
	<path class="st0" d="M257.5,303.9v-10.5h-1.9v-1.6h6.1v1.6h-1.9v10.5H257.5z"/>
	<path class="st0" d="M262.7,303.9v-12.1h5.1v1.6h-2.9v3.5h2.3v1.5h-2.3v4h2.9v1.5L262.7,303.9z"/>
	<path class="st0" d="M269.1,303.9v-12.1h2.9c0.7,0,1.4,0.1,2.1,0.3c0.5,0.2,1,0.5,1.3,1c0.3,0.6,0.5,1.3,0.4,1.9
		c0,0.4,0,0.9-0.1,1.3c-0.1,0.4-0.2,0.7-0.4,1c-0.2,0.3-0.5,0.5-0.9,0.6l1.7,6h-2.2l-1.5-5.6h-1v5.6L269.1,303.9z M271.4,296.9h0.7
		c0.3,0,0.7-0.1,1-0.2c0.2-0.1,0.4-0.3,0.5-0.6c0.1-0.3,0.2-0.7,0.2-1.1c0-0.5-0.1-1-0.3-1.4c-0.3-0.4-0.8-0.5-1.3-0.5h-0.8
		L271.4,296.9z"/>
</g>
</svg>
