<svg xmlns="http://www.w3.org/2000/svg" viewBox="0 0 476.72 426.18"><defs><style>.cls-1{fill:#f5f5f5;}.cls-2{fill:#e6e6e6;}.cls-3{fill:#e0e0e0;}.cls-4{fill:#ebebeb;}.cls-5{fill:#27debf;}.cls-11,.cls-12,.cls-6,.cls-7,.cls-8{fill:#fff;}.cls-6{opacity:0.5;}.cls-7{opacity:0.7;}.cls-8{opacity:0.85;}.cls-9{opacity:0.3;}.cls-10{opacity:0.15;}.cls-11{opacity:0.4;}.cls-12{opacity:0.8;}.cls-13{fill:#455a64;}.cls-14{fill:#37474f;}.cls-15{fill:#263238;}.cls-16{fill:#f0f0f0;}.cls-17{fill:#fafafa;}</style></defs><g id="Floor"><ellipse id="Floor-2" data-name="Floor" class="cls-1" cx="238.36" cy="281.88" rx="238.36" ry="144.31"/></g><g id="Shadows"><path id="Shadow" class="cls-2" d="M96.6,342.89l130.87,75.56a10.37,10.37,0,0,0,9.35,0l170.75-98.34c2.58-1.49,2.58-3.9,0-5.38L276.09,239.07a10.34,10.34,0,0,0-9.35,0L96.59,337.5C94,339,94,341.4,96.6,342.89Z" transform="translate(-12.94 -51.8)"/></g><g id="Gears"><g id="Gear"><path class="cls-3" d="M235,85.41l-1.4-8.14-7.26,4.78a10,10,0,0,0-2.77-3.35l3.48-9.4-6.47-1.45L215.81,77a17.5,17.5,0,0,0-5,1.62l-2.06-6.86L201,77.81l.51,8.09a42.72,42.72,0,0,0-4.29,5.66l-6.4-.32-4.49,10.06,5.5,2.35a32.66,32.66,0,0,0-1.08,6.37l-7,6.42,1.4,8.14,7.26-4.78a10,10,0,0,0,2.76,3.35l-3.47,9.4L198.2,134l6.84-6.66c1.58-.25,1.2-3.22,2.92-4.06l2.07,6.86,7.75-6.09-.2-3.18c1.56-1.75,7.49-5.6,8.77-7.6l1.6-2.66,4.49-10.06-2.09-3.78L228,91.82Zm-23.67,26.82c-5.94,4.67-7.75,5.69-8.82-.55s2.4-15.76,8.34-20.44,8.22-5,9.3,1.22S217.29,107.55,211.34,112.23Z" transform="translate(-12.94 -51.8)"/><polygon class="cls-1" points="207.66 16.05 216.12 20.93 211.34 30.04 202.88 25.16 207.66 16.05"/><polygon class="cls-1" points="229.13 30.35 221.87 35.13 213.41 30.25 220.67 25.47 229.13 30.35"/><polygon class="cls-3" points="227.97 53.62 222.47 51.28 214.01 46.4 219.5 48.74 227.97 53.62"/><polygon class="cls-3" points="178.8 80.75 187.26 85.63 190.74 76.23 182.27 71.35 178.8 80.75"/><polygon class="cls-3" points="205.56 83.21 197.09 78.33 195.03 71.47 203.49 76.35 205.56 83.21"/><path class="cls-4" d="M243.47,90.29l-1.4-8.14-7.26,4.78a10,10,0,0,0-2.76-3.35l3.47-9.4-6.47-1.45-4.77,9.11a17.3,17.3,0,0,0-5,1.62l-2.07-6.86-7.75,6.09.51,8.09a42.66,42.66,0,0,0-4.28,5.66l-6.4-.32-4.49,10.06,5.49,2.35a32.66,32.66,0,0,0-1.08,6.37l-7,6.42,1.4,8.14,7.26-4.78a10,10,0,0,0,2.76,3.35l-3.47,9.4,6.47,1.44,4.78-9.1a17.66,17.66,0,0,0,5-1.62l2.07,6.86,7.75-6.09-.51-8.09a43.32,43.32,0,0,0,4.28-5.66l6.41.32,4.48-10.06-5.49-2.35a32.66,32.66,0,0,0,1.08-6.37Zm-23.66,26.82c-5.95,4.67-11.64,3.4-12.71-2.85S210,99.17,215.91,94.5s11.64-3.4,12.71,2.84S225.75,112.43,219.81,117.11Z" transform="translate(-12.94 -51.8)"/><polygon class="cls-1" points="204.29 24.8 195.83 19.92 188.08 26.01 196.55 30.89 204.29 24.8"/><polygon class="cls-3" points="188.08 26.01 188.59 34.1 197.05 38.98 196.55 30.89 188.08 26.01"/><polygon class="cls-1" points="192.77 44.64 184.31 39.76 177.91 39.44 186.37 44.32 192.77 44.64"/><polygon class="cls-3" points="177.91 39.44 173.42 49.5 181.88 54.38 186.37 44.32 177.91 39.44"/><polygon class="cls-1" points="186.29 63.1 177.83 58.22 170.85 64.64 179.31 69.52 186.29 63.1"/><polygon class="cls-3" points="180.72 77.66 172.25 72.78 170.85 64.64 179.31 69.52 180.72 77.66"/><polygon class="cls-1" points="216.12 20.93 207.66 16.05 214.12 17.5 222.59 22.38 216.12 20.93"/></g><g id="Gear-2" data-name="Gear"><path class="cls-3" d="M171.8,81.74V69.67L162.19,74a17.2,17.2,0,0,0-2.59-5.72l6.05-12.21-7.39-4.27-7.55,11.35a17.23,17.23,0,0,0-6.25.61L143.4,53.27l-10.45,6L131.89,71a51.69,51.69,0,0,0-6.25,6.6L118.09,75,110.7,87.8l6,5.22a51.74,51.74,0,0,0-2.59,8.71l-9.61,6.77v12.08l9.61-4.34a17.11,17.11,0,0,0,2.59,5.72l-6,12.21,7.39,4.27,7.55-11.35a17,17,0,0,0,6.25-.61L133,137l10.45-6,1.06-11.7a19.66,19.66,0,0,0,8.38-5.88l5.42,1.9,7.39-12.8-4.54-3.91c1.14-2.89,1.26-7.51,1.08-10ZM138.18,111.9c-8,4.63-13,1.34-13-7.92s6.63-20.62,14.66-25.25,12.88-1.26,12.88,8S146.2,107.26,138.18,111.9Z" transform="translate(-12.94 -51.8)"/><polygon class="cls-1" points="153.73 4.85 145.32 0 137.77 11.35 146.18 16.2 153.73 4.85"/><polygon class="cls-1" points="167.28 22.72 158.87 17.87 149.26 22.2 157.67 27.05 167.28 22.72"/><polygon class="cls-3" points="128.42 90.02 120.01 85.17 118.96 74.68 127.37 79.53 128.42 90.02"/><polygon class="cls-3" points="97.76 82.37 106.17 87.22 112.23 75.01 103.82 70.16 97.76 82.37"/><path class="cls-4" d="M180.21,86.59V74.52l-9.61,4.33A17.2,17.2,0,0,0,168,73.13l6.05-12.21-7.39-4.27L159.12,68a17.23,17.23,0,0,0-6.25.61l-1.06-10.49-10.45,6L140.3,75.87a51.69,51.69,0,0,0-6.25,6.6l-7.55-2.63-7.39,12.81,6,5.22a51.74,51.74,0,0,0-2.59,8.71L113,113.35v12.08l9.61-4.34a17.11,17.11,0,0,0,2.59,5.72l-6,12.21,7.39,4.27,7.55-11.35a17,17,0,0,0,6.25-.61l1.06,10.49,10.45-6,1.06-11.7a52.46,52.46,0,0,0,6.25-6.61l7.55,2.63,7.39-12.8L168,102.08a52.13,52.13,0,0,0,2.59-8.72Zm-33.62,30.16c-8,4.63-14.53.87-14.53-8.39s6.5-20.53,14.53-25.16,14.52-.88,14.52,8.38S154.61,112.11,146.59,116.75Z" transform="translate(-12.94 -51.8)"/><polygon class="cls-1" points="112.7 25.82 121.11 30.67 113.57 28.04 105.16 23.19 112.7 25.82"/><rect class="cls-1" x="111.21" y="78.96" width="14.79" height="9.71" transform="translate(-26.19 92.89) rotate(-60.03)"/><polygon class="cls-3" points="97.76 36 106.17 40.85 112.23 46.06 103.82 41.22 97.76 36"/><polygon class="cls-1" points="101.22 49.93 109.63 54.78 100.02 61.55 91.61 56.7 101.22 49.93"/><polygon class="cls-3" points="91.61 56.7 100.02 61.55 100.02 73.62 91.61 68.77 91.61 56.7"/><polygon class="cls-1" points="138.88 6.32 130.47 1.47 120.01 7.51 128.42 12.36 138.88 6.32"/></g></g><g id="Device"><g id="Laptop"><g id="Laptop-2" data-name="Laptop"><path class="cls-5" d="M107.73,337.28a8.93,8.93,0,0,0,4.17,6.91L228.49,411.5a9.17,9.17,0,0,0,8.32,0l159.54-92.1a7.82,7.82,0,0,0,0-13.82l-116.6-67.32a9.17,9.17,0,0,0-8.32,0L111.89,330.37A9,9,0,0,0,107.73,337.28Z" transform="translate(-12.94 -51.8)"/><path class="cls-6" d="M232.65,403.49v9a8.56,8.56,0,0,1-4.16-1l-116.6-67.32a7.79,7.79,0,0,1-.42-13.55c-1.86,1.33-1.72,3.29.42,4.53l116.6,67.32A8.45,8.45,0,0,0,232.65,403.49Z" transform="translate(-12.94 -51.8)"/><path class="cls-5" d="M103.83,330.52a8.92,8.92,0,0,1-3.9-7.06V184.32a9.19,9.19,0,0,1,4.16-7.21L263.62,85a7.82,7.82,0,0,1,12,6.91V231.05a9.19,9.19,0,0,1-4.16,7.21L111.89,330.37A8.92,8.92,0,0,1,103.83,330.52Z" transform="translate(-12.94 -51.8)"/><path class="cls-6" d="M111.4,330.62a8.89,8.89,0,0,1-7.57-.11,8.92,8.92,0,0,1-3.9-7.05V184.31a8.4,8.4,0,0,1,1.22-4.09l7.8,4.5h0a8.51,8.51,0,0,0-1.22,4.09V328C107.73,330.43,109.34,331.53,111.4,330.62Z" transform="translate(-12.94 -51.8)"/><path class="cls-7" d="M107.73,188.83V328c0,2.65,1.87,3.73,4.16,2.4l159.54-92.11a9.19,9.19,0,0,0,4.16-7.21V91.91c0-2.65-1.86-3.73-4.16-2.4L111.89,181.62A9.2,9.2,0,0,0,107.73,188.83Z" transform="translate(-12.94 -51.8)"/><path class="cls-5" d="M111.89,335.17l116.6,67.32a9.17,9.17,0,0,0,8.32,0l159.54-92.11c2.3-1.32,2.3-3.48,0-4.8l-116.6-67.32a9.17,9.17,0,0,0-8.32,0L111.89,330.37C109.6,331.7,109.6,333.85,111.89,335.17Z" transform="translate(-12.94 -51.8)"/><path class="cls-8" d="M111.89,335.17l116.6,67.32a9.17,9.17,0,0,0,8.32,0l159.54-92.11c2.3-1.32,2.3-3.48,0-4.8l-116.6-67.32a9.17,9.17,0,0,0-8.32,0L111.89,330.37C109.6,331.7,109.6,333.85,111.89,335.17Z" transform="translate(-12.94 -51.8)"/><path class="cls-5" d="M114.13,189.34,268,100.56c1.38-.8,2.49-.15,2.49,1.44V222.45a5.49,5.49,0,0,1-2.49,4.32L114.13,315.55c-1.38.8-2.49.15-2.49-1.44V193.66A5.51,5.51,0,0,1,114.13,189.34Z" transform="translate(-12.94 -51.8)"/><path class="cls-9" d="M114.13,189.34,268,100.56c1.38-.8,2.49-.15,2.49,1.44V222.45a5.49,5.49,0,0,1-2.49,4.32L114.13,315.55c-1.38.8-2.49.15-2.49-1.44V193.66A5.51,5.51,0,0,1,114.13,189.34Z" transform="translate(-12.94 -51.8)"/><path class="cls-5" d="M269.37,225.43a5.32,5.32,0,0,0,1.07-3V102c0-1.59-1.11-2.24-2.49-1.44l-107.45,62Z" transform="translate(-12.94 -51.8)"/><path class="cls-10" d="M269.37,225.43a5.32,5.32,0,0,0,1.07-3V102c0-1.59-1.11-2.24-2.49-1.44l-107.45,62Z" transform="translate(-12.94 -51.8)"/><path class="cls-5" d="M114.13,189.34a5.51,5.51,0,0,0-2.49,4.32V313l152.82-88.21a5.51,5.51,0,0,0,2.5-4.32V101.13Z" transform="translate(-12.94 -51.8)"/><path class="cls-5" d="M125.43,331.57l148.08-85.49a4.56,4.56,0,0,1,4.16,0l7.58,4.37a1.27,1.27,0,0,1,0,2.4L137.14,338.33a4.59,4.59,0,0,1-4.16,0L125.43,334A1.27,1.27,0,0,1,125.43,331.57Z" transform="translate(-12.94 -51.8)"/><path class="cls-11" d="M125.43,331.57l148.08-85.49a4.56,4.56,0,0,1,4.16,0l7.58,4.37a1.27,1.27,0,0,1,0,2.4L137.14,338.33a4.59,4.59,0,0,1-4.16,0L125.43,334A1.27,1.27,0,0,1,125.43,331.57Z" transform="translate(-12.94 -51.8)"/><path class="cls-5" d="M145,342.84,293,257.34a4.62,4.62,0,0,1,4.16,0l46.59,26.9a1.27,1.27,0,0,1,0,2.4L195.87,372a4.64,4.64,0,0,1-4.17,0L145,345.24A1.27,1.27,0,0,1,145,342.84Z" transform="translate(-12.94 -51.8)"/><path class="cls-11" d="M145,342.84,293,257.34a4.62,4.62,0,0,1,4.16,0l46.59,26.9a1.27,1.27,0,0,1,0,2.4L195.87,372a4.64,4.64,0,0,1-4.17,0L145,345.24A1.27,1.27,0,0,1,145,342.84Z" transform="translate(-12.94 -51.8)"/><path class="cls-5" d="M277.69,295.81l4.64-2.68c.19-.11.18-.3,0-.43l-5.36-3.09a.84.84,0,0,0-.74,0l-4.64,2.68c-.19.11-.18.31,0,.43l5.36,3.09A.81.81,0,0,0,277.69,295.81Zm-9.15-10.64-4.64,2.68c-.19.11-.18.3,0,.43l5.36,3.09a.84.84,0,0,0,.74,0l4.64-2.68c.2-.11.18-.31,0-.43l-5.36-3.09A.84.84,0,0,0,268.54,285.17Zm-15,8.65-7.84,4.53c-.2.11-.19.31,0,.43l5.36,3.09a.84.84,0,0,0,.74,0l7.85-4.53c.2-.12.18-.31,0-.43l-5.36-3.09A.81.81,0,0,0,253.56,293.82Zm8.2-4.74-4.63,2.68c-.2.11-.19.31,0,.43l5.37,3.09a.81.81,0,0,0,.74,0l4.63-2.68c.2-.11.19-.3,0-.43l-5.37-3.09A.84.84,0,0,0,261.76,289.08Zm-18.18,10.51-4.64,2.67c-.2.12-.19.31,0,.43l5.36,3.1a.84.84,0,0,0,.74,0l4.63-2.68c.2-.11.19-.3,0-.42l-5.36-3.1A.81.81,0,0,0,243.58,299.59Zm-6.78,3.91-4.64,2.68c-.19.11-.18.3,0,.42l5.36,3.1a.81.81,0,0,0,.74,0l4.64-2.67c.19-.12.18-.31,0-.43l-5.36-3.1A.81.81,0,0,0,236.8,303.5Zm21.09,12.59,4.63-2.68c.2-.11.19-.31,0-.43l-5.36-3.09a.81.81,0,0,0-.74,0l-4.64,2.68c-.2.11-.18.3,0,.43l5.36,3.09A.84.84,0,0,0,257.89,316.09ZM251.11,320l4.64-2.68c.19-.11.18-.3,0-.43l-5.36-3.09a.84.84,0,0,0-.74,0L245,316.46c-.19.11-.18.31,0,.43l5.36,3.09A.84.84,0,0,0,251.11,320Zm-6.78,3.91,4.64-2.68c.2-.11.19-.3,0-.42l-5.36-3.1a.81.81,0,0,0-.74,0l-4.63,2.67c-.2.12-.19.31,0,.43l5.37,3.1A.82.82,0,0,0,244.33,323.91Zm-6.77,3.91,4.64-2.67c.19-.12.18-.31,0-.43l-5.36-3.1a.81.81,0,0,0-.74,0l-4.64,2.68c-.2.11-.18.3,0,.42l5.36,3.1A.81.81,0,0,0,237.56,327.82Zm33.35-28.1,4.64-2.68c.2-.11.19-.3,0-.42l-5.36-3.1a.81.81,0,0,0-.74,0l-4.63,2.67c-.2.12-.19.31,0,.43l5.36,3.1A.84.84,0,0,0,270.91,299.72Zm-6.25,12.45,10.35-6c.19-.11.18-.3,0-.43l-13-7.51a.84.84,0,0,0-.74,0l-5.35,3.09c-.2.11-.18.31,0,.43l6.89,4c.21.12.22.31,0,.42l-4.28,2.48c-.2.11-.19.3,0,.42l5.36,3.1A.81.81,0,0,0,264.66,312.17ZM230,307.41l-4.63,2.68c-.2.11-.19.3,0,.42l5.36,3.1a.81.81,0,0,0,.74,0l4.64-2.67c.2-.12.19-.31,0-.43l-5.36-3.09A.81.81,0,0,0,230,307.41Zm-6.77,3.91L218.61,314c-.2.11-.19.3,0,.43l5.36,3.09a.84.84,0,0,0,.74,0l4.63-2.68c.2-.11.19-.3,0-.43L224,311.34A.84.84,0,0,0,223.25,311.32Zm-33.87,43.87a.81.81,0,0,0,.74,0l4.64-2.68c.2-.11.19-.3,0-.43L189.37,349a.84.84,0,0,0-.74,0L184,351.67c-.2.12-.19.31,0,.43ZM169,342.62l-4.64,2.68c-.2.11-.19.3,0,.43l5.36,3.09a.84.84,0,0,0,.74,0l4.63-2.68c.2-.11.19-.31,0-.43l-5.37-3.09A.82.82,0,0,0,169,342.62Zm10.9,9.18a.84.84,0,0,0,.74,0l4.64-2.68c.2-.11.18-.31,0-.43l-5.36-3.09a.84.84,0,0,0-.74,0l-4.64,2.68c-.19.11-.18.3,0,.43Zm21.41,5.77,4.64-2.68c.19-.11.18-.3,0-.42l-5.36-3.1a.81.81,0,0,0-.74,0L195.22,354c-.19.12-.18.31,0,.43l5.36,3.1A.81.81,0,0,0,201.35,357.57Zm-7.52,3.9a.81.81,0,0,0,.74,0l4.64-2.67c.2-.12.18-.31,0-.43l-5.36-3.1a.84.84,0,0,0-.74,0L188.45,358c-.2.11-.19.3,0,.42Zm-18-22.76-4.63,2.68c-.2.11-.19.3,0,.42l5.36,3.1a.81.81,0,0,0,.74,0l4.64-2.67c.2-.12.18-.31,0-.43l-5.36-3.1A.84.84,0,0,0,175.81,338.71Zm33.88-19.56-4.63,2.67c-.2.12-.19.31,0,.43l5.36,3.1a.81.81,0,0,0,.74,0l4.64-2.67c.2-.12.19-.31,0-.43l-5.36-3.1A.81.81,0,0,0,209.69,319.15Zm-27.1,15.65L178,337.47c-.2.12-.18.31,0,.43l5.36,3.1a.81.81,0,0,0,.74,0l4.64-2.68c.19-.11.18-.3,0-.42l-5.36-3.1A.81.81,0,0,0,182.59,334.8Zm33.88-19.56-4.64,2.67c-.19.12-.18.31,0,.43l5.36,3.09a.81.81,0,0,0,.74,0l4.64-2.68c.19-.11.18-.3,0-.42l-5.36-3.1A.81.81,0,0,0,216.47,315.24Zm-13.55,7.82-4.64,2.68c-.2.11-.18.3,0,.42l5.36,3.1a.81.81,0,0,0,.74,0L209,326.6c.2-.12.19-.31,0-.43l-5.36-3.09A.81.81,0,0,0,202.92,323.06ZM196.14,327l-4.64,2.68c-.19.11-.18.3,0,.43l5.36,3.09a.84.84,0,0,0,.74,0l4.64-2.68c.19-.11.18-.31,0-.43L196.88,327A.84.84,0,0,0,196.14,327Zm-6.78,3.91-4.63,2.68c-.2.12-.19.31,0,.43l5.37,3.09a.81.81,0,0,0,.74,0l4.63-2.68c.2-.11.19-.3,0-.43l-5.37-3.09A.84.84,0,0,0,189.36,330.88ZM224,335.65l4.63-2.68c.2-.11.19-.3,0-.43l-5.37-3.09a.82.82,0,0,0-.73,0l-4.64,2.68c-.2.11-.19.3,0,.43l5.37,3.09A.84.84,0,0,0,224,335.65Zm59.51-59.13-4.64,2.68c-.19.11-.18.31,0,.43l5.36,3.09a.81.81,0,0,0,.74,0l4.64-2.68c.2-.11.18-.3,0-.43l-5.36-3.09A.84.84,0,0,0,283.52,276.52Zm-8.2,4.74-4.64,2.68c-.2.11-.18.3,0,.42l5.36,3.1a.81.81,0,0,0,.74,0l4.63-2.67c.2-.12.19-.31,0-.43l-5.36-3.1A.84.84,0,0,0,275.32,281.26Zm15-8.65-4.64,2.68c-.2.11-.18.3,0,.43l5.36,3.09a.84.84,0,0,0,.74,0l4.63-2.68c.2-.12.19-.31,0-.43L291,272.63A.81.81,0,0,0,290.3,272.61Zm-35.08,36.17,4.64-2.68c.2-.11.18-.3,0-.42l-5.36-3.1a.81.81,0,0,0-.74,0l-4.64,2.67c-.19.12-.18.31,0,.43l5.36,3.1A.84.84,0,0,0,255.22,308.78Zm42.59-40.07a.84.84,0,0,0-.74,0l-4.63,2.68c-.2.11-.19.3,0,.42l5.36,3.1a.81.81,0,0,0,.74,0l4.64-2.67c.2-.12.19-.31,0-.43Zm-67,63,4.64-2.67c.2-.12.18-.31,0-.43L230,325.54a.81.81,0,0,0-.74,0l-4.64,2.68c-.19.11-.18.3,0,.42l5.36,3.1A.81.81,0,0,0,230.78,331.73Zm83.1-48,4.64-2.68c.2-.11.18-.3,0-.43l-5.36-3.09a.84.84,0,0,0-.74,0l-4.64,2.68c-.19.11-.18.3,0,.43l5.36,3.09A.84.84,0,0,0,313.88,283.76Zm-14.43-.51,4.63-2.68c.2-.11.19-.3,0-.43l-5.36-3.09a.84.84,0,0,0-.74,0l-4.64,2.68c-.2.11-.19.3,0,.43l5.36,3.09A.84.84,0,0,0,299.45,283.25Zm6-10.11a.81.81,0,0,0-.74,0l-4.63,2.68c-.2.11-.19.3,0,.42l5.36,3.1a.84.84,0,0,0,.74,0l4.64-2.68c.2-.12.19-.31,0-.43Zm1.43-.83,13,7.52a.81.81,0,0,0,.74,0l4.63-2.67c.2-.12.19-.31,0-.43l-13-7.52a.84.84,0,0,0-.74,0l-4.64,2.68C306.68,272,306.69,272.19,306.9,272.31ZM291.18,281l-4.64,2.67c-.19.12-.18.31,0,.43l5.36,3.09a.81.81,0,0,0,.74,0l4.64-2.68c.19-.11.18-.3,0-.42l-5.36-3.1A.81.81,0,0,0,291.18,281Zm-51,29.44-4.64,2.68c-.2.11-.18.3,0,.42l5.36,3.1a.84.84,0,0,0,.74,0l4.64-2.68c.19-.12.18-.31,0-.43l-5.36-3.09A.81.81,0,0,0,240.18,310.39Zm66.19-22.74a.81.81,0,0,0,.74,0l4.63-2.68c.2-.11.19-.3,0-.42l-5.37-3.1a.82.82,0,0,0-.73,0L301,284.13c-.2.12-.19.31,0,.43ZM247,306.48l-4.63,2.68c-.2.11-.19.3,0,.42l5.36,3.1a.81.81,0,0,0,.74,0l4.63-2.67c.2-.12.19-.31,0-.43l-5.37-3.1A.84.84,0,0,0,247,306.48Zm-50.79,44.8a.84.84,0,0,0,.74,0l4.64-2.68c.19-.11.18-.31,0-.43l-5.36-3.09a.84.84,0,0,0-.74,0l-4.64,2.68c-.19.11-.18.3,0,.43ZM186,341.69l-4.64,2.68c-.2.11-.18.3,0,.42l5.36,3.1a.81.81,0,0,0,.74,0l4.63-2.67c.2-.12.19-.31,0-.43l-5.36-3.1A.84.84,0,0,0,186,341.69Zm17.71,5.69,4.63-2.67c.2-.12.19-.31,0-.43l-5.36-3.09a.81.81,0,0,0-.74,0l-4.64,2.68c-.2.11-.19.3,0,.42l5.36,3.1A.81.81,0,0,0,203.68,347.38Zm6.77-3.91,4.64-2.67c.2-.12.18-.31,0-.43l-5.36-3.1a.81.81,0,0,0-.74,0l-4.63,2.67c-.2.12-.19.31,0,.43l5.36,3.1A.81.81,0,0,0,210.45,343.47Zm6.78-3.91,4.64-2.68c.19-.11.18-.3,0-.42l-5.36-3.1a.81.81,0,0,0-.74,0L211.1,336c-.2.12-.18.31,0,.43l5.36,3.09A.81.81,0,0,0,217.23,339.56Zm-24.49-1.78-4.63,2.67c-.2.12-.19.31,0,.43l5.36,3.1a.81.81,0,0,0,.74,0l4.64-2.67c.2-.12.19-.31,0-.43l-5.36-3.1A.81.81,0,0,0,192.74,337.78Zm6.78-3.91-4.64,2.67c-.19.12-.18.31,0,.43l5.36,3.09a.81.81,0,0,0,.74,0l4.64-2.68c.19-.11.18-.3,0-.42l-5.36-3.1A.81.81,0,0,0,199.52,333.87Zm27.11-15.65L222,320.89c-.2.12-.19.31,0,.43l5.36,3.09a.81.81,0,0,0,.74,0l4.63-2.68c.2-.11.19-.3,0-.42l-5.36-3.1A.81.81,0,0,0,226.63,318.22Zm-6.78,3.91-4.64,2.68c-.19.11-.18.3,0,.42l5.36,3.1a.81.81,0,0,0,.74,0l4.64-2.67c.19-.12.18-.31,0-.43l-5.36-3.1A.81.81,0,0,0,219.85,322.13Zm13.55-7.83L228.77,317c-.2.11-.19.31,0,.43l5.36,3.09a.84.84,0,0,0,.74,0l4.64-2.68c.2-.11.18-.3,0-.43l-5.36-3.09A.84.84,0,0,0,233.4,314.3ZM206.3,330l-4.64,2.68c-.2.11-.19.3,0,.43l5.36,3.09a.84.84,0,0,0,.74,0l4.63-2.68c.2-.11.19-.3,0-.43L207,330A.84.84,0,0,0,206.3,330Zm6.77-3.91-4.63,2.68c-.2.11-.19.3,0,.42l5.36,3.1a.84.84,0,0,0,.74,0l4.64-2.68c.2-.12.19-.31,0-.43l-5.36-3.09A.81.81,0,0,0,213.07,326Zm-4.94,27.62,4.63-2.68c.2-.11.19-.3,0-.42l-5.37-3.1a.81.81,0,0,0-.74,0L202,350.12c-.2.12-.19.31,0,.43l5.37,3.09A.81.81,0,0,0,208.13,353.66Zm-39.77-4L163,346.55a.84.84,0,0,0-.74,0l-4.64,2.68c-.19.11-.18.31,0,.43l5.36,3.09a.81.81,0,0,0,.74,0l4.64-2.68C168.58,350,168.57,349.77,168.36,349.64Zm10.16,3-5.37-3.1a.84.84,0,0,0-.74,0l-7.13,4.12c-.2.12-.18.31,0,.43l5.36,3.09a.81.81,0,0,0,.74,0l7.13-4.12C178.74,352.94,178.73,352.75,178.52,352.63Zm-18.39-9-5.36-3.09a.81.81,0,0,0-.74,0l-5.7,3.29c-.2.12-.19.31,0,.43l5.36,3.1a.81.81,0,0,0,.74,0l5.71-3.29C160.36,344,160.35,343.78,160.13,343.66Zm4.38-2.53a.81.81,0,0,0,.74,0l4.64-2.68c.19-.11.18-.3,0-.42L164.5,335a.81.81,0,0,0-.74,0l-4.64,2.67c-.2.12-.18.31,0,.43ZM188,356l-5.36-3.1a.81.81,0,0,0-.74,0l-8.92,5.14c-.2.12-.18.31,0,.43l5.36,3.1a.81.81,0,0,0,.74,0l8.91-5.15C188.18,356.33,188.17,356.14,188,356Zm4.45,6.27-5.36-3.09a.84.84,0,0,0-.74,0l-5.71,3.3c-.2.11-.19.3,0,.42L186,366a.81.81,0,0,0,.74,0l5.7-3.29C192.63,362.61,192.62,362.41,192.41,362.29Zm22.48-50.24a.84.84,0,0,0,.74,0l4.64-2.68c.2-.11.18-.3,0-.42l-5.36-3.1a.81.81,0,0,0-.74,0l-4.63,2.67c-.2.12-.19.31,0,.43Zm-13.55,7.82a.84.84,0,0,0,.74,0l4.64-2.68c.19-.11.18-.31,0-.43l-5.36-3.09a.81.81,0,0,0-.74,0L196,316.35c-.19.11-.18.3,0,.43Zm-30.05,17.35a.84.84,0,0,0,.74,0l4.63-2.68c.2-.11.19-.3,0-.43L171.27,331a.84.84,0,0,0-.74,0l-4.63,2.68c-.2.11-.19.3,0,.43ZM208.12,316a.81.81,0,0,0,.74,0l4.63-2.67c.2-.12.19-.31,0-.43l-5.37-3.1a.82.82,0,0,0-.73,0l-4.64,2.68c-.2.11-.19.3,0,.42Zm-13.56,7.82a.84.84,0,0,0,.74,0l4.64-2.68c.2-.11.18-.3,0-.43l-5.36-3.09a.84.84,0,0,0-.74,0l-4.63,2.68c-.2.11-.19.31,0,.43Zm1.57,39a.81.81,0,0,0-.74,0l-7.13,4.12c-.2.11-.19.3,0,.43l5.37,3.09a.84.84,0,0,0,.74,0l7.13-4.12c.2-.12.18-.31,0-.43Zm-11.29-33.4a.81.81,0,0,0,.74,0l4.63-2.67c.2-.12.19-.31,0-.43l-5.36-3.1a.81.81,0,0,0-.74,0l-4.64,2.68c-.2.11-.18.3,0,.42Zm-6.78,3.91a.84.84,0,0,0,.74,0l4.64-2.68c.2-.12.18-.31,0-.43l-5.36-3.09a.81.81,0,0,0-.74,0l-4.64,2.68c-.19.11-.18.3,0,.42Zm143.61-43a.84.84,0,0,0-.74,0l-11.41,6.59c-.2.11-.19.3,0,.43l5.36,3.09a.84.84,0,0,0,.74,0l11.41-6.59c.2-.12.19-.31,0-.43Zm-15,8.65a.81.81,0,0,0-.74,0l-4.63,2.67c-.2.12-.19.31,0,.43l5.36,3.1a.81.81,0,0,0,.74,0l4.64-2.68c.2-.11.19-.3,0-.42ZM214.9,349.75l4.64-2.68c.2-.11.18-.3,0-.43l-5.36-3.09a.84.84,0,0,0-.74,0l-4.64,2.68c-.19.11-.18.3,0,.43l5.36,3.09A.84.84,0,0,0,214.9,349.75Zm78.24-43a.81.81,0,0,0-.74,0l-4.64,2.68c-.19.11-.18.3,0,.43l5.36,3.09a.84.84,0,0,0,.74,0l4.64-2.68c.19-.11.18-.31,0-.43Zm35.31-20.39a.81.81,0,0,0-.74,0l-4.64,2.67c-.19.12-.18.31,0,.43l5.36,3.1a.84.84,0,0,0,.74,0l4.64-2.68c.19-.11.18-.3,0-.42Zm12.14-.81-13-7.52a.84.84,0,0,0-.74,0l-4.64,2.68c-.2.11-.19.3,0,.43l13,7.51a.81.81,0,0,0,.74,0l4.63-2.68C340.81,285.9,340.8,285.71,340.59,285.59Zm-72.77,35.82a.81.81,0,0,0-.74,0l-5.71,3.3c-.2.11-.18.3,0,.42l5.36,3.1a.81.81,0,0,0,.74,0l5.71-3.29c.19-.11.18-.31,0-.43Zm17.12-9.89a.81.81,0,0,0-.74,0l-7.14,4.12c-.19.11-.18.3,0,.42l5.36,3.1a.81.81,0,0,0,.74,0l7.13-4.11c.2-.12.19-.31,0-.43Zm-32.81,19a.81.81,0,0,0-.74,0l-38.17,22c-.19.12-.18.31,0,.43l5.36,3.1a.81.81,0,0,0,.74,0l38.16-22c.2-.11.19-.31,0-.43Zm-40.31,23.27a.81.81,0,0,0-.74,0l-5.7,3.29c-.2.12-.19.31,0,.43l5.36,3.1a.81.81,0,0,0,.74,0l5.71-3.29c.2-.12.19-.31,0-.43ZM260,325.94a.81.81,0,0,0-.74,0l-5.7,3.3c-.2.11-.19.3,0,.42l5.36,3.1a.81.81,0,0,0,.74,0l5.71-3.29c.2-.11.18-.31,0-.43Zm-56,32.33a.81.81,0,0,0-.74,0l-5.71,3.29c-.2.12-.18.31,0,.43l5.36,3.1a.81.81,0,0,0,.74,0l5.7-3.29c.2-.12.19-.31,0-.43Zm71.68-41.39a.81.81,0,0,0-.74,0l-5.7,3.3c-.2.11-.19.3,0,.42l5.37,3.1a.81.81,0,0,0,.74,0l5.7-3.29c.2-.11.19-.31,0-.43Zm24.26-14a.84.84,0,0,0-.74,0l-4.64,2.68c-.2.11-.18.3,0,.42l5.36,3.1a.81.81,0,0,0,.74,0l4.63-2.67c.2-.12.19-.31,0-.43Zm14.84-10.78,4.64-2.68c.2-.11.19-.3,0-.42l-5.36-3.1a.81.81,0,0,0-.74,0l-4.63,2.67c-.2.12-.19.31,0,.43l5.37,3.1A.79.79,0,0,0,314.76,292.09Zm-30.29-.19,4.63-2.68c.2-.11.19-.31,0-.43l-5.36-3.09a.81.81,0,0,0-.74,0l-4.64,2.68c-.2.11-.19.3,0,.43l5.36,3.09A.84.84,0,0,0,284.47,291.9Zm-15.36,26.55,13.56-7.83c.19-.11.18-.3,0-.42l-5.36-3.1a.81.81,0,0,0-.74,0L263,314.91c-.2.11-.19.31,0,.43l5.36,3.09A.81.81,0,0,0,269.11,318.45ZM307.25,296a.81.81,0,0,0,.74,0l4.63-2.67c.2-.12.19-.31,0-.43l-5.36-3.1a.84.84,0,0,0-.74,0l-4.64,2.68c-.2.11-.18.3,0,.42Zm-6.92-4.41L305,288.9c.19-.11.18-.3,0-.42l-5.36-3.1a.81.81,0,0,0-.74,0L294.2,288c-.19.12-.18.31,0,.43l5.36,3.1A.81.81,0,0,0,300.33,291.58Zm-38,30.78,4.63-2.68c.2-.11.19-.3,0-.42l-5.36-3.1a.81.81,0,0,0-.74,0l-4.64,2.67c-.2.12-.19.31,0,.43l5.36,3.1A.84.84,0,0,0,262.34,322.36Zm29.93-17.72a.81.81,0,0,0,.74,0l4.64-2.67c.19-.12.18-.31,0-.43l-5.36-3.1a.81.81,0,0,0-.74,0l-4.64,2.67c-.2.12-.18.31,0,.43Zm-63.82,37.28,4.64-2.67c.2-.12.19-.31,0-.43l-5.37-3.1a.81.81,0,0,0-.74,0l-4.63,2.68c-.2.11-.19.3,0,.42l5.37,3.1A.79.79,0,0,0,228.45,341.92Zm6.78-3.91,4.64-2.68c.19-.11.18-.3,0-.42l-5.36-3.1a.81.81,0,0,0-.74,0l-4.64,2.67c-.19.12-.18.31,0,.43l5.36,3.09A.81.81,0,0,0,235.23,338Zm-13.55,7.82,4.63-2.67c.2-.12.19-.31,0-.43l-5.36-3.09a.81.81,0,0,0-.74,0l-4.64,2.68c-.2.11-.18.3,0,.42l5.36,3.1A.81.81,0,0,0,221.68,345.83Zm27.1-15.64,4.64-2.68c.2-.12.19-.31,0-.43L248,324a.81.81,0,0,0-.74,0l-4.63,2.68c-.2.11-.19.3,0,.42l5.36,3.1A.84.84,0,0,0,248.78,330.19ZM242,334.1l4.63-2.68c.2-.11.19-.3,0-.43l-5.36-3.09a.84.84,0,0,0-.74,0l-4.64,2.68c-.2.11-.19.31,0,.43l5.36,3.09A.84.84,0,0,0,242,334.1Zm13.55-7.83,4.64-2.67c.19-.12.18-.31,0-.43l-5.36-3.1a.81.81,0,0,0-.74,0l-4.64,2.68c-.19.11-.18.3,0,.42l5.36,3.1A.81.81,0,0,0,255.56,326.27Zm31-57.87a.84.84,0,0,0,.74,0l4.64-2.68c.2-.11.18-.3,0-.42l-1.43-.83a.81.81,0,0,0-.74,0l-4.63,2.68c-.2.11-.19.3,0,.42Zm-33.34,21.52a.81.81,0,0,0,.74,0l4.64-2.67c.19-.12.18-.31,0-.43l-5.36-3.1a.81.81,0,0,0-.74,0l-4.64,2.67c-.19.12-.18.31,0,.43Zm13.55-7.83a.84.84,0,0,0,.74,0l4.64-2.68c.2-.11.18-.3,0-.43l-5.36-3.09a.84.84,0,0,0-.74,0l-4.63,2.68c-.2.11-.19.31,0,.43ZM245,294.69a.81.81,0,0,0,.74,0l4.63-2.68c.2-.11.19-.3,0-.42l-5.37-3.1a.79.79,0,0,0-.73,0l-4.64,2.67c-.2.12-.19.31,0,.43ZM260,286a.81.81,0,0,0,.74,0l4.63-2.68c.2-.11.19-.3,0-.42l-5.36-3.1a.81.81,0,0,0-.74,0l-4.64,2.67c-.2.12-.19.31,0,.43Zm-28.61,16.52a.81.81,0,0,0,.74,0l4.64-2.67c.2-.12.18-.31,0-.43l-5.36-3.1a.84.84,0,0,0-.74,0L226,299c-.2.11-.19.3,0,.42Zm6.78-3.91a.81.81,0,0,0,.74,0l4.64-2.68c.19-.11.18-.3,0-.42l-5.36-3.1a.81.81,0,0,0-.74,0l-4.64,2.67c-.19.12-.18.31,0,.43ZM273,276.22a.84.84,0,0,0,.74,0l4.64-2.68c.19-.11.18-.31,0-.43l-1.43-.82a.84.84,0,0,0-.74,0L271.56,275c-.2.11-.19.3,0,.43Zm20.33-11.74a.81.81,0,0,0,.74,0l4.63-2.68c.2-.11.19-.3,0-.43l-1.43-.82a.81.81,0,0,0-.74,0l-4.63,2.67c-.2.12-.19.31,0,.43ZM304.6,271a.84.84,0,0,0,.74,0l4.64-2.68c.19-.11.18-.3,0-.42l-5.36-3.1a.81.81,0,0,0-.74,0l-4.64,2.67c-.19.12-.18.31,0,.43Zm16.94,17.19,4.64-2.68c.19-.11.18-.3,0-.42l-5.36-3.1a.84.84,0,0,0-.74,0l-4.64,2.68c-.19.12-.18.31,0,.43l5.36,3.09A.81.81,0,0,0,321.54,288.18Zm-41.75-15.87a.81.81,0,0,0,.74,0l4.63-2.67c.2-.12.19-.31,0-.43l-1.43-.82a.81.81,0,0,0-.74,0l-4.64,2.68c-.19.11-.18.3,0,.42Zm-55.17,34.12a.84.84,0,0,0,.74,0l4.63-2.68c.2-.11.19-.31,0-.43l-5.36-3.09a.81.81,0,0,0-.74,0l-4.64,2.68c-.2.11-.19.3,0,.43Z" transform="translate(-12.94 -51.8)"/><path class="cls-12" d="M277.69,295.81l4.64-2.68c.19-.11.18-.3,0-.43l-5.36-3.09a.84.84,0,0,0-.74,0l-4.64,2.68c-.19.11-.18.31,0,.43l5.36,3.09A.81.81,0,0,0,277.69,295.81Zm-9.15-10.64-4.64,2.68c-.19.11-.18.3,0,.43l5.36,3.09a.84.84,0,0,0,.74,0l4.64-2.68c.2-.11.18-.31,0-.43l-5.36-3.09A.84.84,0,0,0,268.54,285.17Zm-15,8.65-7.84,4.53c-.2.11-.19.31,0,.43l5.36,3.09a.84.84,0,0,0,.74,0l7.85-4.53c.2-.12.18-.31,0-.43l-5.36-3.09A.81.81,0,0,0,253.56,293.82Zm8.2-4.74-4.63,2.68c-.2.11-.19.31,0,.43l5.37,3.09a.81.81,0,0,0,.74,0l4.63-2.68c.2-.11.19-.3,0-.43l-5.37-3.09A.84.84,0,0,0,261.76,289.08Zm-18.18,10.51-4.64,2.67c-.2.12-.19.31,0,.43l5.36,3.1a.84.84,0,0,0,.74,0l4.63-2.68c.2-.11.19-.3,0-.42l-5.36-3.1A.81.81,0,0,0,243.58,299.59Zm-6.78,3.91-4.64,2.68c-.19.11-.18.3,0,.42l5.36,3.1a.81.81,0,0,0,.74,0l4.64-2.67c.19-.12.18-.31,0-.43l-5.36-3.1A.81.81,0,0,0,236.8,303.5Zm21.09,12.59,4.63-2.68c.2-.11.19-.31,0-.43l-5.36-3.09a.81.81,0,0,0-.74,0l-4.64,2.68c-.2.11-.18.3,0,.43l5.36,3.09A.84.84,0,0,0,257.89,316.09ZM251.11,320l4.64-2.68c.19-.11.18-.3,0-.43l-5.36-3.09a.84.84,0,0,0-.74,0L245,316.46c-.19.11-.18.31,0,.43l5.36,3.09A.84.84,0,0,0,251.11,320Zm-6.78,3.91,4.64-2.68c.2-.11.19-.3,0-.42l-5.36-3.1a.81.81,0,0,0-.74,0l-4.63,2.67c-.2.12-.19.31,0,.43l5.37,3.1A.82.82,0,0,0,244.33,323.91Zm-6.77,3.91,4.64-2.67c.19-.12.18-.31,0-.43l-5.36-3.1a.81.81,0,0,0-.74,0l-4.64,2.68c-.2.11-.18.3,0,.42l5.36,3.1A.81.81,0,0,0,237.56,327.82Zm33.35-28.1,4.64-2.68c.2-.11.19-.3,0-.42l-5.36-3.1a.81.81,0,0,0-.74,0l-4.63,2.67c-.2.12-.19.31,0,.43l5.36,3.1A.84.84,0,0,0,270.91,299.72Zm-6.25,12.45,10.35-6c.19-.11.18-.3,0-.43l-13-7.51a.84.84,0,0,0-.74,0l-5.35,3.09c-.2.11-.18.31,0,.43l6.89,4c.21.12.22.31,0,.42l-4.28,2.48c-.2.11-.19.3,0,.42l5.36,3.1A.81.81,0,0,0,264.66,312.17ZM230,307.41l-4.63,2.68c-.2.11-.19.3,0,.42l5.36,3.1a.81.81,0,0,0,.74,0l4.64-2.67c.2-.12.19-.31,0-.43l-5.36-3.09A.81.81,0,0,0,230,307.41Zm-6.77,3.91L218.61,314c-.2.11-.19.3,0,.43l5.36,3.09a.84.84,0,0,0,.74,0l4.63-2.68c.2-.11.19-.3,0-.43L224,311.34A.84.84,0,0,0,223.25,311.32Zm-33.87,43.87a.81.81,0,0,0,.74,0l4.64-2.68c.2-.11.19-.3,0-.43L189.37,349a.84.84,0,0,0-.74,0L184,351.67c-.2.12-.19.31,0,.43ZM169,342.62l-4.64,2.68c-.2.11-.19.3,0,.43l5.36,3.09a.84.84,0,0,0,.74,0l4.63-2.68c.2-.11.19-.31,0-.43l-5.37-3.09A.82.82,0,0,0,169,342.62Zm10.9,9.18a.84.84,0,0,0,.74,0l4.64-2.68c.2-.11.18-.31,0-.43l-5.36-3.09a.84.84,0,0,0-.74,0l-4.64,2.68c-.19.11-.18.3,0,.43Zm21.41,5.77,4.64-2.68c.19-.11.18-.3,0-.42l-5.36-3.1a.81.81,0,0,0-.74,0L195.22,354c-.19.12-.18.31,0,.43l5.36,3.1A.81.81,0,0,0,201.35,357.57Zm-7.52,3.9a.81.81,0,0,0,.74,0l4.64-2.67c.2-.12.18-.31,0-.43l-5.36-3.1a.84.84,0,0,0-.74,0L188.45,358c-.2.11-.19.3,0,.42Zm-18-22.76-4.63,2.68c-.2.11-.19.3,0,.42l5.36,3.1a.81.81,0,0,0,.74,0l4.64-2.67c.2-.12.18-.31,0-.43l-5.36-3.1A.84.84,0,0,0,175.81,338.71Zm33.88-19.56-4.63,2.67c-.2.12-.19.31,0,.43l5.36,3.1a.81.81,0,0,0,.74,0l4.64-2.67c.2-.12.19-.31,0-.43l-5.36-3.1A.81.81,0,0,0,209.69,319.15Zm-27.1,15.65L178,337.47c-.2.12-.18.31,0,.43l5.36,3.1a.81.81,0,0,0,.74,0l4.64-2.68c.19-.11.18-.3,0-.42l-5.36-3.1A.81.81,0,0,0,182.59,334.8Zm33.88-19.56-4.64,2.67c-.19.12-.18.31,0,.43l5.36,3.09a.81.81,0,0,0,.74,0l4.64-2.68c.19-.11.18-.3,0-.42l-5.36-3.1A.81.81,0,0,0,216.47,315.24Zm-13.55,7.82-4.64,2.68c-.2.11-.18.3,0,.42l5.36,3.1a.81.81,0,0,0,.74,0L209,326.6c.2-.12.19-.31,0-.43l-5.36-3.09A.81.81,0,0,0,202.92,323.06ZM196.14,327l-4.64,2.68c-.19.11-.18.3,0,.43l5.36,3.09a.84.84,0,0,0,.74,0l4.64-2.68c.19-.11.18-.31,0-.43L196.88,327A.84.84,0,0,0,196.14,327Zm-6.78,3.91-4.63,2.68c-.2.12-.19.31,0,.43l5.37,3.09a.81.81,0,0,0,.74,0l4.63-2.68c.2-.11.19-.3,0-.43l-5.37-3.09A.84.84,0,0,0,189.36,330.88ZM224,335.65l4.63-2.68c.2-.11.19-.3,0-.43l-5.37-3.09a.82.82,0,0,0-.73,0l-4.64,2.68c-.2.11-.19.3,0,.43l5.37,3.09A.84.84,0,0,0,224,335.65Zm59.51-59.13-4.64,2.68c-.19.11-.18.31,0,.43l5.36,3.09a.81.81,0,0,0,.74,0l4.64-2.68c.2-.11.18-.3,0-.43l-5.36-3.09A.84.84,0,0,0,283.52,276.52Zm-8.2,4.74-4.64,2.68c-.2.11-.18.3,0,.42l5.36,3.1a.81.81,0,0,0,.74,0l4.63-2.67c.2-.12.19-.31,0-.43l-5.36-3.1A.84.84,0,0,0,275.32,281.26Zm15-8.65-4.64,2.68c-.2.11-.18.3,0,.43l5.36,3.09a.84.84,0,0,0,.74,0l4.63-2.68c.2-.12.19-.31,0-.43L291,272.63A.81.81,0,0,0,290.3,272.61Zm-35.08,36.17,4.64-2.68c.2-.11.18-.3,0-.42l-5.36-3.1a.81.81,0,0,0-.74,0l-4.64,2.67c-.19.12-.18.31,0,.43l5.36,3.1A.84.84,0,0,0,255.22,308.78Zm42.59-40.07a.84.84,0,0,0-.74,0l-4.63,2.68c-.2.11-.19.3,0,.42l5.36,3.1a.81.81,0,0,0,.74,0l4.64-2.67c.2-.12.19-.31,0-.43Zm-67,63,4.64-2.67c.2-.12.18-.31,0-.43L230,325.54a.81.81,0,0,0-.74,0l-4.64,2.68c-.19.11-.18.3,0,.42l5.36,3.1A.81.81,0,0,0,230.78,331.73Zm83.1-48,4.64-2.68c.2-.11.18-.3,0-.43l-5.36-3.09a.84.84,0,0,0-.74,0l-4.64,2.68c-.19.11-.18.3,0,.43l5.36,3.09A.84.84,0,0,0,313.88,283.76Zm-14.43-.51,4.63-2.68c.2-.11.19-.3,0-.43l-5.36-3.09a.84.84,0,0,0-.74,0l-4.64,2.68c-.2.11-.19.3,0,.43l5.36,3.09A.84.84,0,0,0,299.45,283.25Zm6-10.11a.81.81,0,0,0-.74,0l-4.63,2.68c-.2.11-.19.3,0,.42l5.36,3.1a.84.84,0,0,0,.74,0l4.64-2.68c.2-.12.19-.31,0-.43Zm1.43-.83,13,7.52a.81.81,0,0,0,.74,0l4.63-2.67c.2-.12.19-.31,0-.43l-13-7.52a.84.84,0,0,0-.74,0l-4.64,2.68C306.68,272,306.69,272.19,306.9,272.31ZM291.18,281l-4.64,2.67c-.19.12-.18.31,0,.43l5.36,3.09a.81.81,0,0,0,.74,0l4.64-2.68c.19-.11.18-.3,0-.42l-5.36-3.1A.81.81,0,0,0,291.18,281Zm-51,29.44-4.64,2.68c-.2.11-.18.3,0,.42l5.36,3.1a.84.84,0,0,0,.74,0l4.64-2.68c.19-.12.18-.31,0-.43l-5.36-3.09A.81.81,0,0,0,240.18,310.39Zm66.19-22.74a.81.81,0,0,0,.74,0l4.63-2.68c.2-.11.19-.3,0-.42l-5.37-3.1a.82.82,0,0,0-.73,0L301,284.13c-.2.12-.19.31,0,.43ZM247,306.48l-4.63,2.68c-.2.11-.19.3,0,.42l5.36,3.1a.81.81,0,0,0,.74,0l4.63-2.67c.2-.12.19-.31,0-.43l-5.37-3.1A.84.84,0,0,0,247,306.48Zm-50.79,44.8a.84.84,0,0,0,.74,0l4.64-2.68c.19-.11.18-.31,0-.43l-5.36-3.09a.84.84,0,0,0-.74,0l-4.64,2.68c-.19.11-.18.3,0,.43ZM186,341.69l-4.64,2.68c-.2.11-.18.3,0,.42l5.36,3.1a.81.81,0,0,0,.74,0l4.63-2.67c.2-.12.19-.31,0-.43l-5.36-3.1A.84.84,0,0,0,186,341.69Zm17.71,5.69,4.63-2.67c.2-.12.19-.31,0-.43l-5.36-3.09a.81.81,0,0,0-.74,0l-4.64,2.68c-.2.11-.19.3,0,.42l5.36,3.1A.81.81,0,0,0,203.68,347.38Zm6.77-3.91,4.64-2.67c.2-.12.18-.31,0-.43l-5.36-3.1a.81.81,0,0,0-.74,0l-4.63,2.67c-.2.12-.19.31,0,.43l5.36,3.1A.81.81,0,0,0,210.45,343.47Zm6.78-3.91,4.64-2.68c.19-.11.18-.3,0-.42l-5.36-3.1a.81.81,0,0,0-.74,0L211.1,336c-.2.12-.18.31,0,.43l5.36,3.09A.81.81,0,0,0,217.23,339.56Zm-24.49-1.78-4.63,2.67c-.2.12-.19.31,0,.43l5.36,3.1a.81.81,0,0,0,.74,0l4.64-2.67c.2-.12.19-.31,0-.43l-5.36-3.1A.81.81,0,0,0,192.74,337.78Zm6.78-3.91-4.64,2.67c-.19.12-.18.31,0,.43l5.36,3.09a.81.81,0,0,0,.74,0l4.64-2.68c.19-.11.18-.3,0-.42l-5.36-3.1A.81.81,0,0,0,199.52,333.87Zm27.11-15.65L222,320.89c-.2.12-.19.31,0,.43l5.36,3.09a.81.81,0,0,0,.74,0l4.63-2.68c.2-.11.19-.3,0-.42l-5.36-3.1A.81.81,0,0,0,226.63,318.22Zm-6.78,3.91-4.64,2.68c-.19.11-.18.3,0,.42l5.36,3.1a.81.81,0,0,0,.74,0l4.64-2.67c.19-.12.18-.31,0-.43l-5.36-3.1A.81.81,0,0,0,219.85,322.13Zm13.55-7.83L228.77,317c-.2.11-.19.31,0,.43l5.36,3.09a.84.84,0,0,0,.74,0l4.64-2.68c.2-.11.18-.3,0-.43l-5.36-3.09A.84.84,0,0,0,233.4,314.3ZM206.3,330l-4.64,2.68c-.2.11-.19.3,0,.43l5.36,3.09a.84.84,0,0,0,.74,0l4.63-2.68c.2-.11.19-.3,0-.43L207,330A.84.84,0,0,0,206.3,330Zm6.77-3.91-4.63,2.68c-.2.11-.19.3,0,.42l5.36,3.1a.84.84,0,0,0,.74,0l4.64-2.68c.2-.12.19-.31,0-.43l-5.36-3.09A.81.81,0,0,0,213.07,326Zm-4.94,27.62,4.63-2.68c.2-.11.19-.3,0-.42l-5.37-3.1a.81.81,0,0,0-.74,0L202,350.12c-.2.12-.19.31,0,.43l5.37,3.09A.81.81,0,0,0,208.13,353.66Zm-39.77-4L163,346.55a.84.84,0,0,0-.74,0l-4.64,2.68c-.19.11-.18.31,0,.43l5.36,3.09a.81.81,0,0,0,.74,0l4.64-2.68C168.58,350,168.57,349.77,168.36,349.64Zm10.16,3-5.37-3.1a.84.84,0,0,0-.74,0l-7.13,4.12c-.2.12-.18.31,0,.43l5.36,3.09a.81.81,0,0,0,.74,0l7.13-4.12C178.74,352.94,178.73,352.75,178.52,352.63Zm-18.39-9-5.36-3.09a.81.81,0,0,0-.74,0l-5.7,3.29c-.2.12-.19.31,0,.43l5.36,3.1a.81.81,0,0,0,.74,0l5.71-3.29C160.36,344,160.35,343.78,160.13,343.66Zm4.38-2.53a.81.81,0,0,0,.74,0l4.64-2.68c.19-.11.18-.3,0-.42L164.5,335a.81.81,0,0,0-.74,0l-4.64,2.67c-.2.12-.18.31,0,.43ZM188,356l-5.36-3.1a.81.81,0,0,0-.74,0l-8.92,5.14c-.2.12-.18.31,0,.43l5.36,3.1a.81.81,0,0,0,.74,0l8.91-5.15C188.18,356.33,188.17,356.14,188,356Zm4.45,6.27-5.36-3.09a.84.84,0,0,0-.74,0l-5.71,3.3c-.2.11-.19.3,0,.42L186,366a.81.81,0,0,0,.74,0l5.7-3.29C192.63,362.61,192.62,362.41,192.41,362.29Zm22.48-50.24a.84.84,0,0,0,.74,0l4.64-2.68c.2-.11.18-.3,0-.42l-5.36-3.1a.81.81,0,0,0-.74,0l-4.63,2.67c-.2.12-.19.31,0,.43Zm-13.55,7.82a.84.84,0,0,0,.74,0l4.64-2.68c.19-.11.18-.31,0-.43l-5.36-3.09a.81.81,0,0,0-.74,0L196,316.35c-.19.11-.18.3,0,.43Zm-30.05,17.35a.84.84,0,0,0,.74,0l4.63-2.68c.2-.11.19-.3,0-.43L171.27,331a.84.84,0,0,0-.74,0l-4.63,2.68c-.2.11-.19.3,0,.43ZM208.12,316a.81.81,0,0,0,.74,0l4.63-2.67c.2-.12.19-.31,0-.43l-5.37-3.1a.82.82,0,0,0-.73,0l-4.64,2.68c-.2.11-.19.3,0,.42Zm-13.56,7.82a.84.84,0,0,0,.74,0l4.64-2.68c.2-.11.18-.3,0-.43l-5.36-3.09a.84.84,0,0,0-.74,0l-4.63,2.68c-.2.11-.19.31,0,.43Zm1.57,39a.81.81,0,0,0-.74,0l-7.13,4.12c-.2.11-.19.3,0,.43l5.37,3.09a.84.84,0,0,0,.74,0l7.13-4.12c.2-.12.18-.31,0-.43Zm-11.29-33.4a.81.81,0,0,0,.74,0l4.63-2.67c.2-.12.19-.31,0-.43l-5.36-3.1a.81.81,0,0,0-.74,0l-4.64,2.68c-.2.11-.18.3,0,.42Zm-6.78,3.91a.84.84,0,0,0,.74,0l4.64-2.68c.2-.12.18-.31,0-.43l-5.36-3.09a.81.81,0,0,0-.74,0l-4.64,2.68c-.19.11-.18.3,0,.42Zm143.61-43a.84.84,0,0,0-.74,0l-11.41,6.59c-.2.11-.19.3,0,.43l5.36,3.09a.84.84,0,0,0,.74,0l11.41-6.59c.2-.12.19-.31,0-.43Zm-15,8.65a.81.81,0,0,0-.74,0l-4.63,2.67c-.2.12-.19.31,0,.43l5.36,3.1a.81.81,0,0,0,.74,0l4.64-2.68c.2-.11.19-.3,0-.42ZM214.9,349.75l4.64-2.68c.2-.11.18-.3,0-.43l-5.36-3.09a.84.84,0,0,0-.74,0l-4.64,2.68c-.19.11-.18.3,0,.43l5.36,3.09A.84.84,0,0,0,214.9,349.75Zm78.24-43a.81.81,0,0,0-.74,0l-4.64,2.68c-.19.11-.18.3,0,.43l5.36,3.09a.84.84,0,0,0,.74,0l4.64-2.68c.19-.11.18-.31,0-.43Zm35.31-20.39a.81.81,0,0,0-.74,0l-4.64,2.67c-.19.12-.18.31,0,.43l5.36,3.1a.84.84,0,0,0,.74,0l4.64-2.68c.19-.11.18-.3,0-.42Zm12.14-.81-13-7.52a.84.84,0,0,0-.74,0l-4.64,2.68c-.2.11-.19.3,0,.43l13,7.51a.81.81,0,0,0,.74,0l4.63-2.68C340.81,285.9,340.8,285.71,340.59,285.59Zm-72.77,35.82a.81.81,0,0,0-.74,0l-5.71,3.3c-.2.11-.18.3,0,.42l5.36,3.1a.81.81,0,0,0,.74,0l5.71-3.29c.19-.11.18-.31,0-.43Zm17.12-9.89a.81.81,0,0,0-.74,0l-7.14,4.12c-.19.11-.18.3,0,.42l5.36,3.1a.81.81,0,0,0,.74,0l7.13-4.11c.2-.12.19-.31,0-.43Zm-32.81,19a.81.81,0,0,0-.74,0l-38.17,22c-.19.12-.18.31,0,.43l5.36,3.1a.81.81,0,0,0,.74,0l38.16-22c.2-.11.19-.31,0-.43Zm-40.31,23.27a.81.81,0,0,0-.74,0l-5.7,3.29c-.2.12-.19.31,0,.43l5.36,3.1a.81.81,0,0,0,.74,0l5.71-3.29c.2-.12.19-.31,0-.43ZM260,325.94a.81.81,0,0,0-.74,0l-5.7,3.3c-.2.11-.19.3,0,.42l5.36,3.1a.81.81,0,0,0,.74,0l5.71-3.29c.2-.11.18-.31,0-.43Zm-56,32.33a.81.81,0,0,0-.74,0l-5.71,3.29c-.2.12-.18.31,0,.43l5.36,3.1a.81.81,0,0,0,.74,0l5.7-3.29c.2-.12.19-.31,0-.43Zm71.68-41.39a.81.81,0,0,0-.74,0l-5.7,3.3c-.2.11-.19.3,0,.42l5.37,3.1a.81.81,0,0,0,.74,0l5.7-3.29c.2-.11.19-.31,0-.43Zm24.26-14a.84.84,0,0,0-.74,0l-4.64,2.68c-.2.11-.18.3,0,.42l5.36,3.1a.81.81,0,0,0,.74,0l4.63-2.67c.2-.12.19-.31,0-.43Zm14.84-10.78,4.64-2.68c.2-.11.19-.3,0-.42l-5.36-3.1a.81.81,0,0,0-.74,0l-4.63,2.67c-.2.12-.19.31,0,.43l5.37,3.1A.79.79,0,0,0,314.76,292.09Zm-30.29-.19,4.63-2.68c.2-.11.19-.31,0-.43l-5.36-3.09a.81.81,0,0,0-.74,0l-4.64,2.68c-.2.11-.19.3,0,.43l5.36,3.09A.84.84,0,0,0,284.47,291.9Zm-15.36,26.55,13.56-7.83c.19-.11.18-.3,0-.42l-5.36-3.1a.81.81,0,0,0-.74,0L263,314.91c-.2.11-.19.31,0,.43l5.36,3.09A.81.81,0,0,0,269.11,318.45ZM307.25,296a.81.81,0,0,0,.74,0l4.63-2.67c.2-.12.19-.31,0-.43l-5.36-3.1a.84.84,0,0,0-.74,0l-4.64,2.68c-.2.11-.18.3,0,.42Zm-6.92-4.41L305,288.9c.19-.11.18-.3,0-.42l-5.36-3.1a.81.81,0,0,0-.74,0L294.2,288c-.19.12-.18.31,0,.43l5.36,3.1A.81.81,0,0,0,300.33,291.58Zm-38,30.78,4.63-2.68c.2-.11.19-.3,0-.42l-5.36-3.1a.81.81,0,0,0-.74,0l-4.64,2.67c-.2.12-.19.31,0,.43l5.36,3.1A.84.84,0,0,0,262.34,322.36Zm29.93-17.72a.81.81,0,0,0,.74,0l4.64-2.67c.19-.12.18-.31,0-.43l-5.36-3.1a.81.81,0,0,0-.74,0l-4.64,2.67c-.2.12-.18.31,0,.43Zm-63.82,37.28,4.64-2.67c.2-.12.19-.31,0-.43l-5.37-3.1a.81.81,0,0,0-.74,0l-4.63,2.68c-.2.11-.19.3,0,.42l5.37,3.1A.79.79,0,0,0,228.45,341.92Zm6.78-3.91,4.64-2.68c.19-.11.18-.3,0-.42l-5.36-3.1a.81.81,0,0,0-.74,0l-4.64,2.67c-.19.12-.18.31,0,.43l5.36,3.09A.81.81,0,0,0,235.23,338Zm-13.55,7.82,4.63-2.67c.2-.12.19-.31,0-.43l-5.36-3.09a.81.81,0,0,0-.74,0l-4.64,2.68c-.2.11-.18.3,0,.42l5.36,3.1A.81.81,0,0,0,221.68,345.83Zm27.1-15.64,4.64-2.68c.2-.12.19-.31,0-.43L248,324a.81.81,0,0,0-.74,0l-4.63,2.68c-.2.11-.19.3,0,.42l5.36,3.1A.84.84,0,0,0,248.78,330.19ZM242,334.1l4.63-2.68c.2-.11.19-.3,0-.43l-5.36-3.09a.84.84,0,0,0-.74,0l-4.64,2.68c-.2.11-.19.31,0,.43l5.36,3.09A.84.84,0,0,0,242,334.1Zm13.55-7.83,4.64-2.67c.19-.12.18-.31,0-.43l-5.36-3.1a.81.81,0,0,0-.74,0l-4.64,2.68c-.19.11-.18.3,0,.42l5.36,3.1A.81.81,0,0,0,255.56,326.27Zm31-57.87a.84.84,0,0,0,.74,0l4.64-2.68c.2-.11.18-.3,0-.42l-1.43-.83a.81.81,0,0,0-.74,0l-4.63,2.68c-.2.11-.19.3,0,.42Zm-33.34,21.52a.81.81,0,0,0,.74,0l4.64-2.67c.19-.12.18-.31,0-.43l-5.36-3.1a.81.81,0,0,0-.74,0l-4.64,2.67c-.19.12-.18.31,0,.43Zm13.55-7.83a.84.84,0,0,0,.74,0l4.64-2.68c.2-.11.18-.3,0-.43l-5.36-3.09a.84.84,0,0,0-.74,0l-4.63,2.68c-.2.11-.19.31,0,.43ZM245,294.69a.81.81,0,0,0,.74,0l4.63-2.68c.2-.11.19-.3,0-.42l-5.37-3.1a.79.79,0,0,0-.73,0l-4.64,2.67c-.2.12-.19.31,0,.43ZM260,286a.81.81,0,0,0,.74,0l4.63-2.68c.2-.11.19-.3,0-.42l-5.36-3.1a.81.81,0,0,0-.74,0l-4.64,2.67c-.2.12-.19.31,0,.43Zm-28.61,16.52a.81.81,0,0,0,.74,0l4.64-2.67c.2-.12.18-.31,0-.43l-5.36-3.1a.84.84,0,0,0-.74,0L226,299c-.2.11-.19.3,0,.42Zm6.78-3.91a.81.81,0,0,0,.74,0l4.64-2.68c.19-.11.18-.3,0-.42l-5.36-3.1a.81.81,0,0,0-.74,0l-4.64,2.67c-.19.12-.18.31,0,.43ZM273,276.22a.84.84,0,0,0,.74,0l4.64-2.68c.19-.11.18-.31,0-.43l-1.43-.82a.84.84,0,0,0-.74,0L271.56,275c-.2.11-.19.3,0,.43Zm20.33-11.74a.81.81,0,0,0,.74,0l4.63-2.68c.2-.11.19-.3,0-.43l-1.43-.82a.81.81,0,0,0-.74,0l-4.63,2.67c-.2.12-.19.31,0,.43ZM304.6,271a.84.84,0,0,0,.74,0l4.64-2.68c.19-.11.18-.3,0-.42l-5.36-3.1a.81.81,0,0,0-.74,0l-4.64,2.67c-.19.12-.18.31,0,.43Zm16.94,17.19,4.64-2.68c.19-.11.18-.3,0-.42l-5.36-3.1a.84.84,0,0,0-.74,0l-4.64,2.68c-.19.12-.18.31,0,.43l5.36,3.09A.81.81,0,0,0,321.54,288.18Zm-41.75-15.87a.81.81,0,0,0,.74,0l4.63-2.67c.2-.12.19-.31,0-.43l-1.43-.82a.81.81,0,0,0-.74,0l-4.64,2.68c-.19.11-.18.3,0,.42Zm-55.17,34.12a.84.84,0,0,0,.74,0l4.63-2.68c.2-.11.19-.31,0-.43l-5.36-3.09a.81.81,0,0,0-.74,0l-4.64,2.68c-.2.11-.19.3,0,.43Z" transform="translate(-12.94 -51.8)"/><path class="cls-5" d="M254.67,347.11l45.75-26.42a5.51,5.51,0,0,1,5,0l26.23,15.15c1.38.79,1.38,2.08,0,2.88L285.9,365.14a5.57,5.57,0,0,1-5,0L254.67,350C253.29,349.19,253.29,347.9,254.67,347.11Z" transform="translate(-12.94 -51.8)"/><path class="cls-11" d="M254.67,347.11l45.75-26.42a5.51,5.51,0,0,1,5,0l26.23,15.15c1.38.79,1.38,2.08,0,2.88L285.9,365.14a5.57,5.57,0,0,1-5,0L254.67,350C253.29,349.19,253.29,347.9,254.67,347.11Z" transform="translate(-12.94 -51.8)"/><path class="cls-5" d="M103.83,330.51a6.76,6.76,0,0,0,1.28.55,6.15,6.15,0,0,1-1.28-.54,2.65,2.65,0,0,1-.39-.26A3.73,3.73,0,0,0,103.83,330.51Z" transform="translate(-12.94 -51.8)"/><path class="cls-8" d="M275.55,91.24c-.3-2.16-2-2.94-4.12-1.73L111.89,181.62a8.51,8.51,0,0,0-2.94,3.09l-7.8-4.49a8.57,8.57,0,0,1,2.94-3.11L263.63,85a7.78,7.78,0,0,1,11.92,6.24Z" transform="translate(-12.94 -51.8)"/><path class="cls-5" d="M111.11,330.9l.07,0-.05,0Z" transform="translate(-12.94 -51.8)"/><path class="cls-7" d="M400.51,312.49a8.92,8.92,0,0,1-4.16,6.91L236.81,411.5a8.39,8.39,0,0,1-4.16,1v-9a8.51,8.51,0,0,0,4.16-1l159.54-92.1c2.14-1.25,2.29-3.2.42-4.54A9,9,0,0,1,400.51,312.49Z" transform="translate(-12.94 -51.8)"/></g></g></g><g id="Folder"><g id="Folder-2" data-name="Folder"><path class="cls-13" d="M353.29,264.66,329.66,141.84a2.67,2.67,0,0,0-1.44-2l-3.28-1.92a6.86,6.86,0,0,0-2.63-1.25,2.11,2.11,0,0,0-.55.06l-.19.07a5.62,5.62,0,0,0-.82.39L171.94,223.08a4.72,4.72,0,0,0-1.05.85c-.17.19-.33.39-.48.59s-.24.39-.34.58a5.43,5.43,0,0,0-.63,3.47l23.64,122.81a8.3,8.3,0,0,0,3.19,5.08,6.32,6.32,0,0,0,5.31-.19c-.06,0,.21-.1.4-.21l148.81-85.92A5.54,5.54,0,0,0,353.29,264.66Z" transform="translate(-12.94 -51.8)"/><path class="cls-14" d="M198.08,354.28,174.44,231.46A5.56,5.56,0,0,1,177,226l148.81-85.92a2.47,2.47,0,0,1,3.9,1.78l23.63,122.82a5.54,5.54,0,0,1-2.5,5.48L202,356.06A2.47,2.47,0,0,1,198.08,354.28Z" transform="translate(-12.94 -51.8)"/><path class="cls-15" d="M201.58,356.27a6.32,6.32,0,0,1-5.31.19,8.3,8.3,0,0,1-3.19-5.08L169.44,228.57a5.43,5.43,0,0,1,.63-3.47l5,2.89a5.39,5.39,0,0,0-.63,3.46l23.64,122.83A2.44,2.44,0,0,0,201.58,356.27Z" transform="translate(-12.94 -51.8)"/><path class="cls-13" d="M324.94,137.9l3.31,1.93v0a2.59,2.59,0,0,0-2.49.22L177,226a5.07,5.07,0,0,0-1.88,2l-5-2.89c.1-.19.22-.39.34-.58s.31-.4.48-.59a4.72,4.72,0,0,1,1.05-.85l148.81-85.91a5.62,5.62,0,0,1,.82-.39l.19-.07a2.11,2.11,0,0,1,.55-.06A6.86,6.86,0,0,1,324.94,137.9Z" transform="translate(-12.94 -51.8)"/><path class="cls-5" d="M203.55,327.14a4.55,4.55,0,0,1-3.82.14,6,6,0,0,1-2.3-3.65l-17-88.36a3.94,3.94,0,0,1,.45-2.49l3.61,2.08a3.87,3.87,0,0,0-.46,2.49l17,88.36A1.75,1.75,0,0,0,203.55,327.14Z" transform="translate(-12.94 -51.8)"/><path class="cls-6" d="M203.55,327.14a4.55,4.55,0,0,1-3.82.14,6,6,0,0,1-2.3-3.65l-17-88.36a3.94,3.94,0,0,1,.45-2.49l3.61,2.08a3.87,3.87,0,0,0-.46,2.49l17,88.36A1.75,1.75,0,0,0,203.55,327.14Z" transform="translate(-12.94 -51.8)"/><path class="cls-5" d="M201,325.71l-17-88.36a4,4,0,0,1,1.8-3.94l140-80.88a1.78,1.78,0,0,1,2.81,1.29l17,88.35a4,4,0,0,1-1.81,3.94L203.83,327A1.77,1.77,0,0,1,201,325.71Z" transform="translate(-12.94 -51.8)"/><path class="cls-7" d="M201,325.71l-17-88.36a4,4,0,0,1,1.8-3.94l140-80.88a1.78,1.78,0,0,1,2.81,1.29l17,88.35a4,4,0,0,1-1.81,3.94L203.83,327A1.77,1.77,0,0,1,201,325.71Z" transform="translate(-12.94 -51.8)"/><path class="cls-5" d="M325.28,151l2.38,1.39h0a1.88,1.88,0,0,0-1.79.16l-140,80.87a3.55,3.55,0,0,0-1.34,1.45l-3.61-2.08c.08-.14.16-.28.25-.42a3.54,3.54,0,0,1,.35-.42,3.35,3.35,0,0,1,.75-.61l140-80.88a5.18,5.18,0,0,1,.58-.28.33.33,0,0,1,.14,0,1.1,1.1,0,0,1,.39,0A4.84,4.84,0,0,1,325.28,151Z" transform="translate(-12.94 -51.8)"/><path class="cls-8" d="M325.28,151l2.38,1.39h0a1.88,1.88,0,0,0-1.79.16l-140,80.87a3.55,3.55,0,0,0-1.34,1.45l-3.61-2.08c.08-.14.16-.28.25-.42a3.54,3.54,0,0,1,.35-.42,3.35,3.35,0,0,1,.75-.61l140-80.88a5.18,5.18,0,0,1,.58-.28.33.33,0,0,1,.14,0,1.1,1.1,0,0,1,.39,0A4.84,4.84,0,0,1,325.28,151Z" transform="translate(-12.94 -51.8)"/><g id="Document"><path class="cls-16" d="M290.64,234.3a3.86,3.86,0,0,1-1.69-3.05V108.08a4,4,0,0,1,1.8-3.12l79.65-46.1a3.38,3.38,0,0,1,5.18,3V185a4,4,0,0,1-1.8,3.12l-79.65,46.1A3.87,3.87,0,0,1,290.64,234.3Z" transform="translate(-12.94 -51.8)"/><path class="cls-17" d="M293.32,234c-.48,0-.53-.57-.53-.82V110a3.52,3.52,0,0,1,1.57-2.72L374,61.2a1.14,1.14,0,0,1,.57-.18c.49,0,.54.58.54.83V185a3.53,3.53,0,0,1-1.57,2.72l-79.65,46.1a1.21,1.21,0,0,1-.58.18Z" transform="translate(-12.94 -51.8)"/><path class="cls-4" d="M374.58,61.47a.63.63,0,0,1,.08.38V185a3.07,3.07,0,0,1-1.34,2.32l-79.65,46.1a1,1,0,0,1-.35.14.66.66,0,0,1-.08-.38V110a3.05,3.05,0,0,1,1.35-2.32l79.65-46.1a.74.74,0,0,1,.34-.12h0m0-.91a1.6,1.6,0,0,0-.8.25l-79.65,46.1a4,4,0,0,0-1.8,3.11V233.2c0,.81.4,1.28,1,1.28a1.69,1.69,0,0,0,.81-.24l79.65-46.1a4,4,0,0,0,1.8-3.12V61.85c0-.82-.41-1.29-1-1.29Z" transform="translate(-12.94 -51.8)"/><path class="cls-3" d="M293.89,234.36a3.36,3.36,0,0,1-4.93-3.11V108.08a3.75,3.75,0,0,1,.52-1.78l3.38,2a3.62,3.62,0,0,0-.53,1.77V233.2C292.33,234.25,293,234.73,293.89,234.36Z" transform="translate(-12.94 -51.8)"/><path class="cls-3" d="M333.59,95.85,361.68,79.4c.87-.51,1.58-.1,1.58.92V81a3.53,3.53,0,0,1-1.58,2.75l-28.09,16.45c-.87.5-1.58.09-1.58-.92V98.6A3.53,3.53,0,0,1,333.59,95.85Z" transform="translate(-12.94 -51.8)"/><path class="cls-3" d="M333.59,106.58l28.09-16.45c.87-.51,1.58-.1,1.58.91v.63a3.5,3.5,0,0,1-1.58,2.75l-28.09,16.45c-.87.51-1.58.1-1.58-.91v-.64A3.5,3.5,0,0,1,333.59,106.58Z" transform="translate(-12.94 -51.8)"/><path class="cls-3" d="M333.59,117.3l28.09-16.45c.87-.5,1.58-.09,1.58.92v.63a3.53,3.53,0,0,1-1.58,2.75L333.59,121.6c-.87.5-1.58.09-1.58-.92v-.63A3.53,3.53,0,0,1,333.59,117.3Z" transform="translate(-12.94 -51.8)"/><path class="cls-3" d="M303.92,155.82l57.76-33.52c.87-.5,1.58-.09,1.58.92v.63a3.53,3.53,0,0,1-1.58,2.75l-57.76,33.52c-.87.5-1.58.09-1.58-.92v-.63A3.53,3.53,0,0,1,303.92,155.82Z" transform="translate(-12.94 -51.8)"/><path class="cls-3" d="M303.92,145.09l57.76-33.51c.87-.51,1.58-.1,1.58.91v.64a3.5,3.5,0,0,1-1.58,2.74l-57.76,33.52c-.87.51-1.58.1-1.58-.92v-.63A3.53,3.53,0,0,1,303.92,145.09Z" transform="translate(-12.94 -51.8)"/><path class="cls-3" d="M303.92,166.62l57.76-33.51c.87-.51,1.58-.1,1.58.91v.64a3.5,3.5,0,0,1-1.58,2.74l-57.76,33.52c-.87.51-1.58.1-1.58-.92v-.63A3.53,3.53,0,0,1,303.92,166.62Z" transform="translate(-12.94 -51.8)"/><path class="cls-3" d="M303.92,177.35l57.76-33.51c.87-.51,1.58-.1,1.58.91v.63a3.53,3.53,0,0,1-1.58,2.75l-57.76,33.52c-.87.5-1.58.09-1.58-.92v-.63A3.53,3.53,0,0,1,303.92,177.35Z" transform="translate(-12.94 -51.8)"/><path class="cls-3" d="M303.92,188.08l57.76-33.52c.87-.5,1.58-.09,1.58.92v.63a3.53,3.53,0,0,1-1.58,2.75l-57.76,33.51c-.87.51-1.58.1-1.58-.91v-.64A3.5,3.5,0,0,1,303.92,188.08Z" transform="translate(-12.94 -51.8)"/><path class="cls-3" d="M303.92,198.8l57.76-33.51c.87-.51,1.58-.1,1.58.91v.64a3.5,3.5,0,0,1-1.58,2.74L303.92,203.1c-.87.5-1.58.09-1.58-.92v-.63A3.53,3.53,0,0,1,303.92,198.8Z" transform="translate(-12.94 -51.8)"/><path class="cls-3" d="M303.92,209.53,361.68,176c.87-.5,1.58-.09,1.58.92v.63a3.53,3.53,0,0,1-1.58,2.75l-57.76,33.51c-.87.51-1.58.1-1.58-.91v-.63A3.5,3.5,0,0,1,303.92,209.53Z" transform="translate(-12.94 -51.8)"/><polygon class="cls-5" points="289.82 60.2 313.14 46.73 313.14 73.66 289.82 87.12 289.82 60.2"/><path class="cls-17" d="M306.26,114.69v8.08l.73-.44v-2.47a5.14,5.14,0,0,1,2.48-3.91l3.45-2v12a5.15,5.15,0,0,1-2.17,4.12l-2.16,1.25v.86l11.66-6.73v-.86l-2.17,1.25c-1.2.69-2.17,0-2.17-1.62v-12l3.45-2c1.38-.8,2.49-.33,2.49,1v2.47l.73-.41v-8.08Z" transform="translate(-12.94 -51.8)"/></g><path class="cls-3" d="M210.42,157.36v71a2.62,2.62,0,0,1-1.18,2l-70.61,40.79c-.64.37-1.17.07-1.17-.68v-3.71l69.2-40V158.17l2.58-1.49C209.89,156.31,210.42,156.61,210.42,157.36Z" transform="translate(-12.94 -51.8)"/><path class="cls-5" d="M206.66,158.17v68.69l-69.2,40V199.51a2.29,2.29,0,0,1,.35-1.15,2.25,2.25,0,0,1,.82-.88Z" transform="translate(-12.94 -51.8)"/><path class="cls-12" d="M206.66,158.17v68.69l-69.2,40V199.51a2.29,2.29,0,0,1,.35-1.15,2.25,2.25,0,0,1,.82-.88Z" transform="translate(-12.94 -51.8)"/><path class="cls-5" d="M189.59,187.54a1.3,1.3,0,0,0-.23-.18h0l0,0,0,0-4.39-2.53h0l0,0h0a1.49,1.49,0,0,0-2,.49l-15.59,38.43L157,216.88a1.7,1.7,0,0,0-.22-.15h0l0,0h0l-4.33-2.5h0a1.49,1.49,0,0,0-2,.44l-15.09,30.61v20.31l4.4,2.54,68-39.24a2.53,2.53,0,0,0,1.26-2.19V207.4Z" transform="translate(-12.94 -51.8)"/><path class="cls-10" d="M189.59,187.54a1.3,1.3,0,0,0-.23-.18h0l0,0,0,0-4.39-2.53h0l0,0h0a1.49,1.49,0,0,0-2,.49l-15.59,38.43L157,216.88a1.7,1.7,0,0,0-.22-.15h0l0,0h0l-4.33-2.5h0a1.49,1.49,0,0,0-2,.44l-15.09,30.61v20.31l4.4,2.54,68-39.24a2.53,2.53,0,0,0,1.26-2.19V207.4Z" transform="translate(-12.94 -51.8)"/><path class="cls-5" d="M139.66,268.1V247.79l15.1-30.61a1.49,1.49,0,0,1,2.21-.3l14.49,9.53,15.86-38.61a1.48,1.48,0,0,1,2.27-.26l19.28,19.86v19.27a2.53,2.53,0,0,1-1.26,2.19Z" transform="translate(-12.94 -51.8)"/><polygon class="cls-10" points="158.52 174.61 153.96 185.73 156.85 173.52 158.52 174.61"/><path class="cls-16" d="M213.26,153a.58.58,0,0,0,0-.14,2.62,2.62,0,0,0-1.13-1.7L210,150a2.63,2.63,0,0,0-2.35,0L132,193.66a2.46,2.46,0,0,0-.84.88,2.41,2.41,0,0,0-.34,1.15v88.86a2.58,2.58,0,0,0,1.18,2l2.05,1.19a2.63,2.63,0,0,0,2.08.12l.08,0a.82.82,0,0,0,.19-.09l75.67-43.7a2.61,2.61,0,0,0,1.17-2V153.18A1.21,1.21,0,0,0,213.26,153Zm-2.84,75.4a2.62,2.62,0,0,1-1.18,2l-70.61,40.79c-.64.37-1.17.07-1.17-.68v-71a2.59,2.59,0,0,1,1.17-2l70.61-40.79c.65-.38,1.18-.08,1.18.67Z" transform="translate(-12.94 -51.8)"/><path class="cls-3" d="M136.16,287.89a2.67,2.67,0,0,1-2.08-.12L132,286.58a2.56,2.56,0,0,1-1.18-2V195.69a2.32,2.32,0,0,1,.35-1.15l4.4,2.54a2.45,2.45,0,0,0-.34,1.16v88.85C135.26,287.73,135.65,288.05,136.16,287.89Z" transform="translate(-12.94 -51.8)"/><path class="cls-1" d="M213.26,153a.68.68,0,0,1,0-.15c-.15-.49-.61-.65-1.14-.33l-75.67,43.7a2.4,2.4,0,0,0-.83.87,2.36,2.36,0,0,0-.35,1.16v88.85c0,.64.4,1,.91.81l.08,0,.19-.09,75.67-43.7a2.61,2.61,0,0,0,1.17-2V153.18A1.21,1.21,0,0,0,213.26,153Zm-2.84,75.4a2.62,2.62,0,0,1-1.18,2l-70.61,40.79c-.64.37-1.17.07-1.17-.68v-71a2.29,2.29,0,0,1,.35-1.15,2.25,2.25,0,0,1,.82-.88l68-39.31,2.58-1.49c.65-.37,1.18-.07,1.18.68Z" transform="translate(-12.94 -51.8)"/><path class="cls-5" d="M165.1,198.33l1.71-2.9-3.51-2h0a3.35,3.35,0,0,0-3.35.33,10.47,10.47,0,0,0-4.74,8.21,3.36,3.36,0,0,0,1.36,3h0l0,0h0l3.39,2,1.63-2.77A11.09,11.09,0,0,0,165.1,198.33Z" transform="translate(-12.94 -51.8)"/><path class="cls-10" d="M165.1,198.33l1.71-2.9-3.51-2h0a3.35,3.35,0,0,0-3.35.33,10.47,10.47,0,0,0-4.74,8.21,3.36,3.36,0,0,0,1.36,3h0l0,0h0l3.39,2,1.63-2.77A11.09,11.09,0,0,0,165.1,198.33Z" transform="translate(-12.94 -51.8)"/><path class="cls-5" d="M163.4,195.73c2.62-1.52,4.74-.29,4.74,2.73a10.47,10.47,0,0,1-4.74,8.21c-2.62,1.51-4.74.29-4.74-2.73A10.46,10.46,0,0,1,163.4,195.73Z" transform="translate(-12.94 -51.8)"/><path class="cls-14" d="M356.8,153.29,356.86,267a7.35,7.35,0,0,1-3.34,5.78L203.74,359.2c-1.83,1.06-3.34,0-3.34-1.48V220.45a6.81,6.81,0,0,1,1-3.28,7.15,7.15,0,0,1,2.35-2.49l41-23.69a3,3,0,0,1,3-.13l.09,0h0a3.13,3.13,0,0,1,1.39,1.85L252,204.08l.44,1.22a2.92,2.92,0,0,0,4.45,1.77l96.55-55.7a2.48,2.48,0,0,1,2.19-.32l.13.07.08,0,0,0A2.38,2.38,0,0,1,356.8,153.29Z" transform="translate(-12.94 -51.8)"/><path class="cls-13" d="M247.75,190.85a3,3,0,0,0-3,.14l-41,23.68a7,7,0,0,0-2.35,2.5l-5-2.92a6.73,6.73,0,0,1,2.35-2.49l41-23.68a3,3,0,0,1,3-.08v0Z" transform="translate(-12.94 -51.8)"/><path class="cls-13" d="M355.65,151a2.49,2.49,0,0,0-2.18.32l-96.55,55.7a2.91,2.91,0,0,1-4.45-1.77l-.45-1.22,96.45-55.62A2.92,2.92,0,0,1,350,148a1.74,1.74,0,0,1,.86.22h0Z" transform="translate(-12.94 -51.8)"/><path class="cls-5" d="M266.75,258.46a2.3,2.3,0,0,0,3.06-1.09l6.52-13.81V268a2.3,2.3,0,1,0,4.6,0V238.72l7,6.74a2.3,2.3,0,1,0,3.19-3.31l-10.9-10.49a2.28,2.28,0,0,0-2-.6,2.31,2.31,0,0,0-1.66,1.28L265.66,255.4A2.29,2.29,0,0,0,266.75,258.46Z" transform="translate(-12.94 -51.8)"/><path class="cls-5" d="M294.28,251.26a2.3,2.3,0,0,0-2.3,2.3v13.86l-26.7,15.42V271.63a2.3,2.3,0,1,0-4.6,0v15.19a2.3,2.3,0,0,0,1.15,2,2.38,2.38,0,0,0,1.15.3,2.35,2.35,0,0,0,1.15-.3l31.3-18.07a2.3,2.3,0,0,0,1.15-2V253.56A2.3,2.3,0,0,0,294.28,251.26Z" transform="translate(-12.94 -51.8)"/><path class="cls-15" d="M201.61,359.53a.44.44,0,0,1-.15,0l-5.16-3a2.41,2.41,0,0,1-.9-2.12V217.54a6.8,6.8,0,0,1,1-3.28l5,2.91h0a6.69,6.69,0,0,0-1,3.28V357.72A1.94,1.94,0,0,0,201.61,359.53Z" transform="translate(-12.94 -51.8)"/></g></g></svg>