<?xml version="1.0" encoding="utf-8"?>
<!-- Generator: Adobe Illustrator 25.4.1, SVG Export Plug-In . SVG Version: 6.00 Build 0)  -->
<svg version="1.1" id="Layer_1" xmlns="http://www.w3.org/2000/svg" xmlns:xlink="http://www.w3.org/1999/xlink" x="0px" y="0px"
	 viewBox="0 0 472.6 461.5" style="enable-background:new 0 0 472.6 461.5;" xml:space="preserve">
<style type="text/css">
	.st0{fill:#92E3A9;}
	.st1{opacity:0.7;fill:#FFFFFF;enable-background:new    ;}
	.st2{fill:none;stroke:#263238;stroke-linecap:round;stroke-linejoin:round;}
	.st3{fill:none;stroke:#263238;stroke-miterlimit:10;}
	.st4{fill:#263238;stroke:#263238;stroke-linecap:round;stroke-linejoin:round;}
	.st5{fill:#FFFFFF;stroke:#263238;stroke-linecap:round;stroke-linejoin:round;}
	.st6{fill:#92E3A9;stroke:#263238;stroke-linecap:round;stroke-linejoin:round;}
	.st7{fill:#263238;stroke:#FFFFFF;stroke-linecap:round;stroke-linejoin:round;}
	.st8{fill:none;stroke:#263238;stroke-width:3;stroke-linecap:round;stroke-linejoin:round;}
	.st9{fill:none;stroke:#FFFFFF;stroke-width:3;stroke-linecap:round;stroke-linejoin:round;}
	.st10{fill:#263238;}
</style>
<g id="Background_Simple">
	<path class="st0" d="M457,228.7c-4.9,41.8-24,90.4-62.1,112.7c-57.6,33.7-52.8,85.6-165.2,108.2c-16.4,3.4-33.1,4.9-49.8,4.7
		c-8.2-0.1-16.4-0.8-24.5-2c-71.4-10.4-119.5-60.1-137.2-120C-5,253.4,41.4,201.8,72.1,170.7s53.2-128,163.6-151
		c16.8-3.6,34-5.2,51.2-4.9c39.3,1,82.1,13.8,111.7,40.8c2.2,2,4.4,4.1,6.5,6.3C446.3,104.1,463.8,171.7,457,228.7z"/>
	<path class="st1" d="M457,228.7c-4.9,41.8-24,90.4-62.1,112.7c-57.6,33.7-52.8,85.6-165.2,108.2c-16.4,3.4-33.1,4.9-49.8,4.7
		c-8.2-0.1-16.4-0.8-24.5-2c-71.4-10.4-119.5-60.1-137.2-120C-5,253.4,41.4,201.8,72.1,170.7s53.2-128,163.6-151
		c16.8-3.6,34-5.2,51.2-4.9c39.3,1,82.1,13.8,111.7,40.8c2.2,2,4.4,4.1,6.5,6.3C446.3,104.1,463.8,171.7,457,228.7z"/>
</g>
<g id="Table">
	<line class="st2" x1="449.8" y1="273.3" x2="465" y2="273.3"/>
	<line class="st2" x1="8.6" y1="273.3" x2="443" y2="273.3"/>
</g>
<g id="Gears">
	<path class="st3" d="M426.5,156.2v-7.8l-7.5-1.1c-0.7-3.8-2.2-7.3-4.3-10.5l4.6-6.1l-5.5-5.5l-6,4.5c-3.2-2.2-6.7-3.7-10.5-4.4
		l-1.1-7.5h-7.8l-1.1,7.5c-3.8,0.7-7.3,2.2-10.5,4.3l-6.1-4.6l-5.5,5.5l4.5,6.1c-2.2,3.1-3.7,6.7-4.4,10.5l-7.5,1.1v7.8l7.5,1.1
		c0.7,3.8,2.1,7.3,4.3,10.5l-4.5,6l5.5,5.5l6.1-4.5c3.1,2.2,6.7,3.7,10.4,4.4l1.1,7.5h7.8l1.1-7.5c3.8-0.7,7.3-2.1,10.5-4.3l6.1,4.6
		l5.5-5.5l-4.5-6.1c2.2-3.1,3.7-6.7,4.4-10.5L426.5,156.2z M392.1,171.2c-10.5,0-19-8.5-19-19s8.5-19,19-19s19,8.5,19,19
		C411.1,162.7,402.6,171.2,392.1,171.2L392.1,171.2z"/>
	<path class="st3" d="M448.2,202.9v-5.6l-5.4-0.8c-0.5-2.7-1.5-5.2-3.1-7.5l3.3-4.4l-4-4l-4.3,3.2c-2.2-1.6-4.8-2.6-7.5-3.1
		l-0.8-5.4h-5.6l-0.8,5.4c-2.7,0.5-5.2,1.5-7.5,3.1l-4.4-3.3l-4,4l3.2,4.3c-1.6,2.3-2.6,4.8-3.1,7.5l-5.4,0.8v5.6l5.4,0.8
		c0.5,2.7,1.5,5.2,3.1,7.5l-3.3,4.4l4,4l4.3-3.2c2.2,1.6,4.8,2.6,7.5,3.1l0.8,5.4h5.6l0.8-5.4c2.7-0.5,5.2-1.5,7.5-3.1l4.4,3.3l4-4
		l-3.2-4.3c1.6-2.2,2.6-4.8,3.1-7.5L448.2,202.9z M423.6,213.6c-7.5,0-13.6-6.1-13.6-13.6c0-7.5,6.1-13.6,13.6-13.6
		c7.5,0,13.6,6.1,13.6,13.6C437.2,207.6,431.1,213.6,423.6,213.6L423.6,213.6z"/>
	<path class="st3" d="M52.5,199.1v7.1l6.8,1c0.6,3.4,2,6.7,3.9,9.6l-4.2,5.6l5.1,5l5.5-4.1c2.9,2,6.1,3.4,9.5,4l1,6.9h7.1l1-6.8
		c3.4-0.6,6.7-2,9.6-3.9l5.6,4.2l5-5.1l-4.2-5.5c2-2.9,3.4-6.1,4-9.5l6.9-1v-7.1l-6.8-1c-0.6-3.4-2-6.7-3.9-9.6l4.2-5.6l-5-5
		l-5.5,4.1c-2.9-2-6.1-3.4-9.6-4l-1-6.9h-7.2l-1,6.8c-3.4,0.6-6.7,2-9.6,3.9l-5.6-4.2l-5,5l4.1,5.5c-2,2.9-3.3,6.1-4,9.6L52.5,199.1
		z M83.9,185.4c9.6,0,17.3,7.8,17.3,17.3c0,9.6-7.8,17.3-17.3,17.3s-17.3-7.8-17.3-17.3c0,0,0,0,0,0
		C66.6,193.1,74.3,185.4,83.9,185.4z"/>
	<path class="st3" d="M34.9,160.2v4.4l4.2,0.6c0.4,2.1,1.2,4.1,2.4,5.8l-2.5,3.4l3.1,3.1l3.4-2.5c1.7,1.2,3.7,2.1,5.8,2.5l0.6,4.2
		h4.4l0.6-4.2c2.1-0.4,4.1-1.2,5.8-2.4l3.4,2.5l3.1-3.1l-2.5-3.4c1.2-1.7,2-3.7,2.4-5.8l4.2-0.6v-4.4l-4.2-0.6
		c-0.4-2.1-1.2-4.1-2.4-5.8l2.5-3.4l-3.1-3.1l-3.4,2.5c-1.7-1.2-3.7-2-5.8-2.4l-0.6-4.2h-4.4l-0.6,4.2c-2.1,0.4-4.1,1.2-5.8,2.4
		l-3.4-2.6l-3.1,3.1l2.5,3.4c-1.2,1.7-2.1,3.7-2.5,5.8L34.9,160.2z M54,151.9c5.8,0,10.5,4.8,10.5,10.6c0,5.8-4.8,10.5-10.6,10.5
		c-5.8,0-10.5-4.8-10.5-10.6C43.4,156.6,48.2,151.8,54,151.9C54,151.9,54,151.9,54,151.9z"/>
	<path class="st3" d="M202.7,80.7v6l5.7,0.8c0.5,2.9,1.6,5.6,3.3,8l-3.5,4.7l4.2,4.2l4.6-3.5c2.4,1.7,5.1,2.8,8,3.3l0.8,5.8h6
		l0.8-5.7c2.9-0.5,5.6-1.6,8-3.3l4.6,3.5l4.2-4.2l-3.5-4.6c1.7-2.4,2.8-5.1,3.3-8l5.8-0.8v-6l-5.7-0.8c-0.5-2.9-1.6-5.6-3.3-8
		l3.5-4.7l-4.2-4.2l-4.6,3.5c-2.4-1.7-5.1-2.8-8-3.3l-0.8-5.8h-6l-0.8,5.7c-2.9,0.5-5.6,1.6-8,3.3l-4.6-3.5l-4.2,4.2l3.5,4.6
		c-1.7,2.4-2.8,5.1-3.3,8L202.7,80.7z M229,69.2c8,0,14.5,6.5,14.5,14.5c0,8-6.5,14.5-14.5,14.5c-8,0-14.5-6.5-14.5-14.5l0,0
		C214.5,75.7,221,69.2,229,69.2z"/>
</g>
<g id="Device">
	<path class="st4" d="M100.9,80.4H376c4.4,0,8,3.6,8,8v191.4l0,0H93l0,0V88.3C93,84,96.5,80.4,100.9,80.4z"/>
	<polygon class="st5" points="427.6,368 49.3,368 92.9,279.8 384,279.8 	"/>
	<rect x="110.6" y="96.2" class="st6" width="255.8" height="167.8"/>
	<polygon class="st7" points="226.3,307.7 226.8,297 211.5,297 210.4,307.7 	"/>
	<polygon class="st7" points="258.1,307.7 257.6,297 242.2,297 242.2,307.7 	"/>
	<polygon class="st7" points="340.9,319.2 357.3,319.2 353.5,307.7 337.6,307.7 	"/>
	<polygon class="st7" points="210.4,307.7 211.5,297 196.1,297 194.6,307.7 	"/>
	<polygon class="st7" points="178.7,307.7 180.7,297 165.3,297 162.8,307.7 	"/>
	<polygon class="st7" points="321.7,307.7 319.1,297 303.7,297 305.8,307.7 	"/>
	<polygon class="st7" points="337.6,307.7 334.5,297 319.1,297 321.7,307.7 	"/>
	<polygon class="st7" points="162.8,307.7 165.3,297 149.9,297 146.9,307.7 	"/>
	<polygon class="st7" points="274,307.7 273,297 257.6,297 258.1,307.7 	"/>
	<polygon class="st7" points="353.5,307.7 349.9,297 334.5,297 337.6,307.7 	"/>
	<polygon class="st7" points="305.8,307.7 303.7,297 288.4,297 289.9,307.7 	"/>
	<polygon class="st7" points="289.9,307.7 288.4,297 273,297 274,307.7 	"/>
	<polygon class="st7" points="242.2,307.7 242.2,297 226.8,297 226.3,307.7 	"/>
	<polygon class="st7" points="131,307.7 115.1,307.7 110.7,319.2 127.1,319.2 	"/>
	<polygon class="st7" points="134.6,297 119.2,297 115.1,307.7 131,307.7 	"/>
	<polygon class="st7" points="146.9,307.7 149.9,297 134.6,297 131,307.7 	"/>
	<polygon class="st7" points="106,331.5 100.9,344.7 118.6,344.7 123,331.5 	"/>
	<polygon class="st7" points="127.1,319.2 110.7,319.2 106,331.5 123,331.5 	"/>
	<polygon class="st7" points="123,331.5 118.6,344.7 136.3,344.7 140.1,331.5 	"/>
	<polygon class="st7" points="194.6,307.7 196.1,297 180.7,297 178.7,307.7 	"/>
	<polygon class="st7" points="192.9,319.2 194.6,307.7 178.7,307.7 176.5,319.2 	"/>
	<polygon class="st7" points="176.5,319.2 178.7,307.7 162.8,307.7 160,319.2 	"/>
	<polygon class="st7" points="209.4,319.2 210.4,307.7 194.6,307.7 192.9,319.2 	"/>
	<polygon class="st7" points="146.9,307.7 131,307.7 127.1,319.2 143.6,319.2 	"/>
	<polygon class="st7" points="344.4,331.5 361.5,331.5 357.3,319.2 340.9,319.2 	"/>
	<polygon class="st7" points="160,319.2 162.8,307.7 146.9,307.7 143.6,319.2 	"/>
	<polygon class="st7" points="127.1,319.2 123,331.5 140.1,331.5 143.6,319.2 	"/>
	<polygon class="st7" points="308,319.2 305.8,307.7 289.9,307.7 291.6,319.2 	"/>
	<polygon class="st7" points="291.6,319.2 289.9,307.7 274,307.7 275.1,319.2 	"/>
	<polygon class="st7" points="340.9,319.2 337.6,307.7 321.7,307.7 324.4,319.2 	"/>
	<polygon class="st7" points="242.2,319.2 242.2,307.7 226.3,307.7 225.8,319.2 	"/>
	<polygon class="st7" points="275.1,319.2 274,307.7 258.1,307.7 258.7,319.2 	"/>
	<polygon class="st7" points="258.7,319.2 258.1,307.7 242.2,307.7 242.2,319.2 	"/>
	<polygon class="st7" points="225.8,319.2 226.3,307.7 210.4,307.7 209.4,319.2 	"/>
	<polygon class="st7" points="275.1,319.2 276.3,331.5 293.3,331.5 291.6,319.2 	"/>
	<polygon class="st7" points="291.6,319.2 293.3,331.5 310.4,331.5 308,319.2 	"/>
	<polygon class="st7" points="143.6,319.2 140.1,331.5 157.1,331.5 160,319.2 	"/>
	<polygon class="st7" points="308,319.2 310.4,331.5 327.4,331.5 324.4,319.2 	"/>
	<polygon class="st7" points="242.2,319.2 242.2,331.5 259.3,331.5 258.7,319.2 	"/>
	<polygon class="st7" points="324.4,319.2 327.4,331.5 344.4,331.5 340.9,319.2 	"/>
	<polygon class="st7" points="258.7,319.2 259.3,331.5 276.3,331.5 275.1,319.2 	"/>
	<polygon class="st7" points="176.5,319.2 174.1,331.5 191.1,331.5 192.9,319.2 	"/>
	<polygon class="st7" points="160,319.2 157.1,331.5 174.1,331.5 176.5,319.2 	"/>
	<polygon class="st7" points="225.8,319.2 225.2,331.5 242.2,331.5 242.2,319.2 	"/>
	<polygon class="st7" points="209.4,319.2 208.2,331.5 225.2,331.5 225.8,319.2 	"/>
	<polygon class="st7" points="192.9,319.2 191.1,331.5 208.2,331.5 209.4,319.2 	"/>
	<polygon class="st7" points="324.4,319.2 321.7,307.7 305.8,307.7 308,319.2 	"/>
	<polygon class="st7" points="134.6,297 138.2,286 123.4,286 119.2,297 	"/>
	<polygon class="st7" points="119.2,297 105,297 100.4,307.7 115.1,307.7 	"/>
	<polygon class="st7" points="123.4,286 109.7,286 105,297 119.2,297 	"/>
	<polygon class="st7" points="115.1,307.7 100.4,307.7 95.5,319.2 110.7,319.2 	"/>
	<polygon class="st7" points="110.7,319.2 95.5,319.2 90.3,331.5 106,331.5 	"/>
	<polygon class="st7" points="106,331.5 90.3,331.5 84.6,344.7 100.9,344.7 	"/>
	<polygon class="st7" points="369.4,307.7 373.8,319.2 388.3,319.2 383.4,307.7 	"/>
	<polygon class="st7" points="378.5,331.5 393.6,331.5 388.3,319.2 373.8,319.2 	"/>
	<polygon class="st7" points="383.6,344.7 399.2,344.7 393.6,331.5 378.5,331.5 	"/>
	<polygon class="st7" points="257.6,297 257.1,286 242.2,286 242.2,297 	"/>
	<polygon class="st7" points="369.4,307.7 383.4,307.7 378.8,297 365.2,297 	"/>
	<polygon class="st7" points="361.5,331.5 378.5,331.5 373.8,319.2 357.3,319.2 	"/>
	<polygon class="st7" points="149.9,297 153.1,286 138.2,286 134.6,297 	"/>
	<polygon class="st7" points="349.9,297 353.5,307.7 369.4,307.7 365.2,297 	"/>
	<polygon class="st7" points="378.8,297 374.1,286 361,286 365.2,297 	"/>
	<polygon class="st7" points="365.2,297 361,286 346.2,286 349.9,297 	"/>
	<polygon class="st7" points="310.4,331.5 312.9,344.7 330.6,344.7 327.4,331.5 	"/>
	<polygon class="st7" points="365.9,344.7 383.6,344.7 378.5,331.5 361.5,331.5 	"/>
	<polygon class="st7" points="349.9,297 346.2,286 331.3,286 334.5,297 	"/>
	<polygon class="st7" points="344.4,331.5 348.2,344.7 365.9,344.7 361.5,331.5 	"/>
	<polygon class="st7" points="327.4,331.5 330.6,344.7 348.2,344.7 344.4,331.5 	"/>
	<polygon class="st7" points="357.3,319.2 373.8,319.2 369.4,307.7 353.5,307.7 	"/>
	<polygon class="st7" points="211.5,297 212.5,286 197.6,286 196.1,297 	"/>
	<polygon class="st7" points="334.5,297 331.3,286 316.5,286 319.1,297 	"/>
	<polygon class="st7" points="196.1,297 197.6,286 182.8,286 180.7,297 	"/>
	<polygon class="st7" points="242.2,297 242.2,286 227.4,286 226.8,297 	"/>
	<polygon class="st7" points="180.7,297 182.8,286 167.9,286 165.3,297 	"/>
	<polygon class="st7" points="165.3,297 167.9,286 153.1,286 149.9,297 	"/>
	<polygon class="st7" points="226.8,297 227.4,286 212.5,286 211.5,297 	"/>
	<polygon class="st7" points="319.1,297 316.5,286 301.6,286 303.7,297 	"/>
	<polygon class="st7" points="303.7,297 301.6,286 286.8,286 288.4,297 	"/>
	<polygon class="st7" points="273,297 271.9,286 257.1,286 257.6,297 	"/>
	<polygon class="st7" points="310.4,331.5 293.3,331.5 276.3,331.5 259.3,331.5 242.2,331.5 225.2,331.5 208.2,331.5 191.1,331.5 
		174.1,331.5 157.1,331.5 140.1,331.5 136.3,344.7 153.9,344.7 171.6,344.7 189.3,344.7 206.9,344.7 224.6,344.7 242.3,344.7 
		259.9,344.7 277.6,344.7 295.2,344.7 312.9,344.7 	"/>
	<polygon class="st7" points="288.4,297 286.8,286 271.9,286 273,297 	"/>
	<rect x="49.3" y="368" class="st4" width="378.5" height="5.4"/>
</g>
<g id="Coding">
	<line class="st8" x1="127.1" y1="109.4" x2="143.6" y2="109.4"/>
	<line class="st9" x1="127.1" y1="117.9" x2="189" y2="117.9"/>
	<line class="st9" x1="222.9" y1="117.9" x2="284.8" y2="117.9"/>
	<line class="st8" x1="193" y1="117.9" x2="217.6" y2="117.9"/>
	<line class="st8" x1="127.1" y1="126.3" x2="162.7" y2="126.3"/>
	<line class="st8" x1="167.2" y1="126.3" x2="202.8" y2="126.3"/>
	<line class="st8" x1="207.3" y1="126.3" x2="242.9" y2="126.3"/>
	<line class="st8" x1="247.4" y1="126.3" x2="262.6" y2="126.3"/>
	<line class="st8" x1="148" y1="109.4" x2="164.5" y2="109.4"/>
	<line class="st8" x1="246.1" y1="109.4" x2="262.6" y2="109.4"/>
	<line class="st9" x1="224.2" y1="109.4" x2="240.7" y2="109.4"/>
	<line class="st8" x1="169" y1="109.4" x2="217.1" y2="109.4"/>
	<line class="st8" x1="127.1" y1="161.1" x2="143.6" y2="161.1"/>
	<line class="st9" x1="127.1" y1="169.6" x2="189" y2="169.6"/>
	<line class="st8" x1="222.9" y1="169.6" x2="284.8" y2="169.6"/>
	<line class="st8" x1="193" y1="169.6" x2="217.6" y2="169.6"/>
	<line class="st8" x1="127.1" y1="178" x2="162.7" y2="178"/>
	<line class="st8" x1="167.2" y1="178" x2="202.8" y2="178"/>
	<line class="st9" x1="207.3" y1="178" x2="242.9" y2="178"/>
	<line class="st8" x1="247.4" y1="178" x2="262.6" y2="178"/>
	<line class="st8" x1="148" y1="161.1" x2="164.5" y2="161.1"/>
	<line class="st8" x1="246.1" y1="161.1" x2="262.6" y2="161.1"/>
	<line class="st9" x1="224.2" y1="161.1" x2="240.7" y2="161.1"/>
	<line class="st8" x1="169" y1="161.1" x2="217.1" y2="161.1"/>
	<line class="st8" x1="127.1" y1="237.3" x2="143.6" y2="237.3"/>
	<line class="st9" x1="127.1" y1="245.8" x2="189" y2="245.8"/>
	<line class="st8" x1="222.9" y1="245.8" x2="284.8" y2="245.8"/>
	<line class="st8" x1="193" y1="245.8" x2="217.6" y2="245.8"/>
	<line class="st8" x1="127.1" y1="254.3" x2="162.7" y2="254.3"/>
	<line class="st8" x1="167.2" y1="254.3" x2="202.8" y2="254.3"/>
	<line class="st9" x1="207.3" y1="254.3" x2="242.9" y2="254.3"/>
	<line class="st8" x1="247.4" y1="254.3" x2="262.6" y2="254.3"/>
	<line class="st8" x1="148" y1="237.3" x2="164.5" y2="237.3"/>
	<line class="st8" x1="246.1" y1="237.3" x2="262.6" y2="237.3"/>
	<line class="st9" x1="224.2" y1="237.3" x2="240.7" y2="237.3"/>
	<line class="st8" x1="169" y1="237.3" x2="217.1" y2="237.3"/>
	<line class="st8" x1="219.8" y1="135.3" x2="236.3" y2="135.3"/>
	<line class="st8" x1="197.9" y1="135.3" x2="214.4" y2="135.3"/>
	<line class="st8" x1="142.7" y1="135.3" x2="190.8" y2="135.3"/>
	<line class="st8" x1="219.8" y1="150.4" x2="236.3" y2="150.4"/>
	<line class="st8" x1="197.9" y1="150.4" x2="214.4" y2="150.4"/>
	<line class="st9" x1="142.7" y1="150.4" x2="190.8" y2="150.4"/>
	<line class="st8" x1="159.2" y1="142.8" x2="142.7" y2="142.8"/>
	<line class="st8" x1="181" y1="142.8" x2="164.5" y2="142.8"/>
	<line class="st9" x1="236.3" y1="142.8" x2="188.1" y2="142.8"/>
	<line class="st8" x1="219.8" y1="188.3" x2="236.3" y2="188.3"/>
	<line class="st8" x1="197.9" y1="188.3" x2="214.4" y2="188.3"/>
	<line class="st8" x1="142.7" y1="188.3" x2="190.8" y2="188.3"/>
	<line class="st8" x1="219.8" y1="203.4" x2="236.3" y2="203.4"/>
	<line class="st8" x1="197.9" y1="203.4" x2="214.4" y2="203.4"/>
	<line class="st9" x1="142.7" y1="203.4" x2="190.8" y2="203.4"/>
	<line class="st8" x1="159.2" y1="195.9" x2="142.7" y2="195.9"/>
	<line class="st8" x1="181" y1="195.9" x2="164.5" y2="195.9"/>
	<line class="st9" x1="236.3" y1="195.9" x2="188.1" y2="195.9"/>
	<line class="st8" x1="159.2" y1="212.4" x2="142.7" y2="212.4"/>
	<line class="st8" x1="181" y1="212.4" x2="164.5" y2="212.4"/>
	<line class="st9" x1="236.3" y1="212.4" x2="188.1" y2="212.4"/>
	<line class="st8" x1="159.2" y1="227.5" x2="142.7" y2="227.5"/>
	<line class="st8" x1="181" y1="227.5" x2="164.5" y2="227.5"/>
	<line class="st9" x1="236.3" y1="227.5" x2="188.1" y2="227.5"/>
	<line class="st8" x1="219.8" y1="219.9" x2="236.3" y2="219.9"/>
	<line class="st8" x1="197.9" y1="219.9" x2="214.4" y2="219.9"/>
	<line class="st9" x1="142.7" y1="219.9" x2="190.8" y2="219.9"/>
	<rect x="115.7" y="106.5" class="st10" width="5.3" height="5.2"/>
	<rect x="115.7" y="115" class="st10" width="5.3" height="5.2"/>
	<rect x="115.7" y="123.5" class="st10" width="5.3" height="5.2"/>
	<rect x="115.7" y="132.1" class="st10" width="5.3" height="5.2"/>
	<rect x="115.7" y="140.6" class="st10" width="5.3" height="5.2"/>
	<rect x="115.7" y="149.2" class="st10" width="5.3" height="5.2"/>
	<rect x="115.7" y="157.7" class="st10" width="5.3" height="5.2"/>
	<rect x="115.7" y="166.3" class="st10" width="5.3" height="5.2"/>
	<rect x="115.7" y="174.8" class="st10" width="5.3" height="5.2"/>
	<rect x="115.7" y="183.4" class="st10" width="5.3" height="5.2"/>
	<rect x="115.7" y="191.9" class="st10" width="5.3" height="5.2"/>
	<rect x="115.7" y="200.4" class="st10" width="5.3" height="5.2"/>
	<rect x="115.7" y="209" class="st10" width="5.3" height="5.2"/>
	<rect x="115.7" y="217.5" class="st10" width="5.3" height="5.2"/>
	<rect x="115.7" y="226.1" class="st10" width="5.3" height="5.2"/>
	<rect x="115.7" y="234.6" class="st10" width="5.3" height="5.2"/>
	<rect x="115.7" y="243.2" class="st10" width="5.3" height="5.2"/>
	<rect x="115.7" y="251.7" class="st10" width="5.3" height="5.2"/>
</g>
<g id="Hand_2">
	<path class="st4" d="M319.8,373.9l34.6,28.6c1.7,4.1,4,8,6.8,11.6c4.8,6.1,60.6,29.3,60.6,29.3l9.5,2.7l-104.2-78.3L319.8,373.9z"
		/>
	<path class="st5" d="M387.3,351.2c0,0-9.3-11.4-13.4-18.6s-10-24.1-14.5-34.1s-11-13.1-18.9-16.2s-11-2.4-11-0.3s3.1,5.9,3.1,5.9
		l-13.4,2.4c0,0-5.5-3.1-9-2.1s-10,7.6-10,7.6s-6.9-2.4-11-1.4s-15.5,6.5-20.3,9s-10,2.8-9.6,4.8s5.2,5.5,9.6,4.8s12-3.5,16.9-3.5
		s7.2,1,9.6,2.8s12.4,15.8,13.8,17.5s2.8,8.6,2.8,8.6s-6.1-2.6-9.9-6s-9.2-11.5-15.4-12.2s-12.9,4.8-9.5,7.6s6.9,4.5,9.3,7.6
		s6.2,12.4,12.7,22.4s20.6,16.2,20.6,16.2l29.2,12c0,0,7.6-17.9,21.7-22.7s18.2-6.9,18.2-6.9L387.3,351.2z"/>
	<path class="st2" d="M259.3,308.2c0,0,3.4-0.9,4.3-1.2c0.8-0.3,1.5-0.8,2.1-1.3"/>
	<path class="st2" d="M300.2,295.8c0,0,15.9,8.9,20.3,11.3c1.8,1,6.2,3,7.5,7.5c0.9,3.1,2.5,5.9,4.8,8.2"/>
	<path class="st2" d="M319.2,290.3c0,0,15.5,12,16.5,12.4s4.8,0.7,6.5,3.8s3.4,6.5,3.4,6.5"/>
	<path class="st2" d="M332.6,287.9c0,0,5.5-1,7.6,3.1s11,14.1,11,14.1"/>
	<path class="st2" d="M283.4,332.3c0,0,4.1-2.1,2.1-5.2s-6.2-3.1-6.2-3.1"/>
	<path class="st6" d="M386.6,346.7c0,0-18.6,4.8-30.3,17.9s-11.7,24.1-10.7,25.8s23.4,13.8,23.4,13.8s13.8-26.5,23.4-33
		s16.6-8.3,16.6-8.3s-17.2-11-17.9-12.4S389,345.7,386.6,346.7z"/>
	<path class="st6" d="M438.9,450.3c0,0-18.9-9.6-23.4-12l-35.1-18.9c-2-0.5-4-1.2-5.9-2.1c-2.1-1-5.2-0.7-6.5-7.9
		s2.1-21.7,17.5-36.1s25.1-13.8,25.1-13.8s6.5-0.7,8.3,0.7s2.1,5.5,3.8,6.2s49.3,15,49.3,15"/>
	<path class="st2" d="M384.9,397.3c0,0-2.1,10.3,2.8,18.9"/>
	<path class="st2" d="M389.7,410.7c0,0-2.1,0.7,3.5,9.6"/>
</g>
<g id="Hand_1">
	<path class="st4" d="M177.7,343.5c0,0-22.7,27-29.5,32.4c-4.1,3.3-8.4,6.2-12.9,8.9l-24.5,24.5c0,0,0.7,3.4-6.1,7.5
		s-20.4,8.9-23.8,10.2c-3.4,1.4-40.9,18.4-40.9,18.4L177.7,343.5z"/>
	<path class="st5" d="M210.6,302.3c-2.4,0.7-11,0.2-11,0.2s-5.2-4-7.9-6.4s-9.3-16.5-12.6-17.2s-17.4,7.4-17.4,7.4s-11.4-5-14.3-4.5
		s-12.2,8.8-12.2,8.8s-12.9-1.9-15.3,1.9s-6.2,16-10,23.6S92.3,344,92.3,344l-1.9,2.6c0,0,2.9,1,11.7,5.5c8.8,4.5,22.9,26,22.9,26
		s19.6-9.1,30.5-14.1s19.8-16,22.2-20.5s6.4-8.8,11.4-12.9s14.3-5.7,16.5-8.6s-1.4-7.1-1.4-7.1c1.3-0.7,2.6-1.5,3.8-2.4
		c1.2-1,6-3.6,6.4-6.4S213,301.6,210.6,302.3z M173.9,325.2l4.5-13.8c1.9,1.4,10.3,4.5,10.3,4.5
		C183.2,317.3,173.9,325.2,173.9,325.2z"/>
	<path class="st2" d="M126.2,306.4c0,0-0.7-4.1-0.2-5.5s9.3-10.2,9.3-10.2"/>
	<polyline class="st2" points="133.8,311.1 135.7,304.9 161.7,286.3 	"/>
	<path class="st2" d="M146.7,315.6c0,0,0.9-6,2.1-6.9s10.2-3.1,10.2-3.1s13.8-11.9,16.2-11.9s19.8,9.3,24.3,8.8"/>
	<path class="st2" d="M207.2,303.5c0,0-3.1,0-1.4,1.9s5.2,1,6.9,0.5"/>
	<path class="st2" d="M188.6,315.9c0,0,8.6-5,15.5-1"/>
	<path class="st2" d="M202,316.4l-4.8,1.7c0.9,1.7,1.6,3.4,2.1,5.2l0.2,1.4"/>
	<line class="st2" x1="173.9" y1="325.2" x2="169.6" y2="334.7"/>
	<path class="st6" d="M60.6,362.1c0,0,15-9.8,20.5-13.8c5.5-4.1,8.3-3.3,11.2-4.3s17.2,3.4,26.7,15.3s8.6,20.7,7.4,23.1
		s-31.2,20.5-31.2,20.5s-4.3-17.2-16.9-27.4C65.6,365.2,60.6,362.1,60.6,362.1z"/>
	<path class="st6" d="M0.5,390.7c0,0,27.8-17,32.5-19.8s10-6.6,10-6.6s1.5-7.4,8.5-7.6s13.9,2.5,23.2,7.6s20.8,23.6,22,31
		s3.7,9.6,1.7,14.5c-2,4.8-9.3,5.1-10.7,5.1c-1.5,0-4.9,3-4.9,3l-52.2,34"/>
	<path class="st2" d="M86.9,401.9c0,0,2.2,1.6-2.2,8.4"/>
	<path class="st2" d="M83.7,405.1c0,0-0.3,7.1-6.9,13.6"/>
</g>
</svg>
