<?xml version="1.0" encoding="utf-8"?>
<!-- Generator: Adobe Illustrator 25.4.1, SVG Export Plug-In . SVG Version: 6.00 Build 0)  -->
<svg version="1.1" id="Layer_1" xmlns="http://www.w3.org/2000/svg" xmlns:xlink="http://www.w3.org/1999/xlink" x="0px" y="0px"
	 viewBox="0 0 500 457.3" style="enable-background:new 0 0 500 457.3;" xml:space="preserve">
<style type="text/css">
	.st0{fill:#92E3A9;}
	.st1{opacity:0.7;}
	.st2{fill:#FFFFFF;}
	.st3{fill:#2E353A;}
	.st4{fill:#92E3A9;stroke:#2E353A;stroke-linecap:round;stroke-linejoin:round;}
	.st5{fill:#FFFFFF;stroke:#2E353A;stroke-width:1;stroke-linecap:round;stroke-linejoin:round;stroke-miterlimit:3.9999;}
	.st6{fill:#2E353A;stroke:#2E353A;stroke-linecap:round;stroke-linejoin:round;}
	.st7{fill:#FFFFFF;stroke:#2E353A;stroke-linecap:round;stroke-linejoin:round;}
	.st8{fill:#FFFFFF;stroke:#2E353A;stroke-width:1;stroke-linecap:round;stroke-linejoin:round;stroke-miterlimit:4;}
	.st9{fill:none;stroke:#2E353A;stroke-linecap:round;stroke-linejoin:round;}
	.st10{fill:#2E353A;stroke:#2E353A;stroke-width:1;stroke-linecap:round;stroke-linejoin:round;stroke-miterlimit:3.9999;}
	.st11{fill:#FFFFFF;stroke:#2E353A;stroke-width:1;stroke-linecap:round;stroke-linejoin:round;stroke-miterlimit:4.0001;}
	.st12{fill:#FFFFFF;stroke:#2E353A;stroke-width:1;stroke-linecap:round;stroke-linejoin:round;stroke-miterlimit:3.9998;}
	.st13{fill:#2E353A;stroke:#2E353A;stroke-width:1;stroke-linecap:round;stroke-linejoin:round;stroke-miterlimit:4.0001;}
	.st14{opacity:0.25;fill:#2E353A;stroke:#2E353A;stroke-linecap:round;stroke-linejoin:round;enable-background:new    ;}
	.st15{fill:#FFFFFF;stroke:#263238;stroke-width:0.75;stroke-linecap:round;stroke-linejoin:round;}
	.st16{fill:none;stroke:#263238;stroke-width:0.75;stroke-linecap:round;stroke-linejoin:round;}
	.st17{fill:#263238;stroke:#263238;stroke-width:0.75;stroke-linecap:round;stroke-linejoin:round;}
	.st18{fill:none;stroke:#FFFFFF;stroke-miterlimit:10;}
</style>
<g id="freepik--background-simple--inject-2">
	<path class="st0" d="M389.7,102.2c-17.3-25.6-31.7-57.6-59.8-73.4C290,6.3,251.7,36.9,219.4,58.5c-17,11.3-35,23.1-55.6,26.4
		c-29.4,4.7-59.2-8.3-88.4-0.3C26.1,98,12.7,157.9,29.2,200.4c23,59.1,74.4,122.6,84.3,170.7s55.8,82.1,134.6,60.2
		s74.4-72.2,144.4-83.2c70-10.9,104-61.3,91.9-124.8c-5.9-31.2-25.1-54.2-50.1-72.6C416.5,137.7,402.1,120.5,389.7,102.2z"/>
	<g class="st1">
		<path class="st2" d="M389.7,102.2c-17.3-25.6-31.7-57.6-59.8-73.4C290,6.3,251.7,36.9,219.4,58.5c-17,11.3-35,23.1-55.6,26.4
			c-29.4,4.7-59.2-8.3-88.4-0.3C26.1,98,12.7,157.9,29.2,200.4c23,59.1,74.4,122.6,84.3,170.7s55.8,82.1,134.6,60.2
			s74.4-72.2,144.4-83.2c70-10.9,104-61.3,91.9-124.8c-5.9-31.2-25.1-54.2-50.1-72.6C416.5,137.7,402.1,120.5,389.7,102.2z"/>
	</g>
</g>
<g id="freepik--Document--inject-2">
	<path class="st3" d="M234.2,409L103.9,171l-90.1,30.5L43,258.3l-1.8-3.2l-5.5,1.8c-2.1,0.7-3.2,3-2.5,5c0.1,0.2,0.1,0.4,0.2,0.6
		l14.4,28c1.9,3.7,5.9,5.7,10,5l4-0.7L132,431.3L234.2,409z"/>
	<path class="st4" d="M318.4,68.3L318.4,68.3c-2.9,1.6-6.6,0.5-8.2-2.4l-3.3-6.1L103.9,171l130.3,238l203-111.2l-71-129.5
		c-1.6-2.9-0.5-6.6,2.4-8.2l0,0c2.9-1.6,4-5.3,2.4-8.2l0,0l-44.5-81.2C325,67.8,321.4,66.7,318.4,68.3z"/>
	
		<rect x="197.9" y="99.7" transform="matrix(0.9419 -0.3358 0.3358 0.9419 -56.2808 108.4438)" class="st5" width="175" height="234.5"/>
	
		<rect x="173.1" y="104" transform="matrix(0.9419 -0.3358 0.3358 0.9419 -34.2942 96.0615)" class="st5" width="175" height="86.4"/>
	<circle class="st6" cx="301.6" cy="138.4" r="26.4"/>
	<path class="st7" d="M310.5,163.3c7.4-2.6,13.3-8.4,15.9-15.8c-4.6-10.3-15.8-15.6-25.9-12s-15.4,14.8-12.4,25.7
		C294.9,165.1,303.1,165.9,310.5,163.3z"/>
	<ellipse class="st8" cx="299.9" cy="133.5" rx="13.4" ry="13.4"/>
	
		<rect x="187.9" y="149.2" transform="matrix(0.9419 -0.3358 0.3358 0.9419 -38.5799 82.2562)" class="st5" width="61.3" height="7"/>
	
		<rect x="193.6" y="165.1" transform="matrix(0.9419 -0.3358 0.3358 0.9419 -43.5873 85.0903)" class="st5" width="61.3" height="7"/>
	
		<rect x="197.7" y="178.5" transform="matrix(0.9419 -0.3358 0.3358 0.9419 -47.2622 87.1502)" class="st3" width="61.3" height="3.5"/>
	
		<rect x="200.5" y="186.4" transform="matrix(0.9419 -0.3358 0.3358 0.9419 -49.7591 88.5437)" class="st3" width="61.3" height="3.5"/>
	
		<rect x="215" y="226.9" transform="matrix(0.9419 -0.3358 0.3358 0.9419 -62.5066 95.7663)" class="st3" width="61.3" height="3.5"/>
	
		<rect x="217.6" y="234.2" transform="matrix(0.9419 -0.3358 0.3358 0.9419 -64.8065 97.0628)" class="st3" width="61.3" height="3.5"/>
	
		<rect x="220.2" y="241.5" transform="matrix(0.9419 -0.3358 0.3358 0.9419 -67.1072 98.3609)" class="st3" width="61.3" height="3.5"/>
	
		<rect x="293.2" y="199" transform="matrix(0.9419 -0.3358 0.3358 0.9419 -48.6032 120.4081)" class="st3" width="61.3" height="3.5"/>
	
		<rect x="295.8" y="206.3" transform="matrix(0.9419 -0.3358 0.3358 0.9419 -50.9044 121.705)" class="st3" width="61.3" height="3.5"/>
	
		<rect x="298.4" y="213.6" transform="matrix(0.9419 -0.3358 0.3358 0.9419 -53.204 123.0023)" class="st3" width="61.3" height="3.5"/>
	<line class="st9" x1="212.4" y1="231.1" x2="351.7" y2="181.5"/>
	
		<rect x="228.4" y="264.7" transform="matrix(0.9419 -0.3358 0.3358 0.9419 -74.4302 102.4636)" class="st3" width="61.3" height="3.5"/>
	
		<rect x="231" y="272" transform="matrix(0.9419 -0.3358 0.3358 0.9419 -76.7303 103.7598)" class="st3" width="61.3" height="3.5"/>
	
		<rect x="233.6" y="279.3" transform="matrix(0.9419 -0.3358 0.3358 0.9419 -79.031 105.0579)" class="st3" width="61.3" height="3.5"/>
	
		<rect x="306.7" y="236.8" transform="matrix(0.9419 -0.3358 0.3358 0.9419 -60.5103 127.1347)" class="st3" width="61.3" height="3.5"/>
	
		<rect x="309.3" y="244.1" transform="matrix(0.9419 -0.3358 0.3358 0.9419 -62.8114 128.4316)" class="st3" width="61.3" height="3.5"/>
	
		<rect x="311.9" y="251.4" transform="matrix(0.9419 -0.3358 0.3358 0.9419 -65.1111 129.7289)" class="st3" width="61.3" height="3.5"/>
	<line class="st9" x1="225.9" y1="268.9" x2="365.2" y2="219.3"/>
	
		<rect x="241.1" y="279.1" transform="matrix(0.9419 -0.3358 0.3358 0.9419 -81.4086 122.5495)" class="st10" width="145.1" height="35.2"/>
	
		<rect x="185.2" y="115.8" transform="matrix(0.9191 -0.3941 0.3941 0.9191 -69.776 126.3424)" class="st11" width="175" height="234.5"/>
	
		<rect x="156" y="121.8" transform="matrix(0.9191 -0.3941 0.3941 0.9191 -45.325 109.3285)" class="st11" width="175" height="86.4"/>
	<circle class="st6" cx="283.9" cy="153.6" r="26.4"/>
	<path class="st7" d="M294.3,177.9c7.2-3.1,12.7-9.3,14.9-16.8c-5.2-9.9-16.7-14.6-26.6-10.4c-9.8,4.2-14.4,15.8-10.8,26.4
		C278.9,180.7,287.1,181,294.3,177.9z"/>
	<ellipse class="st12" cx="281.9" cy="148.8" rx="13.4" ry="13.4"/>
	
		<rect x="171.3" y="169.6" transform="matrix(0.9191 -0.3941 0.3941 0.9191 -51.867 93.5923)" class="st11" width="61.3" height="7"/>
	
		<rect x="177.9" y="185.1" transform="matrix(0.9191 -0.3941 0.3941 0.9191 -57.4528 97.4474)" class="st11" width="61.3" height="7"/>
	
		<rect x="182.8" y="198.2" transform="matrix(0.9191 -0.3941 0.3941 0.9191 -61.5217 100.2985)" class="st3" width="61.3" height="3.5"/>
	
		<rect x="186.1" y="206" transform="matrix(0.9191 -0.3941 0.3941 0.9191 -64.3308 102.2371)" class="st3" width="61.3" height="3.5"/>
	
		<rect x="203" y="245.4" transform="matrix(0.9191 -0.3941 0.3941 0.9191 -78.5004 112.0768)" class="st3" width="61.3" height="3.5"/>
	
		<rect x="206.1" y="252.6" transform="matrix(0.9191 -0.3941 0.3941 0.9191 -81.0748 113.8906)" class="st3" width="61.3" height="3.5"/>
	
		<rect x="209.1" y="259.7" transform="matrix(0.9191 -0.3941 0.3941 0.9191 -83.6386 115.6454)" class="st3" width="61.3" height="3.5"/>
	
		<rect x="279.4" y="212.7" transform="matrix(0.9191 -0.3941 0.3941 0.9191 -59.4218 139.5415)" class="st3" width="61.3" height="3.5"/>
	
		<rect x="282.4" y="219.8" transform="matrix(0.9191 -0.3941 0.3941 0.9191 -61.9848 141.3004)" class="st3" width="61.3" height="3.5"/>
	
		<rect x="285.5" y="226.9" transform="matrix(0.9191 -0.3941 0.3941 0.9191 -64.5284 143.0903)" class="st3" width="61.3" height="3.5"/>
	<line class="st9" x1="200.7" y1="251.8" x2="336.7" y2="193.5"/>
	
		<rect x="218.9" y="282.3" transform="matrix(0.9191 -0.3941 0.3941 0.9191 -91.7428 121.3243)" class="st3" width="61.3" height="3.5"/>
	
		<rect x="221.9" y="289.4" transform="matrix(0.9191 -0.3941 0.3941 0.9191 -94.3074 123.084)" class="st3" width="61.3" height="3.5"/>
	
		<rect x="225" y="296.6" transform="matrix(0.9191 -0.3941 0.3941 0.9191 -96.8824 124.8961)" class="st3" width="61.3" height="3.5"/>
	
		<rect x="295.2" y="249.6" transform="matrix(0.9191 -0.3941 0.3941 0.9191 -72.6886 148.7592)" class="st3" width="61.3" height="3.5"/>
	
		<rect x="298.3" y="256.7" transform="matrix(0.9191 -0.3941 0.3941 0.9191 -75.2286 150.5512)" class="st3" width="61.3" height="3.5"/>
	
		<rect x="301.3" y="263.8" transform="matrix(0.9191 -0.3941 0.3941 0.9191 -77.7924 152.306)" class="st3" width="61.3" height="3.5"/>
	<line class="st9" x1="216.6" y1="288.7" x2="352.5" y2="230.4"/>
	
		<rect x="233.3" y="293.3" transform="matrix(0.9191 -0.3941 0.3941 0.9191 -97.7655 145.6943)" class="st13" width="145.1" height="35.2"/>
	
		<rect x="173.1" y="118.1" transform="matrix(0.8388 -0.5445 0.5445 0.8388 -86.1215 179.8522)" class="st11" width="175" height="234.5"/>
	
		<rect x="132.8" y="130" transform="matrix(0.8388 -0.5445 0.5445 0.8388 -58.7862 147.8714)" class="st11" width="175" height="86.4"/>
	<circle class="st6" cx="258.2" cy="155.2" r="26.4"/>
	<path class="st4" d="M272.5,177.3c6.6-4.3,10.9-11.3,11.9-19.1c-6.8-8.9-19-11.5-27.9-5.7c-9,5.8-11.5,18-6.2,27.9
		C257.8,182.7,266,181.6,272.5,177.3z"/>
	
		<ellipse transform="matrix(0.1602 -0.9871 0.9871 0.1602 65.5527 378.6479)" class="st7" cx="255.3" cy="150.8" rx="13.4" ry="13.4"/>
	
		<rect x="150" y="184.8" transform="matrix(0.8388 -0.5445 0.5445 0.8388 -73.3968 128.7085)" class="st11" width="61.3" height="7"/>
	
		<rect x="159.2" y="199" transform="matrix(0.8388 -0.5445 0.5445 0.8388 -79.6403 136.014)" class="st11" width="61.3" height="7"/>
	
		<rect x="165" y="212.4" transform="matrix(0.8412 -0.5408 0.5408 0.8412 -84.7252 139.7858)" class="st3" width="61.2" height="3.5"/>
	
		<rect x="170.5" y="218.2" transform="matrix(0.8388 -0.5445 0.5445 0.8388 -87.3195 144.9923)" class="st3" width="61.3" height="3.5"/>
	
		<rect x="193.9" y="254.2" transform="matrix(0.8388 -0.5445 0.5445 0.8388 -103.1514 163.5301)" class="st3" width="61.3" height="3.5"/>
	
		<rect x="198.1" y="260.7" transform="matrix(0.8388 -0.5445 0.5445 0.8388 -106.0192 166.8662)" class="st3" width="61.3" height="3.5"/>
	
		<rect x="202.3" y="267.2" transform="matrix(0.8388 -0.5445 0.5445 0.8388 -108.887 170.2023)" class="st3" width="61.3" height="3.5"/>
	
		<rect x="263.6" y="208.9" transform="matrix(0.8388 -0.5445 0.5445 0.8388 -67.2553 194.162)" class="st3" width="61.3" height="3.5"/>
	
		<rect x="267.8" y="215.4" transform="matrix(0.8388 -0.5445 0.5445 0.8388 -70.1246 197.5013)" class="st3" width="61.3" height="3.5"/>
	
		<rect x="272" y="222" transform="matrix(0.8388 -0.5445 0.5445 0.8388 -73.0293 200.8806)" class="st3" width="61.3" height="3.5"/>
	<line class="st9" x1="192.9" y1="266" x2="316.9" y2="185.5"/>
	
		<rect x="215.7" y="287.9" transform="matrix(0.8388 -0.5445 0.5445 0.8388 -117.9978 180.8501)" class="st3" width="61.3" height="3.5"/>
	
		<rect x="220" y="294.4" transform="matrix(0.8388 -0.5445 0.5445 0.8388 -120.8193 184.2245)" class="st3" width="61.3" height="3.5"/>
	
		<rect x="224.2" y="300.9" transform="matrix(0.8388 -0.5445 0.5445 0.8388 -123.6866 187.5668)" class="st3" width="61.3" height="3.5"/>
	
		<rect x="285.4" y="242.6" transform="matrix(0.8388 -0.5445 0.5445 0.8388 -82.1018 211.482)" class="st3" width="61.3" height="3.5"/>
	
		<rect x="289.7" y="249.1" transform="matrix(0.8388 -0.5445 0.5445 0.8388 -84.9247 214.8596)" class="st3" width="61.3" height="3.5"/>
	
		<rect x="293.9" y="255.6" transform="matrix(0.8388 -0.5445 0.5445 0.8388 -87.7896 218.1938)" class="st3" width="61.3" height="3.5"/>
	<line class="st9" x1="214.7" y1="299.7" x2="338.7" y2="219.1"/>
	
		<rect x="233.9" y="288.9" transform="matrix(0.8388 -0.5445 0.5445 0.8388 -117.4689 216.2848)" class="st13" width="145.1" height="35.2"/>
	<path class="st4" d="M103.9,171l-77.8-60.3l46.3,86.9c1.1,2.1-1.8,2.5-4.8,0.6l0,0c-3-1.9-5.9-1.5-4.8,0.7l24,43.7
		c0.4,0.6,0.9,1.2,1.5,1.6L100,253c0.6,0.4,1.1,1,1.5,1.6l48.6,92.3l84.1,62L103.9,171z"/>
	<path class="st14" d="M103.9,171l-77.8-60.3l46.3,86.9c1.1,2.1-1.8,2.5-4.8,0.6l0,0c-3-1.9-5.9-1.5-4.8,0.7l24,43.7
		c0.4,0.6,0.9,1.2,1.5,1.6L100,253c0.6,0.4,1.1,1,1.5,1.6l48.6,92.3l84.1,62L103.9,171z"/>
</g>
<path class="st15" d="M231.1,226.7c-2.1-0.8-3.1-3.1-2.3-5.1l11.3-30.1c0.8-2.1,3.1-3.1,5.2-2.4c2.1,0.8,3.1,3.1,2.4,5.2l-11.3,30.1
	C235.5,226.4,233.2,227.4,231.1,226.7L231.1,226.7z"/>
<line class="st16" x1="244.1" y1="196.8" x2="237.8" y2="213.4"/>
<path class="st17" d="M214,272.6c-3.7-1.4-5.5-5.5-4.2-9.1l0,0l16.1-43c1.4-3.7,5.5-5.5,9.2-4.2c3.7,1.4,5.5,5.5,4.2,9.2l0,0
	l-16.1,43C221.7,272.1,217.6,273.9,214,272.6z"/>
<path class="st17" d="M273.7,114c-22.4-8.4-47.4,3-55.7,25.4c-8.4,22.4,3,47.4,25.4,55.7c22.4,8.4,47.4-3,55.7-25.4
	C307.5,147.4,296.1,122.4,273.7,114z M246,188.2c-18.5-6.9-27.9-27.6-21-46.1s27.6-27.9,46.1-21s27.9,27.6,21,46.1
	C285.1,185.7,264.5,195.1,246,188.2L246,188.2z"/>
<path class="st16" d="M229.5,141.5c3.5-7.7,10-13.8,17.9-16.7"/>
<path class="st16" d="M226.6,154.7c0-3.2,0.5-6.5,1.5-9.6"/>
<path class="st18" d="M217.5,163.6c-4.9-22.7,9.5-45.1,32.2-50c18.5-4,37.3,4.8,46.1,21.5"/>
<path class="st18" d="M300.3,149.6c2.8,23-13.6,44-36.6,46.8c-18.4,2.3-36.1-7.8-43.6-24.8"/>
<path class="st18" d="M297.4,138.7c1.1,2.7,1.9,5.4,2.4,8.2"/>
</svg>
