<?xml version="1.0" encoding="UTF-8"?>
<svg xmlns="http://www.w3.org/2000/svg" viewBox="0 0 447.93 357.04">
  <defs>
    <style>
      .cls-1, .cls-2 {
        opacity: .7;
      }

      .cls-3, .cls-4, .cls-2, .cls-5 {
        fill: #fff;
      }

      .cls-6 {
        opacity: .5;
      }

      .cls-7 {
        fill: #f5f5f5;
      }

      .cls-8 {
        fill: #455a64;
      }

      .cls-9 {
        opacity: .2;
      }

      .cls-10 {
        fill: #e0e0e0;
      }

      .cls-4 {
        opacity: .8;
      }

      .cls-11 {
        fill: #27debf;
      }

      .cls-12 {
        fill: #ebebeb;
      }

      .cls-5 {
        opacity: .6;
      }
    </style>
  </defs>
  <g id="Floor">
    <path class="cls-7" d="m65.6,322.77c87.46,45.69,229.27,45.69,316.73,0,87.46-45.69,87.46-119.77,0-165.46-87.46-45.69-229.27-45.69-316.73,0-87.46,45.69-87.46,119.77,0,165.46Z"/>
  </g>
  <g id="Filing_Cabinets" data-name="Filing Cabinets">
    <g>
      <g>
        <g>
          <polygon class="cls-10" points="41.18 247.85 12.75 231.43 12.75 170.46 41.18 186.87 41.18 247.85"/>
          <polygon class="cls-12" points="41.18 186.87 81.8 163.42 81.8 224.4 41.18 247.85 41.18 186.87"/>
          <polygon class="cls-7" points="81.8 163.42 41.18 186.87 12.75 170.46 53.37 147 81.8 163.42"/>
          <g>
            <polygon class="cls-10" points="45.24 189.22 77.74 170.46 78.49 170.89 78.49 193.47 45.99 212.23 45.24 211.8 45.24 189.22"/>
            <polygon class="cls-7" points="45.99 189.65 78.49 170.89 78.49 193.47 45.99 212.23 45.99 189.65"/>
            <path class="cls-10" d="m58.73,186.12l5.53-3.19c.72-.41,1.3-.22,1.3.42s-.58,1.51-1.3,1.92l-5.53,3.19c-.72.41-1.3.23-1.3-.42,0-.65.58-1.51,1.3-1.92Z"/>
          </g>
          <g>
            <polygon class="cls-10" points="44.5 217.8 76.99 199.03 76.99 221.62 77.74 222.05 45.24 240.81 44.49 240.38 44.5 217.8"/>
            <polygon class="cls-7" points="45.24 218.23 77.74 199.47 77.74 222.05 45.24 240.81 45.24 218.23"/>
            <path class="cls-10" d="m57.98,214.7l5.53-3.19c.72-.41,1.3-.22,1.3.42s-.58,1.51-1.3,1.92l-5.53,3.19c-.72.41-1.3.22-1.3-.42,0-.65.58-1.51,1.3-1.92Z"/>
          </g>
        </g>
        <g>
          <g>
            <polygon class="cls-10" points="41.18 183.36 12.75 166.94 12.75 105.96 41.18 122.38 41.18 183.36"/>
            <polygon class="cls-12" points="41.18 122.38 81.8 98.93 81.8 159.9 41.18 183.36 41.18 122.38"/>
            <polygon class="cls-7" points="81.8 98.93 41.18 122.38 12.75 105.96 53.37 82.51 81.8 98.93"/>
            <g>
              <polygon class="cls-10" points="45.24 124.72 77.74 105.96 78.49 106.4 78.48 128.98 45.99 147.74 45.24 147.31 45.24 124.72"/>
              <path class="cls-10" d="m58.73,121.63l5.53-3.19c.72-.41,1.3-.23,1.3.42s-.58,1.51-1.3,1.92l-5.53,3.19c-.72.41-1.3.23-1.3-.42,0-.65.58-1.51,1.3-1.92Z"/>
            </g>
            <g>
              <polygon class="cls-10" points="44.49 153.3 76.99 134.54 76.99 157.13 77.74 157.56 45.24 176.32 44.49 175.89 44.49 153.3"/>
              <polygon class="cls-7" points="45.24 153.74 77.74 134.97 77.74 157.56 45.24 176.32 45.24 153.74"/>
              <path class="cls-10" d="m57.98,150.21l5.53-3.19c.72-.41,1.3-.23,1.3.42s-.58,1.51-1.3,1.92l-5.53,3.19c-.72.41-1.3.23-1.3-.42,0-.65.58-1.51,1.3-1.92Z"/>
            </g>
          </g>
          <g>
            <polygon class="cls-10" points="45.24 124.72 77.74 105.96 77.74 128.55 45.24 147.31 45.24 124.72"/>
            <polygon class="cls-10" points="93.99 117.12 76.2 106.85 76.2 126.75 93.99 137.02 93.99 117.12"/>
            <g>
              <polygon class="cls-12" points="57.43 150.52 57.43 122.38 64.4 118.34 65.55 120.03 85.86 108.31 85.86 134.11 57.43 150.52"/>
              <polygon class="cls-7" points="57.43 150.52 59.46 125.9 87.89 109.48 85.86 134.11 57.43 150.52"/>
            </g>
            <polygon class="cls-12" points="61.49 135.88 45.99 126.93 45.99 146.83 61.49 155.78 61.49 135.88"/>
            <polygon class="cls-7" points="61.49 134.11 93.99 115.34 93.98 137.93 61.49 156.69 61.49 134.11"/>
            <path class="cls-10" d="m74.23,130.58l5.53-3.19c.72-.41,1.3-.23,1.3.42s-.58,1.51-1.3,1.92l-5.53,3.19c-.72.41-1.3.23-1.3-.42,0-.65.58-1.51,1.3-1.92Z"/>
            <polygon class="cls-10" points="61.49 134.11 60.41 133.48 60.41 156.06 61.49 156.69 61.49 134.11"/>
            <polygon class="cls-12" points="60.41 133.48 92.9 114.72 93.99 115.34 61.49 134.11 60.41 133.48"/>
          </g>
        </g>
      </g>
      <g>
        <polygon class="cls-10" points="377.06 210.9 348.62 194.49 348.62 133.51 377.06 149.93 377.06 210.9"/>
        <polygon class="cls-12" points="377.06 149.93 417.68 126.48 417.68 187.45 377.06 210.9 377.06 149.93"/>
        <polygon class="cls-7" points="417.68 126.48 377.06 149.93 348.62 133.51 389.24 110.06 417.68 126.48"/>
        <g>
          <polygon class="cls-10" points="381.12 152.27 413.62 133.51 414.36 133.94 414.36 156.53 381.87 175.29 381.12 174.86 381.12 152.27"/>
          <polygon class="cls-7" points="381.87 152.7 414.36 133.94 414.36 156.53 381.87 175.29 381.87 152.7"/>
          <path class="cls-10" d="m394.61,149.18l5.53-3.19c.72-.41,1.3-.23,1.3.42s-.58,1.51-1.3,1.92l-5.53,3.19c-.72.41-1.3.23-1.3-.42s.58-1.51,1.3-1.92Z"/>
        </g>
        <g>
          <polygon class="cls-10" points="380.37 180.85 412.87 162.09 412.87 184.67 413.62 185.11 381.12 203.87 380.37 203.44 380.37 180.85"/>
          <polygon class="cls-7" points="381.12 181.28 413.62 162.52 413.62 185.11 381.12 203.87 381.12 181.28"/>
          <path class="cls-10" d="m393.86,177.76l5.53-3.19c.72-.41,1.3-.22,1.3.42s-.58,1.51-1.3,1.92l-5.53,3.19c-.72.41-1.3.23-1.3-.42,0-.65.58-1.51,1.3-1.92Z"/>
        </g>
      </g>
    </g>
  </g>
  <g id="Plants">
    <g>
      <g>
        <g>
          <path class="cls-11" d="m106.51,274.64s.12-15.86-9.88-27.75c-8.86-10.53-13.57-17.21-10.77-20.29s8.78-3.82,16.87,4.69c8.09,8.51,8.72,32.12,7.6,37.46l-3.83,5.89Z"/>
          <path class="cls-9" d="m106.51,274.64s.12-15.86-9.88-27.75c-8.86-10.53-13.57-17.21-10.77-20.29s8.78-3.82,16.87,4.69c8.09,8.51,8.72,32.12,7.6,37.46l-3.83,5.89Z"/>
          <path class="cls-3" d="m108.24,257.59c-.23,0-.44-.16-.49-.4-3.5-16.37-12.49-25.42-17.53-29.36-.22-.17-.26-.48-.09-.7.17-.22.48-.26.7-.09,5.15,4.02,14.33,13.26,17.89,29.94.06.27-.11.54-.38.59-.04,0-.07.01-.1.01Z"/>
        </g>
        <g>
          <path class="cls-11" d="m106.17,280.54l-4.06,2.35s-1.04-3.65-5.48-4.69c-4.44-1.04-9.07-.83-12.18-4.69-3.11-3.86.68-8.05,0-10.9-.68-2.84-1.13-3.66-6.7-6.5-5.58-2.84-7.78-7.55-3.58-10.75,4.2-3.2,11.02-.85,15.12,1.95,3.66,2.5,7.14,3.16,11.23,3.66,4.08.5,10.75,2.79,9.73,12.28-1.02,9.5-4.06,17.28-4.06,17.28Z"/>
          <path class="cls-3" d="m90.53,268.04c-.21,0-.41-.13-.48-.35-.08-.26.06-.55.32-.63.37-.12,9.02-2.85,12.68.09.22.17.25.49.08.7-.17.22-.49.25-.7.08-3.24-2.6-11.66.06-11.75.09-.05.02-.1.02-.15.02Z"/>
          <path class="cls-3" d="m106.63,279.77c-.25,0-.47-.19-.5-.45-2.23-21.06-27.6-31.05-27.85-31.15-.26-.1-.39-.39-.29-.65.1-.26.39-.39.65-.29.26.1,26.2,10.31,28.49,31.98.03.27-.17.52-.44.55-.02,0-.04,0-.05,0Z"/>
        </g>
      </g>
      <g>
        <g>
          <path class="cls-11" d="m355.36,266.69c.12-.34,4.4-22.43,0-38.09-4.04-14.36-9.22-19.66-16.66-20.83-7.44-1.17-10.67,4.19-6.72,11.44,3.95,7.26,13.45,16.9,15.79,33.12.96,6.68,1.76,12.48,1.76,12.48l5.82,1.88Z"/>
          <path class="cls-9" d="m355.36,266.69c.12-.34,4.4-22.43,0-38.09-4.04-14.36-9.22-19.66-16.66-20.83-7.44-1.17-10.67,4.19-6.72,11.44,3.95,7.26,13.45,16.9,15.79,33.12.96,6.68,1.76,12.48,1.76,12.48l5.82,1.88Z"/>
          <path class="cls-3" d="m352.85,254.01s-.02,0-.03,0c-.28-.02-.49-.25-.47-.53,1.02-17.88-4.84-33.84-15.31-41.67-.22-.17-.27-.48-.1-.7.16-.22.48-.27.7-.1,10.73,8.02,16.75,24.31,15.71,42.52-.01.27-.24.47-.5.47Z"/>
        </g>
        <g>
          <path class="cls-11" d="m366.87,278.19c-.57-4.11,1.79-10.27,7.4-11.73,5.61-1.45,8.11-4.68,6.09-8.2-2.03-3.52-1.55-6.75,3.54-8.21,5.09-1.46,9.55-4.02,6.62-9.38-2.13-3.89-2.6-6.4,2.62-14.07,4.33-6.36.79-10.09-4.63-9.38-5.42.71-8.77,7.15-12.15,8.24-3.38,1.09-4.18-4.69-8.65-2.11-4.47,2.58-4.19,9.19-4.34,13.8-.14,4.61-.44,5.65-4.48,5.09s-7.99.1-7.91,9.87c.07,8.38,4.54,18.76,4.54,18.76l11.35,7.32Z"/>
          <path class="cls-3" d="m359.78,271.94s-.04,0-.06,0c-.27-.03-.47-.28-.44-.55,2.82-25.2,24.44-46.44,30.08-50.75.22-.17.53-.13.7.09.17.22.13.53-.09.7-5.56,4.25-26.91,25.22-29.69,50.07-.03.26-.25.44-.5.44Z"/>
          <path class="cls-3" d="m369.64,245.02c-.2,0-.39-.12-.47-.33-.1-.26.04-.55.29-.64,8.07-3,17.2-1.59,17.59-1.53.27.04.46.3.41.57-.04.27-.31.45-.57.42-.09-.02-9.27-1.43-17.08,1.47-.06.02-.12.03-.17.03Z"/>
          <path class="cls-3" d="m362.46,260.15c-.14,0-.28-.06-.37-.17-5.38-6.09-6.54-13.36-6.59-13.67-.04-.27.15-.53.42-.57.28-.04.53.15.57.42.01.07,1.17,7.29,6.35,13.16.18.21.16.52-.04.71-.09.08-.21.12-.33.12Z"/>
        </g>
      </g>
    </g>
  </g>
  <g id="Folder_2" data-name="Folder 2">
    <g>
      <g>
        <polygon class="cls-11" points="106.17 125.76 106.17 280.54 264.59 189.08 264.59 48.36 146.79 116.37 142.73 104.65 106.17 125.76"/>
        <polygon class="cls-1" points="106.17 125.76 106.17 280.54 264.59 189.08 264.59 48.36 146.79 116.37 142.73 104.65 106.17 125.76"/>
      </g>
      <polygon class="cls-10" points="106.17 280.54 114.3 139.83 272.72 48.36 264.59 189.08 106.17 280.54"/>
      <g>
        <polygon class="cls-11" points="106.17 280.54 118.36 142.17 276.78 50.71 264.59 189.08 106.17 280.54"/>
        <polygon class="cls-1" points="106.17 280.54 118.36 142.17 276.78 50.71 264.59 189.08 106.17 280.54"/>
      </g>
    </g>
  </g>
  <g id="Folder_1" data-name="Folder 1">
    <g>
      <g>
        <polygon class="cls-11" points="130.55 139.83 130.55 294.61 288.97 203.15 288.97 62.43 171.17 130.45 167.11 118.72 130.55 139.83"/>
        <polygon class="cls-6" points="130.55 139.83 130.55 294.61 288.97 203.15 288.97 62.43 171.17 130.45 167.11 118.72 130.55 139.83"/>
      </g>
      <polygon class="cls-10" points="130.55 294.61 138.67 153.9 297.09 62.43 288.97 203.15 130.55 294.61"/>
      <g>
        <polygon class="cls-11" points="130.55 294.61 142.73 156.24 301.15 64.78 288.97 203.15 130.55 294.61"/>
        <polygon class="cls-6" points="130.55 294.61 142.73 156.24 301.15 64.78 288.97 203.15 130.55 294.61"/>
      </g>
    </g>
  </g>
  <g id="Documents">
    <g>
      <path class="cls-10" d="m264.59,343.86c-28.43-16.42-54.81-34.26-66.86-55.21l36.56-21.11,30.3,76.32Z"/>
      <g>
        <g>
          <polygon class="cls-11" points="158.98 156.24 158.98 311.03 317.4 219.56 317.4 78.85 199.6 146.86 195.54 135.14 158.98 156.24"/>
          <polygon class="cls-9" points="158.98 156.24 158.98 311.03 317.4 219.56 317.4 78.85 199.6 146.86 195.54 135.14 158.98 156.24"/>
        </g>
        <g>
          <g>
            <path class="cls-3" d="m204.62,202.01c-.4,0-.46-.46-.46-.74V69.25c0-.93.68-2.1,1.48-2.57L319.98.67c.19-.11.37-.17.52-.17.4,0,.46.46.46.74v132.02c0,.93-.68,2.1-1.48,2.57l-114.34,66.01c-.19.11-.37.17-.52.17Z"/>
            <g>
              <path class="cls-11" d="m320.44,1.01s.03.12.03.23v132.02c0,.74-.59,1.76-1.23,2.13l-114.34,66.01c-.09.05-.16.08-.21.09-.01-.05-.02-.12-.02-.23V69.25c0-.74.59-1.76,1.23-2.13L320.23,1.1c.09-.05.16-.08.21-.09M320.5,0c-.23,0-.5.08-.77.24l-114.34,66.01c-.96.55-1.73,1.9-1.73,3v132.02c0,.78.39,1.24.96,1.24.23,0,.5-.08.77-.24l114.34-66.01c.96-.55,1.73-1.9,1.73-3V1.24C321.46.45,321.07,0,320.5,0h0Z"/>
              <path class="cls-2" d="m320.44,1.01s.03.12.03.23v132.02c0,.74-.59,1.76-1.23,2.13l-114.34,66.01c-.09.05-.16.08-.21.09-.01-.05-.02-.12-.02-.23V69.25c0-.74.59-1.76,1.23-2.13L320.23,1.1c.09-.05.16-.08.21-.09M320.5,0c-.23,0-.5.08-.77.24l-114.34,66.01c-.96.55-1.73,1.9-1.73,3v132.02c0,.78.39,1.24.96,1.24.23,0,.5-.08.77-.24l114.34-66.01c.96-.55,1.73-1.9,1.73-3V1.24C321.46.45,321.07,0,320.5,0h0Z"/>
            </g>
          </g>
          <g>
            <g>
              <polygon class="cls-11" points="215.85 74.28 256.47 50.83 256.47 97.74 215.85 121.19 215.85 74.28"/>
              <polygon class="cls-4" points="215.85 74.28 256.47 50.83 256.47 97.74 215.85 121.19 215.85 74.28"/>
            </g>
            <g>
              <path class="cls-3" d="m250.37,62.56v14.07l-1.27.71v-4.31c0-2.38-1.94-3.19-4.33-1.81l-17.23,9.95c-2.39,1.38-4.33,4.43-4.33,6.81v4.31l-1.27.76v-14.07l28.43-16.42Z"/>
              <path class="cls-3" d="m242.54,98.42c-2.08,1.2-3.77-.06-3.77-2.82v-22.57l-5.22,2.84v22.74c0,2.76-1.69,5.98-3.77,7.18l-3.77,2.18v1.49l20.31-11.73v-1.49s-1.69.98-3.77,2.18Z"/>
            </g>
          </g>
          <g>
            <path class="cls-8" d="m264.59,48.49c0,1.3,1.16,1.67,2.6.85l39.49-22.8c1.43-.83,2.6-2.55,2.6-3.85s-1.16-1.67-2.6-.85l-39.49,22.8c-1.44.83-2.6,2.55-2.6,3.85Z"/>
            <path class="cls-8" d="m264.59,62.56c0,1.3,1.16,1.67,2.6.85l39.49-22.8c1.43-.83,2.6-2.55,2.6-3.85s-1.16-1.67-2.6-.85l-39.49,22.8c-1.44.83-2.6,2.55-2.6,3.85Z"/>
            <path class="cls-8" d="m264.59,76.63c0,1.3,1.16,1.67,2.6.85l39.49-22.8c1.43-.83,2.6-2.55,2.6-3.85s-1.16-1.67-2.6-.85l-39.49,22.8c-1.44.83-2.6,2.55-2.6,3.85Z"/>
            <path class="cls-8" d="m264.59,90.7c0,1.3,1.16,1.67,2.6.85l39.49-22.8c1.43-.83,2.6-2.55,2.6-3.85s-1.16-1.67-2.6-.85l-39.49,22.8c-1.44.83-2.6,2.55-2.6,3.85Z"/>
          </g>
          <g>
            <path class="cls-8" d="m215.85,132.92c0,1.3,1.16,1.67,2.6.85l88.23-50.94c1.43-.83,2.6-2.55,2.6-3.85s-1.16-1.67-2.6-.85l-88.23,50.94c-1.43.83-2.6,2.55-2.6,3.85Z"/>
            <path class="cls-8" d="m215.85,146.99c0,1.3,1.16,1.67,2.6.85l88.23-50.94c1.43-.83,2.6-2.55,2.6-3.85s-1.16-1.67-2.6-.85l-88.23,50.94c-1.43.83-2.6,2.55-2.6,3.85Z"/>
            <path class="cls-8" d="m215.85,161.06c0,1.3,1.16,1.67,2.6.85l88.23-50.94c1.43-.83,2.6-2.55,2.6-3.85s-1.16-1.67-2.6-.85l-88.23,50.94c-1.43.83-2.6,2.55-2.6,3.85Z"/>
          </g>
        </g>
        <g>
          <polygon class="cls-11" points="158.98 311.03 187.41 186.73 345.83 95.27 317.4 219.56 158.98 311.03"/>
          <g>
            <polygon class="cls-11" points="197.74 196.47 197.74 288.65 234.29 267.54 234.29 175.36 197.74 196.47"/>
            <polygon class="cls-9" points="197.74 196.47 197.74 288.65 234.29 267.54 234.29 175.36 197.74 196.47"/>
          </g>
        </g>
      </g>
      <g>
        <g>
          <path class="cls-3" d="m264.63,343.26c-3.11-2.31-33.08-25.23-48.32-57.96-16.22-34.84-16.21-75.48-16.2-90.77v-.48l108.68-62.74c0,15.44.02,56.13,16.3,91.09,14.89,31.97,43.72,54.62,48.29,58.08l-108.73,62.78Z"/>
          <g>
            <path class="cls-11" d="m308.28,132.18c0,16.08.31,56.01,16.34,90.44,14.39,30.89,41.75,53.12,47.84,57.81l-107.8,62.24c-4.21-3.18-33.07-25.7-47.91-57.58-16.18-34.74-16.16-75.29-16.16-90.56v-.19l107.68-62.17m1-1.73l-109.68,63.32c0,14.39-.3,56.2,16.25,91.75,16.25,34.89,48.74,58.35,48.74,58.35l109.68-63.32s-32.5-23.45-48.75-58.35c-16.55-35.55-16.25-77.36-16.25-91.75h0Z"/>
            <path class="cls-2" d="m308.28,132.18c0,16.08.31,56.01,16.34,90.44,14.39,30.89,41.75,53.12,47.84,57.81l-107.8,62.24c-4.21-3.18-33.07-25.7-47.91-57.58-16.18-34.74-16.16-75.29-16.16-90.56v-.19l107.68-62.17m1-1.73l-109.68,63.32c0,14.39-.3,56.2,16.25,91.75,16.25,34.89,48.74,58.35,48.74,58.35l109.68-63.32s-32.5-23.45-48.75-58.35c-16.55-35.55-16.25-77.36-16.25-91.75h0Z"/>
          </g>
        </g>
        <g>
          <path class="cls-8" d="m296.87,151.68l-34.69,20.03c-1.44.83-2.57,2.53-2.52,3.79.05,1.27,1.26,1.62,2.7.79l34.69-20.03c1.43-.83,2.55-2.53,2.5-3.79-.05-1.27-1.24-1.62-2.68-.79Z"/>
          <path class="cls-8" d="m297.61,165.32l-34.69,20.03c-1.44.83-2.52,2.5-2.42,3.74.11,1.23,1.37,1.56,2.8.73l34.69-20.03c1.43-.83,2.5-2.5,2.39-3.73-.11-1.23-1.35-1.56-2.78-.73Z"/>
          <path class="cls-8" d="m299,178.59l-34.69,20.03c-1.44.83-2.47,2.47-2.3,3.67.17,1.2,1.48,1.5,2.92.67l34.69-20.03c1.43-.83,2.45-2.47,2.28-3.67-.17-1.2-1.46-1.5-2.9-.67Z"/>
          <path class="cls-8" d="m301.08,191.46l-34.69,20.03c-1.44.83-2.42,2.44-2.18,3.6.24,1.16,1.6,1.42,3.04.6l34.69-20.03c1.43-.83,2.4-2.44,2.16-3.6-.24-1.16-1.58-1.43-3.01-.6Z"/>
          <path class="cls-8" d="m303.9,203.91l-34.69,20.03c-1.43.83-2.36,2.41-2.05,3.53.31,1.12,1.73,1.35,3.17.52l34.69-20.03c1.44-.83,2.34-2.4,2.03-3.52-.31-1.12-1.71-1.36-3.14-.53Z"/>
          <path class="cls-8" d="m307.51,215.9l-84.54,48.81c-1.43.83-2.3,2.37-1.91,3.45.39,1.07,1.88,1.26,3.31.44l84.54-48.81c1.43-.83,2.27-2.37,1.88-3.44-.39-1.07-1.85-1.27-3.29-.44Z"/>
          <path class="cls-8" d="m312.01,227.34l-84.54,48.81c-1.43.83-2.22,2.33-1.75,3.35.47,1.02,2.03,1.17,3.46.35l84.54-48.81c1.44-.83,2.21-2.32,1.73-3.35-.47-1.02-2.01-1.18-3.45-.35Z"/>
          <path class="cls-8" d="m317.53,238.26l-84.54,48.81c-1.43.83-2.15,2.29-1.58,3.26.57.97,2.21,1.07,3.64.24l84.54-48.81c1.44-.83,2.12-2.28,1.55-3.24-.57-.97-2.18-1.09-3.62-.26Z"/>
          <path class="cls-8" d="m324.03,248.57l-84.54,48.81c-1.43.83-2.08,2.25-1.42,3.17.66.92,2.36.98,3.79.15l84.54-48.81c1.43-.83,2.06-2.24,1.4-3.15-.66-.92-2.34-1-3.77-.17Z"/>
          <path class="cls-8" d="m331.41,258.38l-84.54,48.81c-1.43.83-2.02,2.22-1.29,3.09.73.87,2.49.9,3.93.07l84.54-48.81c1.43-.83,2-2.2,1.27-3.07-.73-.87-2.48-.92-3.91-.09Z"/>
          <path class="cls-8" d="m339.58,267.73l-84.54,48.81c-1.44.83-1.96,2.18-1.16,3.02.8.83,2.62.83,4.05,0l84.54-48.81c1.43-.83,1.94-2.17,1.14-3-.8-.83-2.6-.85-4.04-.02Z"/>
          <path class="cls-8" d="m348.52,276.65l-84.54,48.81c-1.43.83-1.9,2.15-1.03,2.95.87.79,2.74.76,4.18-.07l84.54-48.81c1.43-.83,1.89-2.13,1.02-2.93-.87-.79-2.73-.77-4.16.05Z"/>
        </g>
        <g>
          <g>
            <path class="cls-11" d="m249.62,178.96l-39.88,23.03c.44,14.44,2.09,35.29,8.14,56.28l39.88-23.03c-6.04-20.99-7.69-41.83-8.14-56.28Z"/>
            <path class="cls-4" d="m249.62,178.96l-39.88,23.03c.44,14.44,2.09,35.29,8.14,56.28l39.88-23.03c-6.04-20.99-7.69-41.83-8.14-56.28Z"/>
          </g>
          <g>
            <path class="cls-11" d="m226,198.79c0-2.24-.73-3.96-1.95-5.07l-14.32,8.27c.12,3.82.32,8.09.67,12.68,1.57.26,3.42-.03,5.42-.95,5.62-2.62,10.18-9.31,10.18-14.93Z"/>
            <path class="cls-5" d="m226,198.79c0-2.24-.73-3.96-1.95-5.07l-14.32,8.27c.12,3.82.32,8.09.67,12.68,1.57.26,3.42-.03,5.42-.95,5.62-2.62,10.18-9.31,10.18-14.93Z"/>
          </g>
          <g>
            <path class="cls-11" d="m254.37,221.44s0,0,0,0c-2.66-3.36-8.07-13.7-10.38-18.21-.41-.8-1.58-.69-1.85.17-3.99,12.82-4.33,26.25-4.33,26.25-3.21-2.54-5.51-5.06-8.47-9.42-.43-.63-1.4-.46-1.59.28-4.36,16.79-2.17,33.31-2.17,33.31h0l32.17-18.57c-1.33-4.63-2.44-9.25-3.38-13.8Z"/>
            <path class="cls-5" d="m254.37,221.44s0,0,0,0c-2.66-3.36-8.07-13.7-10.38-18.21-.41-.8-1.58-.69-1.85.17-3.99,12.82-4.33,26.25-4.33,26.25-3.21-2.54-5.51-5.06-8.47-9.42-.43-.63-1.4-.46-1.59.28-4.36,16.79-2.17,33.31-2.17,33.31h0l32.17-18.57c-1.33-4.63-2.44-9.25-3.38-13.8Z"/>
          </g>
        </g>
      </g>
    </g>
  </g>
</svg>