<?xml version="1.0" encoding="utf-8"?>
<!-- Generator: Adobe Illustrator 25.4.1, SVG Export Plug-In . SVG Version: 6.00 Build 0)  -->
<svg version="1.1" id="Layer_1" xmlns="http://www.w3.org/2000/svg" xmlns:xlink="http://www.w3.org/1999/xlink" x="0px" y="0px"
	 viewBox="0 0 446 439" style="enable-background:new 0 0 446 439;" xml:space="preserve">
<style type="text/css">
	.st0{fill:#92E3A9;}
	.st1{opacity:0.7;fill:#FFFFFF;enable-background:new    ;}
	.st2{fill:#CCCCCC;}
	.st3{fill:#FFFFFF;}
	.st4{clip-path:url(#SVGID_00000042005946953752366250000016631793094792435075_);}
	.st5{opacity:0.75;fill:#FFFFFF;enable-background:new    ;}
	.st6{opacity:0.75;}
	.st7{opacity:0.5;fill:#FFFFFF;enable-background:new    ;}
	.st8{fill:#263238;}
	.st9{clip-path:url(#SVGID_00000137109704630907278820000016236327684914504375_);}
	.st10{fill:#D9D9D9;}
	.st11{fill:none;stroke:#263238;stroke-linecap:round;stroke-linejoin:round;}
	.st12{clip-path:url(#SVGID_00000163030760886970044740000002167277449759630231_);}
	.st13{fill:#263238;stroke:#263238;stroke-linecap:round;stroke-linejoin:round;}
	.st14{clip-path:url(#SVGID_00000057106392074171346150000004638804937210494369_);}
	.st15{opacity:0.17;fill:#FFFFFF;enable-background:new    ;}
	.st16{fill:#FFFFFF;stroke:#263238;stroke-linecap:round;stroke-linejoin:round;}
	.st17{clip-path:url(#SVGID_00000144315545194485395630000003827663235832017819_);}
	.st18{fill:#B8B8B8;}
	.st19{clip-path:url(#SVGID_00000108311435935308345660000006565481658360175238_);}
	.st20{clip-path:url(#SVGID_00000141437601631065622210000013990609463447104685_);}
	.st21{fill:none;stroke:#FFFFFF;stroke-linecap:round;stroke-linejoin:round;}
	.st22{clip-path:url(#SVGID_00000168828978192025830010000011890056271876195200_);}
	.st23{clip-path:url(#SVGID_00000031917678631357542690000004364163798397845928_);}
	.st24{fill:none;stroke:#263238;stroke-width:2;stroke-miterlimit:10;}
</style>
<g id="freepik--background-simple--inject-2">
	<path class="st0" d="M108.8,98.7c0,0-46.8,44.4-37.9,105.9s63.7,109.1,106.8,148.7s104.3,45,148.5,14.7s20.3-68.6,45.3-123.1
		s41.2-66.1,27.8-122.6S305.8,30,226,44.9S108.8,98.7,108.8,98.7z"/>
	<path class="st1" d="M108.8,98.7c0,0-46.8,44.4-37.9,105.9s63.7,109.1,106.8,148.7s104.3,45,148.5,14.7s20.3-68.6,45.3-123.1
		s41.2-66.1,27.8-122.6S305.8,30,226,44.9S108.8,98.7,108.8,98.7z"/>
</g>
<g id="freepik--Window--inject-2">
	<polygon class="st2" points="310.6,89.2 240.5,89.2 241.2,79 311.3,79 	"/>
	<polygon class="st2" points="310.6,103.5 240.5,103.5 241.2,93.3 311.3,93.3 	"/>
	<polygon class="st2" points="310.6,117.8 240.5,117.8 241.2,107.6 311.3,107.6 	"/>
	<polygon class="st2" points="310.6,132.1 240.5,132.1 241.2,121.9 311.3,121.9 	"/>
	<polygon class="st2" points="310.6,146.4 240.5,146.4 241.2,136.2 311.3,136.2 	"/>
	<polygon class="st2" points="310.6,160.7 240.5,160.7 241.2,150.5 311.3,150.5 	"/>
	<polygon class="st2" points="310.6,175 240.5,175 241.2,164.8 311.3,164.8 	"/>
	<polygon class="st2" points="310.6,189.4 240.5,189.4 241.2,179.1 311.3,179.1 	"/>
	<polygon class="st2" points="310.6,203.7 240.5,203.7 241.2,193.4 311.3,193.4 	"/>
	<polygon class="st2" points="310.6,218 240.5,218 241.2,207.7 311.3,207.7 	"/>
	<polygon class="st2" points="310.6,232.3 240.5,232.3 241.2,222.1 311.3,222.1 	"/>
	<polygon class="st2" points="384.6,89.2 314.6,89.2 315.3,79 385.4,79 	"/>
	<polygon class="st2" points="384.6,103.5 314.6,103.5 315.3,93.3 385.4,93.3 	"/>
	<polygon class="st2" points="384.6,117.8 314.6,117.8 315.3,107.6 385.4,107.6 	"/>
	<polygon class="st2" points="384.6,132.1 314.6,132.1 315.3,121.9 385.4,121.9 	"/>
	<polygon class="st2" points="384.6,146.4 314.6,146.4 315.3,136.2 385.4,136.2 	"/>
	<polygon class="st2" points="384.6,160.7 314.6,160.7 315.3,150.5 385.4,150.5 	"/>
	<polygon class="st2" points="384.6,175 314.6,175 315.3,164.8 385.4,164.8 	"/>
	<polygon class="st2" points="384.6,189.4 314.6,189.4 315.3,179.1 385.4,179.1 	"/>
	<polygon class="st2" points="384.6,203.7 314.6,203.7 315.3,193.4 385.4,193.4 	"/>
	<polygon class="st2" points="384.6,218 314.6,218 315.3,207.7 385.4,207.7 	"/>
	<polygon class="st2" points="384.6,232.3 314.6,232.3 315.3,222.1 385.4,222.1 	"/>
</g>
<g id="freepik--Picture--inject-2">
	<rect x="85.9" y="78.4" class="st0" width="144.7" height="124.2"/>
	<rect x="93.2" y="84.6" class="st3" width="130.3" height="111.8"/>
	<g>
		<g>
			<defs>
				<rect id="SVGID_1_" x="93.2" y="84.6" width="130.3" height="111.8"/>
			</defs>
			<clipPath id="SVGID_00000165942050124523572250000000676181041602030726_">
				<use xlink:href="#SVGID_1_"  style="overflow:visible;"/>
			</clipPath>
			<g style="clip-path:url(#SVGID_00000165942050124523572250000000676181041602030726_);">
				<path class="st0" d="M223.4,118.5c-23.4,16.7-57,27.7-95.9,45.1c-12.3,5.4-23.8,12.3-34.4,20.5v12.3h130.3V118.5z"/>
				<path class="st0" d="M223.4,84.6h-52.3c-5.8,5-12.7,10.5-20.8,16.5c-29.8,21.8-16.9,43.7,18.8,27.8c18.3-8.1,38.7-27,54.3-43.4
					V84.6z"/>
				<path class="st0" d="M115.7,97.1c0-9.1-11.3-1.9-22.5,7.2v23C104,116.7,115.7,105.3,115.7,97.1z"/>
				<path class="st0" d="M126.5,133.3c0,5.8-4.7,10.4-10.4,10.4s-10.4-4.7-10.4-10.4c0-5.8,4.7-10.4,10.4-10.4
					S126.5,127.6,126.5,133.3L126.5,133.3z"/>
				<path class="st5" d="M223.4,118.5c-23.4,16.7-57,27.7-95.9,45.1c-12.3,5.4-23.8,12.3-34.4,20.5v12.3h130.3V118.5z"/>
				<path class="st5" d="M223.4,84.6h-52.3c-5.8,5-12.7,10.5-20.8,16.5c-29.8,21.8-16.9,43.7,18.8,27.8c18.3-8.1,38.7-27,54.3-43.4
					V84.6z"/>
				<g class="st6">
					<path class="st3" d="M115.7,97.1c0-9.1-11.3-1.9-22.5,7.2v23C104,116.7,115.7,105.3,115.7,97.1z"/>
				</g>
				<path class="st5" d="M126.5,133.3c0,5.8-4.7,10.4-10.4,10.4s-10.4-4.7-10.4-10.4c0-5.8,4.7-10.4,10.4-10.4
					S126.5,127.6,126.5,133.3L126.5,133.3z"/>
			</g>
		</g>
	</g>
	<path class="st3" d="M200.9,166.6c0,7.7-6.2,13.9-13.9,13.9s-13.9-6.2-13.9-13.9s6.2-13.9,13.9-13.9l0,0
		C194.7,152.7,200.9,158.9,200.9,166.6L200.9,166.6z"/>
</g>
<g id="freepik--Plants--inject-2">
	<path class="st0" d="M396.7,334.4c-2.5,2.9-4.2,6.5-4.9,10.2l-9.9,5.5V324l0.2,0.3l15.7-11.5c2,0.3,9.6,1.2,16.6-2.6
		c8.1-4.4,14-19.3,14-19.3s-19.3-2.2-25.8,5.9c-5.3,6.6-5.5,12.9-5.4,15.1l-15.4,11.2v-19.4c5.8-2.7,10.1-7.9,11.7-14.1
		c2.8-10.9-12.1-32.3-12.1-32.3s-15.5,22.1-12.4,33.3c2.6,9.5,9.7,12.5,11.8,13.2v42l-11.1-9.2c0.3-2.2,0.5-9.1-5.7-16.1
		c-7.5-8.4-27.4-7.8-27.4-7.8s8.4,16.8,15.5,22.4c6.2,4.9,14.9,2.9,16.9,2.3l11.6,9.7v12.8h-17.3l7.1,44.2h21.2l7.1-44.2h-17v-8.4
		l10.9-6.1c2.6,0.7,10,2.3,17-1.2c8.7-4.4,15.9-13.7,15.9-13.7S404.8,325,396.7,334.4z"/>
	<path class="st7" d="M396.7,334.4c-2.5,2.9-4.2,6.5-4.9,10.2l-9.9,5.5V324l0.2,0.3l15.7-11.5c2,0.3,9.6,1.2,16.6-2.6
		c8.1-4.4,14-19.3,14-19.3s-19.3-2.2-25.8,5.9c-5.3,6.6-5.5,12.9-5.4,15.1l-15.4,11.2v-19.4c5.8-2.7,10.1-7.9,11.7-14.1
		c2.8-10.9-12.1-32.3-12.1-32.3s-15.5,22.1-12.4,33.3c2.6,9.5,9.7,12.5,11.8,13.2v42l-11.1-9.2c0.3-2.2,0.5-9.1-5.7-16.1
		c-7.5-8.4-27.4-7.8-27.4-7.8s8.4,16.8,15.5,22.4c6.2,4.9,14.9,2.9,16.9,2.3l11.6,9.7v12.8h-17.3l7.1,44.2h21.2l7.1-44.2h-17v-8.4
		l10.9-6.1c2.6,0.7,10,2.3,17-1.2c8.7-4.4,15.9-13.7,15.9-13.7S404.8,325,396.7,334.4z"/>
</g>
<g id="freepik--Desk--inject-2">
	<path class="st8" d="M377.1,200.8l-28.5,0.2c0,0-1.9-0.2-2.4,1.2c0,0-5,12.5-5.2,17s1,3.8-1,9.7c-1.9,5.9-7.3,19.8-10.4,31.1
		c-4.1,15.2-5.2,31.4-5.5,47.1c0,2.5-1.6,24.3,2.4,24.3c3.3,0,33.3,4,33.7-1.8c1.4-23.1-2.7-45.6,5.3-68.1c3.1-8.7,6.7-17.9,9.3-27
		c2.6-9.1,3.1-18.6,4.9-27.9C380.9,200.1,377.1,200.8,377.1,200.8z"/>
	<path class="st0" d="M379.9,203.7c-0.3-3.3-2.8-2.8-2.8-2.8l-28.5,0.2c0,0-1.9-0.2-2.4,1.2c0,0-5,12.5-5.2,17
		c-0.1,1.2,0,2.4,0.1,3.6l0.6,1c0,0,1,8.3,12.3,8.7c11.3,0.5,17.7-4.7,20.1-9.7s3.3-13,5.2-17.7
		C379.5,204.6,379.7,204.1,379.9,203.7z"/>
	<path class="st0" d="M373.3,212.9c-1.9,6.9-0.8,8.8-2.7,20.7c-1.9,11.9-8.8,25.2-11.5,37.5s-1.5,55.5-1.1,57.4c0.2,1,0.2,2,0.2,3.1
		c1.3-0.5,2.1-1.1,2.1-2c1.4-23.1-2.7-45.6,5.3-68.1c3.1-8.7,6.7-17.9,9.3-27c2.6-9.1,3.1-18.6,4.9-27.9c0.7-3.9-0.4-5.2-1.4-5.5
		l0,0C376.2,204.7,374.5,208.7,373.3,212.9z"/>
	<path class="st8" d="M318.2,387.1L318,387v-26.7h3.8v-16.8h-14.2v16.8h3.8v27.1l-33.9,10.8v2.7c0,1.7,1.4,3.1,3.1,3.1
		s3.1-1.4,3.1-3.1v-0.4l28.3-3.3v4.1c0,1.5,1.2,2.7,2.7,2.7s2.7-1.2,2.7-2.7v-4.2l29.5,3.4v0.4c0,1.7,1.4,3.1,3.1,3.1
		s3.1-1.4,3.1-3.1v-2.7L318.2,387.1z"/>
	<path class="st8" d="M274.4,327h84.2c2.1,0,3.9,1.7,3.9,3.9v11.8c0,2.1-1.7,3.9-3.9,3.9h-84.2c-2.1,0-3.9-1.7-3.9-3.9v-11.8
		C270.5,328.8,272.3,327,274.4,327z"/>
	<path class="st8" d="M27.2,200.8l28.5,0.2c0,0,1.9-0.2,2.4,1.2c0,0,5,12.5,5.2,17s-1,3.8,1,9.7c1.9,5.9,7.3,19.8,10.4,31.1
		c4.1,15.2,5.2,31.4,5.5,47.1c0,2.5,1.6,24.3-2.4,24.3c-3.2,0-33.3,4-33.7-1.8c-1.4-23.1,2.7-45.6-5.3-68.1
		c-3.1-8.7-6.7-17.9-9.3-27s-3.1-18.6-4.9-27.9C23.5,200.1,27.2,200.8,27.2,200.8z"/>
	<path class="st0" d="M24.5,203.7c0.3-3.3,2.8-2.8,2.8-2.8l28.5,0.2c0,0,1.9-0.2,2.4,1.2c0,0,5,12.5,5.2,17c0.1,1.2,0,2.4-0.1,3.6
		l-0.6,1c0,0-1,8.3-12.3,8.7c-11.3,0.5-17.7-4.7-20.1-9.7c-2.4-5-3.3-13-5.2-17.7C24.9,204.6,24.7,204.1,24.5,203.7z"/>
	<path class="st0" d="M31.1,212.9c1.9,6.9,0.8,8.8,2.7,20.7c1.9,11.9,8.8,25.2,11.5,37.5s1.6,55.5,1.1,57.4c-0.1,1-0.2,2-0.2,3.1
		c-1.3-0.5-2.1-1.1-2.1-2c-1.4-23.1,2.7-45.6-5.3-68.1c-3.1-8.7-6.7-17.9-9.3-27s-3.1-18.6-4.9-27.9c-0.7-3.9,0.4-5.2,1.4-5.5l0,0
		C28.2,204.7,29.9,208.7,31.1,212.9z"/>
	<path class="st8" d="M86.2,387.1l0.2-0.2v-26.7h-3.9v-16.8h14.2v16.8h-3.8v27.1l33.9,10.8v2.7c0,1.7-1.4,3.1-3.1,3.1
		s-3.1-1.4-3.1-3.1v-0.4l-28.2-3.3v4.1c-0.1,1.5-1.4,2.6-2.8,2.5s-2.4-1.2-2.5-2.5V397l-29.6,3.4v0.4c0.1,1.7-1.2,3.1-2.9,3.2
		c-1.7,0.1-3.1-1.2-3.2-2.9c0-0.1,0-0.2,0-0.3v-2.7L86.2,387.1z"/>
	<path class="st8" d="M130,346.6H45.8c-2.1,0-3.9-1.7-3.9-3.9v-11.8c0-2.1,1.7-3.9,3.9-3.9H130c2.1,0,3.9,1.7,3.9,3.9v11.8
		C133.8,344.8,132.1,346.6,130,346.6z"/>
	<rect x="111.2" y="272.2" class="st2" width="230.5" height="132.5"/>
	<rect x="111.3" y="275.3" class="st8" width="230.2" height="3.7"/>
	<rect x="106.1" y="270" class="st2" width="237.3" height="5.8"/>
</g>
<g id="freepik--Characters--inject-2">
	<path class="st3" d="M172.6,258.5c0,0,2.7,12.1,2.6,15.5c-0.2,3.4-6.5,12.5-6.7,10.4c0.1-1.8,0.4-3.5,1.1-5.1c0,0-2.2,3-3,2.9
		s0.6-4.3,0.6-4.3s-2.4,2.4-3.2,1.9s1.8-4,1.8-4s-2.9,3-3,2.1c-0.1-1,2.6-4.9,2.6-4.9s-2.7-5.8-2.9-8.1c0-1.7,0.6-3.3,1.6-4.6
		L172.6,258.5z"/>
	<g>
		<g>
			<defs>
				<path id="SVGID_00000087374757041411358910000008467558924670951843_" d="M172.6,258.5c0,0,2.7,12.1,2.6,15.5
					c-0.2,3.4-6.5,12.5-6.7,10.4c0.1-1.8,0.4-3.5,1.1-5.1c0,0-2.2,3-3,2.9s0.6-4.3,0.6-4.3s-2.4,2.4-3.2,1.9s1.8-4,1.8-4
					s-2.9,3-3,2.1c-0.1-1,2.6-4.9,2.6-4.9s-2.7-5.8-2.9-8.1c0-1.7,0.6-3.3,1.6-4.6L172.6,258.5z"/>
			</defs>
			<clipPath id="SVGID_00000003100068733877702010000016881678439914219177_">
				<use xlink:href="#SVGID_00000087374757041411358910000008467558924670951843_"  style="overflow:visible;"/>
			</clipPath>
			<g style="clip-path:url(#SVGID_00000003100068733877702010000016881678439914219177_);">
				<path class="st10" d="M172.6,258.5c0,0,2.7,12.1,2.6,15.5c-0.2,3.4-6.5,12.5-6.7,10.4c0.1-1.8,0.4-3.5,1.1-5.1c0,0-2.2,3-3,2.9
					s0.6-4.3,0.6-4.3s-2.4,2.4-3.2,1.9s1.8-4,1.8-4s-2.9,3-3,2.1c-0.1-1,2.6-4.9,2.6-4.9s-2.7-5.8-2.9-8.1c0-1.7,0.6-3.3,1.6-4.6
					L172.6,258.5z"/>
			</g>
		</g>
	</g>
	<path class="st11" d="M172.6,258.5c0,0,2.7,12.1,2.6,15.5c-0.2,3.4-6.5,12.5-6.7,10.4c0.1-1.8,0.4-3.5,1.1-5.1c0,0-2.2,3-3,2.9
		s0.6-4.3,0.6-4.3s-2.4,2.4-3.2,1.9s1.8-4,1.8-4s-2.9,3-3,2.1c-0.1-1,2.6-4.9,2.6-4.9s-2.7-5.8-2.9-8.1c0-1.7,0.6-3.3,1.6-4.6
		L172.6,258.5z"/>
	<path class="st3" d="M171.9,258.5c0,0,1.9,8.5,1.8,10.9c-0.2,2.4-2.6,9.4-4.3,8.1c-1.8-1.3,1.1-6.1,1.1-6.1s-4.9-3.5-6.1-6.7
		s-0.5-4.6-0.5-4.6L171.9,258.5z"/>
	<g>
		<g>
			<defs>
				<path id="SVGID_00000138559313205134174780000011107199764447356086_" d="M171.9,258.5c0,0,1.9,8.5,1.8,10.9
					c-0.2,2.4-2.6,9.4-4.3,8.1c-1.8-1.3,1.1-6.1,1.1-6.1s-4.9-3.5-6.1-6.7s-0.5-4.6-0.5-4.6L171.9,258.5z"/>
			</defs>
			<clipPath id="SVGID_00000043446854003685142470000007863285010686065041_">
				<use xlink:href="#SVGID_00000138559313205134174780000011107199764447356086_"  style="overflow:visible;"/>
			</clipPath>
			<g style="clip-path:url(#SVGID_00000043446854003685142470000007863285010686065041_);">
				<path class="st10" d="M171.9,258.5c0,0,1.9,8.5,1.8,10.9c-0.2,2.4-2.6,9.4-4.3,8.1c-1.8-1.3,1.1-6.1,1.1-6.1s-4.9-3.5-6.1-6.7
					s-0.5-4.6-0.5-4.6L171.9,258.5z"/>
			</g>
		</g>
	</g>
	<path class="st11" d="M171.9,258.5c0,0,1.9,8.5,1.8,10.9c-0.2,2.4-2.6,9.4-4.3,8.1c-1.8-1.3,1.1-6.1,1.1-6.1s-4.9-3.5-6.1-6.7
		s-0.5-4.6-0.5-4.6L171.9,258.5z"/>
	<polygon class="st13" points="166.1,218.8 172.9,259.3 163.3,261.5 153.7,230.2 	"/>
	<path class="st13" d="M163.3,238.6c0,0,0.6,48.2,1.5,61.2s-2.5,30.3-5.6,35.3c-3.1,4.9-16.7,35.9-16.1,37.7s3.4,7.4,3.4,9v6.5
		c0,0,15.5,10.2,16.7,10.2s2.8,2.5-0.3,4.3s-37.7,1.9-39.3,0.6c-1-0.9-1.8-2.1-2.2-3.4c0,0-4.9,1.9-4.6-2.8s5.9-24.4,5.9-24.4
		s-3.4-21.7-2.2-35.6s5.6-30.6,5.6-34s-4.3-26-4.9-29.7c-0.6-3.7-9.6-14.2-5.6-22.6s7.1-21.7,8.4-22.6c1.2-0.9,17.9-1.6,24.7,0
		C155.6,229.9,163,229.9,163.3,238.6z"/>
	<path class="st8" d="M132.6,141.4c0,0-5.3,4.7-6.2,6.4c-0.9,1.6-12,17.5-12.2,28.8s8.2,45.5,8.2,45.5l-12.6,32.1l3.6,1.5l3.6-4v6
		c0,0,4.2,3.8,15.1,7.5s24.9-0.5,24.9-0.5l4.2-26.6v26.3l4.9-3.3l0.4-43.7c0,0,4-23.5,4-30.1s-11.1-27.2-16-33.1
		c-4.9-6-13.1-10.9-15.5-12.7C136.7,139.3,132.6,141.4,132.6,141.4z"/>
	<g>
		<g>
			<defs>
				<path id="SVGID_00000002357661183426927000000002502823540745943711_" d="M132.6,141.4c0,0-5.3,4.7-6.2,6.4
					c-0.9,1.6-12,17.5-12.2,28.8s8.2,45.5,8.2,45.5l-12.6,32.1l3.6,1.5l3.6-4v6c0,0,4.2,3.8,15.1,7.5s24.9-0.5,24.9-0.5l4.2-26.6
					v26.3l4.9-3.3l0.4-43.7c0,0,4-23.5,4-30.1s-11.1-27.2-16-33.1c-4.9-6-13.1-10.9-15.5-12.7C136.7,139.3,132.6,141.4,132.6,141.4z
					"/>
			</defs>
			<clipPath id="SVGID_00000063594966251778355200000005970661205335549612_">
				<use xlink:href="#SVGID_00000002357661183426927000000002502823540745943711_"  style="overflow:visible;"/>
			</clipPath>
			<g style="clip-path:url(#SVGID_00000063594966251778355200000005970661205335549612_);">
				<path class="st15" d="M132.6,141.4c0,0-5.3,4.7-6.2,6.4c-0.9,1.6-12,17.5-12.2,28.8s8.2,45.5,8.2,45.5l-12.6,32.1l3.6,1.5l3.6-4
					v6c0,0,4.2,3.8,15.1,7.5s24.9-0.5,24.9-0.5l4.2-26.6v26.3l4.9-3.3l0.4-43.7c0,0,4-23.5,4-30.1s-11.1-27.2-16-33.1
					c-4.9-6-13.1-10.9-15.5-12.7C136.7,139.3,132.6,141.4,132.6,141.4z"/>
				<path class="st11" d="M117.1,180.1c0,0,6.6,4.7,11,6.3"/>
				<path class="st11" d="M119,185.1c0,0,7.4,1.9,11.3,1.9"/>
				<polyline class="st11" points="129.8,229.2 150.7,231.6 149.3,236 130,233.8 				"/>
			</g>
		</g>
	</g>
	<path class="st11" d="M132.6,141.4c0,0-5.3,4.7-6.2,6.4c-0.9,1.6-12,17.5-12.2,28.8s8.2,45.5,8.2,45.5l-12.6,32.1l3.6,1.5l3.6-4v6
		c0,0,4.2,3.8,15.1,7.5s24.9-0.5,24.9-0.5l4.2-26.6v26.3l4.9-3.3l0.4-43.7c0,0,4-23.5,4-30.1s-11.1-27.2-16-33.1
		c-4.9-6-13.1-10.9-15.5-12.7C136.7,139.3,132.6,141.4,132.6,141.4z"/>
	<path class="st16" d="M131.6,142.4l20.2,21.9l11.8,22.6c0,0-2.6-16.8-4.7-21.3c-2.2-4.6-12-16-13.1-18.5
		C144.6,144.5,131.6,142.4,131.6,142.4z"/>
	<path class="st16" d="M152.6,150.7l1,1.2l3.3,3.9l1.9,9.9l-8.4-8.4C150.5,157.2,151.6,152.1,152.6,150.7z"/>
	<path class="st3" d="M162.1,110c0,0,4.4,3.4,5,6.7s-1.1,6.9-0.9,8.2c0.2,1.3,3.5,4.2,3.3,5.6c-0.2,1.5-2.9,2-2.9,2
		s-3,10.8-3.7,12.6s-4.4,1.3-7.1,0.9l-4.9,14.6l-16.2-19.1l2.6-7.7c0,0-6.9-8.4-7.5-17.3c-0.6-8.9,6.6-15.1,16.8-16.4
		s18.8,3.6,19.8,5.6C167.4,107.9,162.1,110,162.1,110z"/>
	<g>
		<g>
			<defs>
				<path id="SVGID_00000118398895087655936240000005897816031864294020_" d="M162.1,110c0,0,4.4,3.4,5,6.7s-1.1,6.9-0.9,8.2
					c0.2,1.3,3.5,4.2,3.3,5.6c-0.2,1.5-2.9,2-2.9,2s-3,10.8-3.7,12.6s-4.4,1.3-7.1,0.9l-4.9,14.6l-16.2-19.1l2.6-7.7
					c0,0-6.9-8.4-7.5-17.3c-0.6-8.9,6.6-15.1,16.8-16.4s18.8,3.6,19.8,5.6C167.4,107.9,162.1,110,162.1,110z"/>
			</defs>
			<clipPath id="SVGID_00000109734986587016149170000002000705640079586216_">
				<use xlink:href="#SVGID_00000118398895087655936240000005897816031864294020_"  style="overflow:visible;"/>
			</clipPath>
			<g style="clip-path:url(#SVGID_00000109734986587016149170000002000705640079586216_);">
				<path class="st10" d="M162.1,110c0,0,4.4,3.4,5,6.7s-1.1,6.9-0.9,8.2c0.2,1.3,3.5,4.2,3.3,5.6c-0.2,1.5-2.9,2-2.9,2
					s-3,10.8-3.7,12.6s-4.4,1.3-7.1,0.9l-4.9,14.6l-16.2-19.1l2.6-7.7c0,0-6.9-8.4-7.5-17.3c-0.6-8.9,6.6-15.1,16.8-16.4
					s18.8,3.6,19.8,5.6C167.4,107.9,162.1,110,162.1,110z"/>
				<path class="st18" d="M143.2,151.7c2.7-0.6,7.3-1.5,11.5-2.4l1.1-3.2c2.3,0.3,5.2,0.7,6.5-0.2c-3.1-1.3-10.8-3.5-12.4-6.4
					c-1.9-3.6,4.9-14,4.9-19.2s-6.5-11.1-6.5-11.1c-3.1-3-8.8-3.9-13.9-3.9c-3.2,2.8-5,7-4.6,11.3c0.6,8.9,7.5,17.3,7.5,17.3
					l-2.6,7.7L143.2,151.7z"/>
			</g>
		</g>
	</g>
	<path class="st11" d="M162.1,110c0,0,4.4,3.4,5,6.7s-1.1,6.9-0.9,8.2c0.2,1.3,3.5,4.2,3.3,5.6c-0.2,1.5-2.9,2-2.9,2
		s-3,10.8-3.7,12.6s-4.4,1.3-7.1,0.9l-4.9,14.6l-16.2-19.1l2.6-7.7c0,0-6.9-8.4-7.5-17.3c-0.6-8.9,6.6-15.1,16.8-16.4
		s18.8,3.6,19.8,5.6C167.4,107.9,162.1,110,162.1,110z"/>
	<path class="st13" d="M162.1,110c0,0,5.3-2.2,4.2-4.2s-9.7-6.9-19.8-5.6c-10.2,1.3-17.3,7.5-16.8,16.4s7.5,17.3,7.5,17.3l-0.4,1.2
		c3.8,1.8,7.7-1.2,7.7-1.2c-1.5,0.7-3.2,0.4-4.4-0.7c-2.2-2-2.4-8.4,0.4-8.9s4.5,0.6,4.5,2.6s0.5,0.7,2,0.5s0.2-4.5,1.1-5.3
		c1.5-0.9,2.8-2.1,3.8-3.5c1.6-2.2-3.1-4-3.6-6C147.8,110.6,162.1,110,162.1,110z"/>
	<polyline class="st11" points="163.4,124.3 160.1,125.4 163.1,125.4 	"/>
	<path class="st11" d="M164.7,120.9c0,0-1.4-2.1-3.1-1.1c-1.6,1-1.8,1.6-1.8,1.6"/>
	<path class="st11" d="M161.3,135.5c1,0.7,2.2,1,3.4,0.8"/>
	<polygon class="st16" points="133.9,138.1 154.3,158.1 152.5,166.7 130.8,143.4 	"/>
	<path class="st16" d="M212.2,214.7c0,0-7.2-4.3-8.3-3.9c-1.2,0.4-12.4,8.5-11.6,10.5c0.8,1.9,6.8,4.5,10.3,5.8
		c3.5,1.4,10.7-1.6,10.7-1.6L212.2,214.7z"/>
	<path class="st3" d="M191.3,213.1c0,0,6.2-3.5,7.2-3.5s6.6,5,6.6,5l-2.3,3.5c0,0,7.4,3.7,6.6,5s-3.7,3.5-6.8,3.9
		s-11.8-5.2-11.8-5.2L191.3,213.1z"/>
	<g>
		<g>
			<defs>
				<path id="SVGID_00000069399296176043144130000002977439612917263503_" d="M191.3,213.1c0,0,6.2-3.5,7.2-3.5s6.6,5,6.6,5
					l-2.3,3.5c0,0,7.4,3.7,6.6,5s-3.7,3.5-6.8,3.9s-11.8-5.2-11.8-5.2L191.3,213.1z"/>
			</defs>
			<clipPath id="SVGID_00000137848066445945199920000007066926502936957086_">
				<use xlink:href="#SVGID_00000069399296176043144130000002977439612917263503_"  style="overflow:visible;"/>
			</clipPath>
			<g style="clip-path:url(#SVGID_00000137848066445945199920000007066926502936957086_);">
				<path class="st10" d="M191.3,213.1c0,0,6.2-3.5,7.2-3.5s6.6,5,6.6,5l-2.3,3.5c0,0,7.4,3.7,6.6,5s-3.7,3.5-6.8,3.9
					s-11.8-5.2-11.8-5.2L191.3,213.1z"/>
			</g>
		</g>
	</g>
	<path class="st11" d="M191.3,213.1c0,0,6.2-3.5,7.2-3.5s6.6,5,6.6,5l-2.3,3.5c0,0,7.4,3.7,6.6,5s-3.7,3.5-6.8,3.9
		s-11.8-5.2-11.8-5.2L191.3,213.1z"/>
	<polygon class="st16" points="187,211.6 192.5,212.5 190.7,221.8 186.1,220.3 	"/>
	<path class="st8" d="M124,157.4c0,0-5.2,10.1-5.8,15.1s20.8,45.2,22.3,46.6c1.6,1.4,46.9,2.7,46.9,2.7l1.9-9.9l-38.8-11.1
		l-13.2-40.5"/>
	<g>
		<g>
			<defs>
				<path id="SVGID_00000026885930208430633930000014278944113890951350_" d="M124,157.4c0,0-5.2,10.1-5.8,15.1s20.8,45.2,22.3,46.6
					c1.6,1.4,46.9,2.7,46.9,2.7l1.9-9.9l-38.8-11.1l-13.2-40.5"/>
			</defs>
			<clipPath id="SVGID_00000150064438355383515070000017887777572594781374_">
				<use xlink:href="#SVGID_00000026885930208430633930000014278944113890951350_"  style="overflow:visible;"/>
			</clipPath>
			<g style="clip-path:url(#SVGID_00000150064438355383515070000017887777572594781374_);">
				<path class="st15" d="M124,157.4c0,0-5.2,10.1-5.8,15.1s20.8,45.2,22.3,46.6c1.6,1.4,46.9,2.7,46.9,2.7l1.9-9.9l-38.8-11.1
					l-13.2-40.5"/>
			</g>
		</g>
	</g>
	<path class="st11" d="M124,157.4c0,0-5.2,10.1-5.8,15.1s20.8,45.2,22.3,46.6c1.6,1.4,46.9,2.7,46.9,2.7l1.9-9.9l-38.8-11.1
		l-13.2-40.5"/>
	<path class="st16" d="M205.5,211.8c0,0-2.7-2.3-3.7,0.4s-7,9.3-4.3,9.5s7.8-5.4,7.8-5.4"/>
	<path class="st16" d="M193.4,222.6c0,0-0.7,3.3,1,4.7c1.2,1,1.8-1.7,1.6-3.7C195.7,221.7,194,221.1,193.4,222.6z"/>
	<path class="st16" d="M196.2,223.4c0,0-0.7,3.3,1,4.7c1.2,1,1.8-1.7,1.6-3.7C198.4,222.4,196.7,221.8,196.2,223.4z"/>
	<path class="st16" d="M198.9,224.6c0,0-0.7,3.3,1,4.7c1.2,1,1.8-1.7,1.6-3.7C201.1,223.6,199.4,223,198.9,224.6z"/>
	<path class="st16" d="M201.5,226.1c0,0-0.6,2.2,0.9,3.1c1.1,0.7,1.7-1.2,1.4-2.5S202.1,225.1,201.5,226.1z"/>
	<polygon class="st11" points="212.2,214.7 212.8,227.1 217.1,225.9 216.1,214.5 	"/>
	<polygon class="st13" points="215.2,213.5 217.1,228.2 249.5,224.8 250.3,205.6 	"/>
	<path class="st21" d="M158.4,272.3c0,0-5.9,39.3-5.9,52.6c0,13.3-9,35.6-9.3,47.9"/>
	<path class="st16" d="M123.7,403.4c1.5,1.2,36.2,1.2,39.3-0.6c3.1-1.9,1.5-4.3,0.3-4.3s-16.7-10.2-16.7-10.2s-8.4,6.5-13,8
		s-12.1,1.9-12.1,1.9v1.9C122,401.3,122.7,402.4,123.7,403.4z"/>
	<path class="st16" d="M163,402.8c1.6-1,1.9-2.1,1.7-3c-4.5,0.9-9.2,1.4-13.8,1.4c-9.3,0.3-24-0.3-29.1-0.5c0.4,1,1.1,2,1.9,2.7
		C125.3,404.6,159.9,404.6,163,402.8z"/>
	<path class="st13" d="M120.7,400.2l0.9-2.1l1.2-25.3c0,0-5.6,19.8-5.9,24.4C116.7,400.6,119.3,400.5,120.7,400.2z"/>
	<path class="st13" d="M254.2,264.5c0,0-3.1,46.1,0,64.6s10.9,50.7,12.1,54.7c0.8,2.4,1.1,4.9,1,7.4l17.3,2.5c0,0-5.3-60.9-5.3-68
		s5.9-60.3,5.9-60.3L254.2,264.5z"/>
	<path class="st13" d="M267.2,391.3c0,0-18.9,8-21,9.6s4.6,3.7,13,3.7c8.3,0,16.7-1,16.7-1l3.4-1.9l0.3,2.2h9c0,0,1.6-7.4,1-9.3
		c-0.4-1.3-1-2.5-1.5-3.7L267.2,391.3z"/>
	<path class="st13" d="M251.4,260.8c0,0,1.6,44.2,5.3,60c3.7,15.8,10.2,54.1,10.2,58.1c0,2.3-0.3,4.6-0.9,6.8l-1.2,4
		c0.2,1,0.5,1.9,1,2.8c0,0,8,1.9,13.3,1.9c3.3,0,6.6-0.5,9.7-1.5c0,0,0.2-9.7,0.5-14.3s-1.2-34.3-1.2-41.4s-1.9-11.1-1.9-19.8
		s-1.5-31.8-1.2-35.6c0.3-3.7,4.6-7.8,5.6-12.4c0.9-4.6,1.9-9.6,1.9-9.6L251.4,260.8z"/>
	<path class="st21" d="M255.1,307.3c0,0,8.6,60,10.8,63.7c1.3,2.4,1.6,5.2,1,7.9"/>
	<path class="st13" d="M244,225.9c0,0-1.2,11.8-1.2,20.9c0,5,0,11.6-0.1,16.4c0,4.1,2.8,7.6,6.8,8.4c2,0.4,4.1,0.7,6.2,0.7l-7.3-45
		C248.4,227.3,245.2,221.7,244,225.9z"/>
	<path class="st13" d="M278.3,145.3c1.8,0.9,3.4,2.1,4.8,3.6c1.2,1.6,2.3,3.4,3.3,5.2c0,0,13.1,15.2,13.5,16.7
		c0.3,1.5-7.4,50.2-7.4,50.2l8.8,46.1c0,0-14.2,7.9-25,8.4c-7.6,0.3-19.1-2.1-25.2-3.6c-2.5-0.6-4.4-2.7-4.6-5.3
		c-0.6-6.5-1.7-19.4-2.4-31.6c-0.8-14.2,1.4-42.4,2.9-52.3c1.5-9.9,6.3-23.3,10-28.9S270.9,142.4,278.3,145.3z"/>
	<path class="st8" d="M286.4,154.1c-0.9-1.8-2-3.5-3.2-5.1c-1.4-1.4-3-2.6-4.8-3.6c-6.2-2.4-14.2,1.1-18.9,5.6
		c-0.6,1.4-5.5,12.5-7.8,21.7c-2.5,9.7-2.2,22-2.2,22s8.2-10.5,19.3-22.9c5.6-6.2,11.6-11.9,18.1-17L286.4,154.1z"/>
	<g>
		<g>
			<defs>
				<path id="SVGID_00000034068841131500355480000001389602263180038052_" d="M286.4,154.1c-0.9-1.8-2-3.5-3.2-5.1
					c-1.4-1.4-3-2.6-4.8-3.6c-6.2-2.4-14.2,1.1-18.9,5.6c-0.6,1.4-5.5,12.5-7.8,21.7c-2.5,9.7-2.2,22-2.2,22s8.2-10.5,19.3-22.9
					c5.6-6.2,11.6-11.9,18.1-17L286.4,154.1z"/>
			</defs>
			<clipPath id="SVGID_00000002364862456330518100000009066207545244025732_">
				<use xlink:href="#SVGID_00000034068841131500355480000001389602263180038052_"  style="overflow:visible;"/>
			</clipPath>
			<g style="clip-path:url(#SVGID_00000002364862456330518100000009066207545244025732_);">
				<path class="st15" d="M286.4,154.1c-0.9-1.8-2-3.5-3.2-5.1c-1.4-1.4-3-2.6-4.8-3.6c-6.2-2.4-14.2,1.1-18.9,5.6
					c-0.6,1.4-5.5,12.5-7.8,21.7c-2.5,9.7-2.2,22-2.2,22s8.2-10.5,19.3-22.9c5.6-6.2,11.6-11.9,18.1-17L286.4,154.1z"/>
			</g>
		</g>
	</g>
	<path class="st11" d="M286.4,154.1c-0.9-1.8-2-3.5-3.2-5.1c-1.4-1.4-3-2.6-4.8-3.6c-6.2-2.4-14.2,1.1-18.9,5.6
		c-0.6,1.4-5.5,12.5-7.8,21.7c-2.5,9.7-2.2,22-2.2,22s8.2-10.5,19.3-22.9c5.6-6.2,11.6-11.9,18.1-17L286.4,154.1z"/>
	<path class="st16" d="M258.4,158.1c0,0-4.2,13.1-5.5,16.8s-1.4,9.5-1.4,9.5S267.2,161,271,157c3.8-3.9,8.8-10.1,8.8-10.1l-3.4-1
		L258.4,158.1z"/>
	<path class="st16" d="M259.5,153.3c0,0-1.9,5.5-1.9,5.8c0,0.4-0.5,5.6-0.5,5.6l6.6-8.9L259.5,153.3z"/>
	<polygon class="st16" points="276.3,142.4 258.3,157.1 261,165.3 279.6,146.4 	"/>
	<path class="st16" d="M274,259.2c0,0-2.6,6.4-3.3,8.5s-0.4,10.3-0.3,11.2c0.1,0.9,1.6,1,1.6,1s0.5,6.6,1,6.8
		c0.6,0.1,1.2,0.2,1.8,0.3c0,0,1,3.3,2.4,3.1c0.8-0.3,1.4-1,1.5-1.8c0.9,0.1,1.8-0.3,2.3-1c0.5-0.8,1-1.7,1.3-2.6c0,0,2.3-1.1,2.5-2
		s0.8-3.9,0.8-3.9s0.7-0.2,0.7-2.2s-1.5-14.3-1.5-14.3L274,259.2z"/>
	<line class="st11" x1="272" y1="279.9" x2="272.3" y2="274.1"/>
	<line class="st11" x1="274.9" y1="287" x2="275.5" y2="278.4"/>
	<line class="st11" x1="278.8" y1="288.2" x2="279.2" y2="278.9"/>
	<line class="st11" x1="282.4" y1="284.6" x2="283" y2="278.1"/>
	<path class="st13" d="M292.9,166.5l7,4.2l-2.3,48.1l-12.4,45.4l-11.7-3.1l3.7-35.9l-1.9-36.2c0,0,2.6-8.4,8.7-13.1"/>
	<path class="st21" d="M278.5,174.7c0,0-3.2,8-3.3,14.5"/>
	<path class="st21" d="M281.2,178.5c0,0-5.4,8.8-5.4,12.8s1.4,37.3,1.4,37.3l-3.7,28.8"/>
	<path class="st3" d="M247.6,113c0,0-3.7,10.6-3.4,12.1c0.3,1.5,0.7,3.8,0.7,3.8s-5.8,7.2-5.1,8c0.7,0.8,3.9,1.7,3.9,1.7
		s2.7,11.1,3.7,12.2c1,1,7.5-1.3,7.5-1.3l7,8.8l14.3-13.7l-1.7-7.2c0,0,7.5-13.2,7.4-19.5s-13-14.6-22.1-14.5
		c-9.2,0.1-17.7,3.5-16,5.9C244.8,110.8,246.1,112,247.6,113z"/>
	<g>
		<g>
			<defs>
				<path id="SVGID_00000159468609737584980190000014551023921708659615_" d="M247.6,113c0,0-3.7,10.6-3.4,12.1
					c0.3,1.5,0.7,3.8,0.7,3.8s-5.8,7.2-5.1,8c0.7,0.8,3.9,1.7,3.9,1.7s2.7,11.1,3.7,12.2c1,1,7.5-1.3,7.5-1.3l7,8.8l14.3-13.7
					l-1.7-7.2c0,0,7.5-13.2,7.4-19.5s-13-14.6-22.1-14.5c-9.2,0.1-17.7,3.5-16,5.9C244.8,110.8,246.1,112,247.6,113z"/>
			</defs>
			<clipPath id="SVGID_00000177445764047113874990000016748902800185972125_">
				<use xlink:href="#SVGID_00000159468609737584980190000014551023921708659615_"  style="overflow:visible;"/>
			</clipPath>
			<g style="clip-path:url(#SVGID_00000177445764047113874990000016748902800185972125_);">
				<path class="st18" d="M277.4,110.7c-1.8,0.3-3.5,0.7-5.1,1.5l-13.7,5.5c0,0-6.5,5.5-5.8,9.8s6.5,10.1,5.2,14.3s-9.4,8.8-9.4,8.8
					l2.6,0.1c1.9-0.5,3.9-1.2,3.9-1.2l1.1,1.3l13.2,0.5l7-6.7l-1.7-7.2c0,0,7.5-13.2,7.4-19.5C281.9,115.6,280.1,113,277.4,110.7z"
					/>
			</g>
		</g>
	</g>
	<path class="st11" d="M247.6,113c0,0-3.7,10.6-3.4,12.1c0.3,1.5,0.7,3.8,0.7,3.8s-5.8,7.2-5.1,8c0.7,0.8,3.9,1.7,3.9,1.7
		s2.7,11.1,3.7,12.2c1,1,7.5-1.3,7.5-1.3l7,8.8l14.3-13.7l-1.7-7.2c0,0,7.5-13.2,7.4-19.5s-13-14.6-22.1-14.5
		c-9.2,0.1-17.7,3.5-16,5.9C244.8,110.8,246.1,112,247.6,113z"/>
	<path class="st13" d="M274.5,137.4c0,0,7.5-13.2,7.4-19.5s-13-14.6-22.1-14.5c-9.2,0.1-17.7,3.5-16,5.9c1,1.4,2.3,2.7,3.8,3.6
		c0,0,5.7,2.7,5.7,3.4s-3.4,4.4-2.2,6c1.2,1.6,6.7,3.6,6.7,3.6s-1,3.1,0.5,3.5s2.1-1,3-1.9s4.2-2.2,4.6,1.7c0.3,2.8-0.5,5.7-2.1,8
		c-0.5,0.3,5.9,4.6,8.7,3.4c0.7-0.3,1.6-0.8,2.4-1.2L274.5,137.4z"/>
	<ellipse class="st11" cx="246.7" cy="128.6" rx="0.8" ry="3.1"/>
	<line class="st11" x1="247.6" y1="127.3" x2="261.3" y2="127.5"/>
	<path class="st11" d="M245.3,123.6c0,0,1.3-2.1,2.6,0.5"/>
	<path class="st11" d="M245.1,140.5c1.4-0.6,2.7-1.4,3.9-2.3"/>
</g>
<g id="freepik--Floor--inject-2">
	<line class="st24" x1="32.5" y1="404.6" x2="414.3" y2="404.6"/>
</g>
</svg>
