<?xml version="1.0" encoding="utf-8"?>
<!-- Generator: Adobe Illustrator 25.4.1, SVG Export Plug-In . SVG Version: 6.00 Build 0)  -->
<svg version="1.1" id="Layer_1" xmlns="http://www.w3.org/2000/svg" xmlns:xlink="http://www.w3.org/1999/xlink" x="0px" y="0px"
	 viewBox="0 0 500 500" style="enable-background:new 0 0 500 500;" xml:space="preserve">
<style type="text/css">
	.st0{fill:#92E3A9;}
	.st1{opacity:0.7;fill:#FFFFFF;enable-background:new    ;}
	.st2{fill:none;stroke:#263238;stroke-width:2;stroke-linecap:round;stroke-linejoin:round;}
	.st3{opacity:0.3;fill:#263238;enable-background:new    ;}
	.st4{fill:none;stroke:#263238;stroke-linecap:round;stroke-linejoin:round;}
	.st5{opacity:0.2;fill:#263238;enable-background:new    ;}
	.st6{opacity:0.2;enable-background:new    ;}
	.st7{fill:#FFFFFF;stroke:#263238;stroke-linecap:round;stroke-linejoin:round;}
	.st8{fill:#D1D1D1;stroke:#263238;stroke-linecap:round;stroke-linejoin:round;}
	.st9{fill:none;stroke:#263238;stroke-miterlimit:10;}
	.st10{fill:none;stroke:#263238;stroke-width:0.5;stroke-linecap:round;stroke-linejoin:round;}
	.st11{fill:#D1D1D1;stroke:#263238;stroke-width:0.5;stroke-linecap:round;stroke-linejoin:round;}
	.st12{fill:#263238;}
	.st13{fill:none;stroke:#263238;stroke-width:0.5;stroke-miterlimit:10;}
	.st14{fill:#92E3A9;stroke:#263238;stroke-linecap:round;stroke-linejoin:round;}
	.st15{fill:#ECBCB4;stroke:#263238;stroke-linecap:round;stroke-linejoin:round;}
	.st16{fill:#263238;stroke:#263238;stroke-linecap:round;stroke-linejoin:round;}
	.st17{fill:#CCCCCC;stroke:#263238;stroke-linecap:round;stroke-linejoin:round;}
	.st18{fill:#A6A6A6;stroke:#263238;stroke-linecap:round;stroke-linejoin:round;}
</style>
<g id="freepik--background-simple--inject-9">
	<path class="st0" d="M455.1,405.1c23-32.3,29.6-77.1,25.9-115.1c-1.9-18.8-5.6-38.6-16.7-54.4c-16.2-23-42.9-35.1-63.3-53.6
		c-30-27.3-42.7-67.2-68.2-98C299.5,43.9,247,38.8,197.9,41.2C161,43,101.7,43.7,93,90c-9,48,8,93-28,116s-55,71-44,112
		c9.3,34.6,53.8,40.7,63,76c11,42,75,98,137,94s98-45,124-43c30.1,2.3,62.2,2.2,87.6-16.6C441.3,421.9,448.9,414,455.1,405.1z"/>
	<path class="st1" d="M455.1,405.1c23-32.3,29.6-77.1,25.9-115.1c-1.9-18.8-5.6-38.6-16.7-54.4c-16.2-23-42.9-35.1-63.3-53.6
		c-30-27.3-42.7-67.2-68.2-98C299.5,43.9,247,38.8,197.9,41.2C161,43,101.7,43.7,93,90c-9,48,8,93-28,116s-55,71-44,112
		c9.3,34.6,53.8,40.7,63,76c11,42,75,98,137,94s98-45,124-43c30.1,2.3,62.2,2.2,87.6-16.6C441.3,421.9,448.9,414,455.1,405.1z"/>
</g>
<g id="freepik--Plant--inject-9">
	<path class="st2" d="M410.7,136.1c0,0-19.1-10.6-20.5,13.4s-5,180.3-5,180.3"/>
	<path class="st2" d="M380.3,151.6c0,0,15.6,34.6,8.5,176"/>
	<path class="st0" d="M395.6,140.9c0,0-7.3,4.7-11.5-0.7s2.8-15.2-3.3-19.4s-16.7,2.2-16.7,2.2s8.2,2.4,7.9,6.8s-4.2,6.1-4.7,4.2
		s-4.4-11.8-11-7.7c-3.9,2.3-6.6,6-7.6,10.4c0,0,15.4-1.6,16.4,4.2s-6.3-1-12.7-1.4s-12.2,0.6-11.8,4.4s-0.6,10.2-0.6,10.2
		s5.4-4.8,12.4-4.4s6.7,4.9,0.4,4.5s-11.8,5.7-11.8,5.7s5.8,9.9,13.2,14.8s10,3.1,10.9-0.6s-1.1-13.5,3.3-13.2s-7.4,16.8-1.7,17.8
		s10.2-0.7,11.8-4.4l1.5-3.7c0,0-2-9.7-1.1-13.5s1.9,0.1,2.9,4.6s1.6,15.4,3.6,14.9s8.2-8.5,9.6-11.6s-8.2-12.6-8.1-14.5
		s7.6,1.7,8.7,3.7c0.8,1.5,1.6,3,2.3,4.6c0,0,4.6-2.9,4.5-11.9S395.6,140.9,395.6,140.9z"/>
	<path class="st3" d="M395.6,140.9c0,0-7.3,4.7-11.5-0.7s2.8-15.2-3.3-19.4s-16.7,2.2-16.7,2.2s8.2,2.4,7.9,6.8s-4.2,6.1-4.7,4.2
		s-4.4-11.8-11-7.7c-3.9,2.3-6.6,6-7.6,10.4c0,0,15.4-1.6,16.4,4.2s-6.3-1-12.7-1.4s-12.2,0.6-11.8,4.4s-0.6,10.2-0.6,10.2
		s5.4-4.8,12.4-4.4s6.7,4.9,0.4,4.5s-11.8,5.7-11.8,5.7s5.8,9.9,13.2,14.8s10,3.1,10.9-0.6s-1.1-13.5,3.3-13.2s-7.4,16.8-1.7,17.8
		s10.2-0.7,11.8-4.4l1.5-3.7c0,0-2-9.7-1.1-13.5s1.9,0.1,2.9,4.6s1.6,15.4,3.6,14.9s8.2-8.5,9.6-11.6s-8.2-12.6-8.1-14.5
		s7.6,1.7,8.7,3.7c0.8,1.5,1.6,3,2.3,4.6c0,0,4.6-2.9,4.5-11.9S395.6,140.9,395.6,140.9z"/>
	<path class="st4" d="M358.6,161.9c4.8-5.9,11.8-13.9,17.7-17.6"/>
	<path class="st4" d="M353,169c0,0,1.2-1.7,3.2-4.2"/>
	<path class="st4" d="M379.3,145.7c0,0,7.1,10,8.4,20.3"/>
	<path class="st4" d="M371.3,151.6c0,0,2-1.2,1.2,11.6"/>
	<path class="st4" d="M376.5,139.8c0,0,4-3.6,1.9-10.8"/>
	<line class="st4" x1="371" y1="145.8" x2="368.1" y2="140.6"/>
	<path class="st4" d="M365,151.2c0,0-9.2-6.9-14.9-7.3"/>
	<path class="st0" d="M421.6,122c0,0-0.3,10.5-8.5,11s-13.3-13.2-21.6-9.9s-9.2,18.3-9.2,18.3s8-6.5,12.2-3.2s3.3,8.4,1,7.6
		s-14.8-3.6-15.2,5.8c-0.3,5.4,1.5,10.7,5.2,14.7c0,0,8.9-16.6,15.3-13.6s-5.3,5.6-10,11.8s-7.7,12.6-3.6,14.8s9.8,7.5,9.8,7.5
		s-1.1-8.7,4.1-15.4s9.5-3.4,4.8,2.7s-2.4,15.7-2.4,15.7s13.9,1,23.8-3.1s10-7.9,6.8-11.3s-14.3-8.1-11-12.4s11.8,18.9,16.6,13.8
		s6.3-10.7,3.6-14.8l-2.7-4c0,0-11.1-4.6-14.3-8.1s1.4-1.8,6.6,0.2s16.6,8.9,17.4,6.6s-2.9-13.9-5-17.5s-18.2-0.4-20.1-1.8
		s6.9-6.4,9.7-6.2c2.1,0.2,4.1,0.5,6.2,0.9c0,0,0.2-6.6-8.8-12.6S421.6,122,421.6,122z"/>
	<path class="st5" d="M421.6,122c0,0-0.3,10.5-8.5,11s-13.3-13.2-21.6-9.9s-9.2,18.3-9.2,18.3s8-6.5,12.2-3.2s3.3,8.4,1,7.6
		s-14.8-3.6-15.2,5.8c-0.3,5.4,1.5,10.7,5.2,14.7c0,0,8.9-16.6,15.3-13.6s-5.3,5.6-10,11.8s-7.7,12.6-3.6,14.8s9.8,7.5,9.8,7.5
		s-1.1-8.7,4.1-15.4s9.5-3.4,4.8,2.7s-2.4,15.7-2.4,15.7s13.9,1,23.8-3.1s10-7.9,6.8-11.3s-14.3-8.1-11-12.4s11.8,18.9,16.6,13.8
		s6.3-10.7,3.6-14.8l-2.7-4c0,0-11.1-4.6-14.3-8.1s1.4-1.8,6.6,0.2s16.6,8.9,17.4,6.6s-2.9-13.9-5-17.5s-18.2-0.4-20.1-1.8
		s6.9-6.4,9.7-6.2c2.1,0.2,4.1,0.5,6.2,0.9c0,0,0.2-6.6-8.8-12.6S421.6,122,421.6,122z"/>
	<path class="st4" d="M417.4,173.4c-2.6-8.8-5.8-21.2-5.6-29.7"/>
	<path class="st4" d="M420.8,183.8c0,0-0.9-2.4-2.1-6.1"/>
	<path class="st4" d="M415.3,141.6c0,0,14.8-0.3,26,5.4"/>
	<path class="st4" d="M415.8,153.6c0,0,0.2-2.8,12.4,6.6"/>
	<path class="st4" d="M407.5,140.4c0,0-0.8-6.5-9.5-9.2"/>
	<line class="st4" x1="409.8" y1="150" x2="402.5" y2="149.3"/>
	<path class="st4" d="M411.1,159.7c0,0-13.2,4.5-17.4,10"/>
	<path class="st2" d="M333.6,191.9c0,0,41.7,27.6,41,134.3"/>
	<path class="st0" d="M385.1,184.6c0,0-1.3,12.1-10.8,11.9s-14.1-16.4-24-13.4s-12.3,20.2-12.3,20.2s9.8-6.8,14.4-2.6s3,10,0.4,8.8
		s-16.7-5.6-18.1,5.3c-0.9,6.2,0.8,12.6,4.6,17.5c0,0,11.8-18.3,19-14.2s-6.7,6-12.7,12.6s-10.1,13.8-5.5,16.7s10.6,9.6,10.6,9.6
		s-0.5-10.1,6.1-17.4s11.2-3.1,5.2,3.6s-4.2,17.9-4.2,17.9s15.9,2.4,27.8-1.3s12.3-8.2,8.9-12.4s-15.7-10.6-11.5-15.3
		s11.8,22.9,17.9,17.5s8.3-11.8,5.5-16.7l-2.8-4.9c0,0-12.3-6.4-15.7-10.7s1.8-2,7.6,0.9s18.3,11.8,19.4,9.2s-2-16.4-4.1-20.7
		s-21-2.2-23-4s8.5-6.7,11.7-6.2c2.4,0.4,4.7,0.9,7,1.6c0,0,0.9-7.6-9-15.4S385.1,184.6,385.1,184.6z"/>
	<path class="st3" d="M385.1,184.6c0,0-1.3,12.1-10.8,11.9s-14.1-16.4-24-13.4s-12.3,20.2-12.3,20.2s9.8-6.8,14.4-2.6s3,10,0.4,8.8
		s-16.7-5.6-18.1,5.3c-0.9,6.2,0.8,12.6,4.6,17.5c0,0,11.8-18.3,19-14.2s-6.7,6-12.7,12.6s-10.1,13.8-5.5,16.7s10.6,9.6,10.6,9.6
		s-0.5-10.1,6.1-17.4s11.2-3.1,5.2,3.6s-4.2,17.9-4.2,17.9s15.9,2.4,27.8-1.3s12.3-8.2,8.9-12.4s-15.7-10.6-11.5-15.3
		s11.8,22.9,17.9,17.5s8.3-11.8,5.5-16.7l-2.8-4.9c0,0-12.3-6.4-15.7-10.7s1.8-2,7.6,0.9s18.3,11.8,19.4,9.2s-2-16.4-4.1-20.7
		s-21-2.2-23-4s8.5-6.7,11.7-6.2c2.4,0.4,4.7,0.9,7,1.6c0,0,0.9-7.6-9-15.4S385.1,184.6,385.1,184.6z"/>
	<path class="st4" d="M375.3,243.5c-2.2-10.4-4.7-25-3.7-34.8"/>
	<path class="st4" d="M378.3,255.8c0,0-0.8-2.8-1.8-7.2"/>
	<path class="st4" d="M376,206.6c0,0,17.1,1.1,29.5,8.7"/>
	<path class="st4" d="M375.4,220.5c0,0,0.5-3.2,13.7,8.8"/>
	<path class="st4" d="M367,204.5c0,0-0.4-7.6-10-11.6"/>
	<line class="st4" x1="368.8" y1="215.8" x2="360.5" y2="214.2"/>
	<path class="st4" d="M369.4,227.1c0,0-15.6,3.9-21.1,9.9"/>
	<path class="st2" d="M349.9,276c0,0,26.9,20.5,29.7,50.9l-5.7-101.8"/>
	<path class="st2" d="M383.8,326.2c0,0-20.5-149.1,38.9-149.1"/>
	<path class="st0" d="M459.4,204.9c-6.6-3.9-13.8-4-17.4-8.1s3.4-6.2,7.2-4.6s12.4,6,14,7s0.5-13.2-2.5-18.6s-11.4-8.5-15.5-4.1
		c-8.8,9.2-22.5-2.9-21.5-10.1s-5.8-15-20.2-10.4s-9.1,7.1-9.1,7.1s10.3,6.3,16.8,10.2s17.5,7.2,15.1,10.1s-8.6,1.1-13.9-3.1
		s-20.4-14.3-21.9-10.6s-7,14-7,14c6.7,1,13.3,2.5,19.8,4.4c8.8,2.8,10.6,7.6,3.7,8s-19.3-4.8-23.2,1.8s-1.2,23.4-1.2,23.4
		s12.6-8.5,19-8.5s2.3,3.6-4.9,8.2c-3.1,1.9-6.1,4-9,6.2l6.5,16.8c0,0,10.8-1.4,15-1.1l4.3,0.3c0,0,0-17.5,5-22.7s5.9,6.8,7,9.9
		s-2.1,12.3-2.1,12.3s12.5-6.8,16.5-9.5l4-2.7c0,0-4.7-12.7-7.8-16.4s-7.5-3.1-3.8-6.3s9.1-1.5,12.2,3s6.8,13.2,6.8,13.2
		s4.6,0.8,10.7-6.1S466,208.8,459.4,204.9z M402.3,224.2c-4.8-2.4,6.7-7.2,6.7-7.2C413.2,216.4,407.1,226.6,402.3,224.2z
		 M410.4,201.7c-2.1-1,4.1-3.1,4.1-3.1C423.5,200.3,412.5,202.7,410.4,201.7z"/>
	<path class="st4" d="M402.2,236.5c-1.2,1.3-2.5,2.6-3.9,3.9"/>
	<path class="st4" d="M427,199c-4.6,9.6-11.6,22.2-20.8,33.1"/>
	<path class="st4" d="M429.2,194.1c2.9-6.5,4.4-10.7,4.4-10.7s5.4,2.5,10.6,1.2c3.1-0.8,6.3-0.9,9.4-0.2"/>
	<path class="st4" d="M423.9,192.6c1.4-1.2-19.7-11.7-19.7-11.7"/>
	<path class="st4" d="M435,198.9c0,0,10,4.1,15.5,10.5"/>
	<path class="st4" d="M421.7,205.7c-5.3-0.9-10.8-1.3-16.2-1.1c-5.4,0.1-10.8,1-16,2.7"/>
	<path class="st4" d="M424.2,212.3c0,0,11,7.2,10.8,16.2"/>
	<path class="st0" d="M344.1,188.9c0,0-6.6,4.8-10.9,0s1.8-14.5-4.2-18.1s-15.7,3-15.7,3s7.8,1.8,7.8,6s-3.6,6-4.2,4.2
		s-4.8-10.9-10.9-6.6c-3.5,2.4-5.9,6.1-6.6,10.3c0,0,14.5-2.4,15.7,3s-6-0.6-12.1-0.6s-11.5,1.2-10.9,4.8c0.3,3.2,0.3,6.4,0,9.6
		c0,0,4.8-4.8,11.5-4.8s6.6,4.2,0.6,4.2s-10.9,6-10.9,6s6,9.1,13.3,13.3s9.6,2.4,10.3-1.2s-1.8-12.7,2.4-12.7s-6,16.3-0.6,16.9
		s9.6-1.2,10.9-4.8l1.2-3.6c0,0-2.4-9-1.8-12.7s1.8,0,3,4.2s2.4,14.5,4.2,13.9s7.2-8.4,8.5-11.5s-8.5-11.5-8.5-13.3s7.2,1.2,8.5,3
		c0.9,1.4,1.7,2.8,2.4,4.2c0,0,4.2-3,3.6-11.5S344.1,188.9,344.1,188.9z"/>
	<path class="st4" d="M310.3,210.8c4.2-5.8,10.4-13.7,15.7-17.7"/>
	<path class="st4" d="M305.5,217.9c0,0,1.1-1.7,2.8-4.2"/>
	<path class="st4" d="M329,194.3c0,0,7.2,9.1,9,18.7"/>
	<path class="st4" d="M321.8,200.4c0,0,1.8-1.2,1.8,10.9"/>
	<path class="st4" d="M326,188.9c0,0,3.6-3.6,1.2-10.3"/>
	<line class="st4" x1="321.1" y1="194.9" x2="318.1" y2="190.1"/>
	<path class="st4" d="M315.7,200.4c0,0-9-6-14.5-6"/>
	<path class="st2" d="M350.3,264.9c0,0,19.1-10.6,20.5,13.4c0.9,14.9,2.6,80.2,3.7,127.9"/>
	<path class="st2" d="M380.7,280.5c0,0-11.7,26.2-10.2,125.8"/>
	<path class="st0" d="M365.4,269.7c0,0,7.3,4.7,11.5-0.7s-2.8-15.2,3.3-19.4s16.7,2.2,16.7,2.2s-8.2,2.4-7.9,6.9
		c0.3,4.5,4.2,6.1,4.7,4.2s4.4-11.8,11-7.7c3.9,2.3,6.6,6,7.6,10.4c0,0-15.4-1.6-16.4,4.2s6.3-1,12.7-1.4s12.2,0.6,11.8,4.4
		s0.6,10.2,0.6,10.2s-5.4-4.8-12.4-4.4s-6.7,4.9-0.4,4.5s11.8,5.7,11.8,5.7s-5.8,9.9-13.2,14.8s-10,3.1-10.9-0.6s1.1-13.5-3.3-13.2
		s7.4,16.8,1.7,17.8s-10.3-0.7-11.8-4.4l-1.5-3.8c0,0,2-9.7,1.1-13.5s-1.9,0.1-2.9,4.6s-1.6,15.4-3.6,14.9s-8.2-8.5-9.6-11.6
		s8.2-12.6,8.1-14.5s-7.6,1.7-8.7,3.7c-0.8,1.5-1.6,3-2.3,4.6c0,0-4.6-2.9-4.5-11.9S365.4,269.7,365.4,269.7z"/>
	<path class="st3" d="M365.4,269.7c0,0,7.3,4.7,11.5-0.7s-2.8-15.2,3.3-19.4s16.7,2.2,16.7,2.2s-8.2,2.4-7.9,6.9
		c0.3,4.5,4.2,6.1,4.7,4.2s4.4-11.8,11-7.7c3.9,2.3,6.6,6,7.6,10.4c0,0-15.4-1.6-16.4,4.2s6.3-1,12.7-1.4s12.2,0.6,11.8,4.4
		s0.6,10.2,0.6,10.2s-5.4-4.8-12.4-4.4s-6.7,4.9-0.4,4.5s11.8,5.7,11.8,5.7s-5.8,9.9-13.2,14.8s-10,3.1-10.9-0.6s1.1-13.5-3.3-13.2
		s7.4,16.8,1.7,17.8s-10.3-0.7-11.8-4.4l-1.5-3.8c0,0,2-9.7,1.1-13.5s-1.9,0.1-2.9,4.6s-1.6,15.4-3.6,14.9s-8.2-8.5-9.6-11.6
		s8.2-12.6,8.1-14.5s-7.6,1.7-8.7,3.7c-0.8,1.5-1.6,3-2.3,4.6c0,0-4.6-2.9-4.5-11.9S365.4,269.7,365.4,269.7z"/>
	<path class="st4" d="M402.4,290.7c-4.8-5.9-11.8-13.9-17.6-17.6"/>
	<path class="st4" d="M408,297.9c0,0-1.2-1.7-3.2-4.2"/>
	<path class="st4" d="M381.7,274.5c0,0-7.1,10-8.4,20.3"/>
	<path class="st4" d="M389.7,280.4c0,0-2-1.2-1.2,11.6"/>
	<path class="st4" d="M384.5,268.6c0,0-4-3.6-1.9-10.7"/>
	<line class="st4" x1="390" y1="274.7" x2="392.9" y2="269.4"/>
	<path class="st4" d="M396,280.1c0,0,9.2-6.9,14.9-7.3"/>
	<path class="st0" d="M339.4,250.9c0,0,0.3,10.5,8.5,11s13.3-13.1,21.6-9.9s9.2,18.3,9.2,18.3s-8-6.5-12.2-3.2s-3.3,8.4-1,7.6
		s14.8-3.6,15.2,5.8c0.3,5.4-1.5,10.7-5.2,14.7c0,0-8.9-16.6-15.3-13.5s5.3,5.6,10,11.8s7.8,12.6,3.6,14.8s-9.8,7.5-9.8,7.5
		s1.1-8.7-4.1-15.4s-9.5-3.4-4.8,2.7s2.4,15.7,2.4,15.7s-13.9,1-23.8-3.1s-10-7.9-6.8-11.3s14.2-8.1,11-12.4s-11.8,18.8-16.6,13.8
		s-6.3-10.7-3.6-14.8l2.7-4c0,0,11.1-4.6,14.3-8.1s-1.4-1.8-6.6,0.2s-16.6,8.9-17.4,6.6s2.9-13.9,5-17.5s18.2-0.4,20-1.8
		s-6.9-6.4-9.6-6.2c-2.1,0.2-4.1,0.5-6.2,0.9c0,0-0.2-6.6,8.8-12.6S339.4,250.9,339.4,250.9z"/>
	<path class="st5" d="M339.4,250.9c0,0,0.3,10.5,8.5,11s13.3-13.1,21.6-9.9s9.2,18.3,9.2,18.3s-8-6.5-12.2-3.2s-3.3,8.4-1,7.6
		s14.8-3.6,15.2,5.8c0.3,5.4-1.5,10.7-5.2,14.7c0,0-8.9-16.6-15.3-13.5s5.3,5.6,10,11.8s7.8,12.6,3.6,14.8s-9.8,7.5-9.8,7.5
		s1.1-8.7-4.1-15.4s-9.5-3.4-4.8,2.7s2.4,15.7,2.4,15.7s-13.9,1-23.8-3.1s-10-7.9-6.8-11.3s14.2-8.1,11-12.4s-11.8,18.8-16.6,13.8
		s-6.3-10.7-3.6-14.8l2.7-4c0,0,11.1-4.6,14.3-8.1s-1.4-1.8-6.6,0.2s-16.6,8.9-17.4,6.6s2.9-13.9,5-17.5s18.2-0.4,20-1.8
		s-6.9-6.4-9.6-6.2c-2.1,0.2-4.1,0.5-6.2,0.9c0,0-0.2-6.6,8.8-12.6S339.4,250.9,339.4,250.9z"/>
	<path class="st4" d="M343.6,302.2c2.6-8.8,5.8-21.2,5.6-29.7"/>
	<path class="st4" d="M340.2,312.6c0,0,0.9-2.4,2.1-6.1"/>
	<path class="st4" d="M345.7,270.4c0,0-14.8-0.3-26,5.4"/>
	<path class="st4" d="M345.2,282.5c0,0-0.2-2.8-12.4,6.6"/>
	<path class="st4" d="M353.5,269.2c0,0,0.8-6.5,9.5-9.2"/>
	<line class="st4" x1="351.2" y1="278.8" x2="358.5" y2="278.1"/>
	<path class="st4" d="M349.9,288.6c0,0,13.2,4.5,17.4,10"/>
	<path class="st2" d="M427.4,320.8c0,0-28.4,18.8-37.9,85.2"/>
	<path class="st0" d="M375.9,313.5c0,0,1.3,12.1,10.8,11.9s14.1-16.4,24-13.4s12.3,20.2,12.3,20.2s-9.8-6.8-14.4-2.6s-3,10-0.4,8.8
		s16.7-5.5,18.1,5.3c0.9,6.2-0.8,12.5-4.6,17.5c0,0-11.8-18.3-18.9-14.2s6.7,6,12.7,12.6s10.1,13.8,5.5,16.7s-10.6,9.7-10.6,9.7
		s0.5-10.1-6.1-17.4s-11.2-3.1-5.2,3.5s4.2,17.9,4.2,17.9s-15.9,2.4-27.8-1.3s-12.3-8.2-8.9-12.4s15.7-10.6,11.5-15.3
		s-11.8,22.9-17.9,17.5s-8.3-11.8-5.5-16.7l2.8-4.9c0,0,12.3-6.4,15.7-10.6s-1.8-2-7.6,0.9s-18.3,11.8-19.4,9.2s2-16.4,4.1-20.7
		s21-2.2,23-4s-8.5-6.7-11.7-6.2c-2.4,0.4-4.7,0.9-7,1.6c0,0-0.9-7.6,9-15.4S375.9,313.5,375.9,313.5z"/>
	<path class="st3" d="M375.9,313.5c0,0,1.3,12.1,10.8,11.9s14.1-16.4,24-13.4s12.3,20.2,12.3,20.2s-9.8-6.8-14.4-2.6s-3,10-0.4,8.8
		s16.7-5.5,18.1,5.3c0.9,6.2-0.8,12.5-4.6,17.5c0,0-11.8-18.3-18.9-14.2s6.7,6,12.7,12.6s10.1,13.8,5.5,16.7s-10.6,9.7-10.6,9.7
		s0.5-10.1-6.1-17.4s-11.2-3.1-5.2,3.5s4.2,17.9,4.2,17.9s-15.9,2.4-27.8-1.3s-12.3-8.2-8.9-12.4s15.7-10.6,11.5-15.3
		s-11.8,22.9-17.9,17.5s-8.3-11.8-5.5-16.7l2.8-4.9c0,0,12.3-6.4,15.7-10.6s-1.8-2-7.6,0.9s-18.3,11.8-19.4,9.2s2-16.4,4.1-20.7
		s21-2.2,23-4s-8.5-6.7-11.7-6.2c-2.4,0.4-4.7,0.9-7,1.6c0,0-0.9-7.6,9-15.4S375.9,313.5,375.9,313.5z"/>
	<path class="st4" d="M385.6,372.3c2.2-10.4,4.7-25,3.7-34.8"/>
	<path class="st4" d="M382.7,384.7c0,0,0.8-2.8,1.8-7.2"/>
	<path class="st4" d="M385,335.4c0,0-17.1,1.1-29.5,8.7"/>
	<path class="st4" d="M385.6,349.4c0,0-0.5-3.2-13.7,8.9"/>
	<path class="st4" d="M394,333.3c0,0,0.4-7.6,10-11.5"/>
	<line class="st4" x1="392.2" y1="344.6" x2="400.5" y2="343.1"/>
	<path class="st4" d="M391.6,356c0,0,15.6,3.9,21,9.9"/>
	<line class="st2" x1="384.2" y1="405.7" x2="387.1" y2="354"/>
	<path class="st2" d="M380.5,406.2c0.6-43.5-5.6-100.3-42.3-100.3"/>
	<path class="st0" d="M301.6,333.8c6.6-3.9,13.8-4,17.4-8.1s-3.4-6.2-7.2-4.6s-12.4,6-14.1,7s-0.5-13.2,2.5-18.6s11.4-8.5,15.5-4.1
		c8.8,9.2,22.5-2.9,21.5-10.1s5.8-15,20.2-10.4s9,7.1,9,7.1s-10.2,6.3-16.8,10.2s-17.5,7.2-15.1,10s8.6,1.1,13.9-3.1
		s20.4-14.3,21.9-10.5s7,14,7,14c-6.7,1-13.3,2.5-19.8,4.4c-8.8,2.8-10.6,7.6-3.7,8s19.4-4.8,23.2,1.8s1.2,23.4,1.2,23.4
		s-12.6-8.5-19-8.5s-2.3,3.6,4.9,8.2c3.1,1.9,6.1,4,9,6.2l-6.5,16.7c0,0-10.8-1.4-15-1.1l-4.3,0.3c0,0,0-17.5-5-22.8s-5.9,6.8-7,9.9
		s2.1,12.2,2.1,12.2s-12.5-6.8-16.5-9.5l-4-2.7c0,0,4.7-12.7,7.8-16.4s7.5-3.1,3.8-6.3s-9.1-1.5-12.2,3s-6.8,13.3-6.8,13.3
		s-4.6,0.8-10.7-6.1S295,337.6,301.6,333.8z M358.7,353.1c4.8-2.4-6.6-7.2-6.6-7.2C347.8,345.2,353.9,355.5,358.7,353.1L358.7,353.1
		z M350.5,330.6c2.1-1-4.1-3.1-4.1-3.1C337.5,329.2,348.5,331.6,350.5,330.6L350.5,330.6z"/>
	<path class="st4" d="M358.8,365.4c1.3,1.3,2.6,2.6,3.9,3.9"/>
	<path class="st4" d="M334,327.8c4.6,9.6,11.6,22.2,20.8,33.1"/>
	<path class="st4" d="M331.8,323c-2.9-6.5-4.4-10.7-4.4-10.7s-5.4,2.5-10.6,1.2c-3.1-0.8-6.3-0.9-9.4-0.2"/>
	<path class="st4" d="M337.1,321.4c-1.4-1.2,19.7-11.7,19.7-11.7"/>
	<path class="st4" d="M326,327.8c0,0-10,4.1-15.5,10.5"/>
	<path class="st4" d="M339.3,334.5c5.3-0.9,10.8-1.3,16.2-1.1c5.4,0.1,10.8,1,16,2.7"/>
	<path class="st4" d="M336.7,341.1c0,0-11,7.2-10.8,16.2"/>
	<path class="st0" d="M416.9,317.7c0,0,6.6,4.8,10.9,0s-1.8-14.5,4.2-18.1s15.7,3,15.7,3s-7.9,1.8-7.9,6s3.6,6,4.2,4.2
		s4.8-10.9,10.9-6.6c3.5,2.4,5.9,6.1,6.6,10.3c0,0-14.5-2.4-15.7,3s6-0.6,12.1-0.6s11.5,1.2,10.9,4.8c-0.3,3.2-0.3,6.4,0,9.7
		c0,0-4.8-4.8-11.5-4.8s-6.6,4.2-0.6,4.2s10.9,6,10.9,6s-6,9-13.3,13.3s-9.7,2.4-10.3-1.2s1.8-12.7-2.4-12.7s6,16.3,0.6,16.9
		s-9.7-1.2-10.9-4.8l-1.2-3.6c0,0,2.4-9,1.8-12.6s-1.8,0-3,4.2s-2.4,14.5-4.2,13.9s-7.2-8.5-8.4-11.5s8.4-11.5,8.4-13.3
		s-7.2,1.2-8.4,3c-0.9,1.4-1.7,2.8-2.4,4.2c0,0-4.2-3-3.6-11.5S416.9,317.7,416.9,317.7z"/>
	<path class="st4" d="M450.7,339.6c-4.2-5.8-10.4-13.8-15.7-17.7"/>
	<path class="st4" d="M455.5,346.7c0,0-1.1-1.7-2.8-4.2"/>
	<path class="st4" d="M432,323.2c0,0-7.2,9-9.1,18.7"/>
	<path class="st4" d="M439.2,329.2c0,0-1.8-1.2-1.8,10.9"/>
	<path class="st4" d="M435,317.7c0,0-3.6-3.6-1.2-10.3"/>
	<line class="st4" x1="439.8" y1="323.8" x2="442.9" y2="318.9"/>
	<path class="st4" d="M445.3,329.2c0,0,9.1-6,14.5-6"/>
</g>
<g id="freepik--Form--inject-9">
	<rect x="58" y="34.8" class="st6" width="222" height="292.3"/>
	<rect x="51" y="26.8" class="st7" width="222" height="292.3"/>
	<polyline class="st4" points="214.6,114.6 63,114.6 63,80.5 259.7,80.5 259.7,114.6 218.3,114.6 	"/>
	<polyline class="st4" points="75.3,154.9 63,154.9 63,137.3 170.4,137.3 	"/>
	<polyline class="st4" points="175,137.3 259.7,137.3 259.7,154.9 78.6,154.9 	"/>
	<polyline class="st4" points="228.9,190.5 63,190.5 63,172.9 259.7,172.9 259.7,190.5 232.6,190.5 	"/>
	<polyline class="st4" points="113.9,297 63,297 63,207.4 259.7,207.4 259.7,297 118.8,297 	"/>
	<rect x="63" y="207.4" class="st8" width="196.7" height="15.7"/>
	<polyline class="st4" points="156.5,115.2 156.5,137.3 63,137.3 63,114.6 	"/>
	<rect x="63" y="92.6" class="st8" width="196.7" height="9.9"/>
	<line class="st4" x1="194.4" y1="81.4" x2="194.4" y2="92.7"/>
	<rect x="206.3" y="83.3" class="st8" width="13.4" height="6.6"/>
	<line class="st4" x1="163.1" y1="102.8" x2="163.1" y2="114.7"/>
	<line class="st4" x1="204.2" y1="102.8" x2="204.2" y2="114.7"/>
	<line class="st4" x1="99.2" y1="137.3" x2="99.2" y2="114.8"/>
	<line class="st4" x1="122.1" y1="137.3" x2="122.1" y2="114.8"/>
	<line class="st4" x1="147.1" y1="137.4" x2="147.1" y2="154.6"/>
	<line class="st4" x1="194" y1="137.2" x2="194" y2="190.2"/>
	<polyline class="st4" points="63,154.9 63,172.9 194,172.9 	"/>
	<line class="st4" x1="112.3" y1="155" x2="112.3" y2="172.4"/>
	<line class="st4" x1="248.2" y1="237.6" x2="259.8" y2="237.6"/>
	<line class="st4" x1="63.3" y1="237.6" x2="243.9" y2="237.6"/>
	<line class="st4" x1="63.3" y1="251.8" x2="259.8" y2="251.8"/>
	<line class="st4" x1="123.8" y1="265.9" x2="259.8" y2="265.9"/>
	<line class="st4" x1="63.3" y1="265.9" x2="118.8" y2="265.9"/>
	<rect x="94.1" y="241.5" class="st8" width="6.7" height="6.6"/>
	<rect x="132.2" y="241.5" class="st8" width="6.6" height="6.6"/>
	<rect x="105.8" y="255.1" class="st8" width="6.7" height="6.6"/>
	<rect x="142.3" y="255.1" class="st8" width="6.6" height="6.6"/>
	<rect x="177.2" y="255.1" class="st8" width="6.6" height="6.6"/>
	<rect x="212.6" y="255.1" class="st8" width="6.6" height="6.6"/>
	<line class="st4" x1="102.8" y1="251.9" x2="102.8" y2="266"/>
	<line class="st4" x1="138.4" y1="251.9" x2="138.4" y2="266"/>
	<line class="st4" x1="174.1" y1="251.9" x2="174.1" y2="266"/>
	<line class="st4" x1="209.8" y1="251.9" x2="209.8" y2="266"/>
	<line class="st4" x1="63.3" y1="280.3" x2="259.8" y2="280.3"/>
	<rect x="81.4" y="269.5" class="st8" width="6.7" height="6.6"/>
	<rect x="142.3" y="269.5" class="st8" width="6.6" height="6.6"/>
	<rect x="177.2" y="269.5" class="st8" width="6.6" height="6.6"/>
	<rect x="222.1" y="269.5" class="st8" width="6.6" height="6.6"/>
	<line class="st4" x1="78.4" y1="266.3" x2="78.4" y2="280.2"/>
	<line class="st4" x1="138.4" y1="266.3" x2="138.4" y2="280.2"/>
	<line class="st4" x1="174.1" y1="266.3" x2="174.1" y2="280.2"/>
	<line class="st4" x1="219.3" y1="266.3" x2="219.3" y2="280.2"/>
	<line class="st9" x1="122.8" y1="74.8" x2="144.5" y2="74.8"/>
	<line class="st9" x1="63.7" y1="74.8" x2="119.2" y2="74.8"/>
	<line class="st9" x1="161.6" y1="74.8" x2="209.3" y2="74.8"/>
	<line class="st9" x1="222.3" y1="74.8" x2="260" y2="74.8"/>
</g>
<g id="freepik--Character--inject-9">
	<polygon class="st7" points="230.9,412.5 305.2,409.5 345.7,458.8 245.6,467.5 	"/>
	<polygon class="st10" points="245.9,446.5 326.2,440.9 331.5,447.5 248.2,453.9 	"/>
	<polygon class="st10" points="243.5,438.5 320.4,433.6 322.9,436.7 244.6,441.9 	"/>
	<polygon class="st10" points="241.6,432 315.7,427.7 318,430.6 242.5,435.1 	"/>
	<polygon class="st10" points="236.6,415.4 303.6,412.5 313.6,425.1 240.7,429.1 	"/>
	<polygon class="st11" points="239.9,426.5 311.8,422.7 313.6,425.1 240.7,429.1 	"/>
	<polyline class="st10" points="289.3,443.3 286.9,439.1 322.9,436.7 326.2,440.9 	"/>
	<polygon class="st11" points="246.7,449 328,443.2 329.5,445.1 247.4,451.2 	"/>
	<line class="st10" x1="277.1" y1="451.5" x2="275.9" y2="449"/>
	<polygon class="st11" points="265.3,450.5 271.1,450 271.7,451.4 265.8,451.9 	"/>
	<line class="st10" x1="288" y1="446" x2="286.7" y2="443.6"/>
	<line class="st10" x1="270.8" y1="447.2" x2="269.7" y2="444.8"/>
	<line class="st10" x1="309.2" y1="437.6" x2="312.2" y2="441.8"/>
	<line class="st10" x1="300.4" y1="438.2" x2="303.2" y2="442.5"/>
	<line class="st10" x1="290.7" y1="438.8" x2="288.8" y2="435.7"/>
	<line class="st10" x1="271.9" y1="440.1" x2="267.4" y2="430.6"/>
	<polyline class="st10" points="320.4,433.6 318,430.6 268.8,433.5 	"/>
	<line class="st10" x1="302" y1="434.8" x2="300" y2="431.8"/>
	<line class="st10" x1="310" y1="420.6" x2="239.2" y2="424.2"/>
	<line class="st10" x1="308.4" y1="418.6" x2="238.5" y2="422"/>
	<line class="st10" x1="306.8" y1="416.6" x2="237.9" y2="419.9"/>
	<polygon class="st11" points="296,419.7 298.3,419.6 299,420.5 296.7,420.7 	"/>
	<polygon class="st11" points="282.8,420.4 285.1,420.2 285.7,421.2 283.4,421.3 	"/>
	<polygon class="st11" points="290.7,418 292.9,417.9 293.6,418.8 291.3,418.9 	"/>
	<polygon class="st11" points="278.1,418.6 280.4,418.5 281,419.4 278.6,419.5 	"/>
	<polygon class="st11" points="265.8,419.1 268.1,419 268.6,420 266.3,420.1 	"/>
	<polygon class="st11" points="253,419.8 255.4,419.6 255.9,420.6 253.4,420.8 	"/>
	<line class="st10" x1="295" y1="419.2" x2="293.6" y2="417.2"/>
	<line class="st10" x1="282.6" y1="419.8" x2="281.4" y2="417.8"/>
	<line class="st10" x1="270" y1="420.4" x2="268.9" y2="418.4"/>
	<line class="st10" x1="257.1" y1="421.1" x2="256.2" y2="419"/>
	<line class="st10" x1="305.3" y1="414.7" x2="237.2" y2="417.8"/>
	<polygon class="st11" points="297.5,415.6 299.7,415.5 300.4,416.4 298.2,416.5 	"/>
	<polygon class="st11" points="276.9,416.5 279.2,416.4 279.7,417.4 277.4,417.5 	"/>
	<polygon class="st11" points="264.8,417.1 267.1,417 267.6,417.9 265.2,418 	"/>
	<polygon class="st11" points="248.8,417.8 251.1,417.7 251.5,418.7 249.1,418.8 	"/>
	<line class="st10" x1="301.7" y1="416.8" x2="300.3" y2="414.9"/>
	<line class="st10" x1="281.4" y1="417.8" x2="280.2" y2="415.8"/>
	<line class="st10" x1="268.9" y1="418.3" x2="267.9" y2="416.4"/>
	<line class="st10" x1="252.7" y1="419.1" x2="251.9" y2="417.1"/>
	<path class="st12" d="M303.3,456.6l-0.3-0.5l2.4-0.2l-1.4-2.3l1.1-0.1l3.4,5.4l-4.1,0.4l-0.3-0.6l3-0.2l-1.2-2L303.3,456.6z"/>
	<path class="st12" d="M302.7,458c0.5,0.9,0,1.5-1.6,1.6s-2.7-0.4-3.2-1.2l-1.6-2.8c-0.5-0.8,0-1.4,1.6-1.5s2.6,0.3,3.1,1.1
		L302.7,458z M299.9,455.2c-0.4-0.5-1-0.8-1.7-0.7c-0.8,0.1-1,0.4-0.8,0.9l1.6,2.9c0.4,0.6,1,0.8,1.7,0.7c0.8-0.1,1.1-0.4,0.8-0.9
		L299.9,455.2z"/>
	<path class="st12" d="M295.2,460c-1.7,0.1-2.6-0.3-3-1.1l-0.2-0.5c-0.3-0.6-0.1-1,0.7-1.2c-0.8,0-1.5-0.3-1.9-1l-0.5-0.8
		c-0.1-0.3-0.3-0.5-0.5-0.6l1.2-0.1c0.2,0.2,0.4,0.4,0.5,0.6l0.5,0.9c0.3,0.6,1,0.8,2,0.7l0.8-0.1l-1.3-2.3l1.1-0.1l3.1,5.5
		L295.2,460z M294,457.3c-0.9,0.1-1.4,0.3-1.1,0.9l0.3,0.5c0.3,0.5,0.8,0.7,1.6,0.7l1.1-0.1l-1.1-2.1L294,457.3z"/>
	<path class="st12" d="M284.8,455.1l1.1-0.1l4,4.2l-2.3-4.4l1-0.1l2.9,5.5l-1.7,0.1l-4-4.3l0.5,4.6l-1.7,0.1l-2.7-5.6l1.1-0.1
		l2.2,4.5L284.8,455.1z"/>
	<line class="st13" x1="332.1" y1="448.7" x2="299.1" y2="451.3"/>
	<line class="st13" x1="291.9" y1="451.8" x2="271.2" y2="453.4"/>
	<line class="st13" x1="265.5" y1="453.9" x2="248.4" y2="455.2"/>
	<path class="st14" d="M300,255.3c-7.1,2.1-14,4.8-20.7,8c-11,5.3-32.7,13.3-43,17.3S219.7,295,217.7,300S207,326.3,207,326.3
		S188.7,355,184,362s-11,16.7-11.3,25.7s4.7,14,16.3,14s16.7-4,22.3-10s24-35.3,26.7-38.7s10-16,10-16s3.7,33,3.7,43.3v24.3h105
		c0,0,5-36.7,6-39.7s8.7-24.7,8.7-24.7S399,385,403.6,391s17.8,18.6,30.7,13.6s10.3-18.9,3.3-35.6s-19.3-45-19.3-46.4
		s-5-21-25.3-36.3s-40.3-19-45-21.3S328.3,255.3,300,255.3z"/>
	<path class="st4" d="M234.7,315.3l13,20.3c0,0-10.7-11-17.3-12.7"/>
	<path class="st4" d="M247.7,335.7L240,333c0,0-7-4-12.7-2.3"/>
	<path class="st4" d="M287.5,287c0.8,5.5,2.5,12.3,6.5,17"/>
	<path class="st4" d="M287,278c0,0-0.1,1.9,0.1,4.8"/>
	<path class="st4" d="M290.6,308c0.9,1,1.9,1.9,3,2.7"/>
	<path class="st4" d="M281.3,293c1.8,4.9,4.5,9.5,7.9,13.5"/>
	<path class="st4" d="M347.2,367.5c-2.3,3.7-4.4,6.7-6.2,8.2"/>
	<path class="st4" d="M364,334.3c0,0-7.8,17.5-15,30"/>
	<path class="st4" d="M329.9,378.5c-1,1.2-1.8,2.2-2.2,2.9"/>
	<path class="st4" d="M342.7,363.3c0,0-6.1,7.1-10.7,12.7"/>
	<path class="st4" d="M371.3,340.3c0,0,14.7-23.3,15.3-25.3"/>
	<path class="st4" d="M382.5,331.3c4.4-3.5,10.9-8,17.5-9.3"/>
	<path class="st4" d="M377.3,336c0,0,1.2-1.2,3.2-3"/>
	<path class="st4" d="M395.7,318.3c-4.2,2.2-8.2,4.8-12,7.7"/>
	<path class="st4" d="M401.7,367.7c5.8-2.7,12.6-2.4,18,1"/>
	<path class="st4" d="M404.7,363.3c0,0,11.7-2.3,20.3,3"/>
	<path class="st4" d="M186,367.3c4.1-3.7,9.6-5.4,15-4.7"/>
	<path class="st4" d="M206.6,363.5c0.8,0.6,1.6,1.2,2.4,1.9"/>
	<path class="st4" d="M197.7,359.7c1.9,0.2,3.8,0.8,5.5,1.7"/>
	<path class="st15" d="M297.7,264c0,0-3,12.7-2,22s11.3,23.7,20,27s24.7-6.3,30.3-12s6-23.7,6-23.7s-8.6-18.7-27-24
		S297.7,264,297.7,264z"/>
	<path class="st15" d="M366.6,261.4c0,0,1.7,5.2-1.6,11.8s-9.8,12.2-11.6,11.6s5.4-24.4,5.4-24.4S363.6,257.7,366.6,261.4z"/>
	<path class="st15" d="M293.1,242.4c0,0-3.3,4.4-2.2,11.7c1.1,7.3,5.5,14.6,7.3,14.6s2.6-24.9,2.6-24.9S297.1,239.8,293.1,242.4z"/>
	<path class="st15" d="M298.5,251.9c0,0-2.6,22.3,0.4,31.5s8.8,23.4,17.9,27.1s30-12.1,33.3-18.3s12.4-32.6,12.4-32.6
		c4.9-6.5,6.1-15.1,3.3-22.7c-4.8-13.2-30.4-21.2-41-20.9s-21.2,9.1-22,16.1S298.5,251.9,298.5,251.9z"/>
	<path class="st2" d="M322.3,265.4c0,0-8-9.9-15.4-6.6"/>
	<path class="st2" d="M335.1,269.8c0,0,11-2.6,16.1,2.2"/>
	<path class="st4" d="M308.1,267.6c0,0,2.4,7,11.9,6.2"/>
	<path class="st4" d="M334.4,277.5c0,0,2.2,4.8,12.4,2.9"/>
	<path class="st4" d="M316.4,284.1c-0.3,1.5-0.1,3,0.6,4.4c1.2,1.8,4.2,4.4,6.4,4.4s6.8-0.8,8-2c0.8-0.8,1.4-1.7,2-2.6"/>
	<path class="st4" d="M311.4,290.7c0,0,5,5.8,9.1,7.1s11.9-1,14.1-1.8"/>
	<path class="st16" d="M383.9,226.7c-0.3-2.4,1.4-5.8,1.7-7.9s-2.4-5.8-4.8-8.9c-1.8-2.5-2.8-5.5-2.8-8.6c0-2.1-2.4-3.8-4.5-5.1
		c-2.5-1.7-4.8-3.6-6.9-5.8c-1.4-1.7-7.2-1.4-8.2-1.4s-5.5-3.8-8.2-5.1s-8.2,1-8.2,1s-6.5-3.1-7.9-3.1s-7.2,2.4-7.2,2.4
		c-1.9,0.8-3.9,1.5-6,1.9c-0.4-0.1-0.8-0.2-1.1-0.2c-0.8-1-7.6,3.1-7.6,3.1l-6.2,1l-2.3,3.7c-2.2,0.2-7.3,1.1-7.7,3.6
		c-0.5,3.2,0,4.6-1.4,6.4s-6.4,1.4-5,5.5s4.6,7.3,0.5,9.6s-6.4,6.4-4.1,8.7s4.1,5.5,3.7,7.3s-0.9,5.9,0.9,6.9c1.6,0.9,3.1,2,4.6,3.2
		l2.3,5l1.4,3.2c0,0,2.3-7.3,4.1-8.2s0,3.2,3.7,3.2s7.3-17.4,10-17.8s11,15.1,19.2,15.1s18.3-7.2,22.4-7.2s0.9,17.4,0.9,21
		s0.9,7.3,0.9,8.7s4.6-6.4,7.8-8.2c0.9-0.5,1.9-1.1,3-1.8c0,0.2,0,0.2,0,0.2s11.3-7.2,12.7-9.6s0.3-4.5,0.3-6.5s1.4-3.8,1.7-6.9
		S384.2,229.1,383.9,226.7z"/>
	<line class="st4" x1="467.6" y1="404.6" x2="27" y2="404.6"/>
	<path class="st15" d="M419.7,375.4c0,0-12.5-4.6-21.5-1s-30.1,12.1-44.4,14.8c-13.5,2.4-27.1,3.3-40.8,2.7
		c-12.1-0.5-18.9,1.4-21.5,3.6s-12.6,14.8-11.7,16.1s1.9,1.9,6.3,0.9c1.8-0.4,6.7-5.8,6.7-5.8l9-4c0,0-9.4,10.3-8.1,11.7
		s3.6-0.5,5.4-1.8s5.4-4.5,5.4-4.5l8.1-3.6c0,0-8.6,5.8-8.6,8.5s2.1,1.1,5.6-0.3c1.7-1.1,3.3-2.3,4.8-3.5l6.8-1.9
		c4.4,2.3,9.2,3.4,14.1,3.4c5.1,0,10.1-1.9,14-5.2c0,0,31.4,4.5,47.1,3.1s35.4,0.5,43.5-5.4s-2.2-21.1-3.1-22.4"/>
	<path class="st4" d="M281.9,412.9c0,0,1.7-4.8,3.3-6.9s9.4-7.1,12.1-8.6c1.1-0.6,2.2-1.2,3.3-1.7"/>
	<line class="st4" x1="301.8" y1="402.7" x2="309.6" y2="397.5"/>
	<line class="st4" x1="312.5" y1="404.5" x2="319.9" y2="400.8"/>
	<path class="st14" d="M419.7,375.4c-6.7-1.6-16.1-3.1-21.5-1c-8,3.2-25.5,10.3-39.4,13.7c2,2.2,3.1,5,3.2,7.9
		c0.2,3.7-0.3,7.3-1.5,10.8c10.6,1.2,26.2,2.6,35.8,1.7c15.7-1.4,35.4,0.5,43.5-5.4s-2.2-21.1-3.1-22.4"/>
	<path class="st14" d="M182.8,374.1c0.8-2.3,7-7.7,15.3-6.2s17.7,10.7,23.1,17.7s9.7,9,9.7,9l-6.3,19.4c0,0-3.9-0.9-11.2-2.8
		s-23.7-4.3-31.2-6.6s-10.7-10.4-9.1-18c0.8-4.2,2.3-8.3,4.2-12.1"/>
	<path class="st15" d="M221.2,385.6c-0.6-0.7-1.2-1.5-1.8-2.3c-4.7,1.9-10.6,5.3-13.8,11.4s-3.2,11.1-2.6,14.3
		c4,0.8,7.7,1.5,10.3,2.1c7.3,1.9,11.2,2.8,11.2,2.8l6.3-19.4C230.8,394.6,226.5,392.7,221.2,385.6z"/>
	<path class="st15" d="M218.6,404.5c-0.4,3-1.3,6.4,3,8.3s8.7,6.6,11.4,7.7c3.3,1.3,6.8,2.1,10.3,2.5c2.8,0.2,6.2,1.1,11.7-0.4
		s5.3-2.9,5.3-2.9s3.4,0.1,5.1-0.7s0.5-2.9-1.5-3.7s-4.5-1.9-4.5-1.9s3.1-2.9,2.3-3.6l-0.8-0.7c0,0,3.6,0.4,3.9-0.7
		s-1.9-6.2-2.8-10.4s-2.8-3.7-6.2-4.4s-8.1,0.2-14.4-1.1s-15.2,0.9-18.7,1.8"/>
	<path class="st12" d="M242.8,375.6l5.7,20l4.5,2.1l-6.7-23.2c-0.3-1-1.3-1.5-2.2-1.2c-0.1,0-0.1,0-0.2,0.1l0,0
		C243,373.8,242.5,374.8,242.8,375.6z"/>
	<path class="st15" d="M246,394.1c0,0,9.9,5.3,10.6,5.5c0.5,0.2,4.9,7.6,6.3,11.1c0.6,1.6-0.1,2.5-1.6,3.4l-2-0.8l-12.3-7.8
		l-4.5-2.1"/>
	<path class="st4" d="M239.1,411.4c0,0,9.6,5.7,11.7,6.8s9.4,1.5,9.4,1.5"/>
	<path class="st4" d="M235.5,417c0,0,8.1,4.5,9.7,5s5,1.5,5,1.5"/>
</g>
<g id="freepik--Device--inject-9">
	<polygon class="st17" points="172.8,454.2 209.8,420.2 128.4,415 	"/>
	<polygon class="st16" points="171.3,447.3 187.9,431.6 168.6,430.4 	"/>
	<polygon class="st18" points="58.1,358.8 179.9,364.2 172.8,454.2 50,448.2 	"/>
	<path class="st16" d="M50.5,442.2c7.2-1.1,19.3-3.9,39.9-10.5c48.9-15.8,55-60,89.4-67.5l-121.8-5.4L50.5,442.2z"/>
	<ellipse class="st7" cx="114.1" cy="404.4" rx="9.3" ry="7.2"/>
</g>
<g>
	<path d="M129,52.4v-0.6c0.3-0.4,0.6-0.7,0.7-1c-0.2-0.1-0.3-0.1-0.4-0.2s-0.1-0.2-0.1-0.4c0-0.2,0.1-0.5,0.3-0.8s0.4-0.6,0.7-0.9
		s0.5-0.5,0.7-0.5c0.1,0,0.2-0.1,0.2-0.1c0.1,0,0.2,0.1,0.2,0.2c0,0.1-0.1,0.3-0.3,0.6c1.2-0.2,2-0.3,2.3-0.3c0.1,0,0.2,0,0.3,0
		c0.1,0.1,0.2,0.2,0.2,0.4s0.1,0.4,0.1,0.6c0,0.1-0.1,0.3-0.2,0.4s-0.3,0.4-0.6,0.6c-0.3,0.3-0.6,0.7-0.8,1.1s-0.3,0.7-0.3,0.9
		c0,0.3,0.2,0.4,0.5,0.4c0.4,0,1-0.4,1.9-1.1v0.6c-0.5,0.5-0.9,0.9-1.2,1.2s-0.6,0.5-0.9,0.7s-0.5,0.3-0.7,0.3
		c-0.2,0-0.5-0.1-0.6-0.3s-0.2-0.6-0.2-1c0-0.3,0.1-0.5,0.2-0.9s0.3-0.7,0.6-1.1s0.5-0.8,0.8-1.1c-0.2,0-0.3,0.1-0.6,0.1
		s-0.4,0.1-0.7,0.1s-0.4,0.1-0.5,0.1C130.3,51.1,129.7,51.8,129,52.4z"/>
	<path d="M135.8,52v0.2c0,0.3,0.1,0.6,0.3,0.8s0.4,0.3,0.7,0.3c0.3,0,0.6-0.1,0.9-0.2s0.6-0.3,0.9-0.5s0.7-0.5,1.1-0.9v0.5
		c-0.7,0.8-1.3,1.4-1.9,1.8s-1.2,0.6-1.8,0.6c-0.5,0-0.9-0.2-1.2-0.6s-0.5-1-0.5-1.7c0-0.6,0.1-1.2,0.4-1.7s0.8-1,1.4-1.6
		c0.4-0.4,0.9-0.7,1.3-0.9s0.8-0.3,1.2-0.3c0.3,0,0.5,0.1,0.7,0.2s0.2,0.3,0.2,0.6c0,0.4-0.1,0.7-0.4,1.1s-0.7,0.7-1.3,1.1
		S136.6,51.7,135.8,52z M135.9,51.4c0.5-0.2,1-0.5,1.4-0.8s0.7-0.6,0.8-0.9s0.3-0.5,0.3-0.6c0-0.1-0.1-0.2-0.2-0.2
		c-0.1,0-0.3,0.1-0.5,0.2s-0.5,0.3-0.7,0.5s-0.5,0.5-0.7,0.8S135.9,51.1,135.9,51.4z"/>
	<path d="M146.6,52.3l-2.9,2.4c-0.8,1.4-1.6,2.5-2.2,3.2s-1.2,1.1-1.5,1.1c-0.2,0-0.3-0.1-0.3-0.3c0-0.4,0.2-1,0.6-1.6
		c0.2-0.3,0.4-0.5,0.6-0.8s0.4-0.5,0.6-0.6s0.5-0.4,0.8-0.7s0.5-0.4,0.7-0.5c0.6-1.2,1-2.1,1.3-2.7c-0.6,0.6-1,1.1-1.4,1.4
		s-0.8,0.7-1.1,0.9s-0.7,0.3-0.9,0.3c-0.3,0-0.6-0.2-0.8-0.7s-0.4-1-0.4-1.5c0-0.2,0.1-0.5,0.2-0.7s0.3-0.5,0.5-0.8s0.5-0.6,0.9-0.9
		s0.8-0.6,1.3-0.9c0.9-0.6,1.6-0.9,2.1-0.9c0.4,0,0.6,0.1,0.6,0.4c0,0.4-0.4,0.8-1.2,1.1c-0.5,0.2-1,0.5-1.5,0.9s-0.9,0.7-1.2,1.1
		s-0.5,0.8-0.5,1.1c0,0.2,0,0.3,0.1,0.4s0.2,0.1,0.3,0.1c0.2,0,0.4-0.1,0.7-0.3s0.7-0.5,1.2-1c0.2-0.2,0.5-0.6,0.9-1.1
		s0.7-0.9,1-1.1s0.5-0.4,0.7-0.4c0.1,0,0.2,0,0.3,0.1s0.1,0.2,0.1,0.3c0,0.3-0.1,0.7-0.3,1.2s-0.6,1.4-1.2,2.5l2.1-1.5V52.3z"/>
	<path d="M150.8,51.7v0.6c-0.6,0.7-1.1,1.3-1.6,1.7s-0.9,0.6-1.3,0.6c-0.5,0-0.8-0.3-1.1-0.8s-0.4-1.1-0.4-1.7c0-0.2,0-0.4,0.1-0.7
		s0.1-0.4,0.2-0.5s0.2-0.3,0.4-0.6c0.8-1.3,1.6-1.9,2.3-1.9c0.4,0,0.5,0.1,0.5,0.4c0,0.2-0.1,0.5-0.3,0.9s-0.4,0.7-0.6,0.9
		c-0.5,0.5-0.8,0.8-1,1s-0.2,0.4-0.2,0.7c0,0.2,0.1,0.4,0.2,0.5s0.4,0.2,0.6,0.2c0.3,0,0.6-0.1,0.9-0.3S150.2,52.1,150.8,51.7z
		 M150.2,47.8c-0.1,0-0.3-0.1-0.4-0.2s-0.2-0.3-0.2-0.4c0-0.3,0.1-0.5,0.4-0.9s0.5-0.5,0.8-0.5c0.2,0,0.3,0.1,0.4,0.2
		s0.2,0.3,0.2,0.5c0,0.3-0.1,0.5-0.4,0.8S150.5,47.8,150.2,47.8z"/>
	<path d="M150.7,51.9v-0.2c1.5-1.6,2.6-2.7,3.1-3.3c0.1-0.7,0.4-1.1,0.9-1.1c0.1,0,0.3,0,0.4,0.1l0.1,0.2c0,0.1,0,0.2,0,0.3
		c0,0.1,0,0.3,0.1,0.6s0.2,0.6,0.2,0.8s0.1,0.4,0.1,0.7c0,0.4-0.1,0.8-0.3,1.1s-0.4,0.7-0.8,1s-0.8,0.7-1.3,1c0.2,0,0.4,0.1,0.5,0.1
		c0.2,0,0.5-0.1,0.8-0.2s0.6-0.3,0.9-0.5s0.6-0.5,1-0.8v0.6c-0.8,0.7-1.4,1.3-2,1.7s-1.1,0.6-1.5,0.6c-0.6,0-1.1-0.2-1.5-0.7
		c-0.3-0.3-0.4-0.6-0.5-0.8S150.7,52.4,150.7,51.9z M153.9,50.6l-0.2-1.3c-0.4,0.4-1.1,1.2-2.3,2.4c0.4,0.1,0.6,0.2,0.7,0.3
		s0.3,0.4,0.5,0.7c0.4-0.2,0.7-0.4,0.9-0.7s0.3-0.7,0.3-1.2c0-0.1,0-0.1,0-0.2S153.9,50.6,153.9,50.6z"/>
	<path d="M159.4,47.1h0.4c0.3-0.6,0.6-1,0.8-1.2s0.5-0.3,0.9-0.3s0.5,0.1,0.5,0.2c0,0.1-0.1,0.3-0.4,0.6s-0.4,0.6-0.6,0.8
		c0.2,0,0.4,0,0.5,0.1s0.3,0,0.4,0c-0.3,0.6-0.8,1.3-1.3,1.9c-0.2,0-0.3,0-0.4,0s-0.2,0-0.3,0s-0.3,0-0.4,0c-0.3,0.5-0.6,1-0.8,1.4
		s-0.4,0.8-0.5,1.1s-0.2,0.7-0.2,0.9c0,0.4,0.2,0.6,0.5,0.6c0.2,0,0.5-0.1,0.9-0.4s0.8-0.6,1.4-1.1v0.6c-1.6,1.7-2.8,2.6-3.5,2.6
		c-0.3,0-0.5-0.1-0.6-0.3s-0.2-0.5-0.2-0.8c0-0.2,0-0.5,0.1-0.8s0.3-0.8,0.5-1.4c-0.1,0.1-0.2,0.1-0.2,0.2s-0.1,0.1-0.2,0.2
		s-0.1,0.1-0.2,0.2s-0.1,0.1-0.2,0.2v-0.6c0.6-0.5,1.4-1.4,2.2-2.7c-0.1,0-0.2,0-0.2,0s-0.2,0-0.3,0c-0.3,0-0.6,0-0.8,0.1
		c-0.1,0-0.1,0-0.2,0.1s-0.1,0-0.1,0s0,0,0-0.1c0-0.2,0.1-0.5,0.4-0.9c0.2-0.3,0.4-0.6,0.5-0.7s0.4-0.3,0.6-0.3
		S158.9,47.1,159.4,47.1z"/>
	<path d="M160.7,52.4v-0.6c0.3-0.4,0.6-0.7,0.7-1c-0.2-0.1-0.3-0.1-0.4-0.2s-0.1-0.2-0.1-0.4c0-0.2,0.1-0.5,0.3-0.8s0.4-0.6,0.7-0.9
		s0.5-0.5,0.7-0.5c0.1,0,0.2-0.1,0.2-0.1c0.1,0,0.2,0.1,0.2,0.2c0,0.1-0.1,0.3-0.3,0.6c1.2-0.2,2-0.3,2.3-0.3c0.1,0,0.2,0,0.3,0
		c0.1,0.1,0.2,0.2,0.2,0.4s0.1,0.4,0.1,0.6c0,0.1-0.1,0.3-0.2,0.4s-0.3,0.4-0.6,0.6c-0.3,0.3-0.6,0.7-0.8,1.1s-0.3,0.7-0.3,0.9
		c0,0.3,0.2,0.4,0.5,0.4c0.4,0,1-0.4,1.9-1.1v0.6c-0.5,0.5-0.9,0.9-1.2,1.2s-0.6,0.5-0.9,0.7s-0.5,0.3-0.7,0.3
		c-0.2,0-0.5-0.1-0.6-0.3s-0.2-0.6-0.2-1c0-0.3,0.1-0.5,0.2-0.9s0.3-0.7,0.6-1.1s0.5-0.8,0.8-1.1c-0.2,0-0.3,0.1-0.6,0.1
		s-0.4,0.1-0.7,0.1s-0.4,0.1-0.5,0.1C161.9,51.1,161.4,51.8,160.7,52.4z"/>
	<path d="M167.1,50.1c0.9-0.8,1.8-1.4,2.6-1.8s1.5-0.6,1.9-0.6c0.1,0,0.2,0.1,0.3,0.2s0.2,0.2,0.3,0.4s0.1,0.2,0.1,0.3
		c0,0.1,0,0.2-0.1,0.2s-0.2,0.1-0.4,0.2c0,0.1,0.1,0.2,0.2,0.4s0.1,0.3,0.1,0.4s0.1,0.2,0.1,0.2c0,0.1-0.1,0.4-0.4,0.8
		s-0.5,0.7-0.6,0.8s-0.2,0.4-0.2,0.7c0,0.4,0.2,0.7,0.6,0.7c0.4,0,1.1-0.4,1.9-1.2v0.5c-1.5,1.6-2.5,2.5-3.2,2.5
		c-0.2,0-0.4-0.1-0.5-0.2s-0.1-0.4-0.1-0.7c0-0.5,0.2-1.1,0.5-2c-0.9,0.9-1.5,1.6-1.9,2s-0.8,0.6-1,0.6c-0.1,0-0.3-0.1-0.5-0.3
		s-0.4-0.5-0.5-0.9s-0.2-0.7-0.2-1.1c0-0.3,0-0.5,0.1-0.7s0.2-0.4,0.3-0.6S166.8,50.4,167.1,50.1z M171.3,49.1
		c-1.5,0.7-2.6,1.3-3.3,1.8s-1,1-1,1.5c0,0.2,0,0.3,0.1,0.5s0.2,0.2,0.3,0.2c0.1,0,0.2,0,0.3-0.1c0.6-0.4,1.2-0.8,1.7-1.4
		S170.6,50.1,171.3,49.1z"/>
	<path d="M176.5,47.1h0.4c0.3-0.6,0.6-1,0.8-1.2s0.5-0.3,0.9-0.3s0.5,0.1,0.5,0.2c0,0.1-0.1,0.3-0.4,0.6s-0.4,0.6-0.6,0.8
		c0.2,0,0.4,0,0.5,0.1s0.3,0,0.4,0c-0.3,0.6-0.8,1.3-1.3,1.9c-0.2,0-0.3,0-0.4,0s-0.2,0-0.3,0s-0.3,0-0.4,0c-0.3,0.5-0.6,1-0.8,1.4
		s-0.4,0.8-0.5,1.1s-0.2,0.7-0.2,0.9c0,0.4,0.2,0.6,0.5,0.6c0.2,0,0.5-0.1,0.9-0.4s0.8-0.6,1.4-1.1v0.6c-1.6,1.7-2.8,2.6-3.5,2.6
		c-0.3,0-0.5-0.1-0.6-0.3s-0.2-0.5-0.2-0.8c0-0.2,0-0.5,0.1-0.8s0.3-0.8,0.5-1.4c-0.1,0.1-0.2,0.1-0.2,0.2s-0.1,0.1-0.2,0.2
		s-0.1,0.1-0.2,0.2s-0.1,0.1-0.2,0.2v-0.6c0.6-0.5,1.4-1.4,2.2-2.7c-0.1,0-0.2,0-0.2,0s-0.2,0-0.3,0c-0.3,0-0.6,0-0.8,0.1
		c-0.1,0-0.1,0-0.2,0.1s-0.1,0-0.1,0s0,0,0-0.1c0-0.2,0.1-0.5,0.4-0.9c0.2-0.3,0.4-0.6,0.5-0.7s0.4-0.3,0.6-0.3S176,47.1,176.5,47.1
		z"/>
	<path d="M182.1,51.7v0.6c-0.6,0.7-1.1,1.3-1.6,1.7s-0.9,0.6-1.3,0.6c-0.5,0-0.8-0.3-1.1-0.8s-0.4-1.1-0.4-1.7c0-0.2,0-0.4,0.1-0.7
		s0.1-0.4,0.2-0.5s0.2-0.3,0.4-0.6c0.8-1.3,1.6-1.9,2.3-1.9c0.4,0,0.5,0.1,0.5,0.4c0,0.2-0.1,0.5-0.3,0.9s-0.4,0.7-0.6,0.9
		c-0.5,0.5-0.8,0.8-1,1S179,52,179,52.2c0,0.2,0.1,0.4,0.2,0.5s0.4,0.2,0.6,0.2c0.3,0,0.6-0.1,0.9-0.3S181.5,52.1,182.1,51.7z
		 M181.5,47.8c-0.1,0-0.3-0.1-0.4-0.2s-0.2-0.3-0.2-0.4c0-0.3,0.1-0.5,0.4-0.9s0.5-0.5,0.8-0.5c0.2,0,0.3,0.1,0.4,0.2
		s0.2,0.3,0.2,0.5c0,0.3-0.1,0.5-0.4,0.8S181.7,47.8,181.5,47.8z"/>
	<path d="M187.6,51.7v0.6c-0.4,0.4-0.7,0.6-0.9,0.7s-0.6,0.2-1,0.1c-0.8,0.9-1.4,1.4-2,1.4c-0.3,0-0.6-0.1-0.9-0.3s-0.5-0.5-0.6-0.9
		s-0.2-0.8-0.2-1.3c0-0.4,0.1-0.8,0.4-1.2s0.6-0.9,1-1.3s0.8-0.7,1.3-1s0.9-0.4,1.3-0.4c0.3,0,0.5,0,0.7,0.1s0.2,0.2,0.2,0.4
		c0,0.1-0.1,0.3-0.2,0.4c0.2,0,0.4,0.1,0.5,0.2s0.1,0.3,0.1,0.6c0,0.3-0.1,0.6-0.2,1.1s-0.3,0.8-0.5,1.2l0.2,0.2h0.1
		c0.1,0,0.2,0,0.3-0.1s0.2-0.1,0.3-0.2S187.4,51.9,187.6,51.7z M185.8,49.4c-0.5,0.3-0.9,0.6-1.2,0.8s-0.6,0.5-0.9,0.7
		s-0.4,0.5-0.5,0.7c-0.1,0.7-0.2,1-0.2,1.1c0,0.4,0.3,0.6,0.8,0.6c0.3,0,0.7-0.2,1.3-0.7c-0.1-0.3-0.1-0.5-0.1-0.8
		c0-0.4,0.1-0.7,0.2-1.1S185.5,49.8,185.8,49.4z"/>
	<path d="M193.6,50.1c-1,1.1-1.5,1.9-1.5,2.4c0,0.3,0.1,0.4,0.3,0.4c0.2,0,0.4-0.1,0.7-0.3s0.7-0.5,1.3-1v0.6
		c-0.8,0.8-1.5,1.4-1.9,1.8s-0.8,0.5-1.1,0.5c-0.5,0-0.7-0.3-0.7-0.9c0-0.2,0-0.4,0.1-0.6s0.1-0.4,0.2-0.6s0.3-0.5,0.5-0.8
		s0.5-0.8,0.7-1.2c-0.3,0.2-0.8,0.5-1.3,1c-0.3,0.3-0.6,0.6-0.8,0.9s-0.5,0.6-0.7,0.9s-0.5,0.6-0.6,0.7s-0.2,0.2-0.4,0.2
		c-0.2,0-0.4-0.2-0.5-0.6s-0.2-0.8-0.2-1.4c0-0.3,0-0.6,0.1-0.8s0.2-0.4,0.4-0.8c0.4-0.6,0.8-1.1,1-1.4s0.6-0.4,0.8-0.4
		c0.2,0,0.3,0,0.5,0.1s0.2,0.2,0.2,0.3c0,0.1,0,0.1-0.1,0.2s-0.1,0.1-0.1,0.2s-0.1,0.2-0.3,0.3c-0.9,1-1.4,1.7-1.4,2
		c0,0.2,0.1,0.3,0.2,0.3c0.1,0,0.2-0.1,0.4-0.3s0.5-0.5,0.8-0.9s0.7-0.7,1.1-1.1s0.9-0.8,1.5-1.2c0.3-0.2,0.6-0.3,0.8-0.3
		c0.1,0,0.2,0.1,0.3,0.4s0.1,0.5,0.1,0.8C193.9,49.6,193.8,49.8,193.6,50.1z"/>
</g>
</svg>
